M48
; DRILL file {KiCad 5.1.10} date Wed Jun  2 01:10:17 2021
; FORMAT={-:-/ absolute / inch / decimal}
; #@! TF.CreationDate,2021-06-02T01:10:17+02:00
; #@! TF.GenerationSoftware,Kicad,Pcbnew,5.1.10
; #@! TF.FileFunction,Plated,1,2,PTH
FMAT,2
INCH
T1C0.0157
T2C0.0276
T3C0.0295
T4C0.0315
T5C0.0394
T6C0.0866
%
G90
G05
T1
X2.4803Y-2.6772
T2
X2.2441Y-2.4803
X2.2441Y-2.6803
X2.4016Y-2.4803
X2.4016Y-2.6803
X2.4016Y-2.989
X2.4016Y-3.189
X2.5591Y-2.989
X2.5591Y-3.189
X2.7165Y-2.989
X2.7165Y-3.189
X2.8512Y-2.3031
X2.874Y-2.989
X2.874Y-3.189
X3.0315Y-2.989
X3.0315Y-3.189
X3.0512Y-2.3031
X3.0512Y-2.4772
X3.0512Y-2.6772
X3.2087Y-2.4772
X3.2087Y-2.6772
T3
X2.6575Y-3.4055
X2.7075Y-3.4055
X2.7575Y-3.4055
T4
X2.2441Y-3.0512
X2.2441Y-3.1496
X2.3622Y-2.3031
X2.4016Y-3.3465
X2.4016Y-3.6465
X2.4606Y-2.3031
X2.6339Y-2.6575
X2.6614Y-2.7205
X2.7126Y-2.5748
X2.7205Y-2.7402
X2.7756Y-2.5984
X2.7992Y-2.6575
X3.0512Y-3.3465
X3.0512Y-3.6465
X3.189Y-3.0512
X3.189Y-3.1496
T5
X2.5984Y-1.9291
X2.6984Y-1.9291
X2.7984Y-1.9291
T6
X2.1654Y-4.3307
X2.185Y-1.8898
X2.4016Y-3.7992
X2.6181Y-3.7992
X2.815Y-3.7992
X3.0709Y-3.7992
X3.2677Y-1.8898
X3.2677Y-4.3307
T0
M30
