%TF.GenerationSoftware,KiCad,Pcbnew,5.1.10*%
%TF.CreationDate,2021-06-08T11:13:20+02:00*%
%TF.ProjectId,piezo-jfet,7069657a-6f2d-46a6-9665-742e6b696361,rev?*%
%TF.SameCoordinates,Original*%
%TF.FileFunction,Soldermask,Top*%
%TF.FilePolarity,Negative*%
%FSLAX46Y46*%
G04 Gerber Fmt 4.6, Leading zero omitted, Abs format (unit mm)*
G04 Created by KiCad (PCBNEW 5.1.10) date 2021-06-08 11:13:20*
%MOMM*%
%LPD*%
G01*
G04 APERTURE LIST*
%ADD10C,3.800000*%
%ADD11O,1.400000X1.400000*%
%ADD12C,1.400000*%
%ADD13C,1.600000*%
%ADD14O,1.600000X1.600000*%
%ADD15R,1.600000X1.600000*%
%ADD16R,1.050000X1.500000*%
%ADD17O,1.050000X1.500000*%
%ADD18C,1.300000*%
G04 APERTURE END LIST*
D10*
%TO.C,J7*%
X69525001Y-47675001D03*
%TD*%
%TO.C,J10*%
X74875001Y-47675001D03*
%TD*%
%TO.C,J1*%
X64175001Y-47675001D03*
%TD*%
D11*
%TO.C,R5*%
X72420000Y-58500000D03*
D12*
X77500000Y-58500000D03*
%TD*%
D13*
%TO.C,C1*%
X57000000Y-80000000D03*
X57000000Y-77500000D03*
%TD*%
%TO.C,C2*%
X60000000Y-58500000D03*
X62500000Y-58500000D03*
%TD*%
%TO.C,C3*%
X81000000Y-77500000D03*
X81000000Y-80000000D03*
%TD*%
D14*
%TO.C,D1*%
X61000000Y-85000000D03*
D15*
X61000000Y-92620000D03*
%TD*%
D14*
%TO.C,D2*%
X77500000Y-85000000D03*
D15*
X77500000Y-92620000D03*
%TD*%
D11*
%TO.C,R1*%
X57000000Y-63000000D03*
D12*
X57000000Y-68080000D03*
%TD*%
D11*
%TO.C,R2*%
X61000000Y-75920000D03*
D12*
X61000000Y-81000000D03*
%TD*%
D11*
%TO.C,R3*%
X61000000Y-63000000D03*
D12*
X61000000Y-68080000D03*
%TD*%
D11*
%TO.C,R4*%
X65000000Y-75920000D03*
D12*
X65000000Y-81000000D03*
%TD*%
D11*
%TO.C,R7*%
X77500000Y-62920000D03*
D12*
X77500000Y-68000000D03*
%TD*%
D11*
%TO.C,R8*%
X73000000Y-75920000D03*
D12*
X73000000Y-81000000D03*
%TD*%
D11*
%TO.C,R9*%
X81500000Y-62920000D03*
D12*
X81500000Y-68000000D03*
%TD*%
D11*
%TO.C,R10*%
X77000000Y-75920000D03*
D12*
X77000000Y-81000000D03*
%TD*%
D16*
%TO.C,Q1*%
X67500000Y-86500000D03*
D17*
X70040000Y-86500000D03*
X68770000Y-86500000D03*
%TD*%
D11*
%TO.C,R12*%
X69000000Y-75920000D03*
D12*
X69000000Y-81000000D03*
%TD*%
D10*
%TO.C,J2*%
X55500000Y-48000000D03*
%TD*%
%TO.C,J3*%
X55000000Y-110000000D03*
%TD*%
%TO.C,J4*%
X83000000Y-48000000D03*
%TD*%
%TO.C,J5*%
X83000000Y-110000000D03*
%TD*%
%TO.C,J6*%
X61000000Y-96500000D03*
%TD*%
%TO.C,J8*%
X69000000Y-96500000D03*
%TD*%
%TO.C,J9*%
X78000000Y-96500000D03*
%TD*%
D18*
%TO.C,Q2*%
X69100000Y-69600000D03*
X67600000Y-69100000D03*
X66900000Y-67500000D03*
X68900000Y-65400000D03*
X70500000Y-66000000D03*
X71100000Y-67500000D03*
%TD*%
M02*
