%FSLAX45Y45*%
G04 Gerber Fmt 4.5, Leading zero omitted, Abs format (unit mm)*
G04 Created by KiCad (PCBNEW 5.1.10) date 2021-06-03 17:31:42*
%MOMM*%
%LPD*%
G01*
G04 APERTURE LIST*
%TA.AperFunction,Profile*%
%ADD10C,0.050000*%
%TD*%
%ADD11C,0.200000*%
%ADD12C,0.300000*%
G04 APERTURE END LIST*
D10*
X5200000Y-4500000D02*
X8600000Y-4500000D01*
X8600000Y-11300000D02*
X8600000Y-4500000D01*
X5200000Y-11300000D02*
X8600000Y-11300000D01*
X5200000Y-4500000D02*
X5200000Y-11300000D01*
D11*
X6280000Y-6780000D02*
X6320000Y-6820000D01*
X6320000Y-6780000D02*
X6280000Y-6820000D01*
X5735000Y-6300000D02*
G75*
G03*
X5735000Y-6300000I-35000J0D01*
G01*
X5735000Y-6808000D02*
G75*
G03*
X5735000Y-6808000I-35000J0D01*
G01*
X6135000Y-6300000D02*
G75*
G03*
X6135000Y-6300000I-35000J0D01*
G01*
X6135000Y-6808000D02*
G75*
G03*
X6135000Y-6808000I-35000J0D01*
G01*
X6135000Y-7592000D02*
G75*
G03*
X6135000Y-7592000I-35000J0D01*
G01*
X6135000Y-8100000D02*
G75*
G03*
X6135000Y-8100000I-35000J0D01*
G01*
X6535000Y-7592000D02*
G75*
G03*
X6535000Y-7592000I-35000J0D01*
G01*
X6535000Y-8100000D02*
G75*
G03*
X6535000Y-8100000I-35000J0D01*
G01*
X6935000Y-7592000D02*
G75*
G03*
X6935000Y-7592000I-35000J0D01*
G01*
X6935000Y-8100000D02*
G75*
G03*
X6935000Y-8100000I-35000J0D01*
G01*
X7277000Y-5850000D02*
G75*
G03*
X7277000Y-5850000I-35000J0D01*
G01*
X7335000Y-7592000D02*
G75*
G03*
X7335000Y-7592000I-35000J0D01*
G01*
X7335000Y-8100000D02*
G75*
G03*
X7335000Y-8100000I-35000J0D01*
G01*
X7735000Y-7592000D02*
G75*
G03*
X7735000Y-7592000I-35000J0D01*
G01*
X7735000Y-8100000D02*
G75*
G03*
X7735000Y-8100000I-35000J0D01*
G01*
X7785000Y-5850000D02*
G75*
G03*
X7785000Y-5850000I-35000J0D01*
G01*
X7785000Y-6292000D02*
G75*
G03*
X7785000Y-6292000I-35000J0D01*
G01*
X7785000Y-6800000D02*
G75*
G03*
X7785000Y-6800000I-35000J0D01*
G01*
X8185000Y-6292000D02*
G75*
G03*
X8185000Y-6292000I-35000J0D01*
G01*
X8185000Y-6800000D02*
G75*
G03*
X8185000Y-6800000I-35000J0D01*
G01*
X6750000Y-8612500D02*
X6750000Y-8687500D01*
X6712500Y-8650000D02*
X6787500Y-8650000D01*
X6877000Y-8612500D02*
X6877000Y-8687500D01*
X6839500Y-8650000D02*
X6914500Y-8650000D01*
X7004000Y-8612500D02*
X7004000Y-8687500D01*
X6966500Y-8650000D02*
X7041500Y-8650000D01*
X5728284Y-7778284D02*
X5728284Y-7721715D01*
X5671715Y-7721715D01*
X5671715Y-7778284D01*
X5728284Y-7778284D01*
X5728284Y-8028284D02*
X5728284Y-7971715D01*
X5671715Y-7971715D01*
X5671715Y-8028284D01*
X5728284Y-8028284D01*
X6028284Y-5878284D02*
X6028284Y-5821715D01*
X5971715Y-5821715D01*
X5971715Y-5878284D01*
X6028284Y-5878284D01*
X6128284Y-8528285D02*
X6128284Y-8471716D01*
X6071715Y-8471716D01*
X6071715Y-8528285D01*
X6128284Y-8528285D01*
X6128284Y-9290285D02*
X6128284Y-9233716D01*
X6071715Y-9233716D01*
X6071715Y-9290285D01*
X6128284Y-9290285D01*
X6278284Y-5878284D02*
X6278284Y-5821715D01*
X6221715Y-5821715D01*
X6221715Y-5878284D01*
X6278284Y-5878284D01*
X6718284Y-6778284D02*
X6718284Y-6721715D01*
X6661715Y-6721715D01*
X6661715Y-6778284D01*
X6718284Y-6778284D01*
X6788284Y-6938284D02*
X6788284Y-6881715D01*
X6731715Y-6881715D01*
X6731715Y-6938284D01*
X6788284Y-6938284D01*
X6918284Y-6568284D02*
X6918284Y-6511715D01*
X6861715Y-6511715D01*
X6861715Y-6568284D01*
X6918284Y-6568284D01*
X6938284Y-6988284D02*
X6938284Y-6931715D01*
X6881715Y-6931715D01*
X6881715Y-6988284D01*
X6938284Y-6988284D01*
X7078284Y-6628284D02*
X7078284Y-6571715D01*
X7021715Y-6571715D01*
X7021715Y-6628284D01*
X7078284Y-6628284D01*
X7138284Y-6778284D02*
X7138284Y-6721715D01*
X7081715Y-6721715D01*
X7081715Y-6778284D01*
X7138284Y-6778284D01*
X7778284Y-8528285D02*
X7778284Y-8471716D01*
X7721715Y-8471716D01*
X7721715Y-8528285D01*
X7778284Y-8528285D01*
X7778284Y-9290285D02*
X7778284Y-9233716D01*
X7721715Y-9233716D01*
X7721715Y-9290285D01*
X7778284Y-9290285D01*
X8128284Y-7778284D02*
X8128284Y-7721715D01*
X8071715Y-7721715D01*
X8071715Y-7778284D01*
X8128284Y-7778284D01*
X8128284Y-8028284D02*
X8128284Y-7971715D01*
X8071715Y-7971715D01*
X8071715Y-8028284D01*
X8128284Y-8028284D01*
X6600000Y-4950000D02*
X6650000Y-4900000D01*
X6600000Y-4850000D01*
X6550000Y-4900000D01*
X6600000Y-4950000D01*
X6854000Y-4950000D02*
X6904000Y-4900000D01*
X6854000Y-4850000D01*
X6804000Y-4900000D01*
X6854000Y-4950000D01*
X7108000Y-4950000D02*
X7158000Y-4900000D01*
X7108000Y-4850000D01*
X7058000Y-4900000D01*
X7108000Y-4950000D01*
X5390000Y-10890000D02*
X5610000Y-11110000D01*
X5610000Y-10890000D02*
X5390000Y-11110000D01*
X5610000Y-11000000D02*
G75*
G03*
X5610000Y-11000000I-110000J0D01*
G01*
X5440000Y-4690000D02*
X5660000Y-4910000D01*
X5660000Y-4690000D02*
X5440000Y-4910000D01*
X5660000Y-4800000D02*
G75*
G03*
X5660000Y-4800000I-110000J0D01*
G01*
X5990000Y-9540000D02*
X6210000Y-9760000D01*
X6210000Y-9540000D02*
X5990000Y-9760000D01*
X6210000Y-9650000D02*
G75*
G03*
X6210000Y-9650000I-110000J0D01*
G01*
X6540000Y-9540000D02*
X6760000Y-9760000D01*
X6760000Y-9540000D02*
X6540000Y-9760000D01*
X6760000Y-9650000D02*
G75*
G03*
X6760000Y-9650000I-110000J0D01*
G01*
X7040000Y-9540000D02*
X7260000Y-9760000D01*
X7260000Y-9540000D02*
X7040000Y-9760000D01*
X7260000Y-9650000D02*
G75*
G03*
X7260000Y-9650000I-110000J0D01*
G01*
X7690000Y-9540000D02*
X7910000Y-9760000D01*
X7910000Y-9540000D02*
X7690000Y-9760000D01*
X7910000Y-9650000D02*
G75*
G03*
X7910000Y-9650000I-110000J0D01*
G01*
X8190000Y-4690000D02*
X8410000Y-4910000D01*
X8410000Y-4690000D02*
X8190000Y-4910000D01*
X8410000Y-4800000D02*
G75*
G03*
X8410000Y-4800000I-110000J0D01*
G01*
X8190000Y-10890000D02*
X8410000Y-11110000D01*
X8410000Y-10890000D02*
X8190000Y-11110000D01*
X8410000Y-11000000D02*
G75*
G03*
X8410000Y-11000000I-110000J0D01*
G01*
D12*
X5483928Y-11768214D02*
X5483928Y-11468214D01*
X5555357Y-11468214D01*
X5598214Y-11482500D01*
X5626786Y-11511071D01*
X5641071Y-11539643D01*
X5655357Y-11596786D01*
X5655357Y-11639643D01*
X5641071Y-11696786D01*
X5626786Y-11725357D01*
X5598214Y-11753929D01*
X5555357Y-11768214D01*
X5483928Y-11768214D01*
X5783928Y-11768214D02*
X5783928Y-11568214D01*
X5783928Y-11625357D02*
X5798214Y-11596786D01*
X5812500Y-11582500D01*
X5841071Y-11568214D01*
X5869643Y-11568214D01*
X5969643Y-11768214D02*
X5969643Y-11568214D01*
X5969643Y-11468214D02*
X5955357Y-11482500D01*
X5969643Y-11496786D01*
X5983928Y-11482500D01*
X5969643Y-11468214D01*
X5969643Y-11496786D01*
X6155357Y-11768214D02*
X6126786Y-11753929D01*
X6112500Y-11725357D01*
X6112500Y-11468214D01*
X6312500Y-11768214D02*
X6283928Y-11753929D01*
X6269643Y-11725357D01*
X6269643Y-11468214D01*
X6655357Y-11768214D02*
X6655357Y-11468214D01*
X6755357Y-11682500D01*
X6855357Y-11468214D01*
X6855357Y-11768214D01*
X7126786Y-11768214D02*
X7126786Y-11611071D01*
X7112500Y-11582500D01*
X7083928Y-11568214D01*
X7026786Y-11568214D01*
X6998214Y-11582500D01*
X7126786Y-11753929D02*
X7098214Y-11768214D01*
X7026786Y-11768214D01*
X6998214Y-11753929D01*
X6983928Y-11725357D01*
X6983928Y-11696786D01*
X6998214Y-11668214D01*
X7026786Y-11653929D01*
X7098214Y-11653929D01*
X7126786Y-11639643D01*
X7269643Y-11568214D02*
X7269643Y-11868214D01*
X7269643Y-11582500D02*
X7298214Y-11568214D01*
X7355357Y-11568214D01*
X7383928Y-11582500D01*
X7398214Y-11596786D01*
X7412500Y-11625357D01*
X7412500Y-11711071D01*
X7398214Y-11739643D01*
X7383928Y-11753929D01*
X7355357Y-11768214D01*
X7298214Y-11768214D01*
X7269643Y-11753929D01*
X7541071Y-11739643D02*
X7555357Y-11753929D01*
X7541071Y-11768214D01*
X7526786Y-11753929D01*
X7541071Y-11739643D01*
X7541071Y-11768214D01*
X7541071Y-11582500D02*
X7555357Y-11596786D01*
X7541071Y-11611071D01*
X7526786Y-11596786D01*
X7541071Y-11582500D01*
X7541071Y-11611071D01*
X5157500Y-12242500D02*
X5197500Y-12282500D01*
X5197500Y-12242500D02*
X5157500Y-12282500D01*
X5541071Y-12098214D02*
X5569643Y-12098214D01*
X5598214Y-12112500D01*
X5612500Y-12126786D01*
X5626786Y-12155357D01*
X5641071Y-12212500D01*
X5641071Y-12283929D01*
X5626786Y-12341071D01*
X5612500Y-12369643D01*
X5598214Y-12383929D01*
X5569643Y-12398214D01*
X5541071Y-12398214D01*
X5512500Y-12383929D01*
X5498214Y-12369643D01*
X5483928Y-12341071D01*
X5469643Y-12283929D01*
X5469643Y-12212500D01*
X5483928Y-12155357D01*
X5498214Y-12126786D01*
X5512500Y-12112500D01*
X5541071Y-12098214D01*
X5769643Y-12369643D02*
X5783928Y-12383929D01*
X5769643Y-12398214D01*
X5755357Y-12383929D01*
X5769643Y-12369643D01*
X5769643Y-12398214D01*
X6041071Y-12198214D02*
X6041071Y-12398214D01*
X5969643Y-12083929D02*
X5898214Y-12298214D01*
X6083928Y-12298214D01*
X6255357Y-12098214D02*
X6283928Y-12098214D01*
X6312500Y-12112500D01*
X6326786Y-12126786D01*
X6341071Y-12155357D01*
X6355357Y-12212500D01*
X6355357Y-12283929D01*
X6341071Y-12341071D01*
X6326786Y-12369643D01*
X6312500Y-12383929D01*
X6283928Y-12398214D01*
X6255357Y-12398214D01*
X6226786Y-12383929D01*
X6212500Y-12369643D01*
X6198214Y-12341071D01*
X6183928Y-12283929D01*
X6183928Y-12212500D01*
X6198214Y-12155357D01*
X6212500Y-12126786D01*
X6226786Y-12112500D01*
X6255357Y-12098214D01*
X6541071Y-12098214D02*
X6569643Y-12098214D01*
X6598214Y-12112500D01*
X6612500Y-12126786D01*
X6626786Y-12155357D01*
X6641071Y-12212500D01*
X6641071Y-12283929D01*
X6626786Y-12341071D01*
X6612500Y-12369643D01*
X6598214Y-12383929D01*
X6569643Y-12398214D01*
X6541071Y-12398214D01*
X6512500Y-12383929D01*
X6498214Y-12369643D01*
X6483928Y-12341071D01*
X6469643Y-12283929D01*
X6469643Y-12212500D01*
X6483928Y-12155357D01*
X6498214Y-12126786D01*
X6512500Y-12112500D01*
X6541071Y-12098214D01*
X6769643Y-12398214D02*
X6769643Y-12198214D01*
X6769643Y-12226786D02*
X6783928Y-12212500D01*
X6812500Y-12198214D01*
X6855357Y-12198214D01*
X6883928Y-12212500D01*
X6898214Y-12241071D01*
X6898214Y-12398214D01*
X6898214Y-12241071D02*
X6912500Y-12212500D01*
X6941071Y-12198214D01*
X6983928Y-12198214D01*
X7012500Y-12212500D01*
X7026786Y-12241071D01*
X7026786Y-12398214D01*
X7169643Y-12398214D02*
X7169643Y-12198214D01*
X7169643Y-12226786D02*
X7183928Y-12212500D01*
X7212500Y-12198214D01*
X7255357Y-12198214D01*
X7283928Y-12212500D01*
X7298214Y-12241071D01*
X7298214Y-12398214D01*
X7298214Y-12241071D02*
X7312500Y-12212500D01*
X7341071Y-12198214D01*
X7383928Y-12198214D01*
X7412500Y-12212500D01*
X7426786Y-12241071D01*
X7426786Y-12398214D01*
X8012500Y-12083929D02*
X7755357Y-12469643D01*
X8398214Y-12098214D02*
X8426786Y-12098214D01*
X8455357Y-12112500D01*
X8469643Y-12126786D01*
X8483928Y-12155357D01*
X8498214Y-12212500D01*
X8498214Y-12283929D01*
X8483928Y-12341071D01*
X8469643Y-12369643D01*
X8455357Y-12383929D01*
X8426786Y-12398214D01*
X8398214Y-12398214D01*
X8369643Y-12383929D01*
X8355357Y-12369643D01*
X8341071Y-12341071D01*
X8326786Y-12283929D01*
X8326786Y-12212500D01*
X8341071Y-12155357D01*
X8355357Y-12126786D01*
X8369643Y-12112500D01*
X8398214Y-12098214D01*
X8626786Y-12369643D02*
X8641071Y-12383929D01*
X8626786Y-12398214D01*
X8612500Y-12383929D01*
X8626786Y-12369643D01*
X8626786Y-12398214D01*
X8826786Y-12098214D02*
X8855357Y-12098214D01*
X8883928Y-12112500D01*
X8898214Y-12126786D01*
X8912500Y-12155357D01*
X8926786Y-12212500D01*
X8926786Y-12283929D01*
X8912500Y-12341071D01*
X8898214Y-12369643D01*
X8883928Y-12383929D01*
X8855357Y-12398214D01*
X8826786Y-12398214D01*
X8798214Y-12383929D01*
X8783928Y-12369643D01*
X8769643Y-12341071D01*
X8755357Y-12283929D01*
X8755357Y-12212500D01*
X8769643Y-12155357D01*
X8783928Y-12126786D01*
X8798214Y-12112500D01*
X8826786Y-12098214D01*
X9212500Y-12398214D02*
X9041071Y-12398214D01*
X9126786Y-12398214D02*
X9126786Y-12098214D01*
X9098214Y-12141071D01*
X9069643Y-12169643D01*
X9041071Y-12183929D01*
X9483928Y-12098214D02*
X9341071Y-12098214D01*
X9326786Y-12241071D01*
X9341071Y-12226786D01*
X9369643Y-12212500D01*
X9441071Y-12212500D01*
X9469643Y-12226786D01*
X9483928Y-12241071D01*
X9498214Y-12269643D01*
X9498214Y-12341071D01*
X9483928Y-12369643D01*
X9469643Y-12383929D01*
X9441071Y-12398214D01*
X9369643Y-12398214D01*
X9341071Y-12383929D01*
X9326786Y-12369643D01*
X9598214Y-12098214D02*
X9798214Y-12098214D01*
X9669643Y-12398214D01*
X9898214Y-12098214D02*
X9898214Y-12155357D01*
X10012500Y-12098214D02*
X10012500Y-12155357D01*
X10455357Y-12512500D02*
X10441071Y-12498214D01*
X10412500Y-12455357D01*
X10398214Y-12426786D01*
X10383928Y-12383929D01*
X10369643Y-12312500D01*
X10369643Y-12255357D01*
X10383928Y-12183929D01*
X10398214Y-12141071D01*
X10412500Y-12112500D01*
X10441071Y-12069643D01*
X10455357Y-12055357D01*
X10726786Y-12398214D02*
X10555357Y-12398214D01*
X10641071Y-12398214D02*
X10641071Y-12098214D01*
X10612500Y-12141071D01*
X10583928Y-12169643D01*
X10555357Y-12183929D01*
X11083928Y-12398214D02*
X11083928Y-12098214D01*
X11212500Y-12398214D02*
X11212500Y-12241071D01*
X11198214Y-12212500D01*
X11169643Y-12198214D01*
X11126786Y-12198214D01*
X11098214Y-12212500D01*
X11083928Y-12226786D01*
X11398214Y-12398214D02*
X11369643Y-12383929D01*
X11355357Y-12369643D01*
X11341071Y-12341071D01*
X11341071Y-12255357D01*
X11355357Y-12226786D01*
X11369643Y-12212500D01*
X11398214Y-12198214D01*
X11441071Y-12198214D01*
X11469643Y-12212500D01*
X11483928Y-12226786D01*
X11498214Y-12255357D01*
X11498214Y-12341071D01*
X11483928Y-12369643D01*
X11469643Y-12383929D01*
X11441071Y-12398214D01*
X11398214Y-12398214D01*
X11669643Y-12398214D02*
X11641071Y-12383929D01*
X11626786Y-12355357D01*
X11626786Y-12098214D01*
X11898214Y-12383929D02*
X11869643Y-12398214D01*
X11812500Y-12398214D01*
X11783928Y-12383929D01*
X11769643Y-12355357D01*
X11769643Y-12241071D01*
X11783928Y-12212500D01*
X11812500Y-12198214D01*
X11869643Y-12198214D01*
X11898214Y-12212500D01*
X11912500Y-12241071D01*
X11912500Y-12269643D01*
X11769643Y-12298214D01*
X12012500Y-12512500D02*
X12026786Y-12498214D01*
X12055357Y-12455357D01*
X12069643Y-12426786D01*
X12083928Y-12383929D01*
X12098214Y-12312500D01*
X12098214Y-12255357D01*
X12083928Y-12183929D01*
X12069643Y-12141071D01*
X12055357Y-12112500D01*
X12026786Y-12069643D01*
X12012500Y-12055357D01*
X5197500Y-12658500D02*
G75*
G03*
X5197500Y-12658500I-35000J0D01*
G01*
X5541071Y-12494214D02*
X5569643Y-12494214D01*
X5598214Y-12508500D01*
X5612500Y-12522786D01*
X5626786Y-12551357D01*
X5641071Y-12608500D01*
X5641071Y-12679929D01*
X5626786Y-12737071D01*
X5612500Y-12765643D01*
X5598214Y-12779929D01*
X5569643Y-12794214D01*
X5541071Y-12794214D01*
X5512500Y-12779929D01*
X5498214Y-12765643D01*
X5483928Y-12737071D01*
X5469643Y-12679929D01*
X5469643Y-12608500D01*
X5483928Y-12551357D01*
X5498214Y-12522786D01*
X5512500Y-12508500D01*
X5541071Y-12494214D01*
X5769643Y-12765643D02*
X5783928Y-12779929D01*
X5769643Y-12794214D01*
X5755357Y-12779929D01*
X5769643Y-12765643D01*
X5769643Y-12794214D01*
X5883928Y-12494214D02*
X6083928Y-12494214D01*
X5955357Y-12794214D01*
X6255357Y-12494214D02*
X6283928Y-12494214D01*
X6312500Y-12508500D01*
X6326786Y-12522786D01*
X6341071Y-12551357D01*
X6355357Y-12608500D01*
X6355357Y-12679929D01*
X6341071Y-12737071D01*
X6326786Y-12765643D01*
X6312500Y-12779929D01*
X6283928Y-12794214D01*
X6255357Y-12794214D01*
X6226786Y-12779929D01*
X6212500Y-12765643D01*
X6198214Y-12737071D01*
X6183928Y-12679929D01*
X6183928Y-12608500D01*
X6198214Y-12551357D01*
X6212500Y-12522786D01*
X6226786Y-12508500D01*
X6255357Y-12494214D01*
X6541071Y-12494214D02*
X6569643Y-12494214D01*
X6598214Y-12508500D01*
X6612500Y-12522786D01*
X6626786Y-12551357D01*
X6641071Y-12608500D01*
X6641071Y-12679929D01*
X6626786Y-12737071D01*
X6612500Y-12765643D01*
X6598214Y-12779929D01*
X6569643Y-12794214D01*
X6541071Y-12794214D01*
X6512500Y-12779929D01*
X6498214Y-12765643D01*
X6483928Y-12737071D01*
X6469643Y-12679929D01*
X6469643Y-12608500D01*
X6483928Y-12551357D01*
X6498214Y-12522786D01*
X6512500Y-12508500D01*
X6541071Y-12494214D01*
X6769643Y-12794214D02*
X6769643Y-12594214D01*
X6769643Y-12622786D02*
X6783928Y-12608500D01*
X6812500Y-12594214D01*
X6855357Y-12594214D01*
X6883928Y-12608500D01*
X6898214Y-12637071D01*
X6898214Y-12794214D01*
X6898214Y-12637071D02*
X6912500Y-12608500D01*
X6941071Y-12594214D01*
X6983928Y-12594214D01*
X7012500Y-12608500D01*
X7026786Y-12637071D01*
X7026786Y-12794214D01*
X7169643Y-12794214D02*
X7169643Y-12594214D01*
X7169643Y-12622786D02*
X7183928Y-12608500D01*
X7212500Y-12594214D01*
X7255357Y-12594214D01*
X7283928Y-12608500D01*
X7298214Y-12637071D01*
X7298214Y-12794214D01*
X7298214Y-12637071D02*
X7312500Y-12608500D01*
X7341071Y-12594214D01*
X7383928Y-12594214D01*
X7412500Y-12608500D01*
X7426786Y-12637071D01*
X7426786Y-12794214D01*
X8012500Y-12479929D02*
X7755357Y-12865643D01*
X8398214Y-12494214D02*
X8426786Y-12494214D01*
X8455357Y-12508500D01*
X8469643Y-12522786D01*
X8483928Y-12551357D01*
X8498214Y-12608500D01*
X8498214Y-12679929D01*
X8483928Y-12737071D01*
X8469643Y-12765643D01*
X8455357Y-12779929D01*
X8426786Y-12794214D01*
X8398214Y-12794214D01*
X8369643Y-12779929D01*
X8355357Y-12765643D01*
X8341071Y-12737071D01*
X8326786Y-12679929D01*
X8326786Y-12608500D01*
X8341071Y-12551357D01*
X8355357Y-12522786D01*
X8369643Y-12508500D01*
X8398214Y-12494214D01*
X8626786Y-12765643D02*
X8641071Y-12779929D01*
X8626786Y-12794214D01*
X8612500Y-12779929D01*
X8626786Y-12765643D01*
X8626786Y-12794214D01*
X8826786Y-12494214D02*
X8855357Y-12494214D01*
X8883928Y-12508500D01*
X8898214Y-12522786D01*
X8912500Y-12551357D01*
X8926786Y-12608500D01*
X8926786Y-12679929D01*
X8912500Y-12737071D01*
X8898214Y-12765643D01*
X8883928Y-12779929D01*
X8855357Y-12794214D01*
X8826786Y-12794214D01*
X8798214Y-12779929D01*
X8783928Y-12765643D01*
X8769643Y-12737071D01*
X8755357Y-12679929D01*
X8755357Y-12608500D01*
X8769643Y-12551357D01*
X8783928Y-12522786D01*
X8798214Y-12508500D01*
X8826786Y-12494214D01*
X9041071Y-12522786D02*
X9055357Y-12508500D01*
X9083928Y-12494214D01*
X9155357Y-12494214D01*
X9183928Y-12508500D01*
X9198214Y-12522786D01*
X9212500Y-12551357D01*
X9212500Y-12579929D01*
X9198214Y-12622786D01*
X9026786Y-12794214D01*
X9212500Y-12794214D01*
X9312500Y-12494214D02*
X9512500Y-12494214D01*
X9383928Y-12794214D01*
X9755357Y-12494214D02*
X9698214Y-12494214D01*
X9669643Y-12508500D01*
X9655357Y-12522786D01*
X9626786Y-12565643D01*
X9612500Y-12622786D01*
X9612500Y-12737071D01*
X9626786Y-12765643D01*
X9641071Y-12779929D01*
X9669643Y-12794214D01*
X9726786Y-12794214D01*
X9755357Y-12779929D01*
X9769643Y-12765643D01*
X9783928Y-12737071D01*
X9783928Y-12665643D01*
X9769643Y-12637071D01*
X9755357Y-12622786D01*
X9726786Y-12608500D01*
X9669643Y-12608500D01*
X9641071Y-12622786D01*
X9626786Y-12637071D01*
X9612500Y-12665643D01*
X9898214Y-12494214D02*
X9898214Y-12551357D01*
X10012500Y-12494214D02*
X10012500Y-12551357D01*
X10455357Y-12908500D02*
X10441071Y-12894214D01*
X10412500Y-12851357D01*
X10398214Y-12822786D01*
X10383928Y-12779929D01*
X10369643Y-12708500D01*
X10369643Y-12651357D01*
X10383928Y-12579929D01*
X10398214Y-12537071D01*
X10412500Y-12508500D01*
X10441071Y-12465643D01*
X10455357Y-12451357D01*
X10555357Y-12522786D02*
X10569643Y-12508500D01*
X10598214Y-12494214D01*
X10669643Y-12494214D01*
X10698214Y-12508500D01*
X10712500Y-12522786D01*
X10726786Y-12551357D01*
X10726786Y-12579929D01*
X10712500Y-12622786D01*
X10541071Y-12794214D01*
X10726786Y-12794214D01*
X10912500Y-12494214D02*
X10941071Y-12494214D01*
X10969643Y-12508500D01*
X10983928Y-12522786D01*
X10998214Y-12551357D01*
X11012500Y-12608500D01*
X11012500Y-12679929D01*
X10998214Y-12737071D01*
X10983928Y-12765643D01*
X10969643Y-12779929D01*
X10941071Y-12794214D01*
X10912500Y-12794214D01*
X10883928Y-12779929D01*
X10869643Y-12765643D01*
X10855357Y-12737071D01*
X10841071Y-12679929D01*
X10841071Y-12608500D01*
X10855357Y-12551357D01*
X10869643Y-12522786D01*
X10883928Y-12508500D01*
X10912500Y-12494214D01*
X11369643Y-12794214D02*
X11369643Y-12494214D01*
X11498214Y-12794214D02*
X11498214Y-12637071D01*
X11483928Y-12608500D01*
X11455357Y-12594214D01*
X11412500Y-12594214D01*
X11383928Y-12608500D01*
X11369643Y-12622786D01*
X11683928Y-12794214D02*
X11655357Y-12779929D01*
X11641071Y-12765643D01*
X11626786Y-12737071D01*
X11626786Y-12651357D01*
X11641071Y-12622786D01*
X11655357Y-12608500D01*
X11683928Y-12594214D01*
X11726786Y-12594214D01*
X11755357Y-12608500D01*
X11769643Y-12622786D01*
X11783928Y-12651357D01*
X11783928Y-12737071D01*
X11769643Y-12765643D01*
X11755357Y-12779929D01*
X11726786Y-12794214D01*
X11683928Y-12794214D01*
X11955357Y-12794214D02*
X11926786Y-12779929D01*
X11912500Y-12751357D01*
X11912500Y-12494214D01*
X12183928Y-12779929D02*
X12155357Y-12794214D01*
X12098214Y-12794214D01*
X12069643Y-12779929D01*
X12055357Y-12751357D01*
X12055357Y-12637071D01*
X12069643Y-12608500D01*
X12098214Y-12594214D01*
X12155357Y-12594214D01*
X12183928Y-12608500D01*
X12198214Y-12637071D01*
X12198214Y-12665643D01*
X12055357Y-12694214D01*
X12312500Y-12779929D02*
X12341071Y-12794214D01*
X12398214Y-12794214D01*
X12426786Y-12779929D01*
X12441071Y-12751357D01*
X12441071Y-12737071D01*
X12426786Y-12708500D01*
X12398214Y-12694214D01*
X12355357Y-12694214D01*
X12326786Y-12679929D01*
X12312500Y-12651357D01*
X12312500Y-12637071D01*
X12326786Y-12608500D01*
X12355357Y-12594214D01*
X12398214Y-12594214D01*
X12426786Y-12608500D01*
X12541071Y-12908500D02*
X12555357Y-12894214D01*
X12583928Y-12851357D01*
X12598214Y-12822786D01*
X12612500Y-12779929D01*
X12626786Y-12708500D01*
X12626786Y-12651357D01*
X12612500Y-12579929D01*
X12598214Y-12537071D01*
X12583928Y-12508500D01*
X12555357Y-12465643D01*
X12541071Y-12451357D01*
X5160000Y-13017000D02*
X5160000Y-13092000D01*
X5122500Y-13054500D02*
X5197500Y-13054500D01*
X5541071Y-12890214D02*
X5569643Y-12890214D01*
X5598214Y-12904500D01*
X5612500Y-12918786D01*
X5626786Y-12947357D01*
X5641071Y-13004500D01*
X5641071Y-13075929D01*
X5626786Y-13133071D01*
X5612500Y-13161643D01*
X5598214Y-13175929D01*
X5569643Y-13190214D01*
X5541071Y-13190214D01*
X5512500Y-13175929D01*
X5498214Y-13161643D01*
X5483928Y-13133071D01*
X5469643Y-13075929D01*
X5469643Y-13004500D01*
X5483928Y-12947357D01*
X5498214Y-12918786D01*
X5512500Y-12904500D01*
X5541071Y-12890214D01*
X5769643Y-13161643D02*
X5783928Y-13175929D01*
X5769643Y-13190214D01*
X5755357Y-13175929D01*
X5769643Y-13161643D01*
X5769643Y-13190214D01*
X5883928Y-12890214D02*
X6083928Y-12890214D01*
X5955357Y-13190214D01*
X6341071Y-12890214D02*
X6198214Y-12890214D01*
X6183928Y-13033071D01*
X6198214Y-13018786D01*
X6226786Y-13004500D01*
X6298214Y-13004500D01*
X6326786Y-13018786D01*
X6341071Y-13033071D01*
X6355357Y-13061643D01*
X6355357Y-13133071D01*
X6341071Y-13161643D01*
X6326786Y-13175929D01*
X6298214Y-13190214D01*
X6226786Y-13190214D01*
X6198214Y-13175929D01*
X6183928Y-13161643D01*
X6541071Y-12890214D02*
X6569643Y-12890214D01*
X6598214Y-12904500D01*
X6612500Y-12918786D01*
X6626786Y-12947357D01*
X6641071Y-13004500D01*
X6641071Y-13075929D01*
X6626786Y-13133071D01*
X6612500Y-13161643D01*
X6598214Y-13175929D01*
X6569643Y-13190214D01*
X6541071Y-13190214D01*
X6512500Y-13175929D01*
X6498214Y-13161643D01*
X6483928Y-13133071D01*
X6469643Y-13075929D01*
X6469643Y-13004500D01*
X6483928Y-12947357D01*
X6498214Y-12918786D01*
X6512500Y-12904500D01*
X6541071Y-12890214D01*
X6769643Y-13190214D02*
X6769643Y-12990214D01*
X6769643Y-13018786D02*
X6783928Y-13004500D01*
X6812500Y-12990214D01*
X6855357Y-12990214D01*
X6883928Y-13004500D01*
X6898214Y-13033071D01*
X6898214Y-13190214D01*
X6898214Y-13033071D02*
X6912500Y-13004500D01*
X6941071Y-12990214D01*
X6983928Y-12990214D01*
X7012500Y-13004500D01*
X7026786Y-13033071D01*
X7026786Y-13190214D01*
X7169643Y-13190214D02*
X7169643Y-12990214D01*
X7169643Y-13018786D02*
X7183928Y-13004500D01*
X7212500Y-12990214D01*
X7255357Y-12990214D01*
X7283928Y-13004500D01*
X7298214Y-13033071D01*
X7298214Y-13190214D01*
X7298214Y-13033071D02*
X7312500Y-13004500D01*
X7341071Y-12990214D01*
X7383928Y-12990214D01*
X7412500Y-13004500D01*
X7426786Y-13033071D01*
X7426786Y-13190214D01*
X8012500Y-12875929D02*
X7755357Y-13261643D01*
X8398214Y-12890214D02*
X8426786Y-12890214D01*
X8455357Y-12904500D01*
X8469643Y-12918786D01*
X8483928Y-12947357D01*
X8498214Y-13004500D01*
X8498214Y-13075929D01*
X8483928Y-13133071D01*
X8469643Y-13161643D01*
X8455357Y-13175929D01*
X8426786Y-13190214D01*
X8398214Y-13190214D01*
X8369643Y-13175929D01*
X8355357Y-13161643D01*
X8341071Y-13133071D01*
X8326786Y-13075929D01*
X8326786Y-13004500D01*
X8341071Y-12947357D01*
X8355357Y-12918786D01*
X8369643Y-12904500D01*
X8398214Y-12890214D01*
X8626786Y-13161643D02*
X8641071Y-13175929D01*
X8626786Y-13190214D01*
X8612500Y-13175929D01*
X8626786Y-13161643D01*
X8626786Y-13190214D01*
X8826786Y-12890214D02*
X8855357Y-12890214D01*
X8883928Y-12904500D01*
X8898214Y-12918786D01*
X8912500Y-12947357D01*
X8926786Y-13004500D01*
X8926786Y-13075929D01*
X8912500Y-13133071D01*
X8898214Y-13161643D01*
X8883928Y-13175929D01*
X8855357Y-13190214D01*
X8826786Y-13190214D01*
X8798214Y-13175929D01*
X8783928Y-13161643D01*
X8769643Y-13133071D01*
X8755357Y-13075929D01*
X8755357Y-13004500D01*
X8769643Y-12947357D01*
X8783928Y-12918786D01*
X8798214Y-12904500D01*
X8826786Y-12890214D01*
X9041071Y-12918786D02*
X9055357Y-12904500D01*
X9083928Y-12890214D01*
X9155357Y-12890214D01*
X9183928Y-12904500D01*
X9198214Y-12918786D01*
X9212500Y-12947357D01*
X9212500Y-12975929D01*
X9198214Y-13018786D01*
X9026786Y-13190214D01*
X9212500Y-13190214D01*
X9355357Y-13190214D02*
X9412500Y-13190214D01*
X9441071Y-13175929D01*
X9455357Y-13161643D01*
X9483928Y-13118786D01*
X9498214Y-13061643D01*
X9498214Y-12947357D01*
X9483928Y-12918786D01*
X9469643Y-12904500D01*
X9441071Y-12890214D01*
X9383928Y-12890214D01*
X9355357Y-12904500D01*
X9341071Y-12918786D01*
X9326786Y-12947357D01*
X9326786Y-13018786D01*
X9341071Y-13047357D01*
X9355357Y-13061643D01*
X9383928Y-13075929D01*
X9441071Y-13075929D01*
X9469643Y-13061643D01*
X9483928Y-13047357D01*
X9498214Y-13018786D01*
X9769643Y-12890214D02*
X9626786Y-12890214D01*
X9612500Y-13033071D01*
X9626786Y-13018786D01*
X9655357Y-13004500D01*
X9726786Y-13004500D01*
X9755357Y-13018786D01*
X9769643Y-13033071D01*
X9783928Y-13061643D01*
X9783928Y-13133071D01*
X9769643Y-13161643D01*
X9755357Y-13175929D01*
X9726786Y-13190214D01*
X9655357Y-13190214D01*
X9626786Y-13175929D01*
X9612500Y-13161643D01*
X9898214Y-12890214D02*
X9898214Y-12947357D01*
X10012500Y-12890214D02*
X10012500Y-12947357D01*
X10455357Y-13304500D02*
X10441071Y-13290214D01*
X10412500Y-13247357D01*
X10398214Y-13218786D01*
X10383928Y-13175929D01*
X10369643Y-13104500D01*
X10369643Y-13047357D01*
X10383928Y-12975929D01*
X10398214Y-12933071D01*
X10412500Y-12904500D01*
X10441071Y-12861643D01*
X10455357Y-12847357D01*
X10541071Y-12890214D02*
X10726786Y-12890214D01*
X10626786Y-13004500D01*
X10669643Y-13004500D01*
X10698214Y-13018786D01*
X10712500Y-13033071D01*
X10726786Y-13061643D01*
X10726786Y-13133071D01*
X10712500Y-13161643D01*
X10698214Y-13175929D01*
X10669643Y-13190214D01*
X10583928Y-13190214D01*
X10555357Y-13175929D01*
X10541071Y-13161643D01*
X11083928Y-13190214D02*
X11083928Y-12890214D01*
X11212500Y-13190214D02*
X11212500Y-13033071D01*
X11198214Y-13004500D01*
X11169643Y-12990214D01*
X11126786Y-12990214D01*
X11098214Y-13004500D01*
X11083928Y-13018786D01*
X11398214Y-13190214D02*
X11369643Y-13175929D01*
X11355357Y-13161643D01*
X11341071Y-13133071D01*
X11341071Y-13047357D01*
X11355357Y-13018786D01*
X11369643Y-13004500D01*
X11398214Y-12990214D01*
X11441071Y-12990214D01*
X11469643Y-13004500D01*
X11483928Y-13018786D01*
X11498214Y-13047357D01*
X11498214Y-13133071D01*
X11483928Y-13161643D01*
X11469643Y-13175929D01*
X11441071Y-13190214D01*
X11398214Y-13190214D01*
X11669643Y-13190214D02*
X11641071Y-13175929D01*
X11626786Y-13147357D01*
X11626786Y-12890214D01*
X11898214Y-13175929D02*
X11869643Y-13190214D01*
X11812500Y-13190214D01*
X11783928Y-13175929D01*
X11769643Y-13147357D01*
X11769643Y-13033071D01*
X11783928Y-13004500D01*
X11812500Y-12990214D01*
X11869643Y-12990214D01*
X11898214Y-13004500D01*
X11912500Y-13033071D01*
X11912500Y-13061643D01*
X11769643Y-13090214D01*
X12026786Y-13175929D02*
X12055357Y-13190214D01*
X12112500Y-13190214D01*
X12141071Y-13175929D01*
X12155357Y-13147357D01*
X12155357Y-13133071D01*
X12141071Y-13104500D01*
X12112500Y-13090214D01*
X12069643Y-13090214D01*
X12041071Y-13075929D01*
X12026786Y-13047357D01*
X12026786Y-13033071D01*
X12041071Y-13004500D01*
X12069643Y-12990214D01*
X12112500Y-12990214D01*
X12141071Y-13004500D01*
X12255357Y-13304500D02*
X12269643Y-13290214D01*
X12298214Y-13247357D01*
X12312500Y-13218786D01*
X12326786Y-13175929D01*
X12341071Y-13104500D01*
X12341071Y-13047357D01*
X12326786Y-12975929D01*
X12312500Y-12933071D01*
X12298214Y-12904500D01*
X12269643Y-12861643D01*
X12255357Y-12847357D01*
X5185784Y-13478785D02*
X5185784Y-13422216D01*
X5129215Y-13422216D01*
X5129215Y-13478785D01*
X5185784Y-13478785D01*
X5541071Y-13286214D02*
X5569643Y-13286214D01*
X5598214Y-13300500D01*
X5612500Y-13314786D01*
X5626786Y-13343357D01*
X5641071Y-13400500D01*
X5641071Y-13471929D01*
X5626786Y-13529071D01*
X5612500Y-13557643D01*
X5598214Y-13571929D01*
X5569643Y-13586214D01*
X5541071Y-13586214D01*
X5512500Y-13571929D01*
X5498214Y-13557643D01*
X5483928Y-13529071D01*
X5469643Y-13471929D01*
X5469643Y-13400500D01*
X5483928Y-13343357D01*
X5498214Y-13314786D01*
X5512500Y-13300500D01*
X5541071Y-13286214D01*
X5769643Y-13557643D02*
X5783928Y-13571929D01*
X5769643Y-13586214D01*
X5755357Y-13571929D01*
X5769643Y-13557643D01*
X5769643Y-13586214D01*
X5955357Y-13414786D02*
X5926786Y-13400500D01*
X5912500Y-13386214D01*
X5898214Y-13357643D01*
X5898214Y-13343357D01*
X5912500Y-13314786D01*
X5926786Y-13300500D01*
X5955357Y-13286214D01*
X6012500Y-13286214D01*
X6041071Y-13300500D01*
X6055357Y-13314786D01*
X6069643Y-13343357D01*
X6069643Y-13357643D01*
X6055357Y-13386214D01*
X6041071Y-13400500D01*
X6012500Y-13414786D01*
X5955357Y-13414786D01*
X5926786Y-13429071D01*
X5912500Y-13443357D01*
X5898214Y-13471929D01*
X5898214Y-13529071D01*
X5912500Y-13557643D01*
X5926786Y-13571929D01*
X5955357Y-13586214D01*
X6012500Y-13586214D01*
X6041071Y-13571929D01*
X6055357Y-13557643D01*
X6069643Y-13529071D01*
X6069643Y-13471929D01*
X6055357Y-13443357D01*
X6041071Y-13429071D01*
X6012500Y-13414786D01*
X6255357Y-13286214D02*
X6283928Y-13286214D01*
X6312500Y-13300500D01*
X6326786Y-13314786D01*
X6341071Y-13343357D01*
X6355357Y-13400500D01*
X6355357Y-13471929D01*
X6341071Y-13529071D01*
X6326786Y-13557643D01*
X6312500Y-13571929D01*
X6283928Y-13586214D01*
X6255357Y-13586214D01*
X6226786Y-13571929D01*
X6212500Y-13557643D01*
X6198214Y-13529071D01*
X6183928Y-13471929D01*
X6183928Y-13400500D01*
X6198214Y-13343357D01*
X6212500Y-13314786D01*
X6226786Y-13300500D01*
X6255357Y-13286214D01*
X6541071Y-13286214D02*
X6569643Y-13286214D01*
X6598214Y-13300500D01*
X6612500Y-13314786D01*
X6626786Y-13343357D01*
X6641071Y-13400500D01*
X6641071Y-13471929D01*
X6626786Y-13529071D01*
X6612500Y-13557643D01*
X6598214Y-13571929D01*
X6569643Y-13586214D01*
X6541071Y-13586214D01*
X6512500Y-13571929D01*
X6498214Y-13557643D01*
X6483928Y-13529071D01*
X6469643Y-13471929D01*
X6469643Y-13400500D01*
X6483928Y-13343357D01*
X6498214Y-13314786D01*
X6512500Y-13300500D01*
X6541071Y-13286214D01*
X6769643Y-13586214D02*
X6769643Y-13386214D01*
X6769643Y-13414786D02*
X6783928Y-13400500D01*
X6812500Y-13386214D01*
X6855357Y-13386214D01*
X6883928Y-13400500D01*
X6898214Y-13429071D01*
X6898214Y-13586214D01*
X6898214Y-13429071D02*
X6912500Y-13400500D01*
X6941071Y-13386214D01*
X6983928Y-13386214D01*
X7012500Y-13400500D01*
X7026786Y-13429071D01*
X7026786Y-13586214D01*
X7169643Y-13586214D02*
X7169643Y-13386214D01*
X7169643Y-13414786D02*
X7183928Y-13400500D01*
X7212500Y-13386214D01*
X7255357Y-13386214D01*
X7283928Y-13400500D01*
X7298214Y-13429071D01*
X7298214Y-13586214D01*
X7298214Y-13429071D02*
X7312500Y-13400500D01*
X7341071Y-13386214D01*
X7383928Y-13386214D01*
X7412500Y-13400500D01*
X7426786Y-13429071D01*
X7426786Y-13586214D01*
X8012500Y-13271929D02*
X7755357Y-13657643D01*
X8398214Y-13286214D02*
X8426786Y-13286214D01*
X8455357Y-13300500D01*
X8469643Y-13314786D01*
X8483928Y-13343357D01*
X8498214Y-13400500D01*
X8498214Y-13471929D01*
X8483928Y-13529071D01*
X8469643Y-13557643D01*
X8455357Y-13571929D01*
X8426786Y-13586214D01*
X8398214Y-13586214D01*
X8369643Y-13571929D01*
X8355357Y-13557643D01*
X8341071Y-13529071D01*
X8326786Y-13471929D01*
X8326786Y-13400500D01*
X8341071Y-13343357D01*
X8355357Y-13314786D01*
X8369643Y-13300500D01*
X8398214Y-13286214D01*
X8626786Y-13557643D02*
X8641071Y-13571929D01*
X8626786Y-13586214D01*
X8612500Y-13571929D01*
X8626786Y-13557643D01*
X8626786Y-13586214D01*
X8826786Y-13286214D02*
X8855357Y-13286214D01*
X8883928Y-13300500D01*
X8898214Y-13314786D01*
X8912500Y-13343357D01*
X8926786Y-13400500D01*
X8926786Y-13471929D01*
X8912500Y-13529071D01*
X8898214Y-13557643D01*
X8883928Y-13571929D01*
X8855357Y-13586214D01*
X8826786Y-13586214D01*
X8798214Y-13571929D01*
X8783928Y-13557643D01*
X8769643Y-13529071D01*
X8755357Y-13471929D01*
X8755357Y-13400500D01*
X8769643Y-13343357D01*
X8783928Y-13314786D01*
X8798214Y-13300500D01*
X8826786Y-13286214D01*
X9026786Y-13286214D02*
X9212500Y-13286214D01*
X9112500Y-13400500D01*
X9155357Y-13400500D01*
X9183928Y-13414786D01*
X9198214Y-13429071D01*
X9212500Y-13457643D01*
X9212500Y-13529071D01*
X9198214Y-13557643D01*
X9183928Y-13571929D01*
X9155357Y-13586214D01*
X9069643Y-13586214D01*
X9041071Y-13571929D01*
X9026786Y-13557643D01*
X9498214Y-13586214D02*
X9326786Y-13586214D01*
X9412500Y-13586214D02*
X9412500Y-13286214D01*
X9383928Y-13329071D01*
X9355357Y-13357643D01*
X9326786Y-13371929D01*
X9769643Y-13286214D02*
X9626786Y-13286214D01*
X9612500Y-13429071D01*
X9626786Y-13414786D01*
X9655357Y-13400500D01*
X9726786Y-13400500D01*
X9755357Y-13414786D01*
X9769643Y-13429071D01*
X9783928Y-13457643D01*
X9783928Y-13529071D01*
X9769643Y-13557643D01*
X9755357Y-13571929D01*
X9726786Y-13586214D01*
X9655357Y-13586214D01*
X9626786Y-13571929D01*
X9612500Y-13557643D01*
X9898214Y-13286214D02*
X9898214Y-13343357D01*
X10012500Y-13286214D02*
X10012500Y-13343357D01*
X10455357Y-13700500D02*
X10441071Y-13686214D01*
X10412500Y-13643357D01*
X10398214Y-13614786D01*
X10383928Y-13571929D01*
X10369643Y-13500500D01*
X10369643Y-13443357D01*
X10383928Y-13371929D01*
X10398214Y-13329071D01*
X10412500Y-13300500D01*
X10441071Y-13257643D01*
X10455357Y-13243357D01*
X10726786Y-13586214D02*
X10555357Y-13586214D01*
X10641071Y-13586214D02*
X10641071Y-13286214D01*
X10612500Y-13329071D01*
X10583928Y-13357643D01*
X10555357Y-13371929D01*
X10983928Y-13286214D02*
X10926786Y-13286214D01*
X10898214Y-13300500D01*
X10883928Y-13314786D01*
X10855357Y-13357643D01*
X10841071Y-13414786D01*
X10841071Y-13529071D01*
X10855357Y-13557643D01*
X10869643Y-13571929D01*
X10898214Y-13586214D01*
X10955357Y-13586214D01*
X10983928Y-13571929D01*
X10998214Y-13557643D01*
X11012500Y-13529071D01*
X11012500Y-13457643D01*
X10998214Y-13429071D01*
X10983928Y-13414786D01*
X10955357Y-13400500D01*
X10898214Y-13400500D01*
X10869643Y-13414786D01*
X10855357Y-13429071D01*
X10841071Y-13457643D01*
X11369643Y-13586214D02*
X11369643Y-13286214D01*
X11498214Y-13586214D02*
X11498214Y-13429071D01*
X11483928Y-13400500D01*
X11455357Y-13386214D01*
X11412500Y-13386214D01*
X11383928Y-13400500D01*
X11369643Y-13414786D01*
X11683928Y-13586214D02*
X11655357Y-13571929D01*
X11641071Y-13557643D01*
X11626786Y-13529071D01*
X11626786Y-13443357D01*
X11641071Y-13414786D01*
X11655357Y-13400500D01*
X11683928Y-13386214D01*
X11726786Y-13386214D01*
X11755357Y-13400500D01*
X11769643Y-13414786D01*
X11783928Y-13443357D01*
X11783928Y-13529071D01*
X11769643Y-13557643D01*
X11755357Y-13571929D01*
X11726786Y-13586214D01*
X11683928Y-13586214D01*
X11955357Y-13586214D02*
X11926786Y-13571929D01*
X11912500Y-13543357D01*
X11912500Y-13286214D01*
X12183928Y-13571929D02*
X12155357Y-13586214D01*
X12098214Y-13586214D01*
X12069643Y-13571929D01*
X12055357Y-13543357D01*
X12055357Y-13429071D01*
X12069643Y-13400500D01*
X12098214Y-13386214D01*
X12155357Y-13386214D01*
X12183928Y-13400500D01*
X12198214Y-13429071D01*
X12198214Y-13457643D01*
X12055357Y-13486214D01*
X12312500Y-13571929D02*
X12341071Y-13586214D01*
X12398214Y-13586214D01*
X12426786Y-13571929D01*
X12441071Y-13543357D01*
X12441071Y-13529071D01*
X12426786Y-13500500D01*
X12398214Y-13486214D01*
X12355357Y-13486214D01*
X12326786Y-13471929D01*
X12312500Y-13443357D01*
X12312500Y-13429071D01*
X12326786Y-13400500D01*
X12355357Y-13386214D01*
X12398214Y-13386214D01*
X12426786Y-13400500D01*
X12541071Y-13700500D02*
X12555357Y-13686214D01*
X12583928Y-13643357D01*
X12598214Y-13614786D01*
X12612500Y-13571929D01*
X12626786Y-13500500D01*
X12626786Y-13443357D01*
X12612500Y-13371929D01*
X12598214Y-13329071D01*
X12583928Y-13300500D01*
X12555357Y-13257643D01*
X12541071Y-13243357D01*
X5147500Y-13896500D02*
X5197500Y-13846500D01*
X5147500Y-13796500D01*
X5097500Y-13846500D01*
X5147500Y-13896500D01*
X5641071Y-13982214D02*
X5469643Y-13982214D01*
X5555357Y-13982214D02*
X5555357Y-13682214D01*
X5526786Y-13725071D01*
X5498214Y-13753643D01*
X5469643Y-13767929D01*
X5769643Y-13953643D02*
X5783928Y-13967929D01*
X5769643Y-13982214D01*
X5755357Y-13967929D01*
X5769643Y-13953643D01*
X5769643Y-13982214D01*
X5969643Y-13682214D02*
X5998214Y-13682214D01*
X6026786Y-13696500D01*
X6041071Y-13710786D01*
X6055357Y-13739357D01*
X6069643Y-13796500D01*
X6069643Y-13867929D01*
X6055357Y-13925071D01*
X6041071Y-13953643D01*
X6026786Y-13967929D01*
X5998214Y-13982214D01*
X5969643Y-13982214D01*
X5941071Y-13967929D01*
X5926786Y-13953643D01*
X5912500Y-13925071D01*
X5898214Y-13867929D01*
X5898214Y-13796500D01*
X5912500Y-13739357D01*
X5926786Y-13710786D01*
X5941071Y-13696500D01*
X5969643Y-13682214D01*
X6255357Y-13682214D02*
X6283928Y-13682214D01*
X6312500Y-13696500D01*
X6326786Y-13710786D01*
X6341071Y-13739357D01*
X6355357Y-13796500D01*
X6355357Y-13867929D01*
X6341071Y-13925071D01*
X6326786Y-13953643D01*
X6312500Y-13967929D01*
X6283928Y-13982214D01*
X6255357Y-13982214D01*
X6226786Y-13967929D01*
X6212500Y-13953643D01*
X6198214Y-13925071D01*
X6183928Y-13867929D01*
X6183928Y-13796500D01*
X6198214Y-13739357D01*
X6212500Y-13710786D01*
X6226786Y-13696500D01*
X6255357Y-13682214D01*
X6541071Y-13682214D02*
X6569643Y-13682214D01*
X6598214Y-13696500D01*
X6612500Y-13710786D01*
X6626786Y-13739357D01*
X6641071Y-13796500D01*
X6641071Y-13867929D01*
X6626786Y-13925071D01*
X6612500Y-13953643D01*
X6598214Y-13967929D01*
X6569643Y-13982214D01*
X6541071Y-13982214D01*
X6512500Y-13967929D01*
X6498214Y-13953643D01*
X6483928Y-13925071D01*
X6469643Y-13867929D01*
X6469643Y-13796500D01*
X6483928Y-13739357D01*
X6498214Y-13710786D01*
X6512500Y-13696500D01*
X6541071Y-13682214D01*
X6769643Y-13982214D02*
X6769643Y-13782214D01*
X6769643Y-13810786D02*
X6783928Y-13796500D01*
X6812500Y-13782214D01*
X6855357Y-13782214D01*
X6883928Y-13796500D01*
X6898214Y-13825071D01*
X6898214Y-13982214D01*
X6898214Y-13825071D02*
X6912500Y-13796500D01*
X6941071Y-13782214D01*
X6983928Y-13782214D01*
X7012500Y-13796500D01*
X7026786Y-13825071D01*
X7026786Y-13982214D01*
X7169643Y-13982214D02*
X7169643Y-13782214D01*
X7169643Y-13810786D02*
X7183928Y-13796500D01*
X7212500Y-13782214D01*
X7255357Y-13782214D01*
X7283928Y-13796500D01*
X7298214Y-13825071D01*
X7298214Y-13982214D01*
X7298214Y-13825071D02*
X7312500Y-13796500D01*
X7341071Y-13782214D01*
X7383928Y-13782214D01*
X7412500Y-13796500D01*
X7426786Y-13825071D01*
X7426786Y-13982214D01*
X8012500Y-13667929D02*
X7755357Y-14053643D01*
X8398214Y-13682214D02*
X8426786Y-13682214D01*
X8455357Y-13696500D01*
X8469643Y-13710786D01*
X8483928Y-13739357D01*
X8498214Y-13796500D01*
X8498214Y-13867929D01*
X8483928Y-13925071D01*
X8469643Y-13953643D01*
X8455357Y-13967929D01*
X8426786Y-13982214D01*
X8398214Y-13982214D01*
X8369643Y-13967929D01*
X8355357Y-13953643D01*
X8341071Y-13925071D01*
X8326786Y-13867929D01*
X8326786Y-13796500D01*
X8341071Y-13739357D01*
X8355357Y-13710786D01*
X8369643Y-13696500D01*
X8398214Y-13682214D01*
X8626786Y-13953643D02*
X8641071Y-13967929D01*
X8626786Y-13982214D01*
X8612500Y-13967929D01*
X8626786Y-13953643D01*
X8626786Y-13982214D01*
X8826786Y-13682214D02*
X8855357Y-13682214D01*
X8883928Y-13696500D01*
X8898214Y-13710786D01*
X8912500Y-13739357D01*
X8926786Y-13796500D01*
X8926786Y-13867929D01*
X8912500Y-13925071D01*
X8898214Y-13953643D01*
X8883928Y-13967929D01*
X8855357Y-13982214D01*
X8826786Y-13982214D01*
X8798214Y-13967929D01*
X8783928Y-13953643D01*
X8769643Y-13925071D01*
X8755357Y-13867929D01*
X8755357Y-13796500D01*
X8769643Y-13739357D01*
X8783928Y-13710786D01*
X8798214Y-13696500D01*
X8826786Y-13682214D01*
X9026786Y-13682214D02*
X9212500Y-13682214D01*
X9112500Y-13796500D01*
X9155357Y-13796500D01*
X9183928Y-13810786D01*
X9198214Y-13825071D01*
X9212500Y-13853643D01*
X9212500Y-13925071D01*
X9198214Y-13953643D01*
X9183928Y-13967929D01*
X9155357Y-13982214D01*
X9069643Y-13982214D01*
X9041071Y-13967929D01*
X9026786Y-13953643D01*
X9355357Y-13982214D02*
X9412500Y-13982214D01*
X9441071Y-13967929D01*
X9455357Y-13953643D01*
X9483928Y-13910786D01*
X9498214Y-13853643D01*
X9498214Y-13739357D01*
X9483928Y-13710786D01*
X9469643Y-13696500D01*
X9441071Y-13682214D01*
X9383928Y-13682214D01*
X9355357Y-13696500D01*
X9341071Y-13710786D01*
X9326786Y-13739357D01*
X9326786Y-13810786D01*
X9341071Y-13839357D01*
X9355357Y-13853643D01*
X9383928Y-13867929D01*
X9441071Y-13867929D01*
X9469643Y-13853643D01*
X9483928Y-13839357D01*
X9498214Y-13810786D01*
X9755357Y-13782214D02*
X9755357Y-13982214D01*
X9683928Y-13667929D02*
X9612500Y-13882214D01*
X9798214Y-13882214D01*
X9898214Y-13682214D02*
X9898214Y-13739357D01*
X10012500Y-13682214D02*
X10012500Y-13739357D01*
X10455357Y-14096500D02*
X10441071Y-14082214D01*
X10412500Y-14039357D01*
X10398214Y-14010786D01*
X10383928Y-13967929D01*
X10369643Y-13896500D01*
X10369643Y-13839357D01*
X10383928Y-13767929D01*
X10398214Y-13725071D01*
X10412500Y-13696500D01*
X10441071Y-13653643D01*
X10455357Y-13639357D01*
X10541071Y-13682214D02*
X10726786Y-13682214D01*
X10626786Y-13796500D01*
X10669643Y-13796500D01*
X10698214Y-13810786D01*
X10712500Y-13825071D01*
X10726786Y-13853643D01*
X10726786Y-13925071D01*
X10712500Y-13953643D01*
X10698214Y-13967929D01*
X10669643Y-13982214D01*
X10583928Y-13982214D01*
X10555357Y-13967929D01*
X10541071Y-13953643D01*
X11083928Y-13982214D02*
X11083928Y-13682214D01*
X11212500Y-13982214D02*
X11212500Y-13825071D01*
X11198214Y-13796500D01*
X11169643Y-13782214D01*
X11126786Y-13782214D01*
X11098214Y-13796500D01*
X11083928Y-13810786D01*
X11398214Y-13982214D02*
X11369643Y-13967929D01*
X11355357Y-13953643D01*
X11341071Y-13925071D01*
X11341071Y-13839357D01*
X11355357Y-13810786D01*
X11369643Y-13796500D01*
X11398214Y-13782214D01*
X11441071Y-13782214D01*
X11469643Y-13796500D01*
X11483928Y-13810786D01*
X11498214Y-13839357D01*
X11498214Y-13925071D01*
X11483928Y-13953643D01*
X11469643Y-13967929D01*
X11441071Y-13982214D01*
X11398214Y-13982214D01*
X11669643Y-13982214D02*
X11641071Y-13967929D01*
X11626786Y-13939357D01*
X11626786Y-13682214D01*
X11898214Y-13967929D02*
X11869643Y-13982214D01*
X11812500Y-13982214D01*
X11783928Y-13967929D01*
X11769643Y-13939357D01*
X11769643Y-13825071D01*
X11783928Y-13796500D01*
X11812500Y-13782214D01*
X11869643Y-13782214D01*
X11898214Y-13796500D01*
X11912500Y-13825071D01*
X11912500Y-13853643D01*
X11769643Y-13882214D01*
X12026786Y-13967929D02*
X12055357Y-13982214D01*
X12112500Y-13982214D01*
X12141071Y-13967929D01*
X12155357Y-13939357D01*
X12155357Y-13925071D01*
X12141071Y-13896500D01*
X12112500Y-13882214D01*
X12069643Y-13882214D01*
X12041071Y-13867929D01*
X12026786Y-13839357D01*
X12026786Y-13825071D01*
X12041071Y-13796500D01*
X12069643Y-13782214D01*
X12112500Y-13782214D01*
X12141071Y-13796500D01*
X12255357Y-14096500D02*
X12269643Y-14082214D01*
X12298214Y-14039357D01*
X12312500Y-14010786D01*
X12326786Y-13967929D01*
X12341071Y-13896500D01*
X12341071Y-13839357D01*
X12326786Y-13767929D01*
X12312500Y-13725071D01*
X12298214Y-13696500D01*
X12269643Y-13653643D01*
X12255357Y-13639357D01*
X4977500Y-14132500D02*
X5197500Y-14352500D01*
X5197500Y-14132500D02*
X4977500Y-14352500D01*
X5197500Y-14242500D02*
G75*
G03*
X5197500Y-14242500I-110000J0D01*
G01*
X5469643Y-14106786D02*
X5483928Y-14092500D01*
X5512500Y-14078214D01*
X5583928Y-14078214D01*
X5612500Y-14092500D01*
X5626786Y-14106786D01*
X5641071Y-14135357D01*
X5641071Y-14163929D01*
X5626786Y-14206786D01*
X5455357Y-14378214D01*
X5641071Y-14378214D01*
X5769643Y-14349643D02*
X5783928Y-14363929D01*
X5769643Y-14378214D01*
X5755357Y-14363929D01*
X5769643Y-14349643D01*
X5769643Y-14378214D01*
X5898214Y-14106786D02*
X5912500Y-14092500D01*
X5941071Y-14078214D01*
X6012500Y-14078214D01*
X6041071Y-14092500D01*
X6055357Y-14106786D01*
X6069643Y-14135357D01*
X6069643Y-14163929D01*
X6055357Y-14206786D01*
X5883928Y-14378214D01*
X6069643Y-14378214D01*
X6255357Y-14078214D02*
X6283928Y-14078214D01*
X6312500Y-14092500D01*
X6326786Y-14106786D01*
X6341071Y-14135357D01*
X6355357Y-14192500D01*
X6355357Y-14263929D01*
X6341071Y-14321071D01*
X6326786Y-14349643D01*
X6312500Y-14363929D01*
X6283928Y-14378214D01*
X6255357Y-14378214D01*
X6226786Y-14363929D01*
X6212500Y-14349643D01*
X6198214Y-14321071D01*
X6183928Y-14263929D01*
X6183928Y-14192500D01*
X6198214Y-14135357D01*
X6212500Y-14106786D01*
X6226786Y-14092500D01*
X6255357Y-14078214D01*
X6541071Y-14078214D02*
X6569643Y-14078214D01*
X6598214Y-14092500D01*
X6612500Y-14106786D01*
X6626786Y-14135357D01*
X6641071Y-14192500D01*
X6641071Y-14263929D01*
X6626786Y-14321071D01*
X6612500Y-14349643D01*
X6598214Y-14363929D01*
X6569643Y-14378214D01*
X6541071Y-14378214D01*
X6512500Y-14363929D01*
X6498214Y-14349643D01*
X6483928Y-14321071D01*
X6469643Y-14263929D01*
X6469643Y-14192500D01*
X6483928Y-14135357D01*
X6498214Y-14106786D01*
X6512500Y-14092500D01*
X6541071Y-14078214D01*
X6769643Y-14378214D02*
X6769643Y-14178214D01*
X6769643Y-14206786D02*
X6783928Y-14192500D01*
X6812500Y-14178214D01*
X6855357Y-14178214D01*
X6883928Y-14192500D01*
X6898214Y-14221071D01*
X6898214Y-14378214D01*
X6898214Y-14221071D02*
X6912500Y-14192500D01*
X6941071Y-14178214D01*
X6983928Y-14178214D01*
X7012500Y-14192500D01*
X7026786Y-14221071D01*
X7026786Y-14378214D01*
X7169643Y-14378214D02*
X7169643Y-14178214D01*
X7169643Y-14206786D02*
X7183928Y-14192500D01*
X7212500Y-14178214D01*
X7255357Y-14178214D01*
X7283928Y-14192500D01*
X7298214Y-14221071D01*
X7298214Y-14378214D01*
X7298214Y-14221071D02*
X7312500Y-14192500D01*
X7341071Y-14178214D01*
X7383928Y-14178214D01*
X7412500Y-14192500D01*
X7426786Y-14221071D01*
X7426786Y-14378214D01*
X8012500Y-14063929D02*
X7755357Y-14449643D01*
X8398214Y-14078214D02*
X8426786Y-14078214D01*
X8455357Y-14092500D01*
X8469643Y-14106786D01*
X8483928Y-14135357D01*
X8498214Y-14192500D01*
X8498214Y-14263929D01*
X8483928Y-14321071D01*
X8469643Y-14349643D01*
X8455357Y-14363929D01*
X8426786Y-14378214D01*
X8398214Y-14378214D01*
X8369643Y-14363929D01*
X8355357Y-14349643D01*
X8341071Y-14321071D01*
X8326786Y-14263929D01*
X8326786Y-14192500D01*
X8341071Y-14135357D01*
X8355357Y-14106786D01*
X8369643Y-14092500D01*
X8398214Y-14078214D01*
X8626786Y-14349643D02*
X8641071Y-14363929D01*
X8626786Y-14378214D01*
X8612500Y-14363929D01*
X8626786Y-14349643D01*
X8626786Y-14378214D01*
X8826786Y-14078214D02*
X8855357Y-14078214D01*
X8883928Y-14092500D01*
X8898214Y-14106786D01*
X8912500Y-14135357D01*
X8926786Y-14192500D01*
X8926786Y-14263929D01*
X8912500Y-14321071D01*
X8898214Y-14349643D01*
X8883928Y-14363929D01*
X8855357Y-14378214D01*
X8826786Y-14378214D01*
X8798214Y-14363929D01*
X8783928Y-14349643D01*
X8769643Y-14321071D01*
X8755357Y-14263929D01*
X8755357Y-14192500D01*
X8769643Y-14135357D01*
X8783928Y-14106786D01*
X8798214Y-14092500D01*
X8826786Y-14078214D01*
X9098214Y-14206786D02*
X9069643Y-14192500D01*
X9055357Y-14178214D01*
X9041071Y-14149643D01*
X9041071Y-14135357D01*
X9055357Y-14106786D01*
X9069643Y-14092500D01*
X9098214Y-14078214D01*
X9155357Y-14078214D01*
X9183928Y-14092500D01*
X9198214Y-14106786D01*
X9212500Y-14135357D01*
X9212500Y-14149643D01*
X9198214Y-14178214D01*
X9183928Y-14192500D01*
X9155357Y-14206786D01*
X9098214Y-14206786D01*
X9069643Y-14221071D01*
X9055357Y-14235357D01*
X9041071Y-14263929D01*
X9041071Y-14321071D01*
X9055357Y-14349643D01*
X9069643Y-14363929D01*
X9098214Y-14378214D01*
X9155357Y-14378214D01*
X9183928Y-14363929D01*
X9198214Y-14349643D01*
X9212500Y-14321071D01*
X9212500Y-14263929D01*
X9198214Y-14235357D01*
X9183928Y-14221071D01*
X9155357Y-14206786D01*
X9469643Y-14078214D02*
X9412500Y-14078214D01*
X9383928Y-14092500D01*
X9369643Y-14106786D01*
X9341071Y-14149643D01*
X9326786Y-14206786D01*
X9326786Y-14321071D01*
X9341071Y-14349643D01*
X9355357Y-14363929D01*
X9383928Y-14378214D01*
X9441071Y-14378214D01*
X9469643Y-14363929D01*
X9483928Y-14349643D01*
X9498214Y-14321071D01*
X9498214Y-14249643D01*
X9483928Y-14221071D01*
X9469643Y-14206786D01*
X9441071Y-14192500D01*
X9383928Y-14192500D01*
X9355357Y-14206786D01*
X9341071Y-14221071D01*
X9326786Y-14249643D01*
X9755357Y-14078214D02*
X9698214Y-14078214D01*
X9669643Y-14092500D01*
X9655357Y-14106786D01*
X9626786Y-14149643D01*
X9612500Y-14206786D01*
X9612500Y-14321071D01*
X9626786Y-14349643D01*
X9641071Y-14363929D01*
X9669643Y-14378214D01*
X9726786Y-14378214D01*
X9755357Y-14363929D01*
X9769643Y-14349643D01*
X9783928Y-14321071D01*
X9783928Y-14249643D01*
X9769643Y-14221071D01*
X9755357Y-14206786D01*
X9726786Y-14192500D01*
X9669643Y-14192500D01*
X9641071Y-14206786D01*
X9626786Y-14221071D01*
X9612500Y-14249643D01*
X9898214Y-14078214D02*
X9898214Y-14135357D01*
X10012500Y-14078214D02*
X10012500Y-14135357D01*
X10455357Y-14492500D02*
X10441071Y-14478214D01*
X10412500Y-14435357D01*
X10398214Y-14406786D01*
X10383928Y-14363929D01*
X10369643Y-14292500D01*
X10369643Y-14235357D01*
X10383928Y-14163929D01*
X10398214Y-14121071D01*
X10412500Y-14092500D01*
X10441071Y-14049643D01*
X10455357Y-14035357D01*
X10612500Y-14206786D02*
X10583928Y-14192500D01*
X10569643Y-14178214D01*
X10555357Y-14149643D01*
X10555357Y-14135357D01*
X10569643Y-14106786D01*
X10583928Y-14092500D01*
X10612500Y-14078214D01*
X10669643Y-14078214D01*
X10698214Y-14092500D01*
X10712500Y-14106786D01*
X10726786Y-14135357D01*
X10726786Y-14149643D01*
X10712500Y-14178214D01*
X10698214Y-14192500D01*
X10669643Y-14206786D01*
X10612500Y-14206786D01*
X10583928Y-14221071D01*
X10569643Y-14235357D01*
X10555357Y-14263929D01*
X10555357Y-14321071D01*
X10569643Y-14349643D01*
X10583928Y-14363929D01*
X10612500Y-14378214D01*
X10669643Y-14378214D01*
X10698214Y-14363929D01*
X10712500Y-14349643D01*
X10726786Y-14321071D01*
X10726786Y-14263929D01*
X10712500Y-14235357D01*
X10698214Y-14221071D01*
X10669643Y-14206786D01*
X11083928Y-14378214D02*
X11083928Y-14078214D01*
X11212500Y-14378214D02*
X11212500Y-14221071D01*
X11198214Y-14192500D01*
X11169643Y-14178214D01*
X11126786Y-14178214D01*
X11098214Y-14192500D01*
X11083928Y-14206786D01*
X11398214Y-14378214D02*
X11369643Y-14363929D01*
X11355357Y-14349643D01*
X11341071Y-14321071D01*
X11341071Y-14235357D01*
X11355357Y-14206786D01*
X11369643Y-14192500D01*
X11398214Y-14178214D01*
X11441071Y-14178214D01*
X11469643Y-14192500D01*
X11483928Y-14206786D01*
X11498214Y-14235357D01*
X11498214Y-14321071D01*
X11483928Y-14349643D01*
X11469643Y-14363929D01*
X11441071Y-14378214D01*
X11398214Y-14378214D01*
X11669643Y-14378214D02*
X11641071Y-14363929D01*
X11626786Y-14335357D01*
X11626786Y-14078214D01*
X11898214Y-14363929D02*
X11869643Y-14378214D01*
X11812500Y-14378214D01*
X11783928Y-14363929D01*
X11769643Y-14335357D01*
X11769643Y-14221071D01*
X11783928Y-14192500D01*
X11812500Y-14178214D01*
X11869643Y-14178214D01*
X11898214Y-14192500D01*
X11912500Y-14221071D01*
X11912500Y-14249643D01*
X11769643Y-14278214D01*
X12026786Y-14363929D02*
X12055357Y-14378214D01*
X12112500Y-14378214D01*
X12141071Y-14363929D01*
X12155357Y-14335357D01*
X12155357Y-14321071D01*
X12141071Y-14292500D01*
X12112500Y-14278214D01*
X12069643Y-14278214D01*
X12041071Y-14263929D01*
X12026786Y-14235357D01*
X12026786Y-14221071D01*
X12041071Y-14192500D01*
X12069643Y-14178214D01*
X12112500Y-14178214D01*
X12141071Y-14192500D01*
X12255357Y-14492500D02*
X12269643Y-14478214D01*
X12298214Y-14435357D01*
X12312500Y-14406786D01*
X12326786Y-14363929D01*
X12341071Y-14292500D01*
X12341071Y-14235357D01*
X12326786Y-14163929D01*
X12312500Y-14121071D01*
X12298214Y-14092500D01*
X12269643Y-14049643D01*
X12255357Y-14035357D01*
M02*
