%TF.GenerationSoftware,KiCad,Pcbnew,5.1.10*%
%TF.CreationDate,2021-05-16T12:50:15+02:00*%
%TF.ProjectId,piezo-jfet,7069657a-6f2d-46a6-9665-742e6b696361,rev?*%
%TF.SameCoordinates,Original*%
%TF.FileFunction,Copper,L2,Bot*%
%TF.FilePolarity,Positive*%
%FSLAX46Y46*%
G04 Gerber Fmt 4.6, Leading zero omitted, Abs format (unit mm)*
G04 Created by KiCad (PCBNEW 5.1.10) date 2021-05-16 12:50:15*
%MOMM*%
%LPD*%
G01*
G04 APERTURE LIST*
%TA.AperFunction,ComponentPad*%
%ADD10C,1.400000*%
%TD*%
%TA.AperFunction,ComponentPad*%
%ADD11C,1.600000*%
%TD*%
%TA.AperFunction,ComponentPad*%
%ADD12R,1.600000X1.600000*%
%TD*%
%TA.AperFunction,ComponentPad*%
%ADD13O,1.600000X1.600000*%
%TD*%
%TA.AperFunction,ComponentPad*%
%ADD14O,1.400000X1.400000*%
%TD*%
%TA.AperFunction,ComponentPad*%
%ADD15O,1.700000X1.700000*%
%TD*%
%TA.AperFunction,ComponentPad*%
%ADD16R,1.700000X1.700000*%
%TD*%
%TA.AperFunction,ComponentPad*%
%ADD17O,1.050000X1.500000*%
%TD*%
%TA.AperFunction,ComponentPad*%
%ADD18R,1.050000X1.500000*%
%TD*%
%TA.AperFunction,ComponentPad*%
%ADD19C,3.800000*%
%TD*%
%TA.AperFunction,ViaPad*%
%ADD20C,0.800000*%
%TD*%
%TA.AperFunction,Conductor*%
%ADD21C,0.250000*%
%TD*%
%TA.AperFunction,Conductor*%
%ADD22C,0.254000*%
%TD*%
%TA.AperFunction,Conductor*%
%ADD23C,0.100000*%
%TD*%
G04 APERTURE END LIST*
D10*
%TO.P,Q2,1*%
%TO.N,Net-(Q2-Pad1)*%
X69000000Y-83500000D03*
%TO.P,Q2,2*%
%TO.N,Net-(Q2-Pad2)*%
X67500000Y-83000000D03*
%TO.P,Q2,3*%
%TO.N,Net-(C1-Pad1)*%
X66900000Y-81500000D03*
%TO.P,Q2,4*%
%TO.N,Net-(Q2-Pad4)*%
X69000000Y-79400000D03*
%TO.P,Q2,5*%
%TO.N,Net-(Q2-Pad5)*%
X70500000Y-80000000D03*
%TO.P,Q2,6*%
%TO.N,Net-(C3-Pad2)*%
X71100000Y-81400000D03*
%TD*%
D11*
%TO.P,C1,2*%
%TO.N,Net-(C1-Pad2)*%
X57000000Y-94000000D03*
%TO.P,C1,1*%
%TO.N,Net-(C1-Pad1)*%
X57000000Y-91500000D03*
%TD*%
%TO.P,C2,1*%
%TO.N,Net-(C2-Pad1)*%
X62500000Y-72500000D03*
%TO.P,C2,2*%
%TO.N,Net-(C2-Pad2)*%
X60000000Y-72500000D03*
%TD*%
%TO.P,C3,1*%
%TO.N,Net-(C3-Pad1)*%
X81000000Y-94000000D03*
%TO.P,C3,2*%
%TO.N,Net-(C3-Pad2)*%
X81000000Y-91500000D03*
%TD*%
D12*
%TO.P,D1,1*%
%TO.N,Net-(D1-Pad1)*%
X60500000Y-106120000D03*
D13*
%TO.P,D1,2*%
%TO.N,Net-(C1-Pad2)*%
X60500000Y-98500000D03*
%TD*%
%TO.P,D2,2*%
%TO.N,Net-(C3-Pad1)*%
X77000000Y-98500000D03*
D12*
%TO.P,D2,1*%
%TO.N,Net-(D1-Pad1)*%
X77000000Y-106120000D03*
%TD*%
D10*
%TO.P,R1,1*%
%TO.N,Net-(C1-Pad1)*%
X57000000Y-82080000D03*
D14*
%TO.P,R1,2*%
%TO.N,Net-(C2-Pad2)*%
X57000000Y-77000000D03*
%TD*%
%TO.P,R2,2*%
%TO.N,Net-(C1-Pad1)*%
X61000000Y-89920000D03*
D10*
%TO.P,R2,1*%
%TO.N,GND*%
X61000000Y-95000000D03*
%TD*%
D14*
%TO.P,R3,2*%
%TO.N,Net-(C2-Pad2)*%
X61000000Y-77000000D03*
D10*
%TO.P,R3,1*%
%TO.N,Net-(Q2-Pad2)*%
X61000000Y-82080000D03*
%TD*%
D14*
%TO.P,R4,2*%
%TO.N,Net-(Q2-Pad1)*%
X65000000Y-89920000D03*
D10*
%TO.P,R4,1*%
%TO.N,Net-(Q1-Pad1)*%
X65000000Y-95000000D03*
%TD*%
%TO.P,R6,1*%
%TO.N,Net-(J1-Pad3)*%
X79000000Y-72500000D03*
D14*
%TO.P,R6,2*%
%TO.N,Net-(C2-Pad1)*%
X73920000Y-72500000D03*
%TD*%
D10*
%TO.P,R7,1*%
%TO.N,Net-(Q2-Pad5)*%
X77500000Y-82000000D03*
D14*
%TO.P,R7,2*%
%TO.N,Net-(J1-Pad3)*%
X77500000Y-76920000D03*
%TD*%
D10*
%TO.P,R8,1*%
%TO.N,Net-(Q1-Pad1)*%
X73000000Y-95000000D03*
D14*
%TO.P,R8,2*%
%TO.N,Net-(Q2-Pad4)*%
X73000000Y-89920000D03*
%TD*%
%TO.P,R9,2*%
%TO.N,Net-(J1-Pad3)*%
X81500000Y-76920000D03*
D10*
%TO.P,R9,1*%
%TO.N,Net-(C3-Pad2)*%
X81500000Y-82000000D03*
%TD*%
%TO.P,R10,1*%
%TO.N,GND*%
X77000000Y-95000000D03*
D14*
%TO.P,R10,2*%
%TO.N,Net-(C3-Pad2)*%
X77000000Y-89920000D03*
%TD*%
D15*
%TO.P,X1,2*%
%TO.N,GND*%
X63000000Y-109500000D03*
D16*
%TO.P,X1,1*%
%TO.N,Net-(C1-Pad2)*%
X60460000Y-109500000D03*
%TD*%
%TO.P,X2,1*%
%TO.N,GND*%
X75460000Y-109500000D03*
D15*
%TO.P,X2,2*%
%TO.N,Net-(C3-Pad1)*%
X78000000Y-109500000D03*
%TD*%
D16*
%TO.P,J1,1*%
%TO.N,GND*%
X66000000Y-49000000D03*
D15*
%TO.P,J1,2*%
%TO.N,Net-(C2-Pad2)*%
X68540000Y-49000000D03*
%TO.P,J1,3*%
%TO.N,Net-(J1-Pad3)*%
X71080000Y-49000000D03*
%TD*%
D17*
%TO.P,Q1,2*%
%TO.N,Net-(Q1-Pad2)*%
X68770000Y-100500000D03*
%TO.P,Q1,3*%
%TO.N,GND*%
X70040000Y-100500000D03*
D18*
%TO.P,Q1,1*%
%TO.N,Net-(Q1-Pad1)*%
X67500000Y-100500000D03*
%TD*%
D10*
%TO.P,R12,1*%
%TO.N,Net-(Q1-Pad2)*%
X69000000Y-95000000D03*
D14*
%TO.P,R12,2*%
%TO.N,GND*%
X69000000Y-89920000D03*
%TD*%
D19*
%TO.P,J2,1*%
%TO.N,Net-(J2-Pad1)*%
X55500000Y-48000000D03*
%TD*%
%TO.P,J3,1*%
%TO.N,Net-(J3-Pad1)*%
X55000000Y-110000000D03*
%TD*%
%TO.P,J4,1*%
%TO.N,Net-(J4-Pad1)*%
X83000000Y-48000000D03*
%TD*%
%TO.P,J5,1*%
%TO.N,Net-(J5-Pad1)*%
X83000000Y-110000000D03*
%TD*%
D20*
%TO.N,GND*%
X64000000Y-82000000D03*
%TD*%
D21*
%TO.N,Net-(C1-Pad2)*%
X57000000Y-95000000D02*
X57000000Y-94000000D01*
X60500000Y-98500000D02*
X57000000Y-95000000D01*
X59374999Y-108414999D02*
X59374999Y-99625001D01*
X59374999Y-99625001D02*
X60500000Y-98500000D01*
X60460000Y-109500000D02*
X59374999Y-108414999D01*
%TO.N,Net-(C1-Pad1)*%
X66454999Y-81054999D02*
X66900000Y-81500000D01*
X58025001Y-81054999D02*
X66454999Y-81054999D01*
X57000000Y-82080000D02*
X58025001Y-81054999D01*
X61000000Y-86080000D02*
X57000000Y-82080000D01*
X61000000Y-89920000D02*
X61000000Y-86080000D01*
X59420000Y-91500000D02*
X61000000Y-89920000D01*
X57000000Y-91500000D02*
X59420000Y-91500000D01*
%TO.N,Net-(C2-Pad1)*%
X73920000Y-72500000D02*
X62500000Y-72500000D01*
%TO.N,Net-(C2-Pad2)*%
X60000000Y-76000000D02*
X61000000Y-77000000D01*
X60000000Y-72500000D02*
X60000000Y-76000000D01*
X61000000Y-77000000D02*
X57000000Y-77000000D01*
X60000000Y-72500000D02*
X60000000Y-62500000D01*
X68540000Y-53960000D02*
X68540000Y-49000000D01*
X60000000Y-62500000D02*
X68540000Y-53960000D01*
%TO.N,Net-(C3-Pad1)*%
X81000000Y-94500000D02*
X81000000Y-94000000D01*
X77000000Y-98500000D02*
X81000000Y-94500000D01*
X78849999Y-100349999D02*
X77000000Y-98500000D01*
X78849999Y-108650001D02*
X78849999Y-100349999D01*
X78000000Y-109500000D02*
X78849999Y-108650001D01*
%TO.N,Net-(C3-Pad2)*%
X81500000Y-85420000D02*
X77000000Y-89920000D01*
X81500000Y-82000000D02*
X81500000Y-85420000D01*
X78580000Y-91500000D02*
X77000000Y-89920000D01*
X81000000Y-91500000D02*
X78580000Y-91500000D01*
X77000000Y-87300000D02*
X71100000Y-81400000D01*
X77000000Y-89920000D02*
X77000000Y-87300000D01*
%TO.N,Net-(D1-Pad1)*%
X60500000Y-106120000D02*
X77000000Y-106120000D01*
%TO.N,Net-(J1-Pad3)*%
X79000000Y-75420000D02*
X77500000Y-76920000D01*
X79000000Y-72500000D02*
X79000000Y-75420000D01*
X81500000Y-76920000D02*
X80420000Y-76920000D01*
X79000000Y-75500000D02*
X79000000Y-75420000D01*
X80420000Y-76920000D02*
X79000000Y-75500000D01*
X79000000Y-72500000D02*
X79000000Y-61500000D01*
X71080000Y-53580000D02*
X71080000Y-49000000D01*
X79000000Y-61500000D02*
X71080000Y-53580000D01*
%TO.N,Net-(Q1-Pad1)*%
X65000000Y-98000000D02*
X67500000Y-100500000D01*
X65000000Y-95000000D02*
X65000000Y-98000000D01*
X72000000Y-95000000D02*
X73000000Y-95000000D01*
X67500000Y-99500000D02*
X72000000Y-95000000D01*
X67500000Y-100500000D02*
X67500000Y-99500000D01*
%TO.N,Net-(Q2-Pad1)*%
X65000000Y-87500000D02*
X69000000Y-83500000D01*
X65000000Y-89920000D02*
X65000000Y-87500000D01*
%TO.N,Net-(Q2-Pad2)*%
X61920000Y-83000000D02*
X67500000Y-83000000D01*
X61000000Y-82080000D02*
X61920000Y-83000000D01*
%TO.N,Net-(Q2-Pad4)*%
X69000000Y-80389949D02*
X69000000Y-79400000D01*
X70074999Y-81464948D02*
X69000000Y-80389949D01*
X70074999Y-86994999D02*
X70074999Y-81464948D01*
X73000000Y-89920000D02*
X70074999Y-86994999D01*
%TO.N,Net-(Q2-Pad5)*%
X75500000Y-80000000D02*
X70500000Y-80000000D01*
X77500000Y-82000000D02*
X75500000Y-80000000D01*
%TD*%
D22*
%TO.N,GND*%
X54299227Y-45753512D02*
X53884032Y-46030937D01*
X53530937Y-46384032D01*
X53253512Y-46799227D01*
X53062418Y-47260568D01*
X52965000Y-47750324D01*
X52965000Y-48249676D01*
X53062418Y-48739432D01*
X53253512Y-49200773D01*
X53530937Y-49615968D01*
X53884032Y-49969063D01*
X54299227Y-50246488D01*
X54760568Y-50437582D01*
X55250324Y-50535000D01*
X55749676Y-50535000D01*
X56239432Y-50437582D01*
X56700773Y-50246488D01*
X57115968Y-49969063D01*
X57469063Y-49615968D01*
X57746488Y-49200773D01*
X57937582Y-48739432D01*
X58035000Y-48249676D01*
X58035000Y-47750324D01*
X57937582Y-47260568D01*
X57746488Y-46799227D01*
X57469063Y-46384032D01*
X57115968Y-46030937D01*
X56700773Y-45753512D01*
X56475015Y-45660000D01*
X82024985Y-45660000D01*
X81799227Y-45753512D01*
X81384032Y-46030937D01*
X81030937Y-46384032D01*
X80753512Y-46799227D01*
X80562418Y-47260568D01*
X80465000Y-47750324D01*
X80465000Y-48249676D01*
X80562418Y-48739432D01*
X80753512Y-49200773D01*
X81030937Y-49615968D01*
X81384032Y-49969063D01*
X81799227Y-50246488D01*
X82260568Y-50437582D01*
X82750324Y-50535000D01*
X83249676Y-50535000D01*
X83739432Y-50437582D01*
X84200773Y-50246488D01*
X84615968Y-49969063D01*
X84969063Y-49615968D01*
X85246488Y-49200773D01*
X85340001Y-48975013D01*
X85340000Y-109024985D01*
X85246488Y-108799227D01*
X84969063Y-108384032D01*
X84615968Y-108030937D01*
X84200773Y-107753512D01*
X83739432Y-107562418D01*
X83249676Y-107465000D01*
X82750324Y-107465000D01*
X82260568Y-107562418D01*
X81799227Y-107753512D01*
X81384032Y-108030937D01*
X81030937Y-108384032D01*
X80753512Y-108799227D01*
X80562418Y-109260568D01*
X80465000Y-109750324D01*
X80465000Y-110249676D01*
X80562418Y-110739432D01*
X80753512Y-111200773D01*
X81030937Y-111615968D01*
X81384032Y-111969063D01*
X81799227Y-112246488D01*
X82024985Y-112340000D01*
X55975015Y-112340000D01*
X56200773Y-112246488D01*
X56615968Y-111969063D01*
X56969063Y-111615968D01*
X57246488Y-111200773D01*
X57437582Y-110739432D01*
X57535000Y-110249676D01*
X57535000Y-109750324D01*
X57437582Y-109260568D01*
X57246488Y-108799227D01*
X56969063Y-108384032D01*
X56615968Y-108030937D01*
X56200773Y-107753512D01*
X55739432Y-107562418D01*
X55249676Y-107465000D01*
X54750324Y-107465000D01*
X54260568Y-107562418D01*
X53799227Y-107753512D01*
X53384032Y-108030937D01*
X53030937Y-108384032D01*
X52753512Y-108799227D01*
X52660000Y-109024985D01*
X52660000Y-91358665D01*
X55565000Y-91358665D01*
X55565000Y-91641335D01*
X55620147Y-91918574D01*
X55728320Y-92179727D01*
X55885363Y-92414759D01*
X56085241Y-92614637D01*
X56287827Y-92750000D01*
X56085241Y-92885363D01*
X55885363Y-93085241D01*
X55728320Y-93320273D01*
X55620147Y-93581426D01*
X55565000Y-93858665D01*
X55565000Y-94141335D01*
X55620147Y-94418574D01*
X55728320Y-94679727D01*
X55885363Y-94914759D01*
X56085241Y-95114637D01*
X56280066Y-95244815D01*
X56294454Y-95292246D01*
X56365026Y-95424276D01*
X56404871Y-95472826D01*
X56459999Y-95540001D01*
X56489003Y-95563804D01*
X59101312Y-98176115D01*
X59065000Y-98358665D01*
X59065000Y-98641335D01*
X59101312Y-98823887D01*
X58863997Y-99061202D01*
X58834999Y-99085000D01*
X58811201Y-99113998D01*
X58811200Y-99113999D01*
X58740025Y-99200725D01*
X58669453Y-99332755D01*
X58644578Y-99414759D01*
X58625997Y-99476015D01*
X58615133Y-99586322D01*
X58611323Y-99625001D01*
X58615000Y-99662333D01*
X58614999Y-108377677D01*
X58611323Y-108414999D01*
X58614999Y-108452321D01*
X58614999Y-108452331D01*
X58625996Y-108563984D01*
X58652089Y-108650002D01*
X58669453Y-108707245D01*
X58740025Y-108839275D01*
X58779870Y-108887825D01*
X58834998Y-108955000D01*
X58864001Y-108978803D01*
X58971928Y-109086729D01*
X58971928Y-110350000D01*
X58984188Y-110474482D01*
X59020498Y-110594180D01*
X59079463Y-110704494D01*
X59158815Y-110801185D01*
X59255506Y-110880537D01*
X59365820Y-110939502D01*
X59485518Y-110975812D01*
X59610000Y-110988072D01*
X61310000Y-110988072D01*
X61434482Y-110975812D01*
X61554180Y-110939502D01*
X61664494Y-110880537D01*
X61761185Y-110801185D01*
X61840537Y-110704494D01*
X61899502Y-110594180D01*
X61935812Y-110474482D01*
X61948072Y-110350000D01*
X61948072Y-108650000D01*
X61935812Y-108525518D01*
X61899502Y-108405820D01*
X61840537Y-108295506D01*
X61761185Y-108198815D01*
X61664494Y-108119463D01*
X61554180Y-108060498D01*
X61434482Y-108024188D01*
X61310000Y-108011928D01*
X60134999Y-108011928D01*
X60134999Y-107558072D01*
X61300000Y-107558072D01*
X61424482Y-107545812D01*
X61544180Y-107509502D01*
X61654494Y-107450537D01*
X61751185Y-107371185D01*
X61830537Y-107274494D01*
X61889502Y-107164180D01*
X61925812Y-107044482D01*
X61938072Y-106920000D01*
X61938072Y-106880000D01*
X75561928Y-106880000D01*
X75561928Y-106920000D01*
X75574188Y-107044482D01*
X75610498Y-107164180D01*
X75669463Y-107274494D01*
X75748815Y-107371185D01*
X75845506Y-107450537D01*
X75955820Y-107509502D01*
X76075518Y-107545812D01*
X76200000Y-107558072D01*
X77800000Y-107558072D01*
X77924482Y-107545812D01*
X78044180Y-107509502D01*
X78089999Y-107485011D01*
X78089999Y-108015000D01*
X77853740Y-108015000D01*
X77566842Y-108072068D01*
X77296589Y-108184010D01*
X77053368Y-108346525D01*
X76846525Y-108553368D01*
X76684010Y-108796589D01*
X76572068Y-109066842D01*
X76515000Y-109353740D01*
X76515000Y-109646260D01*
X76572068Y-109933158D01*
X76684010Y-110203411D01*
X76846525Y-110446632D01*
X77053368Y-110653475D01*
X77296589Y-110815990D01*
X77566842Y-110927932D01*
X77853740Y-110985000D01*
X78146260Y-110985000D01*
X78433158Y-110927932D01*
X78703411Y-110815990D01*
X78946632Y-110653475D01*
X79153475Y-110446632D01*
X79315990Y-110203411D01*
X79427932Y-109933158D01*
X79485000Y-109646260D01*
X79485000Y-109353740D01*
X79440251Y-109128771D01*
X79447002Y-109120545D01*
X79484973Y-109074278D01*
X79555545Y-108942248D01*
X79560473Y-108926001D01*
X79599002Y-108798987D01*
X79609999Y-108687334D01*
X79609999Y-108687325D01*
X79613675Y-108650002D01*
X79609999Y-108612679D01*
X79609999Y-100387324D01*
X79613675Y-100349999D01*
X79609999Y-100312674D01*
X79609999Y-100312666D01*
X79599002Y-100201013D01*
X79555545Y-100057752D01*
X79484973Y-99925723D01*
X79390000Y-99809998D01*
X79361002Y-99786200D01*
X78398688Y-98823886D01*
X78435000Y-98641335D01*
X78435000Y-98358665D01*
X78398688Y-98176113D01*
X81139802Y-95435000D01*
X81141335Y-95435000D01*
X81418574Y-95379853D01*
X81679727Y-95271680D01*
X81914759Y-95114637D01*
X82114637Y-94914759D01*
X82271680Y-94679727D01*
X82379853Y-94418574D01*
X82435000Y-94141335D01*
X82435000Y-93858665D01*
X82379853Y-93581426D01*
X82271680Y-93320273D01*
X82114637Y-93085241D01*
X81914759Y-92885363D01*
X81712173Y-92750000D01*
X81914759Y-92614637D01*
X82114637Y-92414759D01*
X82271680Y-92179727D01*
X82379853Y-91918574D01*
X82435000Y-91641335D01*
X82435000Y-91358665D01*
X82379853Y-91081426D01*
X82271680Y-90820273D01*
X82114637Y-90585241D01*
X81914759Y-90385363D01*
X81679727Y-90228320D01*
X81418574Y-90120147D01*
X81141335Y-90065000D01*
X80858665Y-90065000D01*
X80581426Y-90120147D01*
X80320273Y-90228320D01*
X80085241Y-90385363D01*
X79885363Y-90585241D01*
X79781957Y-90740000D01*
X78894803Y-90740000D01*
X78313645Y-90158843D01*
X78335000Y-90051486D01*
X78335000Y-89788514D01*
X78313645Y-89681156D01*
X82011003Y-85983799D01*
X82040001Y-85960001D01*
X82066332Y-85927917D01*
X82134974Y-85844277D01*
X82205546Y-85712247D01*
X82249003Y-85568986D01*
X82260000Y-85457333D01*
X82260000Y-85457324D01*
X82263676Y-85420001D01*
X82260000Y-85382678D01*
X82260000Y-83097775D01*
X82351013Y-83036962D01*
X82536962Y-82851013D01*
X82683061Y-82632359D01*
X82783696Y-82389405D01*
X82835000Y-82131486D01*
X82835000Y-81868514D01*
X82783696Y-81610595D01*
X82683061Y-81367641D01*
X82536962Y-81148987D01*
X82351013Y-80963038D01*
X82132359Y-80816939D01*
X81889405Y-80716304D01*
X81631486Y-80665000D01*
X81368514Y-80665000D01*
X81110595Y-80716304D01*
X80867641Y-80816939D01*
X80648987Y-80963038D01*
X80463038Y-81148987D01*
X80316939Y-81367641D01*
X80216304Y-81610595D01*
X80165000Y-81868514D01*
X80165000Y-82131486D01*
X80216304Y-82389405D01*
X80316939Y-82632359D01*
X80463038Y-82851013D01*
X80648987Y-83036962D01*
X80740000Y-83097775D01*
X80740001Y-85105197D01*
X77760000Y-88085199D01*
X77760000Y-87337322D01*
X77763676Y-87299999D01*
X77760000Y-87262677D01*
X77760000Y-87262667D01*
X77749003Y-87151014D01*
X77705546Y-87007753D01*
X77680021Y-86959999D01*
X77634974Y-86875723D01*
X77563799Y-86788997D01*
X77540001Y-86759999D01*
X77511003Y-86736201D01*
X72413645Y-81638844D01*
X72435000Y-81531486D01*
X72435000Y-81268514D01*
X72383696Y-81010595D01*
X72283061Y-80767641D01*
X72277955Y-80760000D01*
X75185199Y-80760000D01*
X76186355Y-81761157D01*
X76165000Y-81868514D01*
X76165000Y-82131486D01*
X76216304Y-82389405D01*
X76316939Y-82632359D01*
X76463038Y-82851013D01*
X76648987Y-83036962D01*
X76867641Y-83183061D01*
X77110595Y-83283696D01*
X77368514Y-83335000D01*
X77631486Y-83335000D01*
X77889405Y-83283696D01*
X78132359Y-83183061D01*
X78351013Y-83036962D01*
X78536962Y-82851013D01*
X78683061Y-82632359D01*
X78783696Y-82389405D01*
X78835000Y-82131486D01*
X78835000Y-81868514D01*
X78783696Y-81610595D01*
X78683061Y-81367641D01*
X78536962Y-81148987D01*
X78351013Y-80963038D01*
X78132359Y-80816939D01*
X77889405Y-80716304D01*
X77631486Y-80665000D01*
X77368514Y-80665000D01*
X77261157Y-80686355D01*
X76063804Y-79489003D01*
X76040001Y-79459999D01*
X75924276Y-79365026D01*
X75792247Y-79294454D01*
X75648986Y-79250997D01*
X75537333Y-79240000D01*
X75537322Y-79240000D01*
X75500000Y-79236324D01*
X75462678Y-79240000D01*
X71597775Y-79240000D01*
X71536962Y-79148987D01*
X71351013Y-78963038D01*
X71132359Y-78816939D01*
X70889405Y-78716304D01*
X70631486Y-78665000D01*
X70368514Y-78665000D01*
X70144282Y-78709603D01*
X70036962Y-78548987D01*
X69851013Y-78363038D01*
X69632359Y-78216939D01*
X69389405Y-78116304D01*
X69131486Y-78065000D01*
X68868514Y-78065000D01*
X68610595Y-78116304D01*
X68367641Y-78216939D01*
X68148987Y-78363038D01*
X67963038Y-78548987D01*
X67816939Y-78767641D01*
X67716304Y-79010595D01*
X67665000Y-79268514D01*
X67665000Y-79531486D01*
X67716304Y-79789405D01*
X67816939Y-80032359D01*
X67963038Y-80251013D01*
X68148987Y-80436962D01*
X68247432Y-80502741D01*
X68250997Y-80538934D01*
X68284381Y-80648987D01*
X68294454Y-80682195D01*
X68365026Y-80814225D01*
X68402592Y-80859999D01*
X68459999Y-80929950D01*
X68489002Y-80953753D01*
X69315000Y-81779751D01*
X69315000Y-82201504D01*
X69131486Y-82165000D01*
X68868514Y-82165000D01*
X68610595Y-82216304D01*
X68588153Y-82225600D01*
X68536962Y-82148987D01*
X68351013Y-81963038D01*
X68190397Y-81855718D01*
X68235000Y-81631486D01*
X68235000Y-81368514D01*
X68183696Y-81110595D01*
X68083061Y-80867641D01*
X67936962Y-80648987D01*
X67751013Y-80463038D01*
X67532359Y-80316939D01*
X67289405Y-80216304D01*
X67031486Y-80165000D01*
X66768514Y-80165000D01*
X66510595Y-80216304D01*
X66320609Y-80294999D01*
X58062323Y-80294999D01*
X58025000Y-80291323D01*
X57987677Y-80294999D01*
X57987668Y-80294999D01*
X57876015Y-80305996D01*
X57732754Y-80349453D01*
X57600725Y-80420025D01*
X57485000Y-80514998D01*
X57461202Y-80543996D01*
X57238843Y-80766355D01*
X57131486Y-80745000D01*
X56868514Y-80745000D01*
X56610595Y-80796304D01*
X56367641Y-80896939D01*
X56148987Y-81043038D01*
X55963038Y-81228987D01*
X55816939Y-81447641D01*
X55716304Y-81690595D01*
X55665000Y-81948514D01*
X55665000Y-82211486D01*
X55716304Y-82469405D01*
X55816939Y-82712359D01*
X55963038Y-82931013D01*
X56148987Y-83116962D01*
X56367641Y-83263061D01*
X56610595Y-83363696D01*
X56868514Y-83415000D01*
X57131486Y-83415000D01*
X57238844Y-83393645D01*
X60240001Y-86394803D01*
X60240000Y-88822225D01*
X60148987Y-88883038D01*
X59963038Y-89068987D01*
X59816939Y-89287641D01*
X59716304Y-89530595D01*
X59665000Y-89788514D01*
X59665000Y-90051486D01*
X59686355Y-90158843D01*
X59105199Y-90740000D01*
X58218043Y-90740000D01*
X58114637Y-90585241D01*
X57914759Y-90385363D01*
X57679727Y-90228320D01*
X57418574Y-90120147D01*
X57141335Y-90065000D01*
X56858665Y-90065000D01*
X56581426Y-90120147D01*
X56320273Y-90228320D01*
X56085241Y-90385363D01*
X55885363Y-90585241D01*
X55728320Y-90820273D01*
X55620147Y-91081426D01*
X55565000Y-91358665D01*
X52660000Y-91358665D01*
X52660000Y-76868514D01*
X55665000Y-76868514D01*
X55665000Y-77131486D01*
X55716304Y-77389405D01*
X55816939Y-77632359D01*
X55963038Y-77851013D01*
X56148987Y-78036962D01*
X56367641Y-78183061D01*
X56610595Y-78283696D01*
X56868514Y-78335000D01*
X57131486Y-78335000D01*
X57389405Y-78283696D01*
X57632359Y-78183061D01*
X57851013Y-78036962D01*
X58036962Y-77851013D01*
X58097775Y-77760000D01*
X59902225Y-77760000D01*
X59963038Y-77851013D01*
X60148987Y-78036962D01*
X60367641Y-78183061D01*
X60610595Y-78283696D01*
X60868514Y-78335000D01*
X61131486Y-78335000D01*
X61389405Y-78283696D01*
X61632359Y-78183061D01*
X61851013Y-78036962D01*
X62036962Y-77851013D01*
X62183061Y-77632359D01*
X62283696Y-77389405D01*
X62335000Y-77131486D01*
X62335000Y-76868514D01*
X62283696Y-76610595D01*
X62183061Y-76367641D01*
X62036962Y-76148987D01*
X61851013Y-75963038D01*
X61632359Y-75816939D01*
X61389405Y-75716304D01*
X61131486Y-75665000D01*
X60868514Y-75665000D01*
X60761156Y-75686355D01*
X60760000Y-75685199D01*
X60760000Y-73718043D01*
X60914759Y-73614637D01*
X61114637Y-73414759D01*
X61250000Y-73212173D01*
X61385363Y-73414759D01*
X61585241Y-73614637D01*
X61820273Y-73771680D01*
X62081426Y-73879853D01*
X62358665Y-73935000D01*
X62641335Y-73935000D01*
X62918574Y-73879853D01*
X63179727Y-73771680D01*
X63414759Y-73614637D01*
X63614637Y-73414759D01*
X63718043Y-73260000D01*
X72822225Y-73260000D01*
X72883038Y-73351013D01*
X73068987Y-73536962D01*
X73287641Y-73683061D01*
X73530595Y-73783696D01*
X73788514Y-73835000D01*
X74051486Y-73835000D01*
X74309405Y-73783696D01*
X74552359Y-73683061D01*
X74771013Y-73536962D01*
X74956962Y-73351013D01*
X75103061Y-73132359D01*
X75203696Y-72889405D01*
X75255000Y-72631486D01*
X75255000Y-72368514D01*
X75203696Y-72110595D01*
X75103061Y-71867641D01*
X74956962Y-71648987D01*
X74771013Y-71463038D01*
X74552359Y-71316939D01*
X74309405Y-71216304D01*
X74051486Y-71165000D01*
X73788514Y-71165000D01*
X73530595Y-71216304D01*
X73287641Y-71316939D01*
X73068987Y-71463038D01*
X72883038Y-71648987D01*
X72822225Y-71740000D01*
X63718043Y-71740000D01*
X63614637Y-71585241D01*
X63414759Y-71385363D01*
X63179727Y-71228320D01*
X62918574Y-71120147D01*
X62641335Y-71065000D01*
X62358665Y-71065000D01*
X62081426Y-71120147D01*
X61820273Y-71228320D01*
X61585241Y-71385363D01*
X61385363Y-71585241D01*
X61250000Y-71787827D01*
X61114637Y-71585241D01*
X60914759Y-71385363D01*
X60760000Y-71281957D01*
X60760000Y-62814801D01*
X69051004Y-54523798D01*
X69080001Y-54500001D01*
X69174974Y-54384276D01*
X69245546Y-54252247D01*
X69289003Y-54108986D01*
X69300000Y-53997333D01*
X69300000Y-53997323D01*
X69303676Y-53960000D01*
X69300000Y-53922677D01*
X69300000Y-50278178D01*
X69486632Y-50153475D01*
X69693475Y-49946632D01*
X69810000Y-49772240D01*
X69926525Y-49946632D01*
X70133368Y-50153475D01*
X70320001Y-50278179D01*
X70320000Y-53542677D01*
X70316324Y-53580000D01*
X70320000Y-53617322D01*
X70320000Y-53617332D01*
X70330997Y-53728985D01*
X70355880Y-53811014D01*
X70374454Y-53872246D01*
X70445026Y-54004276D01*
X70484871Y-54052826D01*
X70539999Y-54120001D01*
X70569003Y-54143804D01*
X78240001Y-61814804D01*
X78240000Y-71402225D01*
X78148987Y-71463038D01*
X77963038Y-71648987D01*
X77816939Y-71867641D01*
X77716304Y-72110595D01*
X77665000Y-72368514D01*
X77665000Y-72631486D01*
X77716304Y-72889405D01*
X77816939Y-73132359D01*
X77963038Y-73351013D01*
X78148987Y-73536962D01*
X78240000Y-73597775D01*
X78240001Y-75105197D01*
X77738843Y-75606355D01*
X77631486Y-75585000D01*
X77368514Y-75585000D01*
X77110595Y-75636304D01*
X76867641Y-75736939D01*
X76648987Y-75883038D01*
X76463038Y-76068987D01*
X76316939Y-76287641D01*
X76216304Y-76530595D01*
X76165000Y-76788514D01*
X76165000Y-77051486D01*
X76216304Y-77309405D01*
X76316939Y-77552359D01*
X76463038Y-77771013D01*
X76648987Y-77956962D01*
X76867641Y-78103061D01*
X77110595Y-78203696D01*
X77368514Y-78255000D01*
X77631486Y-78255000D01*
X77889405Y-78203696D01*
X78132359Y-78103061D01*
X78351013Y-77956962D01*
X78536962Y-77771013D01*
X78683061Y-77552359D01*
X78783696Y-77309405D01*
X78835000Y-77051486D01*
X78835000Y-76788514D01*
X78813645Y-76681157D01*
X78960000Y-76534801D01*
X79856201Y-77431003D01*
X79879999Y-77460001D01*
X79995724Y-77554974D01*
X80127753Y-77625546D01*
X80271014Y-77669003D01*
X80382667Y-77680000D01*
X80382676Y-77680000D01*
X80403603Y-77682061D01*
X80463038Y-77771013D01*
X80648987Y-77956962D01*
X80867641Y-78103061D01*
X81110595Y-78203696D01*
X81368514Y-78255000D01*
X81631486Y-78255000D01*
X81889405Y-78203696D01*
X82132359Y-78103061D01*
X82351013Y-77956962D01*
X82536962Y-77771013D01*
X82683061Y-77552359D01*
X82783696Y-77309405D01*
X82835000Y-77051486D01*
X82835000Y-76788514D01*
X82783696Y-76530595D01*
X82683061Y-76287641D01*
X82536962Y-76068987D01*
X82351013Y-75883038D01*
X82132359Y-75736939D01*
X81889405Y-75636304D01*
X81631486Y-75585000D01*
X81368514Y-75585000D01*
X81110595Y-75636304D01*
X80867641Y-75736939D01*
X80648987Y-75883038D01*
X80553413Y-75978612D01*
X79760000Y-75185199D01*
X79760000Y-73597775D01*
X79851013Y-73536962D01*
X80036962Y-73351013D01*
X80183061Y-73132359D01*
X80283696Y-72889405D01*
X80335000Y-72631486D01*
X80335000Y-72368514D01*
X80283696Y-72110595D01*
X80183061Y-71867641D01*
X80036962Y-71648987D01*
X79851013Y-71463038D01*
X79760000Y-71402225D01*
X79760000Y-61537322D01*
X79763676Y-61499999D01*
X79760000Y-61462676D01*
X79760000Y-61462667D01*
X79749003Y-61351014D01*
X79705546Y-61207753D01*
X79634974Y-61075724D01*
X79621811Y-61059685D01*
X79563799Y-60988996D01*
X79563795Y-60988992D01*
X79540001Y-60959999D01*
X79511008Y-60936205D01*
X71840000Y-53265199D01*
X71840000Y-50278178D01*
X72026632Y-50153475D01*
X72233475Y-49946632D01*
X72395990Y-49703411D01*
X72507932Y-49433158D01*
X72565000Y-49146260D01*
X72565000Y-48853740D01*
X72507932Y-48566842D01*
X72395990Y-48296589D01*
X72233475Y-48053368D01*
X72026632Y-47846525D01*
X71783411Y-47684010D01*
X71513158Y-47572068D01*
X71226260Y-47515000D01*
X70933740Y-47515000D01*
X70646842Y-47572068D01*
X70376589Y-47684010D01*
X70133368Y-47846525D01*
X69926525Y-48053368D01*
X69810000Y-48227760D01*
X69693475Y-48053368D01*
X69486632Y-47846525D01*
X69243411Y-47684010D01*
X68973158Y-47572068D01*
X68686260Y-47515000D01*
X68393740Y-47515000D01*
X68106842Y-47572068D01*
X67836589Y-47684010D01*
X67593368Y-47846525D01*
X67386525Y-48053368D01*
X67224010Y-48296589D01*
X67112068Y-48566842D01*
X67055000Y-48853740D01*
X67055000Y-49146260D01*
X67112068Y-49433158D01*
X67224010Y-49703411D01*
X67386525Y-49946632D01*
X67593368Y-50153475D01*
X67780001Y-50278179D01*
X67780000Y-53645198D01*
X59488998Y-61936201D01*
X59460000Y-61959999D01*
X59436202Y-61988997D01*
X59436201Y-61988998D01*
X59365026Y-62075724D01*
X59294454Y-62207754D01*
X59250998Y-62351015D01*
X59236324Y-62500000D01*
X59240001Y-62537332D01*
X59240000Y-71281956D01*
X59085241Y-71385363D01*
X58885363Y-71585241D01*
X58728320Y-71820273D01*
X58620147Y-72081426D01*
X58565000Y-72358665D01*
X58565000Y-72641335D01*
X58620147Y-72918574D01*
X58728320Y-73179727D01*
X58885363Y-73414759D01*
X59085241Y-73614637D01*
X59240000Y-73718044D01*
X59240001Y-75962668D01*
X59236324Y-76000000D01*
X59240001Y-76037333D01*
X59250998Y-76148986D01*
X59254339Y-76160000D01*
X59278606Y-76240000D01*
X58097775Y-76240000D01*
X58036962Y-76148987D01*
X57851013Y-75963038D01*
X57632359Y-75816939D01*
X57389405Y-75716304D01*
X57131486Y-75665000D01*
X56868514Y-75665000D01*
X56610595Y-75716304D01*
X56367641Y-75816939D01*
X56148987Y-75963038D01*
X55963038Y-76148987D01*
X55816939Y-76367641D01*
X55716304Y-76610595D01*
X55665000Y-76868514D01*
X52660000Y-76868514D01*
X52660000Y-45660000D01*
X54524985Y-45660000D01*
X54299227Y-45753512D01*
%TA.AperFunction,Conductor*%
D23*
G36*
X54299227Y-45753512D02*
G01*
X53884032Y-46030937D01*
X53530937Y-46384032D01*
X53253512Y-46799227D01*
X53062418Y-47260568D01*
X52965000Y-47750324D01*
X52965000Y-48249676D01*
X53062418Y-48739432D01*
X53253512Y-49200773D01*
X53530937Y-49615968D01*
X53884032Y-49969063D01*
X54299227Y-50246488D01*
X54760568Y-50437582D01*
X55250324Y-50535000D01*
X55749676Y-50535000D01*
X56239432Y-50437582D01*
X56700773Y-50246488D01*
X57115968Y-49969063D01*
X57469063Y-49615968D01*
X57746488Y-49200773D01*
X57937582Y-48739432D01*
X58035000Y-48249676D01*
X58035000Y-47750324D01*
X57937582Y-47260568D01*
X57746488Y-46799227D01*
X57469063Y-46384032D01*
X57115968Y-46030937D01*
X56700773Y-45753512D01*
X56475015Y-45660000D01*
X82024985Y-45660000D01*
X81799227Y-45753512D01*
X81384032Y-46030937D01*
X81030937Y-46384032D01*
X80753512Y-46799227D01*
X80562418Y-47260568D01*
X80465000Y-47750324D01*
X80465000Y-48249676D01*
X80562418Y-48739432D01*
X80753512Y-49200773D01*
X81030937Y-49615968D01*
X81384032Y-49969063D01*
X81799227Y-50246488D01*
X82260568Y-50437582D01*
X82750324Y-50535000D01*
X83249676Y-50535000D01*
X83739432Y-50437582D01*
X84200773Y-50246488D01*
X84615968Y-49969063D01*
X84969063Y-49615968D01*
X85246488Y-49200773D01*
X85340001Y-48975013D01*
X85340000Y-109024985D01*
X85246488Y-108799227D01*
X84969063Y-108384032D01*
X84615968Y-108030937D01*
X84200773Y-107753512D01*
X83739432Y-107562418D01*
X83249676Y-107465000D01*
X82750324Y-107465000D01*
X82260568Y-107562418D01*
X81799227Y-107753512D01*
X81384032Y-108030937D01*
X81030937Y-108384032D01*
X80753512Y-108799227D01*
X80562418Y-109260568D01*
X80465000Y-109750324D01*
X80465000Y-110249676D01*
X80562418Y-110739432D01*
X80753512Y-111200773D01*
X81030937Y-111615968D01*
X81384032Y-111969063D01*
X81799227Y-112246488D01*
X82024985Y-112340000D01*
X55975015Y-112340000D01*
X56200773Y-112246488D01*
X56615968Y-111969063D01*
X56969063Y-111615968D01*
X57246488Y-111200773D01*
X57437582Y-110739432D01*
X57535000Y-110249676D01*
X57535000Y-109750324D01*
X57437582Y-109260568D01*
X57246488Y-108799227D01*
X56969063Y-108384032D01*
X56615968Y-108030937D01*
X56200773Y-107753512D01*
X55739432Y-107562418D01*
X55249676Y-107465000D01*
X54750324Y-107465000D01*
X54260568Y-107562418D01*
X53799227Y-107753512D01*
X53384032Y-108030937D01*
X53030937Y-108384032D01*
X52753512Y-108799227D01*
X52660000Y-109024985D01*
X52660000Y-91358665D01*
X55565000Y-91358665D01*
X55565000Y-91641335D01*
X55620147Y-91918574D01*
X55728320Y-92179727D01*
X55885363Y-92414759D01*
X56085241Y-92614637D01*
X56287827Y-92750000D01*
X56085241Y-92885363D01*
X55885363Y-93085241D01*
X55728320Y-93320273D01*
X55620147Y-93581426D01*
X55565000Y-93858665D01*
X55565000Y-94141335D01*
X55620147Y-94418574D01*
X55728320Y-94679727D01*
X55885363Y-94914759D01*
X56085241Y-95114637D01*
X56280066Y-95244815D01*
X56294454Y-95292246D01*
X56365026Y-95424276D01*
X56404871Y-95472826D01*
X56459999Y-95540001D01*
X56489003Y-95563804D01*
X59101312Y-98176115D01*
X59065000Y-98358665D01*
X59065000Y-98641335D01*
X59101312Y-98823887D01*
X58863997Y-99061202D01*
X58834999Y-99085000D01*
X58811201Y-99113998D01*
X58811200Y-99113999D01*
X58740025Y-99200725D01*
X58669453Y-99332755D01*
X58644578Y-99414759D01*
X58625997Y-99476015D01*
X58615133Y-99586322D01*
X58611323Y-99625001D01*
X58615000Y-99662333D01*
X58614999Y-108377677D01*
X58611323Y-108414999D01*
X58614999Y-108452321D01*
X58614999Y-108452331D01*
X58625996Y-108563984D01*
X58652089Y-108650002D01*
X58669453Y-108707245D01*
X58740025Y-108839275D01*
X58779870Y-108887825D01*
X58834998Y-108955000D01*
X58864001Y-108978803D01*
X58971928Y-109086729D01*
X58971928Y-110350000D01*
X58984188Y-110474482D01*
X59020498Y-110594180D01*
X59079463Y-110704494D01*
X59158815Y-110801185D01*
X59255506Y-110880537D01*
X59365820Y-110939502D01*
X59485518Y-110975812D01*
X59610000Y-110988072D01*
X61310000Y-110988072D01*
X61434482Y-110975812D01*
X61554180Y-110939502D01*
X61664494Y-110880537D01*
X61761185Y-110801185D01*
X61840537Y-110704494D01*
X61899502Y-110594180D01*
X61935812Y-110474482D01*
X61948072Y-110350000D01*
X61948072Y-108650000D01*
X61935812Y-108525518D01*
X61899502Y-108405820D01*
X61840537Y-108295506D01*
X61761185Y-108198815D01*
X61664494Y-108119463D01*
X61554180Y-108060498D01*
X61434482Y-108024188D01*
X61310000Y-108011928D01*
X60134999Y-108011928D01*
X60134999Y-107558072D01*
X61300000Y-107558072D01*
X61424482Y-107545812D01*
X61544180Y-107509502D01*
X61654494Y-107450537D01*
X61751185Y-107371185D01*
X61830537Y-107274494D01*
X61889502Y-107164180D01*
X61925812Y-107044482D01*
X61938072Y-106920000D01*
X61938072Y-106880000D01*
X75561928Y-106880000D01*
X75561928Y-106920000D01*
X75574188Y-107044482D01*
X75610498Y-107164180D01*
X75669463Y-107274494D01*
X75748815Y-107371185D01*
X75845506Y-107450537D01*
X75955820Y-107509502D01*
X76075518Y-107545812D01*
X76200000Y-107558072D01*
X77800000Y-107558072D01*
X77924482Y-107545812D01*
X78044180Y-107509502D01*
X78089999Y-107485011D01*
X78089999Y-108015000D01*
X77853740Y-108015000D01*
X77566842Y-108072068D01*
X77296589Y-108184010D01*
X77053368Y-108346525D01*
X76846525Y-108553368D01*
X76684010Y-108796589D01*
X76572068Y-109066842D01*
X76515000Y-109353740D01*
X76515000Y-109646260D01*
X76572068Y-109933158D01*
X76684010Y-110203411D01*
X76846525Y-110446632D01*
X77053368Y-110653475D01*
X77296589Y-110815990D01*
X77566842Y-110927932D01*
X77853740Y-110985000D01*
X78146260Y-110985000D01*
X78433158Y-110927932D01*
X78703411Y-110815990D01*
X78946632Y-110653475D01*
X79153475Y-110446632D01*
X79315990Y-110203411D01*
X79427932Y-109933158D01*
X79485000Y-109646260D01*
X79485000Y-109353740D01*
X79440251Y-109128771D01*
X79447002Y-109120545D01*
X79484973Y-109074278D01*
X79555545Y-108942248D01*
X79560473Y-108926001D01*
X79599002Y-108798987D01*
X79609999Y-108687334D01*
X79609999Y-108687325D01*
X79613675Y-108650002D01*
X79609999Y-108612679D01*
X79609999Y-100387324D01*
X79613675Y-100349999D01*
X79609999Y-100312674D01*
X79609999Y-100312666D01*
X79599002Y-100201013D01*
X79555545Y-100057752D01*
X79484973Y-99925723D01*
X79390000Y-99809998D01*
X79361002Y-99786200D01*
X78398688Y-98823886D01*
X78435000Y-98641335D01*
X78435000Y-98358665D01*
X78398688Y-98176113D01*
X81139802Y-95435000D01*
X81141335Y-95435000D01*
X81418574Y-95379853D01*
X81679727Y-95271680D01*
X81914759Y-95114637D01*
X82114637Y-94914759D01*
X82271680Y-94679727D01*
X82379853Y-94418574D01*
X82435000Y-94141335D01*
X82435000Y-93858665D01*
X82379853Y-93581426D01*
X82271680Y-93320273D01*
X82114637Y-93085241D01*
X81914759Y-92885363D01*
X81712173Y-92750000D01*
X81914759Y-92614637D01*
X82114637Y-92414759D01*
X82271680Y-92179727D01*
X82379853Y-91918574D01*
X82435000Y-91641335D01*
X82435000Y-91358665D01*
X82379853Y-91081426D01*
X82271680Y-90820273D01*
X82114637Y-90585241D01*
X81914759Y-90385363D01*
X81679727Y-90228320D01*
X81418574Y-90120147D01*
X81141335Y-90065000D01*
X80858665Y-90065000D01*
X80581426Y-90120147D01*
X80320273Y-90228320D01*
X80085241Y-90385363D01*
X79885363Y-90585241D01*
X79781957Y-90740000D01*
X78894803Y-90740000D01*
X78313645Y-90158843D01*
X78335000Y-90051486D01*
X78335000Y-89788514D01*
X78313645Y-89681156D01*
X82011003Y-85983799D01*
X82040001Y-85960001D01*
X82066332Y-85927917D01*
X82134974Y-85844277D01*
X82205546Y-85712247D01*
X82249003Y-85568986D01*
X82260000Y-85457333D01*
X82260000Y-85457324D01*
X82263676Y-85420001D01*
X82260000Y-85382678D01*
X82260000Y-83097775D01*
X82351013Y-83036962D01*
X82536962Y-82851013D01*
X82683061Y-82632359D01*
X82783696Y-82389405D01*
X82835000Y-82131486D01*
X82835000Y-81868514D01*
X82783696Y-81610595D01*
X82683061Y-81367641D01*
X82536962Y-81148987D01*
X82351013Y-80963038D01*
X82132359Y-80816939D01*
X81889405Y-80716304D01*
X81631486Y-80665000D01*
X81368514Y-80665000D01*
X81110595Y-80716304D01*
X80867641Y-80816939D01*
X80648987Y-80963038D01*
X80463038Y-81148987D01*
X80316939Y-81367641D01*
X80216304Y-81610595D01*
X80165000Y-81868514D01*
X80165000Y-82131486D01*
X80216304Y-82389405D01*
X80316939Y-82632359D01*
X80463038Y-82851013D01*
X80648987Y-83036962D01*
X80740000Y-83097775D01*
X80740001Y-85105197D01*
X77760000Y-88085199D01*
X77760000Y-87337322D01*
X77763676Y-87299999D01*
X77760000Y-87262677D01*
X77760000Y-87262667D01*
X77749003Y-87151014D01*
X77705546Y-87007753D01*
X77680021Y-86959999D01*
X77634974Y-86875723D01*
X77563799Y-86788997D01*
X77540001Y-86759999D01*
X77511003Y-86736201D01*
X72413645Y-81638844D01*
X72435000Y-81531486D01*
X72435000Y-81268514D01*
X72383696Y-81010595D01*
X72283061Y-80767641D01*
X72277955Y-80760000D01*
X75185199Y-80760000D01*
X76186355Y-81761157D01*
X76165000Y-81868514D01*
X76165000Y-82131486D01*
X76216304Y-82389405D01*
X76316939Y-82632359D01*
X76463038Y-82851013D01*
X76648987Y-83036962D01*
X76867641Y-83183061D01*
X77110595Y-83283696D01*
X77368514Y-83335000D01*
X77631486Y-83335000D01*
X77889405Y-83283696D01*
X78132359Y-83183061D01*
X78351013Y-83036962D01*
X78536962Y-82851013D01*
X78683061Y-82632359D01*
X78783696Y-82389405D01*
X78835000Y-82131486D01*
X78835000Y-81868514D01*
X78783696Y-81610595D01*
X78683061Y-81367641D01*
X78536962Y-81148987D01*
X78351013Y-80963038D01*
X78132359Y-80816939D01*
X77889405Y-80716304D01*
X77631486Y-80665000D01*
X77368514Y-80665000D01*
X77261157Y-80686355D01*
X76063804Y-79489003D01*
X76040001Y-79459999D01*
X75924276Y-79365026D01*
X75792247Y-79294454D01*
X75648986Y-79250997D01*
X75537333Y-79240000D01*
X75537322Y-79240000D01*
X75500000Y-79236324D01*
X75462678Y-79240000D01*
X71597775Y-79240000D01*
X71536962Y-79148987D01*
X71351013Y-78963038D01*
X71132359Y-78816939D01*
X70889405Y-78716304D01*
X70631486Y-78665000D01*
X70368514Y-78665000D01*
X70144282Y-78709603D01*
X70036962Y-78548987D01*
X69851013Y-78363038D01*
X69632359Y-78216939D01*
X69389405Y-78116304D01*
X69131486Y-78065000D01*
X68868514Y-78065000D01*
X68610595Y-78116304D01*
X68367641Y-78216939D01*
X68148987Y-78363038D01*
X67963038Y-78548987D01*
X67816939Y-78767641D01*
X67716304Y-79010595D01*
X67665000Y-79268514D01*
X67665000Y-79531486D01*
X67716304Y-79789405D01*
X67816939Y-80032359D01*
X67963038Y-80251013D01*
X68148987Y-80436962D01*
X68247432Y-80502741D01*
X68250997Y-80538934D01*
X68284381Y-80648987D01*
X68294454Y-80682195D01*
X68365026Y-80814225D01*
X68402592Y-80859999D01*
X68459999Y-80929950D01*
X68489002Y-80953753D01*
X69315000Y-81779751D01*
X69315000Y-82201504D01*
X69131486Y-82165000D01*
X68868514Y-82165000D01*
X68610595Y-82216304D01*
X68588153Y-82225600D01*
X68536962Y-82148987D01*
X68351013Y-81963038D01*
X68190397Y-81855718D01*
X68235000Y-81631486D01*
X68235000Y-81368514D01*
X68183696Y-81110595D01*
X68083061Y-80867641D01*
X67936962Y-80648987D01*
X67751013Y-80463038D01*
X67532359Y-80316939D01*
X67289405Y-80216304D01*
X67031486Y-80165000D01*
X66768514Y-80165000D01*
X66510595Y-80216304D01*
X66320609Y-80294999D01*
X58062323Y-80294999D01*
X58025000Y-80291323D01*
X57987677Y-80294999D01*
X57987668Y-80294999D01*
X57876015Y-80305996D01*
X57732754Y-80349453D01*
X57600725Y-80420025D01*
X57485000Y-80514998D01*
X57461202Y-80543996D01*
X57238843Y-80766355D01*
X57131486Y-80745000D01*
X56868514Y-80745000D01*
X56610595Y-80796304D01*
X56367641Y-80896939D01*
X56148987Y-81043038D01*
X55963038Y-81228987D01*
X55816939Y-81447641D01*
X55716304Y-81690595D01*
X55665000Y-81948514D01*
X55665000Y-82211486D01*
X55716304Y-82469405D01*
X55816939Y-82712359D01*
X55963038Y-82931013D01*
X56148987Y-83116962D01*
X56367641Y-83263061D01*
X56610595Y-83363696D01*
X56868514Y-83415000D01*
X57131486Y-83415000D01*
X57238844Y-83393645D01*
X60240001Y-86394803D01*
X60240000Y-88822225D01*
X60148987Y-88883038D01*
X59963038Y-89068987D01*
X59816939Y-89287641D01*
X59716304Y-89530595D01*
X59665000Y-89788514D01*
X59665000Y-90051486D01*
X59686355Y-90158843D01*
X59105199Y-90740000D01*
X58218043Y-90740000D01*
X58114637Y-90585241D01*
X57914759Y-90385363D01*
X57679727Y-90228320D01*
X57418574Y-90120147D01*
X57141335Y-90065000D01*
X56858665Y-90065000D01*
X56581426Y-90120147D01*
X56320273Y-90228320D01*
X56085241Y-90385363D01*
X55885363Y-90585241D01*
X55728320Y-90820273D01*
X55620147Y-91081426D01*
X55565000Y-91358665D01*
X52660000Y-91358665D01*
X52660000Y-76868514D01*
X55665000Y-76868514D01*
X55665000Y-77131486D01*
X55716304Y-77389405D01*
X55816939Y-77632359D01*
X55963038Y-77851013D01*
X56148987Y-78036962D01*
X56367641Y-78183061D01*
X56610595Y-78283696D01*
X56868514Y-78335000D01*
X57131486Y-78335000D01*
X57389405Y-78283696D01*
X57632359Y-78183061D01*
X57851013Y-78036962D01*
X58036962Y-77851013D01*
X58097775Y-77760000D01*
X59902225Y-77760000D01*
X59963038Y-77851013D01*
X60148987Y-78036962D01*
X60367641Y-78183061D01*
X60610595Y-78283696D01*
X60868514Y-78335000D01*
X61131486Y-78335000D01*
X61389405Y-78283696D01*
X61632359Y-78183061D01*
X61851013Y-78036962D01*
X62036962Y-77851013D01*
X62183061Y-77632359D01*
X62283696Y-77389405D01*
X62335000Y-77131486D01*
X62335000Y-76868514D01*
X62283696Y-76610595D01*
X62183061Y-76367641D01*
X62036962Y-76148987D01*
X61851013Y-75963038D01*
X61632359Y-75816939D01*
X61389405Y-75716304D01*
X61131486Y-75665000D01*
X60868514Y-75665000D01*
X60761156Y-75686355D01*
X60760000Y-75685199D01*
X60760000Y-73718043D01*
X60914759Y-73614637D01*
X61114637Y-73414759D01*
X61250000Y-73212173D01*
X61385363Y-73414759D01*
X61585241Y-73614637D01*
X61820273Y-73771680D01*
X62081426Y-73879853D01*
X62358665Y-73935000D01*
X62641335Y-73935000D01*
X62918574Y-73879853D01*
X63179727Y-73771680D01*
X63414759Y-73614637D01*
X63614637Y-73414759D01*
X63718043Y-73260000D01*
X72822225Y-73260000D01*
X72883038Y-73351013D01*
X73068987Y-73536962D01*
X73287641Y-73683061D01*
X73530595Y-73783696D01*
X73788514Y-73835000D01*
X74051486Y-73835000D01*
X74309405Y-73783696D01*
X74552359Y-73683061D01*
X74771013Y-73536962D01*
X74956962Y-73351013D01*
X75103061Y-73132359D01*
X75203696Y-72889405D01*
X75255000Y-72631486D01*
X75255000Y-72368514D01*
X75203696Y-72110595D01*
X75103061Y-71867641D01*
X74956962Y-71648987D01*
X74771013Y-71463038D01*
X74552359Y-71316939D01*
X74309405Y-71216304D01*
X74051486Y-71165000D01*
X73788514Y-71165000D01*
X73530595Y-71216304D01*
X73287641Y-71316939D01*
X73068987Y-71463038D01*
X72883038Y-71648987D01*
X72822225Y-71740000D01*
X63718043Y-71740000D01*
X63614637Y-71585241D01*
X63414759Y-71385363D01*
X63179727Y-71228320D01*
X62918574Y-71120147D01*
X62641335Y-71065000D01*
X62358665Y-71065000D01*
X62081426Y-71120147D01*
X61820273Y-71228320D01*
X61585241Y-71385363D01*
X61385363Y-71585241D01*
X61250000Y-71787827D01*
X61114637Y-71585241D01*
X60914759Y-71385363D01*
X60760000Y-71281957D01*
X60760000Y-62814801D01*
X69051004Y-54523798D01*
X69080001Y-54500001D01*
X69174974Y-54384276D01*
X69245546Y-54252247D01*
X69289003Y-54108986D01*
X69300000Y-53997333D01*
X69300000Y-53997323D01*
X69303676Y-53960000D01*
X69300000Y-53922677D01*
X69300000Y-50278178D01*
X69486632Y-50153475D01*
X69693475Y-49946632D01*
X69810000Y-49772240D01*
X69926525Y-49946632D01*
X70133368Y-50153475D01*
X70320001Y-50278179D01*
X70320000Y-53542677D01*
X70316324Y-53580000D01*
X70320000Y-53617322D01*
X70320000Y-53617332D01*
X70330997Y-53728985D01*
X70355880Y-53811014D01*
X70374454Y-53872246D01*
X70445026Y-54004276D01*
X70484871Y-54052826D01*
X70539999Y-54120001D01*
X70569003Y-54143804D01*
X78240001Y-61814804D01*
X78240000Y-71402225D01*
X78148987Y-71463038D01*
X77963038Y-71648987D01*
X77816939Y-71867641D01*
X77716304Y-72110595D01*
X77665000Y-72368514D01*
X77665000Y-72631486D01*
X77716304Y-72889405D01*
X77816939Y-73132359D01*
X77963038Y-73351013D01*
X78148987Y-73536962D01*
X78240000Y-73597775D01*
X78240001Y-75105197D01*
X77738843Y-75606355D01*
X77631486Y-75585000D01*
X77368514Y-75585000D01*
X77110595Y-75636304D01*
X76867641Y-75736939D01*
X76648987Y-75883038D01*
X76463038Y-76068987D01*
X76316939Y-76287641D01*
X76216304Y-76530595D01*
X76165000Y-76788514D01*
X76165000Y-77051486D01*
X76216304Y-77309405D01*
X76316939Y-77552359D01*
X76463038Y-77771013D01*
X76648987Y-77956962D01*
X76867641Y-78103061D01*
X77110595Y-78203696D01*
X77368514Y-78255000D01*
X77631486Y-78255000D01*
X77889405Y-78203696D01*
X78132359Y-78103061D01*
X78351013Y-77956962D01*
X78536962Y-77771013D01*
X78683061Y-77552359D01*
X78783696Y-77309405D01*
X78835000Y-77051486D01*
X78835000Y-76788514D01*
X78813645Y-76681157D01*
X78960000Y-76534801D01*
X79856201Y-77431003D01*
X79879999Y-77460001D01*
X79995724Y-77554974D01*
X80127753Y-77625546D01*
X80271014Y-77669003D01*
X80382667Y-77680000D01*
X80382676Y-77680000D01*
X80403603Y-77682061D01*
X80463038Y-77771013D01*
X80648987Y-77956962D01*
X80867641Y-78103061D01*
X81110595Y-78203696D01*
X81368514Y-78255000D01*
X81631486Y-78255000D01*
X81889405Y-78203696D01*
X82132359Y-78103061D01*
X82351013Y-77956962D01*
X82536962Y-77771013D01*
X82683061Y-77552359D01*
X82783696Y-77309405D01*
X82835000Y-77051486D01*
X82835000Y-76788514D01*
X82783696Y-76530595D01*
X82683061Y-76287641D01*
X82536962Y-76068987D01*
X82351013Y-75883038D01*
X82132359Y-75736939D01*
X81889405Y-75636304D01*
X81631486Y-75585000D01*
X81368514Y-75585000D01*
X81110595Y-75636304D01*
X80867641Y-75736939D01*
X80648987Y-75883038D01*
X80553413Y-75978612D01*
X79760000Y-75185199D01*
X79760000Y-73597775D01*
X79851013Y-73536962D01*
X80036962Y-73351013D01*
X80183061Y-73132359D01*
X80283696Y-72889405D01*
X80335000Y-72631486D01*
X80335000Y-72368514D01*
X80283696Y-72110595D01*
X80183061Y-71867641D01*
X80036962Y-71648987D01*
X79851013Y-71463038D01*
X79760000Y-71402225D01*
X79760000Y-61537322D01*
X79763676Y-61499999D01*
X79760000Y-61462676D01*
X79760000Y-61462667D01*
X79749003Y-61351014D01*
X79705546Y-61207753D01*
X79634974Y-61075724D01*
X79621811Y-61059685D01*
X79563799Y-60988996D01*
X79563795Y-60988992D01*
X79540001Y-60959999D01*
X79511008Y-60936205D01*
X71840000Y-53265199D01*
X71840000Y-50278178D01*
X72026632Y-50153475D01*
X72233475Y-49946632D01*
X72395990Y-49703411D01*
X72507932Y-49433158D01*
X72565000Y-49146260D01*
X72565000Y-48853740D01*
X72507932Y-48566842D01*
X72395990Y-48296589D01*
X72233475Y-48053368D01*
X72026632Y-47846525D01*
X71783411Y-47684010D01*
X71513158Y-47572068D01*
X71226260Y-47515000D01*
X70933740Y-47515000D01*
X70646842Y-47572068D01*
X70376589Y-47684010D01*
X70133368Y-47846525D01*
X69926525Y-48053368D01*
X69810000Y-48227760D01*
X69693475Y-48053368D01*
X69486632Y-47846525D01*
X69243411Y-47684010D01*
X68973158Y-47572068D01*
X68686260Y-47515000D01*
X68393740Y-47515000D01*
X68106842Y-47572068D01*
X67836589Y-47684010D01*
X67593368Y-47846525D01*
X67386525Y-48053368D01*
X67224010Y-48296589D01*
X67112068Y-48566842D01*
X67055000Y-48853740D01*
X67055000Y-49146260D01*
X67112068Y-49433158D01*
X67224010Y-49703411D01*
X67386525Y-49946632D01*
X67593368Y-50153475D01*
X67780001Y-50278179D01*
X67780000Y-53645198D01*
X59488998Y-61936201D01*
X59460000Y-61959999D01*
X59436202Y-61988997D01*
X59436201Y-61988998D01*
X59365026Y-62075724D01*
X59294454Y-62207754D01*
X59250998Y-62351015D01*
X59236324Y-62500000D01*
X59240001Y-62537332D01*
X59240000Y-71281956D01*
X59085241Y-71385363D01*
X58885363Y-71585241D01*
X58728320Y-71820273D01*
X58620147Y-72081426D01*
X58565000Y-72358665D01*
X58565000Y-72641335D01*
X58620147Y-72918574D01*
X58728320Y-73179727D01*
X58885363Y-73414759D01*
X59085241Y-73614637D01*
X59240000Y-73718044D01*
X59240001Y-75962668D01*
X59236324Y-76000000D01*
X59240001Y-76037333D01*
X59250998Y-76148986D01*
X59254339Y-76160000D01*
X59278606Y-76240000D01*
X58097775Y-76240000D01*
X58036962Y-76148987D01*
X57851013Y-75963038D01*
X57632359Y-75816939D01*
X57389405Y-75716304D01*
X57131486Y-75665000D01*
X56868514Y-75665000D01*
X56610595Y-75716304D01*
X56367641Y-75816939D01*
X56148987Y-75963038D01*
X55963038Y-76148987D01*
X55816939Y-76367641D01*
X55716304Y-76610595D01*
X55665000Y-76868514D01*
X52660000Y-76868514D01*
X52660000Y-45660000D01*
X54524985Y-45660000D01*
X54299227Y-45753512D01*
G37*
%TD.AperFunction*%
D22*
X59665000Y-81948514D02*
X59665000Y-82211486D01*
X59716304Y-82469405D01*
X59816939Y-82712359D01*
X59963038Y-82931013D01*
X60148987Y-83116962D01*
X60367641Y-83263061D01*
X60610595Y-83363696D01*
X60868514Y-83415000D01*
X61131486Y-83415000D01*
X61238843Y-83393645D01*
X61356205Y-83511008D01*
X61379999Y-83540001D01*
X61408992Y-83563795D01*
X61408996Y-83563799D01*
X61479685Y-83621811D01*
X61495724Y-83634974D01*
X61627753Y-83705546D01*
X61771014Y-83749003D01*
X61882667Y-83760000D01*
X61882676Y-83760000D01*
X61919999Y-83763676D01*
X61957322Y-83760000D01*
X66402225Y-83760000D01*
X66463038Y-83851013D01*
X66648987Y-84036962D01*
X66867641Y-84183061D01*
X67110595Y-84283696D01*
X67136374Y-84288824D01*
X64488998Y-86936201D01*
X64460000Y-86959999D01*
X64436202Y-86988997D01*
X64436201Y-86988998D01*
X64365026Y-87075724D01*
X64294454Y-87207754D01*
X64250998Y-87351015D01*
X64236324Y-87500000D01*
X64240001Y-87537332D01*
X64240000Y-88822225D01*
X64148987Y-88883038D01*
X63963038Y-89068987D01*
X63816939Y-89287641D01*
X63716304Y-89530595D01*
X63665000Y-89788514D01*
X63665000Y-90051486D01*
X63716304Y-90309405D01*
X63816939Y-90552359D01*
X63963038Y-90771013D01*
X64148987Y-90956962D01*
X64367641Y-91103061D01*
X64610595Y-91203696D01*
X64868514Y-91255000D01*
X65131486Y-91255000D01*
X65389405Y-91203696D01*
X65632359Y-91103061D01*
X65851013Y-90956962D01*
X66036962Y-90771013D01*
X66183061Y-90552359D01*
X66283696Y-90309405D01*
X66335000Y-90051486D01*
X66335000Y-89788514D01*
X66283696Y-89530595D01*
X66183061Y-89287641D01*
X66036962Y-89068987D01*
X65851013Y-88883038D01*
X65760000Y-88822225D01*
X65760000Y-87814801D01*
X68761157Y-84813645D01*
X68868514Y-84835000D01*
X69131486Y-84835000D01*
X69314999Y-84798496D01*
X69314999Y-86957676D01*
X69311323Y-86994999D01*
X69314999Y-87032321D01*
X69314999Y-87032331D01*
X69325996Y-87143984D01*
X69369453Y-87287245D01*
X69440025Y-87419275D01*
X69464408Y-87448985D01*
X69534998Y-87535000D01*
X69564002Y-87558803D01*
X71686355Y-89681157D01*
X71665000Y-89788514D01*
X71665000Y-90051486D01*
X71716304Y-90309405D01*
X71816939Y-90552359D01*
X71963038Y-90771013D01*
X72148987Y-90956962D01*
X72367641Y-91103061D01*
X72610595Y-91203696D01*
X72868514Y-91255000D01*
X73131486Y-91255000D01*
X73389405Y-91203696D01*
X73632359Y-91103061D01*
X73851013Y-90956962D01*
X74036962Y-90771013D01*
X74183061Y-90552359D01*
X74283696Y-90309405D01*
X74335000Y-90051486D01*
X74335000Y-89788514D01*
X74283696Y-89530595D01*
X74183061Y-89287641D01*
X74036962Y-89068987D01*
X73851013Y-88883038D01*
X73632359Y-88736939D01*
X73389405Y-88636304D01*
X73131486Y-88585000D01*
X72868514Y-88585000D01*
X72761157Y-88606355D01*
X70834999Y-86680198D01*
X70834999Y-82708442D01*
X70968514Y-82735000D01*
X71231486Y-82735000D01*
X71338844Y-82713645D01*
X76240001Y-87614803D01*
X76240000Y-88822225D01*
X76148987Y-88883038D01*
X75963038Y-89068987D01*
X75816939Y-89287641D01*
X75716304Y-89530595D01*
X75665000Y-89788514D01*
X75665000Y-90051486D01*
X75716304Y-90309405D01*
X75816939Y-90552359D01*
X75963038Y-90771013D01*
X76148987Y-90956962D01*
X76367641Y-91103061D01*
X76610595Y-91203696D01*
X76868514Y-91255000D01*
X77131486Y-91255000D01*
X77238843Y-91233645D01*
X78016205Y-92011008D01*
X78039999Y-92040001D01*
X78068992Y-92063795D01*
X78068996Y-92063799D01*
X78139685Y-92121811D01*
X78155724Y-92134974D01*
X78287753Y-92205546D01*
X78431014Y-92249003D01*
X78542667Y-92260000D01*
X78542676Y-92260000D01*
X78579999Y-92263676D01*
X78617322Y-92260000D01*
X79781957Y-92260000D01*
X79885363Y-92414759D01*
X80085241Y-92614637D01*
X80287827Y-92750000D01*
X80085241Y-92885363D01*
X79885363Y-93085241D01*
X79728320Y-93320273D01*
X79620147Y-93581426D01*
X79565000Y-93858665D01*
X79565000Y-94141335D01*
X79620147Y-94418574D01*
X79728320Y-94679727D01*
X79735190Y-94690008D01*
X77323887Y-97101312D01*
X77141335Y-97065000D01*
X76858665Y-97065000D01*
X76581426Y-97120147D01*
X76320273Y-97228320D01*
X76085241Y-97385363D01*
X75885363Y-97585241D01*
X75728320Y-97820273D01*
X75620147Y-98081426D01*
X75565000Y-98358665D01*
X75565000Y-98641335D01*
X75620147Y-98918574D01*
X75728320Y-99179727D01*
X75885363Y-99414759D01*
X76085241Y-99614637D01*
X76320273Y-99771680D01*
X76581426Y-99879853D01*
X76858665Y-99935000D01*
X77141335Y-99935000D01*
X77323886Y-99898688D01*
X78090000Y-100664802D01*
X78089999Y-104754989D01*
X78044180Y-104730498D01*
X77924482Y-104694188D01*
X77800000Y-104681928D01*
X76200000Y-104681928D01*
X76075518Y-104694188D01*
X75955820Y-104730498D01*
X75845506Y-104789463D01*
X75748815Y-104868815D01*
X75669463Y-104965506D01*
X75610498Y-105075820D01*
X75574188Y-105195518D01*
X75561928Y-105320000D01*
X75561928Y-105360000D01*
X61938072Y-105360000D01*
X61938072Y-105320000D01*
X61925812Y-105195518D01*
X61889502Y-105075820D01*
X61830537Y-104965506D01*
X61751185Y-104868815D01*
X61654494Y-104789463D01*
X61544180Y-104730498D01*
X61424482Y-104694188D01*
X61300000Y-104681928D01*
X60134999Y-104681928D01*
X60134999Y-99939802D01*
X60176113Y-99898688D01*
X60358665Y-99935000D01*
X60641335Y-99935000D01*
X60918574Y-99879853D01*
X61179727Y-99771680D01*
X61414759Y-99614637D01*
X61614637Y-99414759D01*
X61771680Y-99179727D01*
X61879853Y-98918574D01*
X61935000Y-98641335D01*
X61935000Y-98358665D01*
X61879853Y-98081426D01*
X61771680Y-97820273D01*
X61614637Y-97585241D01*
X61414759Y-97385363D01*
X61179727Y-97228320D01*
X60918574Y-97120147D01*
X60641335Y-97065000D01*
X60358665Y-97065000D01*
X60176115Y-97101312D01*
X58052099Y-94977297D01*
X58114637Y-94914759D01*
X58145536Y-94868514D01*
X63665000Y-94868514D01*
X63665000Y-95131486D01*
X63716304Y-95389405D01*
X63816939Y-95632359D01*
X63963038Y-95851013D01*
X64148987Y-96036962D01*
X64240000Y-96097775D01*
X64240001Y-97962668D01*
X64236324Y-98000000D01*
X64250998Y-98148985D01*
X64294454Y-98292246D01*
X64365026Y-98424276D01*
X64427171Y-98499999D01*
X64460000Y-98540001D01*
X64488998Y-98563799D01*
X66336928Y-100411730D01*
X66336928Y-101250000D01*
X66349188Y-101374482D01*
X66385498Y-101494180D01*
X66444463Y-101604494D01*
X66523815Y-101701185D01*
X66620506Y-101780537D01*
X66730820Y-101839502D01*
X66850518Y-101875812D01*
X66975000Y-101888072D01*
X68025000Y-101888072D01*
X68149482Y-101875812D01*
X68269180Y-101839502D01*
X68333902Y-101804907D01*
X68542601Y-101868215D01*
X68770000Y-101890612D01*
X68997400Y-101868215D01*
X69216060Y-101801885D01*
X69417579Y-101694171D01*
X69594212Y-101549212D01*
X69739171Y-101372579D01*
X69846885Y-101171059D01*
X69913215Y-100952399D01*
X69930000Y-100781978D01*
X69930000Y-100218021D01*
X69913215Y-100047600D01*
X69846885Y-99828940D01*
X69739171Y-99627421D01*
X69594212Y-99450788D01*
X69417578Y-99305829D01*
X69216059Y-99198115D01*
X68997399Y-99131785D01*
X68947892Y-99126909D01*
X72093413Y-95981388D01*
X72148987Y-96036962D01*
X72367641Y-96183061D01*
X72610595Y-96283696D01*
X72868514Y-96335000D01*
X73131486Y-96335000D01*
X73389405Y-96283696D01*
X73632359Y-96183061D01*
X73851013Y-96036962D01*
X74036962Y-95851013D01*
X74183061Y-95632359D01*
X74283696Y-95389405D01*
X74335000Y-95131486D01*
X74335000Y-94868514D01*
X74283696Y-94610595D01*
X74183061Y-94367641D01*
X74036962Y-94148987D01*
X73851013Y-93963038D01*
X73632359Y-93816939D01*
X73389405Y-93716304D01*
X73131486Y-93665000D01*
X72868514Y-93665000D01*
X72610595Y-93716304D01*
X72367641Y-93816939D01*
X72148987Y-93963038D01*
X71963038Y-94148987D01*
X71897968Y-94246372D01*
X71851014Y-94250997D01*
X71707753Y-94294454D01*
X71575723Y-94365026D01*
X71492083Y-94433668D01*
X71459999Y-94459999D01*
X71436201Y-94488997D01*
X67000000Y-98925199D01*
X65760000Y-97685199D01*
X65760000Y-96097775D01*
X65851013Y-96036962D01*
X66036962Y-95851013D01*
X66183061Y-95632359D01*
X66283696Y-95389405D01*
X66335000Y-95131486D01*
X66335000Y-94868514D01*
X67665000Y-94868514D01*
X67665000Y-95131486D01*
X67716304Y-95389405D01*
X67816939Y-95632359D01*
X67963038Y-95851013D01*
X68148987Y-96036962D01*
X68367641Y-96183061D01*
X68610595Y-96283696D01*
X68868514Y-96335000D01*
X69131486Y-96335000D01*
X69389405Y-96283696D01*
X69632359Y-96183061D01*
X69851013Y-96036962D01*
X70036962Y-95851013D01*
X70183061Y-95632359D01*
X70283696Y-95389405D01*
X70335000Y-95131486D01*
X70335000Y-94868514D01*
X70283696Y-94610595D01*
X70183061Y-94367641D01*
X70036962Y-94148987D01*
X69851013Y-93963038D01*
X69632359Y-93816939D01*
X69389405Y-93716304D01*
X69131486Y-93665000D01*
X68868514Y-93665000D01*
X68610595Y-93716304D01*
X68367641Y-93816939D01*
X68148987Y-93963038D01*
X67963038Y-94148987D01*
X67816939Y-94367641D01*
X67716304Y-94610595D01*
X67665000Y-94868514D01*
X66335000Y-94868514D01*
X66283696Y-94610595D01*
X66183061Y-94367641D01*
X66036962Y-94148987D01*
X65851013Y-93963038D01*
X65632359Y-93816939D01*
X65389405Y-93716304D01*
X65131486Y-93665000D01*
X64868514Y-93665000D01*
X64610595Y-93716304D01*
X64367641Y-93816939D01*
X64148987Y-93963038D01*
X63963038Y-94148987D01*
X63816939Y-94367641D01*
X63716304Y-94610595D01*
X63665000Y-94868514D01*
X58145536Y-94868514D01*
X58271680Y-94679727D01*
X58379853Y-94418574D01*
X58435000Y-94141335D01*
X58435000Y-93858665D01*
X58379853Y-93581426D01*
X58271680Y-93320273D01*
X58114637Y-93085241D01*
X57914759Y-92885363D01*
X57712173Y-92750000D01*
X57914759Y-92614637D01*
X58114637Y-92414759D01*
X58218043Y-92260000D01*
X59382678Y-92260000D01*
X59420000Y-92263676D01*
X59457322Y-92260000D01*
X59457333Y-92260000D01*
X59568986Y-92249003D01*
X59712247Y-92205546D01*
X59844276Y-92134974D01*
X59960001Y-92040001D01*
X59983803Y-92010998D01*
X60761157Y-91233645D01*
X60868514Y-91255000D01*
X61131486Y-91255000D01*
X61389405Y-91203696D01*
X61632359Y-91103061D01*
X61851013Y-90956962D01*
X62036962Y-90771013D01*
X62183061Y-90552359D01*
X62283696Y-90309405D01*
X62335000Y-90051486D01*
X62335000Y-89788514D01*
X62283696Y-89530595D01*
X62183061Y-89287641D01*
X62036962Y-89068987D01*
X61851013Y-88883038D01*
X61760000Y-88822225D01*
X61760000Y-86117322D01*
X61763676Y-86079999D01*
X61760000Y-86042676D01*
X61760000Y-86042667D01*
X61749003Y-85931014D01*
X61705546Y-85787753D01*
X61634974Y-85655724D01*
X61540001Y-85539999D01*
X61511003Y-85516201D01*
X58313645Y-82318844D01*
X58335000Y-82211486D01*
X58335000Y-81948514D01*
X58313645Y-81841157D01*
X58339803Y-81814999D01*
X59691558Y-81814999D01*
X59665000Y-81948514D01*
%TA.AperFunction,Conductor*%
D23*
G36*
X59665000Y-81948514D02*
G01*
X59665000Y-82211486D01*
X59716304Y-82469405D01*
X59816939Y-82712359D01*
X59963038Y-82931013D01*
X60148987Y-83116962D01*
X60367641Y-83263061D01*
X60610595Y-83363696D01*
X60868514Y-83415000D01*
X61131486Y-83415000D01*
X61238843Y-83393645D01*
X61356205Y-83511008D01*
X61379999Y-83540001D01*
X61408992Y-83563795D01*
X61408996Y-83563799D01*
X61479685Y-83621811D01*
X61495724Y-83634974D01*
X61627753Y-83705546D01*
X61771014Y-83749003D01*
X61882667Y-83760000D01*
X61882676Y-83760000D01*
X61919999Y-83763676D01*
X61957322Y-83760000D01*
X66402225Y-83760000D01*
X66463038Y-83851013D01*
X66648987Y-84036962D01*
X66867641Y-84183061D01*
X67110595Y-84283696D01*
X67136374Y-84288824D01*
X64488998Y-86936201D01*
X64460000Y-86959999D01*
X64436202Y-86988997D01*
X64436201Y-86988998D01*
X64365026Y-87075724D01*
X64294454Y-87207754D01*
X64250998Y-87351015D01*
X64236324Y-87500000D01*
X64240001Y-87537332D01*
X64240000Y-88822225D01*
X64148987Y-88883038D01*
X63963038Y-89068987D01*
X63816939Y-89287641D01*
X63716304Y-89530595D01*
X63665000Y-89788514D01*
X63665000Y-90051486D01*
X63716304Y-90309405D01*
X63816939Y-90552359D01*
X63963038Y-90771013D01*
X64148987Y-90956962D01*
X64367641Y-91103061D01*
X64610595Y-91203696D01*
X64868514Y-91255000D01*
X65131486Y-91255000D01*
X65389405Y-91203696D01*
X65632359Y-91103061D01*
X65851013Y-90956962D01*
X66036962Y-90771013D01*
X66183061Y-90552359D01*
X66283696Y-90309405D01*
X66335000Y-90051486D01*
X66335000Y-89788514D01*
X66283696Y-89530595D01*
X66183061Y-89287641D01*
X66036962Y-89068987D01*
X65851013Y-88883038D01*
X65760000Y-88822225D01*
X65760000Y-87814801D01*
X68761157Y-84813645D01*
X68868514Y-84835000D01*
X69131486Y-84835000D01*
X69314999Y-84798496D01*
X69314999Y-86957676D01*
X69311323Y-86994999D01*
X69314999Y-87032321D01*
X69314999Y-87032331D01*
X69325996Y-87143984D01*
X69369453Y-87287245D01*
X69440025Y-87419275D01*
X69464408Y-87448985D01*
X69534998Y-87535000D01*
X69564002Y-87558803D01*
X71686355Y-89681157D01*
X71665000Y-89788514D01*
X71665000Y-90051486D01*
X71716304Y-90309405D01*
X71816939Y-90552359D01*
X71963038Y-90771013D01*
X72148987Y-90956962D01*
X72367641Y-91103061D01*
X72610595Y-91203696D01*
X72868514Y-91255000D01*
X73131486Y-91255000D01*
X73389405Y-91203696D01*
X73632359Y-91103061D01*
X73851013Y-90956962D01*
X74036962Y-90771013D01*
X74183061Y-90552359D01*
X74283696Y-90309405D01*
X74335000Y-90051486D01*
X74335000Y-89788514D01*
X74283696Y-89530595D01*
X74183061Y-89287641D01*
X74036962Y-89068987D01*
X73851013Y-88883038D01*
X73632359Y-88736939D01*
X73389405Y-88636304D01*
X73131486Y-88585000D01*
X72868514Y-88585000D01*
X72761157Y-88606355D01*
X70834999Y-86680198D01*
X70834999Y-82708442D01*
X70968514Y-82735000D01*
X71231486Y-82735000D01*
X71338844Y-82713645D01*
X76240001Y-87614803D01*
X76240000Y-88822225D01*
X76148987Y-88883038D01*
X75963038Y-89068987D01*
X75816939Y-89287641D01*
X75716304Y-89530595D01*
X75665000Y-89788514D01*
X75665000Y-90051486D01*
X75716304Y-90309405D01*
X75816939Y-90552359D01*
X75963038Y-90771013D01*
X76148987Y-90956962D01*
X76367641Y-91103061D01*
X76610595Y-91203696D01*
X76868514Y-91255000D01*
X77131486Y-91255000D01*
X77238843Y-91233645D01*
X78016205Y-92011008D01*
X78039999Y-92040001D01*
X78068992Y-92063795D01*
X78068996Y-92063799D01*
X78139685Y-92121811D01*
X78155724Y-92134974D01*
X78287753Y-92205546D01*
X78431014Y-92249003D01*
X78542667Y-92260000D01*
X78542676Y-92260000D01*
X78579999Y-92263676D01*
X78617322Y-92260000D01*
X79781957Y-92260000D01*
X79885363Y-92414759D01*
X80085241Y-92614637D01*
X80287827Y-92750000D01*
X80085241Y-92885363D01*
X79885363Y-93085241D01*
X79728320Y-93320273D01*
X79620147Y-93581426D01*
X79565000Y-93858665D01*
X79565000Y-94141335D01*
X79620147Y-94418574D01*
X79728320Y-94679727D01*
X79735190Y-94690008D01*
X77323887Y-97101312D01*
X77141335Y-97065000D01*
X76858665Y-97065000D01*
X76581426Y-97120147D01*
X76320273Y-97228320D01*
X76085241Y-97385363D01*
X75885363Y-97585241D01*
X75728320Y-97820273D01*
X75620147Y-98081426D01*
X75565000Y-98358665D01*
X75565000Y-98641335D01*
X75620147Y-98918574D01*
X75728320Y-99179727D01*
X75885363Y-99414759D01*
X76085241Y-99614637D01*
X76320273Y-99771680D01*
X76581426Y-99879853D01*
X76858665Y-99935000D01*
X77141335Y-99935000D01*
X77323886Y-99898688D01*
X78090000Y-100664802D01*
X78089999Y-104754989D01*
X78044180Y-104730498D01*
X77924482Y-104694188D01*
X77800000Y-104681928D01*
X76200000Y-104681928D01*
X76075518Y-104694188D01*
X75955820Y-104730498D01*
X75845506Y-104789463D01*
X75748815Y-104868815D01*
X75669463Y-104965506D01*
X75610498Y-105075820D01*
X75574188Y-105195518D01*
X75561928Y-105320000D01*
X75561928Y-105360000D01*
X61938072Y-105360000D01*
X61938072Y-105320000D01*
X61925812Y-105195518D01*
X61889502Y-105075820D01*
X61830537Y-104965506D01*
X61751185Y-104868815D01*
X61654494Y-104789463D01*
X61544180Y-104730498D01*
X61424482Y-104694188D01*
X61300000Y-104681928D01*
X60134999Y-104681928D01*
X60134999Y-99939802D01*
X60176113Y-99898688D01*
X60358665Y-99935000D01*
X60641335Y-99935000D01*
X60918574Y-99879853D01*
X61179727Y-99771680D01*
X61414759Y-99614637D01*
X61614637Y-99414759D01*
X61771680Y-99179727D01*
X61879853Y-98918574D01*
X61935000Y-98641335D01*
X61935000Y-98358665D01*
X61879853Y-98081426D01*
X61771680Y-97820273D01*
X61614637Y-97585241D01*
X61414759Y-97385363D01*
X61179727Y-97228320D01*
X60918574Y-97120147D01*
X60641335Y-97065000D01*
X60358665Y-97065000D01*
X60176115Y-97101312D01*
X58052099Y-94977297D01*
X58114637Y-94914759D01*
X58145536Y-94868514D01*
X63665000Y-94868514D01*
X63665000Y-95131486D01*
X63716304Y-95389405D01*
X63816939Y-95632359D01*
X63963038Y-95851013D01*
X64148987Y-96036962D01*
X64240000Y-96097775D01*
X64240001Y-97962668D01*
X64236324Y-98000000D01*
X64250998Y-98148985D01*
X64294454Y-98292246D01*
X64365026Y-98424276D01*
X64427171Y-98499999D01*
X64460000Y-98540001D01*
X64488998Y-98563799D01*
X66336928Y-100411730D01*
X66336928Y-101250000D01*
X66349188Y-101374482D01*
X66385498Y-101494180D01*
X66444463Y-101604494D01*
X66523815Y-101701185D01*
X66620506Y-101780537D01*
X66730820Y-101839502D01*
X66850518Y-101875812D01*
X66975000Y-101888072D01*
X68025000Y-101888072D01*
X68149482Y-101875812D01*
X68269180Y-101839502D01*
X68333902Y-101804907D01*
X68542601Y-101868215D01*
X68770000Y-101890612D01*
X68997400Y-101868215D01*
X69216060Y-101801885D01*
X69417579Y-101694171D01*
X69594212Y-101549212D01*
X69739171Y-101372579D01*
X69846885Y-101171059D01*
X69913215Y-100952399D01*
X69930000Y-100781978D01*
X69930000Y-100218021D01*
X69913215Y-100047600D01*
X69846885Y-99828940D01*
X69739171Y-99627421D01*
X69594212Y-99450788D01*
X69417578Y-99305829D01*
X69216059Y-99198115D01*
X68997399Y-99131785D01*
X68947892Y-99126909D01*
X72093413Y-95981388D01*
X72148987Y-96036962D01*
X72367641Y-96183061D01*
X72610595Y-96283696D01*
X72868514Y-96335000D01*
X73131486Y-96335000D01*
X73389405Y-96283696D01*
X73632359Y-96183061D01*
X73851013Y-96036962D01*
X74036962Y-95851013D01*
X74183061Y-95632359D01*
X74283696Y-95389405D01*
X74335000Y-95131486D01*
X74335000Y-94868514D01*
X74283696Y-94610595D01*
X74183061Y-94367641D01*
X74036962Y-94148987D01*
X73851013Y-93963038D01*
X73632359Y-93816939D01*
X73389405Y-93716304D01*
X73131486Y-93665000D01*
X72868514Y-93665000D01*
X72610595Y-93716304D01*
X72367641Y-93816939D01*
X72148987Y-93963038D01*
X71963038Y-94148987D01*
X71897968Y-94246372D01*
X71851014Y-94250997D01*
X71707753Y-94294454D01*
X71575723Y-94365026D01*
X71492083Y-94433668D01*
X71459999Y-94459999D01*
X71436201Y-94488997D01*
X67000000Y-98925199D01*
X65760000Y-97685199D01*
X65760000Y-96097775D01*
X65851013Y-96036962D01*
X66036962Y-95851013D01*
X66183061Y-95632359D01*
X66283696Y-95389405D01*
X66335000Y-95131486D01*
X66335000Y-94868514D01*
X67665000Y-94868514D01*
X67665000Y-95131486D01*
X67716304Y-95389405D01*
X67816939Y-95632359D01*
X67963038Y-95851013D01*
X68148987Y-96036962D01*
X68367641Y-96183061D01*
X68610595Y-96283696D01*
X68868514Y-96335000D01*
X69131486Y-96335000D01*
X69389405Y-96283696D01*
X69632359Y-96183061D01*
X69851013Y-96036962D01*
X70036962Y-95851013D01*
X70183061Y-95632359D01*
X70283696Y-95389405D01*
X70335000Y-95131486D01*
X70335000Y-94868514D01*
X70283696Y-94610595D01*
X70183061Y-94367641D01*
X70036962Y-94148987D01*
X69851013Y-93963038D01*
X69632359Y-93816939D01*
X69389405Y-93716304D01*
X69131486Y-93665000D01*
X68868514Y-93665000D01*
X68610595Y-93716304D01*
X68367641Y-93816939D01*
X68148987Y-93963038D01*
X67963038Y-94148987D01*
X67816939Y-94367641D01*
X67716304Y-94610595D01*
X67665000Y-94868514D01*
X66335000Y-94868514D01*
X66283696Y-94610595D01*
X66183061Y-94367641D01*
X66036962Y-94148987D01*
X65851013Y-93963038D01*
X65632359Y-93816939D01*
X65389405Y-93716304D01*
X65131486Y-93665000D01*
X64868514Y-93665000D01*
X64610595Y-93716304D01*
X64367641Y-93816939D01*
X64148987Y-93963038D01*
X63963038Y-94148987D01*
X63816939Y-94367641D01*
X63716304Y-94610595D01*
X63665000Y-94868514D01*
X58145536Y-94868514D01*
X58271680Y-94679727D01*
X58379853Y-94418574D01*
X58435000Y-94141335D01*
X58435000Y-93858665D01*
X58379853Y-93581426D01*
X58271680Y-93320273D01*
X58114637Y-93085241D01*
X57914759Y-92885363D01*
X57712173Y-92750000D01*
X57914759Y-92614637D01*
X58114637Y-92414759D01*
X58218043Y-92260000D01*
X59382678Y-92260000D01*
X59420000Y-92263676D01*
X59457322Y-92260000D01*
X59457333Y-92260000D01*
X59568986Y-92249003D01*
X59712247Y-92205546D01*
X59844276Y-92134974D01*
X59960001Y-92040001D01*
X59983803Y-92010998D01*
X60761157Y-91233645D01*
X60868514Y-91255000D01*
X61131486Y-91255000D01*
X61389405Y-91203696D01*
X61632359Y-91103061D01*
X61851013Y-90956962D01*
X62036962Y-90771013D01*
X62183061Y-90552359D01*
X62283696Y-90309405D01*
X62335000Y-90051486D01*
X62335000Y-89788514D01*
X62283696Y-89530595D01*
X62183061Y-89287641D01*
X62036962Y-89068987D01*
X61851013Y-88883038D01*
X61760000Y-88822225D01*
X61760000Y-86117322D01*
X61763676Y-86079999D01*
X61760000Y-86042676D01*
X61760000Y-86042667D01*
X61749003Y-85931014D01*
X61705546Y-85787753D01*
X61634974Y-85655724D01*
X61540001Y-85539999D01*
X61511003Y-85516201D01*
X58313645Y-82318844D01*
X58335000Y-82211486D01*
X58335000Y-81948514D01*
X58313645Y-81841157D01*
X58339803Y-81814999D01*
X59691558Y-81814999D01*
X59665000Y-81948514D01*
G37*
%TD.AperFunction*%
D22*
X65616304Y-81889405D02*
X65716939Y-82132359D01*
X65788862Y-82240000D01*
X62329328Y-82240000D01*
X62335000Y-82211486D01*
X62335000Y-81948514D01*
X62308442Y-81814999D01*
X65601504Y-81814999D01*
X65616304Y-81889405D01*
%TA.AperFunction,Conductor*%
D23*
G36*
X65616304Y-81889405D02*
G01*
X65716939Y-82132359D01*
X65788862Y-82240000D01*
X62329328Y-82240000D01*
X62335000Y-82211486D01*
X62335000Y-81948514D01*
X62308442Y-81814999D01*
X65601504Y-81814999D01*
X65616304Y-81889405D01*
G37*
%TD.AperFunction*%
%TD*%
M02*
