%TF.GenerationSoftware,KiCad,Pcbnew,5.1.10*%
%TF.CreationDate,2021-06-02T01:10:26+02:00*%
%TF.ProjectId,piezo-jfet,7069657a-6f2d-46a6-9665-742e6b696361,rev?*%
%TF.SameCoordinates,Original*%
%TF.FileFunction,Copper,L2,Bot*%
%TF.FilePolarity,Positive*%
%FSLAX46Y46*%
G04 Gerber Fmt 4.6, Leading zero omitted, Abs format (unit mm)*
G04 Created by KiCad (PCBNEW 5.1.10) date 2021-06-02 01:10:26*
%MOMM*%
%LPD*%
G01*
G04 APERTURE LIST*
%TA.AperFunction,ComponentPad*%
%ADD10O,1.400000X1.400000*%
%TD*%
%TA.AperFunction,ComponentPad*%
%ADD11C,1.400000*%
%TD*%
%TA.AperFunction,ComponentPad*%
%ADD12C,1.600000*%
%TD*%
%TA.AperFunction,ComponentPad*%
%ADD13O,1.600000X1.600000*%
%TD*%
%TA.AperFunction,ComponentPad*%
%ADD14R,1.600000X1.600000*%
%TD*%
%TA.AperFunction,ComponentPad*%
%ADD15O,1.700000X1.700000*%
%TD*%
%TA.AperFunction,ComponentPad*%
%ADD16R,1.700000X1.700000*%
%TD*%
%TA.AperFunction,ComponentPad*%
%ADD17R,1.050000X1.500000*%
%TD*%
%TA.AperFunction,ComponentPad*%
%ADD18O,1.050000X1.500000*%
%TD*%
%TA.AperFunction,ComponentPad*%
%ADD19C,3.800000*%
%TD*%
%TA.AperFunction,ViaPad*%
%ADD20C,0.800000*%
%TD*%
%TA.AperFunction,Conductor*%
%ADD21C,0.250000*%
%TD*%
%TA.AperFunction,Conductor*%
%ADD22C,0.254000*%
%TD*%
%TA.AperFunction,Conductor*%
%ADD23C,0.100000*%
%TD*%
G04 APERTURE END LIST*
D10*
%TO.P,R5,2*%
%TO.N,Net-(C2-Pad1)*%
X72420000Y-58500000D03*
D11*
%TO.P,R5,1*%
%TO.N,Net-(J1-Pad3)*%
X77500000Y-58500000D03*
%TD*%
D12*
%TO.P,C1,2*%
%TO.N,Net-(C1-Pad2)*%
X57000000Y-80000000D03*
%TO.P,C1,1*%
%TO.N,Net-(C1-Pad1)*%
X57000000Y-77500000D03*
%TD*%
%TO.P,C2,2*%
%TO.N,Net-(C2-Pad2)*%
X60000000Y-58500000D03*
%TO.P,C2,1*%
%TO.N,Net-(C2-Pad1)*%
X62500000Y-58500000D03*
%TD*%
%TO.P,C3,2*%
%TO.N,Net-(C3-Pad2)*%
X81000000Y-77500000D03*
%TO.P,C3,1*%
%TO.N,Net-(C3-Pad1)*%
X81000000Y-80000000D03*
%TD*%
D13*
%TO.P,D1,2*%
%TO.N,Net-(C1-Pad2)*%
X61000000Y-85000000D03*
D14*
%TO.P,D1,1*%
%TO.N,Net-(D1-Pad1)*%
X61000000Y-92620000D03*
%TD*%
D13*
%TO.P,D2,2*%
%TO.N,Net-(C3-Pad1)*%
X77500000Y-85000000D03*
D14*
%TO.P,D2,1*%
%TO.N,Net-(D1-Pad1)*%
X77500000Y-92620000D03*
%TD*%
D10*
%TO.P,R1,2*%
%TO.N,Net-(C2-Pad2)*%
X57000000Y-63000000D03*
D11*
%TO.P,R1,1*%
%TO.N,Net-(C1-Pad1)*%
X57000000Y-68080000D03*
%TD*%
D10*
%TO.P,R2,2*%
%TO.N,Net-(C1-Pad1)*%
X61000000Y-75920000D03*
D11*
%TO.P,R2,1*%
%TO.N,GND*%
X61000000Y-81000000D03*
%TD*%
D10*
%TO.P,R3,2*%
%TO.N,Net-(C2-Pad2)*%
X61000000Y-63000000D03*
D11*
%TO.P,R3,1*%
%TO.N,Net-(Q2-Pad2)*%
X61000000Y-68080000D03*
%TD*%
D10*
%TO.P,R4,2*%
%TO.N,Net-(Q2-Pad1)*%
X65000000Y-75920000D03*
D11*
%TO.P,R4,1*%
%TO.N,Net-(Q1-Pad1)*%
X65000000Y-81000000D03*
%TD*%
D10*
%TO.P,R7,2*%
%TO.N,Net-(J1-Pad3)*%
X77500000Y-62920000D03*
D11*
%TO.P,R7,1*%
%TO.N,Net-(Q2-Pad5)*%
X77500000Y-68000000D03*
%TD*%
D10*
%TO.P,R8,2*%
%TO.N,Net-(Q2-Pad4)*%
X73000000Y-75920000D03*
D11*
%TO.P,R8,1*%
%TO.N,Net-(Q1-Pad1)*%
X73000000Y-81000000D03*
%TD*%
D10*
%TO.P,R9,2*%
%TO.N,Net-(J1-Pad3)*%
X81500000Y-62920000D03*
D11*
%TO.P,R9,1*%
%TO.N,Net-(C3-Pad2)*%
X81500000Y-68000000D03*
%TD*%
D10*
%TO.P,R10,2*%
%TO.N,Net-(C3-Pad2)*%
X77000000Y-75920000D03*
D11*
%TO.P,R10,1*%
%TO.N,GND*%
X77000000Y-81000000D03*
%TD*%
D15*
%TO.P,J1,3*%
%TO.N,Net-(J1-Pad3)*%
X71080000Y-49000000D03*
%TO.P,J1,2*%
%TO.N,Net-(C2-Pad2)*%
X68540000Y-49000000D03*
D16*
%TO.P,J1,1*%
%TO.N,GND*%
X66000000Y-49000000D03*
%TD*%
D17*
%TO.P,Q1,1*%
%TO.N,Net-(Q1-Pad1)*%
X67500000Y-86500000D03*
D18*
%TO.P,Q1,3*%
%TO.N,GND*%
X70040000Y-86500000D03*
%TO.P,Q1,2*%
%TO.N,Net-(Q1-Pad2)*%
X68770000Y-86500000D03*
%TD*%
D10*
%TO.P,R12,2*%
%TO.N,GND*%
X69000000Y-75920000D03*
D11*
%TO.P,R12,1*%
%TO.N,Net-(Q1-Pad2)*%
X69000000Y-81000000D03*
%TD*%
D19*
%TO.P,J2,1*%
%TO.N,Net-(J2-Pad1)*%
X55500000Y-48000000D03*
%TD*%
%TO.P,J3,1*%
%TO.N,Net-(J3-Pad1)*%
X55000000Y-110000000D03*
%TD*%
%TO.P,J4,1*%
%TO.N,Net-(J4-Pad1)*%
X83000000Y-48000000D03*
%TD*%
%TO.P,J5,1*%
%TO.N,Net-(J5-Pad1)*%
X83000000Y-110000000D03*
%TD*%
%TO.P,J6,1*%
%TO.N,Net-(C1-Pad2)*%
X61000000Y-96500000D03*
%TD*%
%TO.P,J7,1*%
%TO.N,GND*%
X66500000Y-96500000D03*
%TD*%
%TO.P,J8,1*%
%TO.N,GND*%
X71500000Y-96500000D03*
%TD*%
%TO.P,J9,1*%
%TO.N,Net-(C3-Pad1)*%
X78000000Y-96500000D03*
%TD*%
D11*
%TO.P,Q2,1*%
%TO.N,Net-(Q2-Pad1)*%
X69100000Y-69600000D03*
%TO.P,Q2,2*%
%TO.N,Net-(Q2-Pad2)*%
X67600000Y-69100000D03*
%TO.P,Q2,3*%
%TO.N,Net-(C1-Pad1)*%
X66900000Y-67500000D03*
%TO.P,Q2,4*%
%TO.N,Net-(Q2-Pad4)*%
X68900000Y-65400000D03*
%TO.P,Q2,5*%
%TO.N,Net-(Q2-Pad5)*%
X70500000Y-66000000D03*
%TO.P,Q2,6*%
%TO.N,Net-(C3-Pad2)*%
X71100000Y-67500000D03*
%TD*%
D20*
%TO.N,GND*%
X63000000Y-68000000D03*
%TD*%
D21*
%TO.N,Net-(Q1-Pad2)*%
X68770000Y-81230000D02*
X69000000Y-81000000D01*
X68770000Y-86500000D02*
X68770000Y-81230000D01*
%TD*%
D22*
%TO.N,GND*%
X54299227Y-45753512D02*
X53884032Y-46030937D01*
X53530937Y-46384032D01*
X53253512Y-46799227D01*
X53062418Y-47260568D01*
X52965000Y-47750324D01*
X52965000Y-48249676D01*
X53062418Y-48739432D01*
X53253512Y-49200773D01*
X53530937Y-49615968D01*
X53884032Y-49969063D01*
X54299227Y-50246488D01*
X54760568Y-50437582D01*
X55250324Y-50535000D01*
X55749676Y-50535000D01*
X56239432Y-50437582D01*
X56700773Y-50246488D01*
X57115968Y-49969063D01*
X57469063Y-49615968D01*
X57746488Y-49200773D01*
X57890234Y-48853740D01*
X67055000Y-48853740D01*
X67055000Y-49146260D01*
X67112068Y-49433158D01*
X67224010Y-49703411D01*
X67386525Y-49946632D01*
X67593368Y-50153475D01*
X67836589Y-50315990D01*
X68106842Y-50427932D01*
X68393740Y-50485000D01*
X68686260Y-50485000D01*
X68973158Y-50427932D01*
X69243411Y-50315990D01*
X69486632Y-50153475D01*
X69693475Y-49946632D01*
X69810000Y-49772240D01*
X69926525Y-49946632D01*
X70133368Y-50153475D01*
X70376589Y-50315990D01*
X70646842Y-50427932D01*
X70933740Y-50485000D01*
X71226260Y-50485000D01*
X71513158Y-50427932D01*
X71783411Y-50315990D01*
X72026632Y-50153475D01*
X72233475Y-49946632D01*
X72395990Y-49703411D01*
X72507932Y-49433158D01*
X72565000Y-49146260D01*
X72565000Y-48853740D01*
X72507932Y-48566842D01*
X72395990Y-48296589D01*
X72233475Y-48053368D01*
X72026632Y-47846525D01*
X71783411Y-47684010D01*
X71513158Y-47572068D01*
X71226260Y-47515000D01*
X70933740Y-47515000D01*
X70646842Y-47572068D01*
X70376589Y-47684010D01*
X70133368Y-47846525D01*
X69926525Y-48053368D01*
X69810000Y-48227760D01*
X69693475Y-48053368D01*
X69486632Y-47846525D01*
X69243411Y-47684010D01*
X68973158Y-47572068D01*
X68686260Y-47515000D01*
X68393740Y-47515000D01*
X68106842Y-47572068D01*
X67836589Y-47684010D01*
X67593368Y-47846525D01*
X67386525Y-48053368D01*
X67224010Y-48296589D01*
X67112068Y-48566842D01*
X67055000Y-48853740D01*
X57890234Y-48853740D01*
X57937582Y-48739432D01*
X58035000Y-48249676D01*
X58035000Y-47750324D01*
X57937582Y-47260568D01*
X57746488Y-46799227D01*
X57469063Y-46384032D01*
X57115968Y-46030937D01*
X56700773Y-45753512D01*
X56475015Y-45660000D01*
X82024985Y-45660000D01*
X81799227Y-45753512D01*
X81384032Y-46030937D01*
X81030937Y-46384032D01*
X80753512Y-46799227D01*
X80562418Y-47260568D01*
X80465000Y-47750324D01*
X80465000Y-48249676D01*
X80562418Y-48739432D01*
X80753512Y-49200773D01*
X81030937Y-49615968D01*
X81384032Y-49969063D01*
X81799227Y-50246488D01*
X82260568Y-50437582D01*
X82750324Y-50535000D01*
X83249676Y-50535000D01*
X83739432Y-50437582D01*
X84200773Y-50246488D01*
X84615968Y-49969063D01*
X84969063Y-49615968D01*
X85246488Y-49200773D01*
X85340001Y-48975013D01*
X85340000Y-109024985D01*
X85246488Y-108799227D01*
X84969063Y-108384032D01*
X84615968Y-108030937D01*
X84200773Y-107753512D01*
X83739432Y-107562418D01*
X83249676Y-107465000D01*
X82750324Y-107465000D01*
X82260568Y-107562418D01*
X81799227Y-107753512D01*
X81384032Y-108030937D01*
X81030937Y-108384032D01*
X80753512Y-108799227D01*
X80562418Y-109260568D01*
X80465000Y-109750324D01*
X80465000Y-110249676D01*
X80562418Y-110739432D01*
X80753512Y-111200773D01*
X81030937Y-111615968D01*
X81384032Y-111969063D01*
X81799227Y-112246488D01*
X82024985Y-112340000D01*
X55975015Y-112340000D01*
X56200773Y-112246488D01*
X56615968Y-111969063D01*
X56969063Y-111615968D01*
X57246488Y-111200773D01*
X57437582Y-110739432D01*
X57535000Y-110249676D01*
X57535000Y-109750324D01*
X57437582Y-109260568D01*
X57246488Y-108799227D01*
X56969063Y-108384032D01*
X56615968Y-108030937D01*
X56200773Y-107753512D01*
X55739432Y-107562418D01*
X55249676Y-107465000D01*
X54750324Y-107465000D01*
X54260568Y-107562418D01*
X53799227Y-107753512D01*
X53384032Y-108030937D01*
X53030937Y-108384032D01*
X52753512Y-108799227D01*
X52660000Y-109024985D01*
X52660000Y-96250324D01*
X58465000Y-96250324D01*
X58465000Y-96749676D01*
X58562418Y-97239432D01*
X58753512Y-97700773D01*
X59030937Y-98115968D01*
X59384032Y-98469063D01*
X59799227Y-98746488D01*
X60260568Y-98937582D01*
X60750324Y-99035000D01*
X61249676Y-99035000D01*
X61739432Y-98937582D01*
X62200773Y-98746488D01*
X62615968Y-98469063D01*
X62969063Y-98115968D01*
X63246488Y-97700773D01*
X63437582Y-97239432D01*
X63535000Y-96749676D01*
X63535000Y-96250324D01*
X75465000Y-96250324D01*
X75465000Y-96749676D01*
X75562418Y-97239432D01*
X75753512Y-97700773D01*
X76030937Y-98115968D01*
X76384032Y-98469063D01*
X76799227Y-98746488D01*
X77260568Y-98937582D01*
X77750324Y-99035000D01*
X78249676Y-99035000D01*
X78739432Y-98937582D01*
X79200773Y-98746488D01*
X79615968Y-98469063D01*
X79969063Y-98115968D01*
X80246488Y-97700773D01*
X80437582Y-97239432D01*
X80535000Y-96749676D01*
X80535000Y-96250324D01*
X80437582Y-95760568D01*
X80246488Y-95299227D01*
X79969063Y-94884032D01*
X79615968Y-94530937D01*
X79200773Y-94253512D01*
X78739432Y-94062418D01*
X78516150Y-94018005D01*
X78544180Y-94009502D01*
X78654494Y-93950537D01*
X78751185Y-93871185D01*
X78830537Y-93774494D01*
X78889502Y-93664180D01*
X78925812Y-93544482D01*
X78938072Y-93420000D01*
X78938072Y-91820000D01*
X78925812Y-91695518D01*
X78889502Y-91575820D01*
X78830537Y-91465506D01*
X78751185Y-91368815D01*
X78654494Y-91289463D01*
X78544180Y-91230498D01*
X78424482Y-91194188D01*
X78300000Y-91181928D01*
X76700000Y-91181928D01*
X76575518Y-91194188D01*
X76455820Y-91230498D01*
X76345506Y-91289463D01*
X76248815Y-91368815D01*
X76169463Y-91465506D01*
X76110498Y-91575820D01*
X76074188Y-91695518D01*
X76061928Y-91820000D01*
X76061928Y-93420000D01*
X76074188Y-93544482D01*
X76110498Y-93664180D01*
X76169463Y-93774494D01*
X76248815Y-93871185D01*
X76345506Y-93950537D01*
X76455820Y-94009502D01*
X76575518Y-94045812D01*
X76700000Y-94058072D01*
X77282417Y-94058072D01*
X77260568Y-94062418D01*
X76799227Y-94253512D01*
X76384032Y-94530937D01*
X76030937Y-94884032D01*
X75753512Y-95299227D01*
X75562418Y-95760568D01*
X75465000Y-96250324D01*
X63535000Y-96250324D01*
X63437582Y-95760568D01*
X63246488Y-95299227D01*
X62969063Y-94884032D01*
X62615968Y-94530937D01*
X62200773Y-94253512D01*
X61739432Y-94062418D01*
X61717583Y-94058072D01*
X61800000Y-94058072D01*
X61924482Y-94045812D01*
X62044180Y-94009502D01*
X62154494Y-93950537D01*
X62251185Y-93871185D01*
X62330537Y-93774494D01*
X62389502Y-93664180D01*
X62425812Y-93544482D01*
X62438072Y-93420000D01*
X62438072Y-91820000D01*
X62425812Y-91695518D01*
X62389502Y-91575820D01*
X62330537Y-91465506D01*
X62251185Y-91368815D01*
X62154494Y-91289463D01*
X62044180Y-91230498D01*
X61924482Y-91194188D01*
X61800000Y-91181928D01*
X60200000Y-91181928D01*
X60075518Y-91194188D01*
X59955820Y-91230498D01*
X59845506Y-91289463D01*
X59748815Y-91368815D01*
X59669463Y-91465506D01*
X59610498Y-91575820D01*
X59574188Y-91695518D01*
X59561928Y-91820000D01*
X59561928Y-93420000D01*
X59574188Y-93544482D01*
X59610498Y-93664180D01*
X59669463Y-93774494D01*
X59748815Y-93871185D01*
X59845506Y-93950537D01*
X59955820Y-94009502D01*
X60075518Y-94045812D01*
X60200000Y-94058072D01*
X60282417Y-94058072D01*
X60260568Y-94062418D01*
X59799227Y-94253512D01*
X59384032Y-94530937D01*
X59030937Y-94884032D01*
X58753512Y-95299227D01*
X58562418Y-95760568D01*
X58465000Y-96250324D01*
X52660000Y-96250324D01*
X52660000Y-84858665D01*
X59565000Y-84858665D01*
X59565000Y-85141335D01*
X59620147Y-85418574D01*
X59728320Y-85679727D01*
X59885363Y-85914759D01*
X60085241Y-86114637D01*
X60320273Y-86271680D01*
X60581426Y-86379853D01*
X60858665Y-86435000D01*
X61141335Y-86435000D01*
X61418574Y-86379853D01*
X61679727Y-86271680D01*
X61914759Y-86114637D01*
X62114637Y-85914759D01*
X62224725Y-85750000D01*
X66336928Y-85750000D01*
X66336928Y-87250000D01*
X66349188Y-87374482D01*
X66385498Y-87494180D01*
X66444463Y-87604494D01*
X66523815Y-87701185D01*
X66620506Y-87780537D01*
X66730820Y-87839502D01*
X66850518Y-87875812D01*
X66975000Y-87888072D01*
X68025000Y-87888072D01*
X68149482Y-87875812D01*
X68269180Y-87839502D01*
X68333902Y-87804907D01*
X68542601Y-87868215D01*
X68770000Y-87890612D01*
X68997400Y-87868215D01*
X69216060Y-87801885D01*
X69417579Y-87694171D01*
X69594212Y-87549212D01*
X69739171Y-87372579D01*
X69846885Y-87171059D01*
X69913215Y-86952399D01*
X69930000Y-86781978D01*
X69930000Y-86218021D01*
X69913215Y-86047600D01*
X69846885Y-85828940D01*
X69739171Y-85627421D01*
X69594212Y-85450788D01*
X69530000Y-85398091D01*
X69530000Y-84858665D01*
X76065000Y-84858665D01*
X76065000Y-85141335D01*
X76120147Y-85418574D01*
X76228320Y-85679727D01*
X76385363Y-85914759D01*
X76585241Y-86114637D01*
X76820273Y-86271680D01*
X77081426Y-86379853D01*
X77358665Y-86435000D01*
X77641335Y-86435000D01*
X77918574Y-86379853D01*
X78179727Y-86271680D01*
X78414759Y-86114637D01*
X78614637Y-85914759D01*
X78771680Y-85679727D01*
X78879853Y-85418574D01*
X78935000Y-85141335D01*
X78935000Y-84858665D01*
X78879853Y-84581426D01*
X78771680Y-84320273D01*
X78614637Y-84085241D01*
X78414759Y-83885363D01*
X78179727Y-83728320D01*
X77918574Y-83620147D01*
X77641335Y-83565000D01*
X77358665Y-83565000D01*
X77081426Y-83620147D01*
X76820273Y-83728320D01*
X76585241Y-83885363D01*
X76385363Y-84085241D01*
X76228320Y-84320273D01*
X76120147Y-84581426D01*
X76065000Y-84858665D01*
X69530000Y-84858665D01*
X69530000Y-82225460D01*
X69632359Y-82183061D01*
X69851013Y-82036962D01*
X70036962Y-81851013D01*
X70183061Y-81632359D01*
X70283696Y-81389405D01*
X70335000Y-81131486D01*
X70335000Y-80868514D01*
X71665000Y-80868514D01*
X71665000Y-81131486D01*
X71716304Y-81389405D01*
X71816939Y-81632359D01*
X71963038Y-81851013D01*
X72148987Y-82036962D01*
X72367641Y-82183061D01*
X72610595Y-82283696D01*
X72868514Y-82335000D01*
X73131486Y-82335000D01*
X73389405Y-82283696D01*
X73632359Y-82183061D01*
X73851013Y-82036962D01*
X74036962Y-81851013D01*
X74183061Y-81632359D01*
X74283696Y-81389405D01*
X74335000Y-81131486D01*
X74335000Y-80868514D01*
X74283696Y-80610595D01*
X74183061Y-80367641D01*
X74036962Y-80148987D01*
X73851013Y-79963038D01*
X73632359Y-79816939D01*
X73389405Y-79716304D01*
X73131486Y-79665000D01*
X72868514Y-79665000D01*
X72610595Y-79716304D01*
X72367641Y-79816939D01*
X72148987Y-79963038D01*
X71963038Y-80148987D01*
X71816939Y-80367641D01*
X71716304Y-80610595D01*
X71665000Y-80868514D01*
X70335000Y-80868514D01*
X70283696Y-80610595D01*
X70183061Y-80367641D01*
X70036962Y-80148987D01*
X69851013Y-79963038D01*
X69632359Y-79816939D01*
X69389405Y-79716304D01*
X69131486Y-79665000D01*
X68868514Y-79665000D01*
X68610595Y-79716304D01*
X68367641Y-79816939D01*
X68148987Y-79963038D01*
X67963038Y-80148987D01*
X67816939Y-80367641D01*
X67716304Y-80610595D01*
X67665000Y-80868514D01*
X67665000Y-81131486D01*
X67716304Y-81389405D01*
X67816939Y-81632359D01*
X67963038Y-81851013D01*
X68010001Y-81897976D01*
X68010000Y-85111928D01*
X66975000Y-85111928D01*
X66850518Y-85124188D01*
X66730820Y-85160498D01*
X66620506Y-85219463D01*
X66523815Y-85298815D01*
X66444463Y-85395506D01*
X66385498Y-85505820D01*
X66349188Y-85625518D01*
X66336928Y-85750000D01*
X62224725Y-85750000D01*
X62271680Y-85679727D01*
X62379853Y-85418574D01*
X62435000Y-85141335D01*
X62435000Y-84858665D01*
X62379853Y-84581426D01*
X62271680Y-84320273D01*
X62114637Y-84085241D01*
X61914759Y-83885363D01*
X61679727Y-83728320D01*
X61418574Y-83620147D01*
X61141335Y-83565000D01*
X60858665Y-83565000D01*
X60581426Y-83620147D01*
X60320273Y-83728320D01*
X60085241Y-83885363D01*
X59885363Y-84085241D01*
X59728320Y-84320273D01*
X59620147Y-84581426D01*
X59565000Y-84858665D01*
X52660000Y-84858665D01*
X52660000Y-77358665D01*
X55565000Y-77358665D01*
X55565000Y-77641335D01*
X55620147Y-77918574D01*
X55728320Y-78179727D01*
X55885363Y-78414759D01*
X56085241Y-78614637D01*
X56287827Y-78750000D01*
X56085241Y-78885363D01*
X55885363Y-79085241D01*
X55728320Y-79320273D01*
X55620147Y-79581426D01*
X55565000Y-79858665D01*
X55565000Y-80141335D01*
X55620147Y-80418574D01*
X55728320Y-80679727D01*
X55885363Y-80914759D01*
X56085241Y-81114637D01*
X56320273Y-81271680D01*
X56581426Y-81379853D01*
X56858665Y-81435000D01*
X57141335Y-81435000D01*
X57418574Y-81379853D01*
X57679727Y-81271680D01*
X57914759Y-81114637D01*
X58114637Y-80914759D01*
X58145536Y-80868514D01*
X63665000Y-80868514D01*
X63665000Y-81131486D01*
X63716304Y-81389405D01*
X63816939Y-81632359D01*
X63963038Y-81851013D01*
X64148987Y-82036962D01*
X64367641Y-82183061D01*
X64610595Y-82283696D01*
X64868514Y-82335000D01*
X65131486Y-82335000D01*
X65389405Y-82283696D01*
X65632359Y-82183061D01*
X65851013Y-82036962D01*
X66036962Y-81851013D01*
X66183061Y-81632359D01*
X66283696Y-81389405D01*
X66335000Y-81131486D01*
X66335000Y-80868514D01*
X66283696Y-80610595D01*
X66183061Y-80367641D01*
X66036962Y-80148987D01*
X65851013Y-79963038D01*
X65632359Y-79816939D01*
X65389405Y-79716304D01*
X65131486Y-79665000D01*
X64868514Y-79665000D01*
X64610595Y-79716304D01*
X64367641Y-79816939D01*
X64148987Y-79963038D01*
X63963038Y-80148987D01*
X63816939Y-80367641D01*
X63716304Y-80610595D01*
X63665000Y-80868514D01*
X58145536Y-80868514D01*
X58271680Y-80679727D01*
X58379853Y-80418574D01*
X58435000Y-80141335D01*
X58435000Y-79858665D01*
X58379853Y-79581426D01*
X58271680Y-79320273D01*
X58114637Y-79085241D01*
X57914759Y-78885363D01*
X57712173Y-78750000D01*
X57914759Y-78614637D01*
X58114637Y-78414759D01*
X58271680Y-78179727D01*
X58379853Y-77918574D01*
X58435000Y-77641335D01*
X58435000Y-77358665D01*
X79565000Y-77358665D01*
X79565000Y-77641335D01*
X79620147Y-77918574D01*
X79728320Y-78179727D01*
X79885363Y-78414759D01*
X80085241Y-78614637D01*
X80287827Y-78750000D01*
X80085241Y-78885363D01*
X79885363Y-79085241D01*
X79728320Y-79320273D01*
X79620147Y-79581426D01*
X79565000Y-79858665D01*
X79565000Y-80141335D01*
X79620147Y-80418574D01*
X79728320Y-80679727D01*
X79885363Y-80914759D01*
X80085241Y-81114637D01*
X80320273Y-81271680D01*
X80581426Y-81379853D01*
X80858665Y-81435000D01*
X81141335Y-81435000D01*
X81418574Y-81379853D01*
X81679727Y-81271680D01*
X81914759Y-81114637D01*
X82114637Y-80914759D01*
X82271680Y-80679727D01*
X82379853Y-80418574D01*
X82435000Y-80141335D01*
X82435000Y-79858665D01*
X82379853Y-79581426D01*
X82271680Y-79320273D01*
X82114637Y-79085241D01*
X81914759Y-78885363D01*
X81712173Y-78750000D01*
X81914759Y-78614637D01*
X82114637Y-78414759D01*
X82271680Y-78179727D01*
X82379853Y-77918574D01*
X82435000Y-77641335D01*
X82435000Y-77358665D01*
X82379853Y-77081426D01*
X82271680Y-76820273D01*
X82114637Y-76585241D01*
X81914759Y-76385363D01*
X81679727Y-76228320D01*
X81418574Y-76120147D01*
X81141335Y-76065000D01*
X80858665Y-76065000D01*
X80581426Y-76120147D01*
X80320273Y-76228320D01*
X80085241Y-76385363D01*
X79885363Y-76585241D01*
X79728320Y-76820273D01*
X79620147Y-77081426D01*
X79565000Y-77358665D01*
X58435000Y-77358665D01*
X58379853Y-77081426D01*
X58271680Y-76820273D01*
X58114637Y-76585241D01*
X57914759Y-76385363D01*
X57679727Y-76228320D01*
X57418574Y-76120147D01*
X57141335Y-76065000D01*
X56858665Y-76065000D01*
X56581426Y-76120147D01*
X56320273Y-76228320D01*
X56085241Y-76385363D01*
X55885363Y-76585241D01*
X55728320Y-76820273D01*
X55620147Y-77081426D01*
X55565000Y-77358665D01*
X52660000Y-77358665D01*
X52660000Y-75788514D01*
X59665000Y-75788514D01*
X59665000Y-76051486D01*
X59716304Y-76309405D01*
X59816939Y-76552359D01*
X59963038Y-76771013D01*
X60148987Y-76956962D01*
X60367641Y-77103061D01*
X60610595Y-77203696D01*
X60868514Y-77255000D01*
X61131486Y-77255000D01*
X61389405Y-77203696D01*
X61632359Y-77103061D01*
X61851013Y-76956962D01*
X62036962Y-76771013D01*
X62183061Y-76552359D01*
X62283696Y-76309405D01*
X62335000Y-76051486D01*
X62335000Y-75788514D01*
X63665000Y-75788514D01*
X63665000Y-76051486D01*
X63716304Y-76309405D01*
X63816939Y-76552359D01*
X63963038Y-76771013D01*
X64148987Y-76956962D01*
X64367641Y-77103061D01*
X64610595Y-77203696D01*
X64868514Y-77255000D01*
X65131486Y-77255000D01*
X65389405Y-77203696D01*
X65632359Y-77103061D01*
X65851013Y-76956962D01*
X66036962Y-76771013D01*
X66183061Y-76552359D01*
X66283696Y-76309405D01*
X66335000Y-76051486D01*
X66335000Y-75788514D01*
X71665000Y-75788514D01*
X71665000Y-76051486D01*
X71716304Y-76309405D01*
X71816939Y-76552359D01*
X71963038Y-76771013D01*
X72148987Y-76956962D01*
X72367641Y-77103061D01*
X72610595Y-77203696D01*
X72868514Y-77255000D01*
X73131486Y-77255000D01*
X73389405Y-77203696D01*
X73632359Y-77103061D01*
X73851013Y-76956962D01*
X74036962Y-76771013D01*
X74183061Y-76552359D01*
X74283696Y-76309405D01*
X74335000Y-76051486D01*
X74335000Y-75788514D01*
X75665000Y-75788514D01*
X75665000Y-76051486D01*
X75716304Y-76309405D01*
X75816939Y-76552359D01*
X75963038Y-76771013D01*
X76148987Y-76956962D01*
X76367641Y-77103061D01*
X76610595Y-77203696D01*
X76868514Y-77255000D01*
X77131486Y-77255000D01*
X77389405Y-77203696D01*
X77632359Y-77103061D01*
X77851013Y-76956962D01*
X78036962Y-76771013D01*
X78183061Y-76552359D01*
X78283696Y-76309405D01*
X78335000Y-76051486D01*
X78335000Y-75788514D01*
X78283696Y-75530595D01*
X78183061Y-75287641D01*
X78036962Y-75068987D01*
X77851013Y-74883038D01*
X77632359Y-74736939D01*
X77389405Y-74636304D01*
X77131486Y-74585000D01*
X76868514Y-74585000D01*
X76610595Y-74636304D01*
X76367641Y-74736939D01*
X76148987Y-74883038D01*
X75963038Y-75068987D01*
X75816939Y-75287641D01*
X75716304Y-75530595D01*
X75665000Y-75788514D01*
X74335000Y-75788514D01*
X74283696Y-75530595D01*
X74183061Y-75287641D01*
X74036962Y-75068987D01*
X73851013Y-74883038D01*
X73632359Y-74736939D01*
X73389405Y-74636304D01*
X73131486Y-74585000D01*
X72868514Y-74585000D01*
X72610595Y-74636304D01*
X72367641Y-74736939D01*
X72148987Y-74883038D01*
X71963038Y-75068987D01*
X71816939Y-75287641D01*
X71716304Y-75530595D01*
X71665000Y-75788514D01*
X66335000Y-75788514D01*
X66283696Y-75530595D01*
X66183061Y-75287641D01*
X66036962Y-75068987D01*
X65851013Y-74883038D01*
X65632359Y-74736939D01*
X65389405Y-74636304D01*
X65131486Y-74585000D01*
X64868514Y-74585000D01*
X64610595Y-74636304D01*
X64367641Y-74736939D01*
X64148987Y-74883038D01*
X63963038Y-75068987D01*
X63816939Y-75287641D01*
X63716304Y-75530595D01*
X63665000Y-75788514D01*
X62335000Y-75788514D01*
X62283696Y-75530595D01*
X62183061Y-75287641D01*
X62036962Y-75068987D01*
X61851013Y-74883038D01*
X61632359Y-74736939D01*
X61389405Y-74636304D01*
X61131486Y-74585000D01*
X60868514Y-74585000D01*
X60610595Y-74636304D01*
X60367641Y-74736939D01*
X60148987Y-74883038D01*
X59963038Y-75068987D01*
X59816939Y-75287641D01*
X59716304Y-75530595D01*
X59665000Y-75788514D01*
X52660000Y-75788514D01*
X52660000Y-67948514D01*
X55665000Y-67948514D01*
X55665000Y-68211486D01*
X55716304Y-68469405D01*
X55816939Y-68712359D01*
X55963038Y-68931013D01*
X56148987Y-69116962D01*
X56367641Y-69263061D01*
X56610595Y-69363696D01*
X56868514Y-69415000D01*
X57131486Y-69415000D01*
X57389405Y-69363696D01*
X57632359Y-69263061D01*
X57851013Y-69116962D01*
X58036962Y-68931013D01*
X58183061Y-68712359D01*
X58283696Y-68469405D01*
X58335000Y-68211486D01*
X58335000Y-67948514D01*
X59665000Y-67948514D01*
X59665000Y-68211486D01*
X59716304Y-68469405D01*
X59816939Y-68712359D01*
X59963038Y-68931013D01*
X60148987Y-69116962D01*
X60367641Y-69263061D01*
X60610595Y-69363696D01*
X60868514Y-69415000D01*
X61131486Y-69415000D01*
X61389405Y-69363696D01*
X61632359Y-69263061D01*
X61851013Y-69116962D01*
X62036962Y-68931013D01*
X62183061Y-68712359D01*
X62283696Y-68469405D01*
X62335000Y-68211486D01*
X62335000Y-67948514D01*
X62283696Y-67690595D01*
X62183061Y-67447641D01*
X62130191Y-67368514D01*
X65565000Y-67368514D01*
X65565000Y-67631486D01*
X65616304Y-67889405D01*
X65716939Y-68132359D01*
X65863038Y-68351013D01*
X66048987Y-68536962D01*
X66267641Y-68683061D01*
X66318912Y-68704298D01*
X66316304Y-68710595D01*
X66265000Y-68968514D01*
X66265000Y-69231486D01*
X66316304Y-69489405D01*
X66416939Y-69732359D01*
X66563038Y-69951013D01*
X66748987Y-70136962D01*
X66967641Y-70283061D01*
X67210595Y-70383696D01*
X67468514Y-70435000D01*
X67731486Y-70435000D01*
X67989405Y-70383696D01*
X68011847Y-70374400D01*
X68063038Y-70451013D01*
X68248987Y-70636962D01*
X68467641Y-70783061D01*
X68710595Y-70883696D01*
X68968514Y-70935000D01*
X69231486Y-70935000D01*
X69489405Y-70883696D01*
X69732359Y-70783061D01*
X69951013Y-70636962D01*
X70136962Y-70451013D01*
X70283061Y-70232359D01*
X70383696Y-69989405D01*
X70435000Y-69731486D01*
X70435000Y-69468514D01*
X70383696Y-69210595D01*
X70283061Y-68967641D01*
X70136962Y-68748987D01*
X69951013Y-68563038D01*
X69732359Y-68416939D01*
X69489405Y-68316304D01*
X69231486Y-68265000D01*
X68968514Y-68265000D01*
X68710595Y-68316304D01*
X68688153Y-68325600D01*
X68636962Y-68248987D01*
X68451013Y-68063038D01*
X68232359Y-67916939D01*
X68181088Y-67895702D01*
X68183696Y-67889405D01*
X68235000Y-67631486D01*
X68235000Y-67368514D01*
X68183696Y-67110595D01*
X68083061Y-66867641D01*
X67936962Y-66648987D01*
X67751013Y-66463038D01*
X67532359Y-66316939D01*
X67289405Y-66216304D01*
X67031486Y-66165000D01*
X66768514Y-66165000D01*
X66510595Y-66216304D01*
X66267641Y-66316939D01*
X66048987Y-66463038D01*
X65863038Y-66648987D01*
X65716939Y-66867641D01*
X65616304Y-67110595D01*
X65565000Y-67368514D01*
X62130191Y-67368514D01*
X62036962Y-67228987D01*
X61851013Y-67043038D01*
X61632359Y-66896939D01*
X61389405Y-66796304D01*
X61131486Y-66745000D01*
X60868514Y-66745000D01*
X60610595Y-66796304D01*
X60367641Y-66896939D01*
X60148987Y-67043038D01*
X59963038Y-67228987D01*
X59816939Y-67447641D01*
X59716304Y-67690595D01*
X59665000Y-67948514D01*
X58335000Y-67948514D01*
X58283696Y-67690595D01*
X58183061Y-67447641D01*
X58036962Y-67228987D01*
X57851013Y-67043038D01*
X57632359Y-66896939D01*
X57389405Y-66796304D01*
X57131486Y-66745000D01*
X56868514Y-66745000D01*
X56610595Y-66796304D01*
X56367641Y-66896939D01*
X56148987Y-67043038D01*
X55963038Y-67228987D01*
X55816939Y-67447641D01*
X55716304Y-67690595D01*
X55665000Y-67948514D01*
X52660000Y-67948514D01*
X52660000Y-65268514D01*
X67565000Y-65268514D01*
X67565000Y-65531486D01*
X67616304Y-65789405D01*
X67716939Y-66032359D01*
X67863038Y-66251013D01*
X68048987Y-66436962D01*
X68267641Y-66583061D01*
X68510595Y-66683696D01*
X68768514Y-66735000D01*
X69031486Y-66735000D01*
X69289405Y-66683696D01*
X69337837Y-66663635D01*
X69463038Y-66851013D01*
X69648987Y-67036962D01*
X69809603Y-67144282D01*
X69765000Y-67368514D01*
X69765000Y-67631486D01*
X69816304Y-67889405D01*
X69916939Y-68132359D01*
X70063038Y-68351013D01*
X70248987Y-68536962D01*
X70467641Y-68683061D01*
X70710595Y-68783696D01*
X70968514Y-68835000D01*
X71231486Y-68835000D01*
X71489405Y-68783696D01*
X71732359Y-68683061D01*
X71951013Y-68536962D01*
X72136962Y-68351013D01*
X72283061Y-68132359D01*
X72383696Y-67889405D01*
X72387851Y-67868514D01*
X76165000Y-67868514D01*
X76165000Y-68131486D01*
X76216304Y-68389405D01*
X76316939Y-68632359D01*
X76463038Y-68851013D01*
X76648987Y-69036962D01*
X76867641Y-69183061D01*
X77110595Y-69283696D01*
X77368514Y-69335000D01*
X77631486Y-69335000D01*
X77889405Y-69283696D01*
X78132359Y-69183061D01*
X78351013Y-69036962D01*
X78536962Y-68851013D01*
X78683061Y-68632359D01*
X78783696Y-68389405D01*
X78835000Y-68131486D01*
X78835000Y-67868514D01*
X80165000Y-67868514D01*
X80165000Y-68131486D01*
X80216304Y-68389405D01*
X80316939Y-68632359D01*
X80463038Y-68851013D01*
X80648987Y-69036962D01*
X80867641Y-69183061D01*
X81110595Y-69283696D01*
X81368514Y-69335000D01*
X81631486Y-69335000D01*
X81889405Y-69283696D01*
X82132359Y-69183061D01*
X82351013Y-69036962D01*
X82536962Y-68851013D01*
X82683061Y-68632359D01*
X82783696Y-68389405D01*
X82835000Y-68131486D01*
X82835000Y-67868514D01*
X82783696Y-67610595D01*
X82683061Y-67367641D01*
X82536962Y-67148987D01*
X82351013Y-66963038D01*
X82132359Y-66816939D01*
X81889405Y-66716304D01*
X81631486Y-66665000D01*
X81368514Y-66665000D01*
X81110595Y-66716304D01*
X80867641Y-66816939D01*
X80648987Y-66963038D01*
X80463038Y-67148987D01*
X80316939Y-67367641D01*
X80216304Y-67610595D01*
X80165000Y-67868514D01*
X78835000Y-67868514D01*
X78783696Y-67610595D01*
X78683061Y-67367641D01*
X78536962Y-67148987D01*
X78351013Y-66963038D01*
X78132359Y-66816939D01*
X77889405Y-66716304D01*
X77631486Y-66665000D01*
X77368514Y-66665000D01*
X77110595Y-66716304D01*
X76867641Y-66816939D01*
X76648987Y-66963038D01*
X76463038Y-67148987D01*
X76316939Y-67367641D01*
X76216304Y-67610595D01*
X76165000Y-67868514D01*
X72387851Y-67868514D01*
X72435000Y-67631486D01*
X72435000Y-67368514D01*
X72383696Y-67110595D01*
X72283061Y-66867641D01*
X72136962Y-66648987D01*
X71951013Y-66463038D01*
X71790397Y-66355718D01*
X71835000Y-66131486D01*
X71835000Y-65868514D01*
X71783696Y-65610595D01*
X71683061Y-65367641D01*
X71536962Y-65148987D01*
X71351013Y-64963038D01*
X71132359Y-64816939D01*
X70889405Y-64716304D01*
X70631486Y-64665000D01*
X70368514Y-64665000D01*
X70110595Y-64716304D01*
X70062163Y-64736365D01*
X69936962Y-64548987D01*
X69751013Y-64363038D01*
X69532359Y-64216939D01*
X69289405Y-64116304D01*
X69031486Y-64065000D01*
X68768514Y-64065000D01*
X68510595Y-64116304D01*
X68267641Y-64216939D01*
X68048987Y-64363038D01*
X67863038Y-64548987D01*
X67716939Y-64767641D01*
X67616304Y-65010595D01*
X67565000Y-65268514D01*
X52660000Y-65268514D01*
X52660000Y-62868514D01*
X55665000Y-62868514D01*
X55665000Y-63131486D01*
X55716304Y-63389405D01*
X55816939Y-63632359D01*
X55963038Y-63851013D01*
X56148987Y-64036962D01*
X56367641Y-64183061D01*
X56610595Y-64283696D01*
X56868514Y-64335000D01*
X57131486Y-64335000D01*
X57389405Y-64283696D01*
X57632359Y-64183061D01*
X57851013Y-64036962D01*
X58036962Y-63851013D01*
X58183061Y-63632359D01*
X58283696Y-63389405D01*
X58335000Y-63131486D01*
X58335000Y-62868514D01*
X59665000Y-62868514D01*
X59665000Y-63131486D01*
X59716304Y-63389405D01*
X59816939Y-63632359D01*
X59963038Y-63851013D01*
X60148987Y-64036962D01*
X60367641Y-64183061D01*
X60610595Y-64283696D01*
X60868514Y-64335000D01*
X61131486Y-64335000D01*
X61389405Y-64283696D01*
X61632359Y-64183061D01*
X61851013Y-64036962D01*
X62036962Y-63851013D01*
X62183061Y-63632359D01*
X62283696Y-63389405D01*
X62335000Y-63131486D01*
X62335000Y-62868514D01*
X62319087Y-62788514D01*
X76165000Y-62788514D01*
X76165000Y-63051486D01*
X76216304Y-63309405D01*
X76316939Y-63552359D01*
X76463038Y-63771013D01*
X76648987Y-63956962D01*
X76867641Y-64103061D01*
X77110595Y-64203696D01*
X77368514Y-64255000D01*
X77631486Y-64255000D01*
X77889405Y-64203696D01*
X78132359Y-64103061D01*
X78351013Y-63956962D01*
X78536962Y-63771013D01*
X78683061Y-63552359D01*
X78783696Y-63309405D01*
X78835000Y-63051486D01*
X78835000Y-62788514D01*
X80165000Y-62788514D01*
X80165000Y-63051486D01*
X80216304Y-63309405D01*
X80316939Y-63552359D01*
X80463038Y-63771013D01*
X80648987Y-63956962D01*
X80867641Y-64103061D01*
X81110595Y-64203696D01*
X81368514Y-64255000D01*
X81631486Y-64255000D01*
X81889405Y-64203696D01*
X82132359Y-64103061D01*
X82351013Y-63956962D01*
X82536962Y-63771013D01*
X82683061Y-63552359D01*
X82783696Y-63309405D01*
X82835000Y-63051486D01*
X82835000Y-62788514D01*
X82783696Y-62530595D01*
X82683061Y-62287641D01*
X82536962Y-62068987D01*
X82351013Y-61883038D01*
X82132359Y-61736939D01*
X81889405Y-61636304D01*
X81631486Y-61585000D01*
X81368514Y-61585000D01*
X81110595Y-61636304D01*
X80867641Y-61736939D01*
X80648987Y-61883038D01*
X80463038Y-62068987D01*
X80316939Y-62287641D01*
X80216304Y-62530595D01*
X80165000Y-62788514D01*
X78835000Y-62788514D01*
X78783696Y-62530595D01*
X78683061Y-62287641D01*
X78536962Y-62068987D01*
X78351013Y-61883038D01*
X78132359Y-61736939D01*
X77889405Y-61636304D01*
X77631486Y-61585000D01*
X77368514Y-61585000D01*
X77110595Y-61636304D01*
X76867641Y-61736939D01*
X76648987Y-61883038D01*
X76463038Y-62068987D01*
X76316939Y-62287641D01*
X76216304Y-62530595D01*
X76165000Y-62788514D01*
X62319087Y-62788514D01*
X62283696Y-62610595D01*
X62183061Y-62367641D01*
X62036962Y-62148987D01*
X61851013Y-61963038D01*
X61632359Y-61816939D01*
X61389405Y-61716304D01*
X61131486Y-61665000D01*
X60868514Y-61665000D01*
X60610595Y-61716304D01*
X60367641Y-61816939D01*
X60148987Y-61963038D01*
X59963038Y-62148987D01*
X59816939Y-62367641D01*
X59716304Y-62610595D01*
X59665000Y-62868514D01*
X58335000Y-62868514D01*
X58283696Y-62610595D01*
X58183061Y-62367641D01*
X58036962Y-62148987D01*
X57851013Y-61963038D01*
X57632359Y-61816939D01*
X57389405Y-61716304D01*
X57131486Y-61665000D01*
X56868514Y-61665000D01*
X56610595Y-61716304D01*
X56367641Y-61816939D01*
X56148987Y-61963038D01*
X55963038Y-62148987D01*
X55816939Y-62367641D01*
X55716304Y-62610595D01*
X55665000Y-62868514D01*
X52660000Y-62868514D01*
X52660000Y-58358665D01*
X58565000Y-58358665D01*
X58565000Y-58641335D01*
X58620147Y-58918574D01*
X58728320Y-59179727D01*
X58885363Y-59414759D01*
X59085241Y-59614637D01*
X59320273Y-59771680D01*
X59581426Y-59879853D01*
X59858665Y-59935000D01*
X60141335Y-59935000D01*
X60418574Y-59879853D01*
X60679727Y-59771680D01*
X60914759Y-59614637D01*
X61114637Y-59414759D01*
X61250000Y-59212173D01*
X61385363Y-59414759D01*
X61585241Y-59614637D01*
X61820273Y-59771680D01*
X62081426Y-59879853D01*
X62358665Y-59935000D01*
X62641335Y-59935000D01*
X62918574Y-59879853D01*
X63179727Y-59771680D01*
X63414759Y-59614637D01*
X63614637Y-59414759D01*
X63771680Y-59179727D01*
X63879853Y-58918574D01*
X63935000Y-58641335D01*
X63935000Y-58368514D01*
X71085000Y-58368514D01*
X71085000Y-58631486D01*
X71136304Y-58889405D01*
X71236939Y-59132359D01*
X71383038Y-59351013D01*
X71568987Y-59536962D01*
X71787641Y-59683061D01*
X72030595Y-59783696D01*
X72288514Y-59835000D01*
X72551486Y-59835000D01*
X72809405Y-59783696D01*
X73052359Y-59683061D01*
X73271013Y-59536962D01*
X73456962Y-59351013D01*
X73603061Y-59132359D01*
X73703696Y-58889405D01*
X73755000Y-58631486D01*
X73755000Y-58368514D01*
X76165000Y-58368514D01*
X76165000Y-58631486D01*
X76216304Y-58889405D01*
X76316939Y-59132359D01*
X76463038Y-59351013D01*
X76648987Y-59536962D01*
X76867641Y-59683061D01*
X77110595Y-59783696D01*
X77368514Y-59835000D01*
X77631486Y-59835000D01*
X77889405Y-59783696D01*
X78132359Y-59683061D01*
X78351013Y-59536962D01*
X78536962Y-59351013D01*
X78683061Y-59132359D01*
X78783696Y-58889405D01*
X78835000Y-58631486D01*
X78835000Y-58368514D01*
X78783696Y-58110595D01*
X78683061Y-57867641D01*
X78536962Y-57648987D01*
X78351013Y-57463038D01*
X78132359Y-57316939D01*
X77889405Y-57216304D01*
X77631486Y-57165000D01*
X77368514Y-57165000D01*
X77110595Y-57216304D01*
X76867641Y-57316939D01*
X76648987Y-57463038D01*
X76463038Y-57648987D01*
X76316939Y-57867641D01*
X76216304Y-58110595D01*
X76165000Y-58368514D01*
X73755000Y-58368514D01*
X73703696Y-58110595D01*
X73603061Y-57867641D01*
X73456962Y-57648987D01*
X73271013Y-57463038D01*
X73052359Y-57316939D01*
X72809405Y-57216304D01*
X72551486Y-57165000D01*
X72288514Y-57165000D01*
X72030595Y-57216304D01*
X71787641Y-57316939D01*
X71568987Y-57463038D01*
X71383038Y-57648987D01*
X71236939Y-57867641D01*
X71136304Y-58110595D01*
X71085000Y-58368514D01*
X63935000Y-58368514D01*
X63935000Y-58358665D01*
X63879853Y-58081426D01*
X63771680Y-57820273D01*
X63614637Y-57585241D01*
X63414759Y-57385363D01*
X63179727Y-57228320D01*
X62918574Y-57120147D01*
X62641335Y-57065000D01*
X62358665Y-57065000D01*
X62081426Y-57120147D01*
X61820273Y-57228320D01*
X61585241Y-57385363D01*
X61385363Y-57585241D01*
X61250000Y-57787827D01*
X61114637Y-57585241D01*
X60914759Y-57385363D01*
X60679727Y-57228320D01*
X60418574Y-57120147D01*
X60141335Y-57065000D01*
X59858665Y-57065000D01*
X59581426Y-57120147D01*
X59320273Y-57228320D01*
X59085241Y-57385363D01*
X58885363Y-57585241D01*
X58728320Y-57820273D01*
X58620147Y-58081426D01*
X58565000Y-58358665D01*
X52660000Y-58358665D01*
X52660000Y-45660000D01*
X54524985Y-45660000D01*
X54299227Y-45753512D01*
%TA.AperFunction,Conductor*%
D23*
G36*
X54299227Y-45753512D02*
G01*
X53884032Y-46030937D01*
X53530937Y-46384032D01*
X53253512Y-46799227D01*
X53062418Y-47260568D01*
X52965000Y-47750324D01*
X52965000Y-48249676D01*
X53062418Y-48739432D01*
X53253512Y-49200773D01*
X53530937Y-49615968D01*
X53884032Y-49969063D01*
X54299227Y-50246488D01*
X54760568Y-50437582D01*
X55250324Y-50535000D01*
X55749676Y-50535000D01*
X56239432Y-50437582D01*
X56700773Y-50246488D01*
X57115968Y-49969063D01*
X57469063Y-49615968D01*
X57746488Y-49200773D01*
X57890234Y-48853740D01*
X67055000Y-48853740D01*
X67055000Y-49146260D01*
X67112068Y-49433158D01*
X67224010Y-49703411D01*
X67386525Y-49946632D01*
X67593368Y-50153475D01*
X67836589Y-50315990D01*
X68106842Y-50427932D01*
X68393740Y-50485000D01*
X68686260Y-50485000D01*
X68973158Y-50427932D01*
X69243411Y-50315990D01*
X69486632Y-50153475D01*
X69693475Y-49946632D01*
X69810000Y-49772240D01*
X69926525Y-49946632D01*
X70133368Y-50153475D01*
X70376589Y-50315990D01*
X70646842Y-50427932D01*
X70933740Y-50485000D01*
X71226260Y-50485000D01*
X71513158Y-50427932D01*
X71783411Y-50315990D01*
X72026632Y-50153475D01*
X72233475Y-49946632D01*
X72395990Y-49703411D01*
X72507932Y-49433158D01*
X72565000Y-49146260D01*
X72565000Y-48853740D01*
X72507932Y-48566842D01*
X72395990Y-48296589D01*
X72233475Y-48053368D01*
X72026632Y-47846525D01*
X71783411Y-47684010D01*
X71513158Y-47572068D01*
X71226260Y-47515000D01*
X70933740Y-47515000D01*
X70646842Y-47572068D01*
X70376589Y-47684010D01*
X70133368Y-47846525D01*
X69926525Y-48053368D01*
X69810000Y-48227760D01*
X69693475Y-48053368D01*
X69486632Y-47846525D01*
X69243411Y-47684010D01*
X68973158Y-47572068D01*
X68686260Y-47515000D01*
X68393740Y-47515000D01*
X68106842Y-47572068D01*
X67836589Y-47684010D01*
X67593368Y-47846525D01*
X67386525Y-48053368D01*
X67224010Y-48296589D01*
X67112068Y-48566842D01*
X67055000Y-48853740D01*
X57890234Y-48853740D01*
X57937582Y-48739432D01*
X58035000Y-48249676D01*
X58035000Y-47750324D01*
X57937582Y-47260568D01*
X57746488Y-46799227D01*
X57469063Y-46384032D01*
X57115968Y-46030937D01*
X56700773Y-45753512D01*
X56475015Y-45660000D01*
X82024985Y-45660000D01*
X81799227Y-45753512D01*
X81384032Y-46030937D01*
X81030937Y-46384032D01*
X80753512Y-46799227D01*
X80562418Y-47260568D01*
X80465000Y-47750324D01*
X80465000Y-48249676D01*
X80562418Y-48739432D01*
X80753512Y-49200773D01*
X81030937Y-49615968D01*
X81384032Y-49969063D01*
X81799227Y-50246488D01*
X82260568Y-50437582D01*
X82750324Y-50535000D01*
X83249676Y-50535000D01*
X83739432Y-50437582D01*
X84200773Y-50246488D01*
X84615968Y-49969063D01*
X84969063Y-49615968D01*
X85246488Y-49200773D01*
X85340001Y-48975013D01*
X85340000Y-109024985D01*
X85246488Y-108799227D01*
X84969063Y-108384032D01*
X84615968Y-108030937D01*
X84200773Y-107753512D01*
X83739432Y-107562418D01*
X83249676Y-107465000D01*
X82750324Y-107465000D01*
X82260568Y-107562418D01*
X81799227Y-107753512D01*
X81384032Y-108030937D01*
X81030937Y-108384032D01*
X80753512Y-108799227D01*
X80562418Y-109260568D01*
X80465000Y-109750324D01*
X80465000Y-110249676D01*
X80562418Y-110739432D01*
X80753512Y-111200773D01*
X81030937Y-111615968D01*
X81384032Y-111969063D01*
X81799227Y-112246488D01*
X82024985Y-112340000D01*
X55975015Y-112340000D01*
X56200773Y-112246488D01*
X56615968Y-111969063D01*
X56969063Y-111615968D01*
X57246488Y-111200773D01*
X57437582Y-110739432D01*
X57535000Y-110249676D01*
X57535000Y-109750324D01*
X57437582Y-109260568D01*
X57246488Y-108799227D01*
X56969063Y-108384032D01*
X56615968Y-108030937D01*
X56200773Y-107753512D01*
X55739432Y-107562418D01*
X55249676Y-107465000D01*
X54750324Y-107465000D01*
X54260568Y-107562418D01*
X53799227Y-107753512D01*
X53384032Y-108030937D01*
X53030937Y-108384032D01*
X52753512Y-108799227D01*
X52660000Y-109024985D01*
X52660000Y-96250324D01*
X58465000Y-96250324D01*
X58465000Y-96749676D01*
X58562418Y-97239432D01*
X58753512Y-97700773D01*
X59030937Y-98115968D01*
X59384032Y-98469063D01*
X59799227Y-98746488D01*
X60260568Y-98937582D01*
X60750324Y-99035000D01*
X61249676Y-99035000D01*
X61739432Y-98937582D01*
X62200773Y-98746488D01*
X62615968Y-98469063D01*
X62969063Y-98115968D01*
X63246488Y-97700773D01*
X63437582Y-97239432D01*
X63535000Y-96749676D01*
X63535000Y-96250324D01*
X75465000Y-96250324D01*
X75465000Y-96749676D01*
X75562418Y-97239432D01*
X75753512Y-97700773D01*
X76030937Y-98115968D01*
X76384032Y-98469063D01*
X76799227Y-98746488D01*
X77260568Y-98937582D01*
X77750324Y-99035000D01*
X78249676Y-99035000D01*
X78739432Y-98937582D01*
X79200773Y-98746488D01*
X79615968Y-98469063D01*
X79969063Y-98115968D01*
X80246488Y-97700773D01*
X80437582Y-97239432D01*
X80535000Y-96749676D01*
X80535000Y-96250324D01*
X80437582Y-95760568D01*
X80246488Y-95299227D01*
X79969063Y-94884032D01*
X79615968Y-94530937D01*
X79200773Y-94253512D01*
X78739432Y-94062418D01*
X78516150Y-94018005D01*
X78544180Y-94009502D01*
X78654494Y-93950537D01*
X78751185Y-93871185D01*
X78830537Y-93774494D01*
X78889502Y-93664180D01*
X78925812Y-93544482D01*
X78938072Y-93420000D01*
X78938072Y-91820000D01*
X78925812Y-91695518D01*
X78889502Y-91575820D01*
X78830537Y-91465506D01*
X78751185Y-91368815D01*
X78654494Y-91289463D01*
X78544180Y-91230498D01*
X78424482Y-91194188D01*
X78300000Y-91181928D01*
X76700000Y-91181928D01*
X76575518Y-91194188D01*
X76455820Y-91230498D01*
X76345506Y-91289463D01*
X76248815Y-91368815D01*
X76169463Y-91465506D01*
X76110498Y-91575820D01*
X76074188Y-91695518D01*
X76061928Y-91820000D01*
X76061928Y-93420000D01*
X76074188Y-93544482D01*
X76110498Y-93664180D01*
X76169463Y-93774494D01*
X76248815Y-93871185D01*
X76345506Y-93950537D01*
X76455820Y-94009502D01*
X76575518Y-94045812D01*
X76700000Y-94058072D01*
X77282417Y-94058072D01*
X77260568Y-94062418D01*
X76799227Y-94253512D01*
X76384032Y-94530937D01*
X76030937Y-94884032D01*
X75753512Y-95299227D01*
X75562418Y-95760568D01*
X75465000Y-96250324D01*
X63535000Y-96250324D01*
X63437582Y-95760568D01*
X63246488Y-95299227D01*
X62969063Y-94884032D01*
X62615968Y-94530937D01*
X62200773Y-94253512D01*
X61739432Y-94062418D01*
X61717583Y-94058072D01*
X61800000Y-94058072D01*
X61924482Y-94045812D01*
X62044180Y-94009502D01*
X62154494Y-93950537D01*
X62251185Y-93871185D01*
X62330537Y-93774494D01*
X62389502Y-93664180D01*
X62425812Y-93544482D01*
X62438072Y-93420000D01*
X62438072Y-91820000D01*
X62425812Y-91695518D01*
X62389502Y-91575820D01*
X62330537Y-91465506D01*
X62251185Y-91368815D01*
X62154494Y-91289463D01*
X62044180Y-91230498D01*
X61924482Y-91194188D01*
X61800000Y-91181928D01*
X60200000Y-91181928D01*
X60075518Y-91194188D01*
X59955820Y-91230498D01*
X59845506Y-91289463D01*
X59748815Y-91368815D01*
X59669463Y-91465506D01*
X59610498Y-91575820D01*
X59574188Y-91695518D01*
X59561928Y-91820000D01*
X59561928Y-93420000D01*
X59574188Y-93544482D01*
X59610498Y-93664180D01*
X59669463Y-93774494D01*
X59748815Y-93871185D01*
X59845506Y-93950537D01*
X59955820Y-94009502D01*
X60075518Y-94045812D01*
X60200000Y-94058072D01*
X60282417Y-94058072D01*
X60260568Y-94062418D01*
X59799227Y-94253512D01*
X59384032Y-94530937D01*
X59030937Y-94884032D01*
X58753512Y-95299227D01*
X58562418Y-95760568D01*
X58465000Y-96250324D01*
X52660000Y-96250324D01*
X52660000Y-84858665D01*
X59565000Y-84858665D01*
X59565000Y-85141335D01*
X59620147Y-85418574D01*
X59728320Y-85679727D01*
X59885363Y-85914759D01*
X60085241Y-86114637D01*
X60320273Y-86271680D01*
X60581426Y-86379853D01*
X60858665Y-86435000D01*
X61141335Y-86435000D01*
X61418574Y-86379853D01*
X61679727Y-86271680D01*
X61914759Y-86114637D01*
X62114637Y-85914759D01*
X62224725Y-85750000D01*
X66336928Y-85750000D01*
X66336928Y-87250000D01*
X66349188Y-87374482D01*
X66385498Y-87494180D01*
X66444463Y-87604494D01*
X66523815Y-87701185D01*
X66620506Y-87780537D01*
X66730820Y-87839502D01*
X66850518Y-87875812D01*
X66975000Y-87888072D01*
X68025000Y-87888072D01*
X68149482Y-87875812D01*
X68269180Y-87839502D01*
X68333902Y-87804907D01*
X68542601Y-87868215D01*
X68770000Y-87890612D01*
X68997400Y-87868215D01*
X69216060Y-87801885D01*
X69417579Y-87694171D01*
X69594212Y-87549212D01*
X69739171Y-87372579D01*
X69846885Y-87171059D01*
X69913215Y-86952399D01*
X69930000Y-86781978D01*
X69930000Y-86218021D01*
X69913215Y-86047600D01*
X69846885Y-85828940D01*
X69739171Y-85627421D01*
X69594212Y-85450788D01*
X69530000Y-85398091D01*
X69530000Y-84858665D01*
X76065000Y-84858665D01*
X76065000Y-85141335D01*
X76120147Y-85418574D01*
X76228320Y-85679727D01*
X76385363Y-85914759D01*
X76585241Y-86114637D01*
X76820273Y-86271680D01*
X77081426Y-86379853D01*
X77358665Y-86435000D01*
X77641335Y-86435000D01*
X77918574Y-86379853D01*
X78179727Y-86271680D01*
X78414759Y-86114637D01*
X78614637Y-85914759D01*
X78771680Y-85679727D01*
X78879853Y-85418574D01*
X78935000Y-85141335D01*
X78935000Y-84858665D01*
X78879853Y-84581426D01*
X78771680Y-84320273D01*
X78614637Y-84085241D01*
X78414759Y-83885363D01*
X78179727Y-83728320D01*
X77918574Y-83620147D01*
X77641335Y-83565000D01*
X77358665Y-83565000D01*
X77081426Y-83620147D01*
X76820273Y-83728320D01*
X76585241Y-83885363D01*
X76385363Y-84085241D01*
X76228320Y-84320273D01*
X76120147Y-84581426D01*
X76065000Y-84858665D01*
X69530000Y-84858665D01*
X69530000Y-82225460D01*
X69632359Y-82183061D01*
X69851013Y-82036962D01*
X70036962Y-81851013D01*
X70183061Y-81632359D01*
X70283696Y-81389405D01*
X70335000Y-81131486D01*
X70335000Y-80868514D01*
X71665000Y-80868514D01*
X71665000Y-81131486D01*
X71716304Y-81389405D01*
X71816939Y-81632359D01*
X71963038Y-81851013D01*
X72148987Y-82036962D01*
X72367641Y-82183061D01*
X72610595Y-82283696D01*
X72868514Y-82335000D01*
X73131486Y-82335000D01*
X73389405Y-82283696D01*
X73632359Y-82183061D01*
X73851013Y-82036962D01*
X74036962Y-81851013D01*
X74183061Y-81632359D01*
X74283696Y-81389405D01*
X74335000Y-81131486D01*
X74335000Y-80868514D01*
X74283696Y-80610595D01*
X74183061Y-80367641D01*
X74036962Y-80148987D01*
X73851013Y-79963038D01*
X73632359Y-79816939D01*
X73389405Y-79716304D01*
X73131486Y-79665000D01*
X72868514Y-79665000D01*
X72610595Y-79716304D01*
X72367641Y-79816939D01*
X72148987Y-79963038D01*
X71963038Y-80148987D01*
X71816939Y-80367641D01*
X71716304Y-80610595D01*
X71665000Y-80868514D01*
X70335000Y-80868514D01*
X70283696Y-80610595D01*
X70183061Y-80367641D01*
X70036962Y-80148987D01*
X69851013Y-79963038D01*
X69632359Y-79816939D01*
X69389405Y-79716304D01*
X69131486Y-79665000D01*
X68868514Y-79665000D01*
X68610595Y-79716304D01*
X68367641Y-79816939D01*
X68148987Y-79963038D01*
X67963038Y-80148987D01*
X67816939Y-80367641D01*
X67716304Y-80610595D01*
X67665000Y-80868514D01*
X67665000Y-81131486D01*
X67716304Y-81389405D01*
X67816939Y-81632359D01*
X67963038Y-81851013D01*
X68010001Y-81897976D01*
X68010000Y-85111928D01*
X66975000Y-85111928D01*
X66850518Y-85124188D01*
X66730820Y-85160498D01*
X66620506Y-85219463D01*
X66523815Y-85298815D01*
X66444463Y-85395506D01*
X66385498Y-85505820D01*
X66349188Y-85625518D01*
X66336928Y-85750000D01*
X62224725Y-85750000D01*
X62271680Y-85679727D01*
X62379853Y-85418574D01*
X62435000Y-85141335D01*
X62435000Y-84858665D01*
X62379853Y-84581426D01*
X62271680Y-84320273D01*
X62114637Y-84085241D01*
X61914759Y-83885363D01*
X61679727Y-83728320D01*
X61418574Y-83620147D01*
X61141335Y-83565000D01*
X60858665Y-83565000D01*
X60581426Y-83620147D01*
X60320273Y-83728320D01*
X60085241Y-83885363D01*
X59885363Y-84085241D01*
X59728320Y-84320273D01*
X59620147Y-84581426D01*
X59565000Y-84858665D01*
X52660000Y-84858665D01*
X52660000Y-77358665D01*
X55565000Y-77358665D01*
X55565000Y-77641335D01*
X55620147Y-77918574D01*
X55728320Y-78179727D01*
X55885363Y-78414759D01*
X56085241Y-78614637D01*
X56287827Y-78750000D01*
X56085241Y-78885363D01*
X55885363Y-79085241D01*
X55728320Y-79320273D01*
X55620147Y-79581426D01*
X55565000Y-79858665D01*
X55565000Y-80141335D01*
X55620147Y-80418574D01*
X55728320Y-80679727D01*
X55885363Y-80914759D01*
X56085241Y-81114637D01*
X56320273Y-81271680D01*
X56581426Y-81379853D01*
X56858665Y-81435000D01*
X57141335Y-81435000D01*
X57418574Y-81379853D01*
X57679727Y-81271680D01*
X57914759Y-81114637D01*
X58114637Y-80914759D01*
X58145536Y-80868514D01*
X63665000Y-80868514D01*
X63665000Y-81131486D01*
X63716304Y-81389405D01*
X63816939Y-81632359D01*
X63963038Y-81851013D01*
X64148987Y-82036962D01*
X64367641Y-82183061D01*
X64610595Y-82283696D01*
X64868514Y-82335000D01*
X65131486Y-82335000D01*
X65389405Y-82283696D01*
X65632359Y-82183061D01*
X65851013Y-82036962D01*
X66036962Y-81851013D01*
X66183061Y-81632359D01*
X66283696Y-81389405D01*
X66335000Y-81131486D01*
X66335000Y-80868514D01*
X66283696Y-80610595D01*
X66183061Y-80367641D01*
X66036962Y-80148987D01*
X65851013Y-79963038D01*
X65632359Y-79816939D01*
X65389405Y-79716304D01*
X65131486Y-79665000D01*
X64868514Y-79665000D01*
X64610595Y-79716304D01*
X64367641Y-79816939D01*
X64148987Y-79963038D01*
X63963038Y-80148987D01*
X63816939Y-80367641D01*
X63716304Y-80610595D01*
X63665000Y-80868514D01*
X58145536Y-80868514D01*
X58271680Y-80679727D01*
X58379853Y-80418574D01*
X58435000Y-80141335D01*
X58435000Y-79858665D01*
X58379853Y-79581426D01*
X58271680Y-79320273D01*
X58114637Y-79085241D01*
X57914759Y-78885363D01*
X57712173Y-78750000D01*
X57914759Y-78614637D01*
X58114637Y-78414759D01*
X58271680Y-78179727D01*
X58379853Y-77918574D01*
X58435000Y-77641335D01*
X58435000Y-77358665D01*
X79565000Y-77358665D01*
X79565000Y-77641335D01*
X79620147Y-77918574D01*
X79728320Y-78179727D01*
X79885363Y-78414759D01*
X80085241Y-78614637D01*
X80287827Y-78750000D01*
X80085241Y-78885363D01*
X79885363Y-79085241D01*
X79728320Y-79320273D01*
X79620147Y-79581426D01*
X79565000Y-79858665D01*
X79565000Y-80141335D01*
X79620147Y-80418574D01*
X79728320Y-80679727D01*
X79885363Y-80914759D01*
X80085241Y-81114637D01*
X80320273Y-81271680D01*
X80581426Y-81379853D01*
X80858665Y-81435000D01*
X81141335Y-81435000D01*
X81418574Y-81379853D01*
X81679727Y-81271680D01*
X81914759Y-81114637D01*
X82114637Y-80914759D01*
X82271680Y-80679727D01*
X82379853Y-80418574D01*
X82435000Y-80141335D01*
X82435000Y-79858665D01*
X82379853Y-79581426D01*
X82271680Y-79320273D01*
X82114637Y-79085241D01*
X81914759Y-78885363D01*
X81712173Y-78750000D01*
X81914759Y-78614637D01*
X82114637Y-78414759D01*
X82271680Y-78179727D01*
X82379853Y-77918574D01*
X82435000Y-77641335D01*
X82435000Y-77358665D01*
X82379853Y-77081426D01*
X82271680Y-76820273D01*
X82114637Y-76585241D01*
X81914759Y-76385363D01*
X81679727Y-76228320D01*
X81418574Y-76120147D01*
X81141335Y-76065000D01*
X80858665Y-76065000D01*
X80581426Y-76120147D01*
X80320273Y-76228320D01*
X80085241Y-76385363D01*
X79885363Y-76585241D01*
X79728320Y-76820273D01*
X79620147Y-77081426D01*
X79565000Y-77358665D01*
X58435000Y-77358665D01*
X58379853Y-77081426D01*
X58271680Y-76820273D01*
X58114637Y-76585241D01*
X57914759Y-76385363D01*
X57679727Y-76228320D01*
X57418574Y-76120147D01*
X57141335Y-76065000D01*
X56858665Y-76065000D01*
X56581426Y-76120147D01*
X56320273Y-76228320D01*
X56085241Y-76385363D01*
X55885363Y-76585241D01*
X55728320Y-76820273D01*
X55620147Y-77081426D01*
X55565000Y-77358665D01*
X52660000Y-77358665D01*
X52660000Y-75788514D01*
X59665000Y-75788514D01*
X59665000Y-76051486D01*
X59716304Y-76309405D01*
X59816939Y-76552359D01*
X59963038Y-76771013D01*
X60148987Y-76956962D01*
X60367641Y-77103061D01*
X60610595Y-77203696D01*
X60868514Y-77255000D01*
X61131486Y-77255000D01*
X61389405Y-77203696D01*
X61632359Y-77103061D01*
X61851013Y-76956962D01*
X62036962Y-76771013D01*
X62183061Y-76552359D01*
X62283696Y-76309405D01*
X62335000Y-76051486D01*
X62335000Y-75788514D01*
X63665000Y-75788514D01*
X63665000Y-76051486D01*
X63716304Y-76309405D01*
X63816939Y-76552359D01*
X63963038Y-76771013D01*
X64148987Y-76956962D01*
X64367641Y-77103061D01*
X64610595Y-77203696D01*
X64868514Y-77255000D01*
X65131486Y-77255000D01*
X65389405Y-77203696D01*
X65632359Y-77103061D01*
X65851013Y-76956962D01*
X66036962Y-76771013D01*
X66183061Y-76552359D01*
X66283696Y-76309405D01*
X66335000Y-76051486D01*
X66335000Y-75788514D01*
X71665000Y-75788514D01*
X71665000Y-76051486D01*
X71716304Y-76309405D01*
X71816939Y-76552359D01*
X71963038Y-76771013D01*
X72148987Y-76956962D01*
X72367641Y-77103061D01*
X72610595Y-77203696D01*
X72868514Y-77255000D01*
X73131486Y-77255000D01*
X73389405Y-77203696D01*
X73632359Y-77103061D01*
X73851013Y-76956962D01*
X74036962Y-76771013D01*
X74183061Y-76552359D01*
X74283696Y-76309405D01*
X74335000Y-76051486D01*
X74335000Y-75788514D01*
X75665000Y-75788514D01*
X75665000Y-76051486D01*
X75716304Y-76309405D01*
X75816939Y-76552359D01*
X75963038Y-76771013D01*
X76148987Y-76956962D01*
X76367641Y-77103061D01*
X76610595Y-77203696D01*
X76868514Y-77255000D01*
X77131486Y-77255000D01*
X77389405Y-77203696D01*
X77632359Y-77103061D01*
X77851013Y-76956962D01*
X78036962Y-76771013D01*
X78183061Y-76552359D01*
X78283696Y-76309405D01*
X78335000Y-76051486D01*
X78335000Y-75788514D01*
X78283696Y-75530595D01*
X78183061Y-75287641D01*
X78036962Y-75068987D01*
X77851013Y-74883038D01*
X77632359Y-74736939D01*
X77389405Y-74636304D01*
X77131486Y-74585000D01*
X76868514Y-74585000D01*
X76610595Y-74636304D01*
X76367641Y-74736939D01*
X76148987Y-74883038D01*
X75963038Y-75068987D01*
X75816939Y-75287641D01*
X75716304Y-75530595D01*
X75665000Y-75788514D01*
X74335000Y-75788514D01*
X74283696Y-75530595D01*
X74183061Y-75287641D01*
X74036962Y-75068987D01*
X73851013Y-74883038D01*
X73632359Y-74736939D01*
X73389405Y-74636304D01*
X73131486Y-74585000D01*
X72868514Y-74585000D01*
X72610595Y-74636304D01*
X72367641Y-74736939D01*
X72148987Y-74883038D01*
X71963038Y-75068987D01*
X71816939Y-75287641D01*
X71716304Y-75530595D01*
X71665000Y-75788514D01*
X66335000Y-75788514D01*
X66283696Y-75530595D01*
X66183061Y-75287641D01*
X66036962Y-75068987D01*
X65851013Y-74883038D01*
X65632359Y-74736939D01*
X65389405Y-74636304D01*
X65131486Y-74585000D01*
X64868514Y-74585000D01*
X64610595Y-74636304D01*
X64367641Y-74736939D01*
X64148987Y-74883038D01*
X63963038Y-75068987D01*
X63816939Y-75287641D01*
X63716304Y-75530595D01*
X63665000Y-75788514D01*
X62335000Y-75788514D01*
X62283696Y-75530595D01*
X62183061Y-75287641D01*
X62036962Y-75068987D01*
X61851013Y-74883038D01*
X61632359Y-74736939D01*
X61389405Y-74636304D01*
X61131486Y-74585000D01*
X60868514Y-74585000D01*
X60610595Y-74636304D01*
X60367641Y-74736939D01*
X60148987Y-74883038D01*
X59963038Y-75068987D01*
X59816939Y-75287641D01*
X59716304Y-75530595D01*
X59665000Y-75788514D01*
X52660000Y-75788514D01*
X52660000Y-67948514D01*
X55665000Y-67948514D01*
X55665000Y-68211486D01*
X55716304Y-68469405D01*
X55816939Y-68712359D01*
X55963038Y-68931013D01*
X56148987Y-69116962D01*
X56367641Y-69263061D01*
X56610595Y-69363696D01*
X56868514Y-69415000D01*
X57131486Y-69415000D01*
X57389405Y-69363696D01*
X57632359Y-69263061D01*
X57851013Y-69116962D01*
X58036962Y-68931013D01*
X58183061Y-68712359D01*
X58283696Y-68469405D01*
X58335000Y-68211486D01*
X58335000Y-67948514D01*
X59665000Y-67948514D01*
X59665000Y-68211486D01*
X59716304Y-68469405D01*
X59816939Y-68712359D01*
X59963038Y-68931013D01*
X60148987Y-69116962D01*
X60367641Y-69263061D01*
X60610595Y-69363696D01*
X60868514Y-69415000D01*
X61131486Y-69415000D01*
X61389405Y-69363696D01*
X61632359Y-69263061D01*
X61851013Y-69116962D01*
X62036962Y-68931013D01*
X62183061Y-68712359D01*
X62283696Y-68469405D01*
X62335000Y-68211486D01*
X62335000Y-67948514D01*
X62283696Y-67690595D01*
X62183061Y-67447641D01*
X62130191Y-67368514D01*
X65565000Y-67368514D01*
X65565000Y-67631486D01*
X65616304Y-67889405D01*
X65716939Y-68132359D01*
X65863038Y-68351013D01*
X66048987Y-68536962D01*
X66267641Y-68683061D01*
X66318912Y-68704298D01*
X66316304Y-68710595D01*
X66265000Y-68968514D01*
X66265000Y-69231486D01*
X66316304Y-69489405D01*
X66416939Y-69732359D01*
X66563038Y-69951013D01*
X66748987Y-70136962D01*
X66967641Y-70283061D01*
X67210595Y-70383696D01*
X67468514Y-70435000D01*
X67731486Y-70435000D01*
X67989405Y-70383696D01*
X68011847Y-70374400D01*
X68063038Y-70451013D01*
X68248987Y-70636962D01*
X68467641Y-70783061D01*
X68710595Y-70883696D01*
X68968514Y-70935000D01*
X69231486Y-70935000D01*
X69489405Y-70883696D01*
X69732359Y-70783061D01*
X69951013Y-70636962D01*
X70136962Y-70451013D01*
X70283061Y-70232359D01*
X70383696Y-69989405D01*
X70435000Y-69731486D01*
X70435000Y-69468514D01*
X70383696Y-69210595D01*
X70283061Y-68967641D01*
X70136962Y-68748987D01*
X69951013Y-68563038D01*
X69732359Y-68416939D01*
X69489405Y-68316304D01*
X69231486Y-68265000D01*
X68968514Y-68265000D01*
X68710595Y-68316304D01*
X68688153Y-68325600D01*
X68636962Y-68248987D01*
X68451013Y-68063038D01*
X68232359Y-67916939D01*
X68181088Y-67895702D01*
X68183696Y-67889405D01*
X68235000Y-67631486D01*
X68235000Y-67368514D01*
X68183696Y-67110595D01*
X68083061Y-66867641D01*
X67936962Y-66648987D01*
X67751013Y-66463038D01*
X67532359Y-66316939D01*
X67289405Y-66216304D01*
X67031486Y-66165000D01*
X66768514Y-66165000D01*
X66510595Y-66216304D01*
X66267641Y-66316939D01*
X66048987Y-66463038D01*
X65863038Y-66648987D01*
X65716939Y-66867641D01*
X65616304Y-67110595D01*
X65565000Y-67368514D01*
X62130191Y-67368514D01*
X62036962Y-67228987D01*
X61851013Y-67043038D01*
X61632359Y-66896939D01*
X61389405Y-66796304D01*
X61131486Y-66745000D01*
X60868514Y-66745000D01*
X60610595Y-66796304D01*
X60367641Y-66896939D01*
X60148987Y-67043038D01*
X59963038Y-67228987D01*
X59816939Y-67447641D01*
X59716304Y-67690595D01*
X59665000Y-67948514D01*
X58335000Y-67948514D01*
X58283696Y-67690595D01*
X58183061Y-67447641D01*
X58036962Y-67228987D01*
X57851013Y-67043038D01*
X57632359Y-66896939D01*
X57389405Y-66796304D01*
X57131486Y-66745000D01*
X56868514Y-66745000D01*
X56610595Y-66796304D01*
X56367641Y-66896939D01*
X56148987Y-67043038D01*
X55963038Y-67228987D01*
X55816939Y-67447641D01*
X55716304Y-67690595D01*
X55665000Y-67948514D01*
X52660000Y-67948514D01*
X52660000Y-65268514D01*
X67565000Y-65268514D01*
X67565000Y-65531486D01*
X67616304Y-65789405D01*
X67716939Y-66032359D01*
X67863038Y-66251013D01*
X68048987Y-66436962D01*
X68267641Y-66583061D01*
X68510595Y-66683696D01*
X68768514Y-66735000D01*
X69031486Y-66735000D01*
X69289405Y-66683696D01*
X69337837Y-66663635D01*
X69463038Y-66851013D01*
X69648987Y-67036962D01*
X69809603Y-67144282D01*
X69765000Y-67368514D01*
X69765000Y-67631486D01*
X69816304Y-67889405D01*
X69916939Y-68132359D01*
X70063038Y-68351013D01*
X70248987Y-68536962D01*
X70467641Y-68683061D01*
X70710595Y-68783696D01*
X70968514Y-68835000D01*
X71231486Y-68835000D01*
X71489405Y-68783696D01*
X71732359Y-68683061D01*
X71951013Y-68536962D01*
X72136962Y-68351013D01*
X72283061Y-68132359D01*
X72383696Y-67889405D01*
X72387851Y-67868514D01*
X76165000Y-67868514D01*
X76165000Y-68131486D01*
X76216304Y-68389405D01*
X76316939Y-68632359D01*
X76463038Y-68851013D01*
X76648987Y-69036962D01*
X76867641Y-69183061D01*
X77110595Y-69283696D01*
X77368514Y-69335000D01*
X77631486Y-69335000D01*
X77889405Y-69283696D01*
X78132359Y-69183061D01*
X78351013Y-69036962D01*
X78536962Y-68851013D01*
X78683061Y-68632359D01*
X78783696Y-68389405D01*
X78835000Y-68131486D01*
X78835000Y-67868514D01*
X80165000Y-67868514D01*
X80165000Y-68131486D01*
X80216304Y-68389405D01*
X80316939Y-68632359D01*
X80463038Y-68851013D01*
X80648987Y-69036962D01*
X80867641Y-69183061D01*
X81110595Y-69283696D01*
X81368514Y-69335000D01*
X81631486Y-69335000D01*
X81889405Y-69283696D01*
X82132359Y-69183061D01*
X82351013Y-69036962D01*
X82536962Y-68851013D01*
X82683061Y-68632359D01*
X82783696Y-68389405D01*
X82835000Y-68131486D01*
X82835000Y-67868514D01*
X82783696Y-67610595D01*
X82683061Y-67367641D01*
X82536962Y-67148987D01*
X82351013Y-66963038D01*
X82132359Y-66816939D01*
X81889405Y-66716304D01*
X81631486Y-66665000D01*
X81368514Y-66665000D01*
X81110595Y-66716304D01*
X80867641Y-66816939D01*
X80648987Y-66963038D01*
X80463038Y-67148987D01*
X80316939Y-67367641D01*
X80216304Y-67610595D01*
X80165000Y-67868514D01*
X78835000Y-67868514D01*
X78783696Y-67610595D01*
X78683061Y-67367641D01*
X78536962Y-67148987D01*
X78351013Y-66963038D01*
X78132359Y-66816939D01*
X77889405Y-66716304D01*
X77631486Y-66665000D01*
X77368514Y-66665000D01*
X77110595Y-66716304D01*
X76867641Y-66816939D01*
X76648987Y-66963038D01*
X76463038Y-67148987D01*
X76316939Y-67367641D01*
X76216304Y-67610595D01*
X76165000Y-67868514D01*
X72387851Y-67868514D01*
X72435000Y-67631486D01*
X72435000Y-67368514D01*
X72383696Y-67110595D01*
X72283061Y-66867641D01*
X72136962Y-66648987D01*
X71951013Y-66463038D01*
X71790397Y-66355718D01*
X71835000Y-66131486D01*
X71835000Y-65868514D01*
X71783696Y-65610595D01*
X71683061Y-65367641D01*
X71536962Y-65148987D01*
X71351013Y-64963038D01*
X71132359Y-64816939D01*
X70889405Y-64716304D01*
X70631486Y-64665000D01*
X70368514Y-64665000D01*
X70110595Y-64716304D01*
X70062163Y-64736365D01*
X69936962Y-64548987D01*
X69751013Y-64363038D01*
X69532359Y-64216939D01*
X69289405Y-64116304D01*
X69031486Y-64065000D01*
X68768514Y-64065000D01*
X68510595Y-64116304D01*
X68267641Y-64216939D01*
X68048987Y-64363038D01*
X67863038Y-64548987D01*
X67716939Y-64767641D01*
X67616304Y-65010595D01*
X67565000Y-65268514D01*
X52660000Y-65268514D01*
X52660000Y-62868514D01*
X55665000Y-62868514D01*
X55665000Y-63131486D01*
X55716304Y-63389405D01*
X55816939Y-63632359D01*
X55963038Y-63851013D01*
X56148987Y-64036962D01*
X56367641Y-64183061D01*
X56610595Y-64283696D01*
X56868514Y-64335000D01*
X57131486Y-64335000D01*
X57389405Y-64283696D01*
X57632359Y-64183061D01*
X57851013Y-64036962D01*
X58036962Y-63851013D01*
X58183061Y-63632359D01*
X58283696Y-63389405D01*
X58335000Y-63131486D01*
X58335000Y-62868514D01*
X59665000Y-62868514D01*
X59665000Y-63131486D01*
X59716304Y-63389405D01*
X59816939Y-63632359D01*
X59963038Y-63851013D01*
X60148987Y-64036962D01*
X60367641Y-64183061D01*
X60610595Y-64283696D01*
X60868514Y-64335000D01*
X61131486Y-64335000D01*
X61389405Y-64283696D01*
X61632359Y-64183061D01*
X61851013Y-64036962D01*
X62036962Y-63851013D01*
X62183061Y-63632359D01*
X62283696Y-63389405D01*
X62335000Y-63131486D01*
X62335000Y-62868514D01*
X62319087Y-62788514D01*
X76165000Y-62788514D01*
X76165000Y-63051486D01*
X76216304Y-63309405D01*
X76316939Y-63552359D01*
X76463038Y-63771013D01*
X76648987Y-63956962D01*
X76867641Y-64103061D01*
X77110595Y-64203696D01*
X77368514Y-64255000D01*
X77631486Y-64255000D01*
X77889405Y-64203696D01*
X78132359Y-64103061D01*
X78351013Y-63956962D01*
X78536962Y-63771013D01*
X78683061Y-63552359D01*
X78783696Y-63309405D01*
X78835000Y-63051486D01*
X78835000Y-62788514D01*
X80165000Y-62788514D01*
X80165000Y-63051486D01*
X80216304Y-63309405D01*
X80316939Y-63552359D01*
X80463038Y-63771013D01*
X80648987Y-63956962D01*
X80867641Y-64103061D01*
X81110595Y-64203696D01*
X81368514Y-64255000D01*
X81631486Y-64255000D01*
X81889405Y-64203696D01*
X82132359Y-64103061D01*
X82351013Y-63956962D01*
X82536962Y-63771013D01*
X82683061Y-63552359D01*
X82783696Y-63309405D01*
X82835000Y-63051486D01*
X82835000Y-62788514D01*
X82783696Y-62530595D01*
X82683061Y-62287641D01*
X82536962Y-62068987D01*
X82351013Y-61883038D01*
X82132359Y-61736939D01*
X81889405Y-61636304D01*
X81631486Y-61585000D01*
X81368514Y-61585000D01*
X81110595Y-61636304D01*
X80867641Y-61736939D01*
X80648987Y-61883038D01*
X80463038Y-62068987D01*
X80316939Y-62287641D01*
X80216304Y-62530595D01*
X80165000Y-62788514D01*
X78835000Y-62788514D01*
X78783696Y-62530595D01*
X78683061Y-62287641D01*
X78536962Y-62068987D01*
X78351013Y-61883038D01*
X78132359Y-61736939D01*
X77889405Y-61636304D01*
X77631486Y-61585000D01*
X77368514Y-61585000D01*
X77110595Y-61636304D01*
X76867641Y-61736939D01*
X76648987Y-61883038D01*
X76463038Y-62068987D01*
X76316939Y-62287641D01*
X76216304Y-62530595D01*
X76165000Y-62788514D01*
X62319087Y-62788514D01*
X62283696Y-62610595D01*
X62183061Y-62367641D01*
X62036962Y-62148987D01*
X61851013Y-61963038D01*
X61632359Y-61816939D01*
X61389405Y-61716304D01*
X61131486Y-61665000D01*
X60868514Y-61665000D01*
X60610595Y-61716304D01*
X60367641Y-61816939D01*
X60148987Y-61963038D01*
X59963038Y-62148987D01*
X59816939Y-62367641D01*
X59716304Y-62610595D01*
X59665000Y-62868514D01*
X58335000Y-62868514D01*
X58283696Y-62610595D01*
X58183061Y-62367641D01*
X58036962Y-62148987D01*
X57851013Y-61963038D01*
X57632359Y-61816939D01*
X57389405Y-61716304D01*
X57131486Y-61665000D01*
X56868514Y-61665000D01*
X56610595Y-61716304D01*
X56367641Y-61816939D01*
X56148987Y-61963038D01*
X55963038Y-62148987D01*
X55816939Y-62367641D01*
X55716304Y-62610595D01*
X55665000Y-62868514D01*
X52660000Y-62868514D01*
X52660000Y-58358665D01*
X58565000Y-58358665D01*
X58565000Y-58641335D01*
X58620147Y-58918574D01*
X58728320Y-59179727D01*
X58885363Y-59414759D01*
X59085241Y-59614637D01*
X59320273Y-59771680D01*
X59581426Y-59879853D01*
X59858665Y-59935000D01*
X60141335Y-59935000D01*
X60418574Y-59879853D01*
X60679727Y-59771680D01*
X60914759Y-59614637D01*
X61114637Y-59414759D01*
X61250000Y-59212173D01*
X61385363Y-59414759D01*
X61585241Y-59614637D01*
X61820273Y-59771680D01*
X62081426Y-59879853D01*
X62358665Y-59935000D01*
X62641335Y-59935000D01*
X62918574Y-59879853D01*
X63179727Y-59771680D01*
X63414759Y-59614637D01*
X63614637Y-59414759D01*
X63771680Y-59179727D01*
X63879853Y-58918574D01*
X63935000Y-58641335D01*
X63935000Y-58368514D01*
X71085000Y-58368514D01*
X71085000Y-58631486D01*
X71136304Y-58889405D01*
X71236939Y-59132359D01*
X71383038Y-59351013D01*
X71568987Y-59536962D01*
X71787641Y-59683061D01*
X72030595Y-59783696D01*
X72288514Y-59835000D01*
X72551486Y-59835000D01*
X72809405Y-59783696D01*
X73052359Y-59683061D01*
X73271013Y-59536962D01*
X73456962Y-59351013D01*
X73603061Y-59132359D01*
X73703696Y-58889405D01*
X73755000Y-58631486D01*
X73755000Y-58368514D01*
X76165000Y-58368514D01*
X76165000Y-58631486D01*
X76216304Y-58889405D01*
X76316939Y-59132359D01*
X76463038Y-59351013D01*
X76648987Y-59536962D01*
X76867641Y-59683061D01*
X77110595Y-59783696D01*
X77368514Y-59835000D01*
X77631486Y-59835000D01*
X77889405Y-59783696D01*
X78132359Y-59683061D01*
X78351013Y-59536962D01*
X78536962Y-59351013D01*
X78683061Y-59132359D01*
X78783696Y-58889405D01*
X78835000Y-58631486D01*
X78835000Y-58368514D01*
X78783696Y-58110595D01*
X78683061Y-57867641D01*
X78536962Y-57648987D01*
X78351013Y-57463038D01*
X78132359Y-57316939D01*
X77889405Y-57216304D01*
X77631486Y-57165000D01*
X77368514Y-57165000D01*
X77110595Y-57216304D01*
X76867641Y-57316939D01*
X76648987Y-57463038D01*
X76463038Y-57648987D01*
X76316939Y-57867641D01*
X76216304Y-58110595D01*
X76165000Y-58368514D01*
X73755000Y-58368514D01*
X73703696Y-58110595D01*
X73603061Y-57867641D01*
X73456962Y-57648987D01*
X73271013Y-57463038D01*
X73052359Y-57316939D01*
X72809405Y-57216304D01*
X72551486Y-57165000D01*
X72288514Y-57165000D01*
X72030595Y-57216304D01*
X71787641Y-57316939D01*
X71568987Y-57463038D01*
X71383038Y-57648987D01*
X71236939Y-57867641D01*
X71136304Y-58110595D01*
X71085000Y-58368514D01*
X63935000Y-58368514D01*
X63935000Y-58358665D01*
X63879853Y-58081426D01*
X63771680Y-57820273D01*
X63614637Y-57585241D01*
X63414759Y-57385363D01*
X63179727Y-57228320D01*
X62918574Y-57120147D01*
X62641335Y-57065000D01*
X62358665Y-57065000D01*
X62081426Y-57120147D01*
X61820273Y-57228320D01*
X61585241Y-57385363D01*
X61385363Y-57585241D01*
X61250000Y-57787827D01*
X61114637Y-57585241D01*
X60914759Y-57385363D01*
X60679727Y-57228320D01*
X60418574Y-57120147D01*
X60141335Y-57065000D01*
X59858665Y-57065000D01*
X59581426Y-57120147D01*
X59320273Y-57228320D01*
X59085241Y-57385363D01*
X58885363Y-57585241D01*
X58728320Y-57820273D01*
X58620147Y-58081426D01*
X58565000Y-58358665D01*
X52660000Y-58358665D01*
X52660000Y-45660000D01*
X54524985Y-45660000D01*
X54299227Y-45753512D01*
G37*
%TD.AperFunction*%
%TD*%
M02*
