%TF.GenerationSoftware,KiCad,Pcbnew,5.1.10*%
%TF.CreationDate,2021-06-02T01:10:26+02:00*%
%TF.ProjectId,piezo-jfet,7069657a-6f2d-46a6-9665-742e6b696361,rev?*%
%TF.SameCoordinates,Original*%
%TF.FileFunction,Legend,Top*%
%TF.FilePolarity,Positive*%
%FSLAX46Y46*%
G04 Gerber Fmt 4.6, Leading zero omitted, Abs format (unit mm)*
G04 Created by KiCad (PCBNEW 5.1.10) date 2021-06-02 01:10:26*
%MOMM*%
%LPD*%
G01*
G04 APERTURE LIST*
%ADD10C,0.150000*%
%ADD11C,0.120000*%
G04 APERTURE END LIST*
D10*
X73619047Y-103571428D02*
X74380952Y-103571428D01*
X74000000Y-103952380D02*
X74000000Y-103190476D01*
X60619047Y-103571428D02*
X61380952Y-103571428D01*
X61000000Y-103952380D02*
X61000000Y-103190476D01*
D11*
X66500000Y-102500000D02*
X64000000Y-102500000D01*
X71500000Y-102500000D02*
X71500000Y-99500000D01*
X78000000Y-102500000D02*
X78000000Y-100000000D01*
X76500000Y-101500000D02*
X75500000Y-101500000D01*
X76500000Y-103500000D02*
X76500000Y-101500000D01*
X75000000Y-102500000D02*
X71500000Y-102500000D01*
X75500000Y-103500000D02*
X76500000Y-103500000D01*
X77000000Y-103000000D02*
X77000000Y-101500000D01*
X78000000Y-102500000D02*
X77000000Y-102500000D01*
X75000000Y-101500000D02*
X75000000Y-102500000D01*
X75000000Y-103500000D02*
X75000000Y-101500000D01*
X75500000Y-101500000D02*
X75500000Y-103500000D01*
X77000000Y-101500000D02*
X77000000Y-103500000D01*
X66500000Y-102500000D02*
X66500000Y-99500000D01*
X64000000Y-103500000D02*
X64000000Y-102500000D01*
X64000000Y-101500000D02*
X64000000Y-103500000D01*
X63500000Y-101500000D02*
X62500000Y-101500000D01*
X63500000Y-103500000D02*
X63500000Y-101500000D01*
X62500000Y-103500000D02*
X63500000Y-103500000D01*
X62500000Y-101500000D02*
X62500000Y-103500000D01*
X62000000Y-103500000D02*
X62000000Y-101500000D01*
X62000000Y-102000000D02*
X62000000Y-103500000D01*
X61000000Y-102500000D02*
X62000000Y-102500000D01*
X61000000Y-100000000D02*
X61000000Y-102500000D01*
D10*
X56880952Y-104627380D02*
X56880952Y-105436904D01*
X56928571Y-105532142D01*
X56976190Y-105579761D01*
X57071428Y-105627380D01*
X57261904Y-105627380D01*
X57357142Y-105579761D01*
X57404761Y-105532142D01*
X57452380Y-105436904D01*
X57452380Y-104627380D01*
X57880952Y-105579761D02*
X57976190Y-105627380D01*
X58166666Y-105627380D01*
X58261904Y-105579761D01*
X58309523Y-105484523D01*
X58309523Y-105436904D01*
X58261904Y-105341666D01*
X58166666Y-105294047D01*
X58023809Y-105294047D01*
X57928571Y-105246428D01*
X57880952Y-105151190D01*
X57880952Y-105103571D01*
X57928571Y-105008333D01*
X58023809Y-104960714D01*
X58166666Y-104960714D01*
X58261904Y-105008333D01*
X59119047Y-105579761D02*
X59023809Y-105627380D01*
X58833333Y-105627380D01*
X58738095Y-105579761D01*
X58690476Y-105484523D01*
X58690476Y-105103571D01*
X58738095Y-105008333D01*
X58833333Y-104960714D01*
X59023809Y-104960714D01*
X59119047Y-105008333D01*
X59166666Y-105103571D01*
X59166666Y-105198809D01*
X58690476Y-105294047D01*
X60309523Y-105579761D02*
X60404761Y-105627380D01*
X60595238Y-105627380D01*
X60690476Y-105579761D01*
X60738095Y-105484523D01*
X60738095Y-105436904D01*
X60690476Y-105341666D01*
X60595238Y-105294047D01*
X60452380Y-105294047D01*
X60357142Y-105246428D01*
X60309523Y-105151190D01*
X60309523Y-105103571D01*
X60357142Y-105008333D01*
X60452380Y-104960714D01*
X60595238Y-104960714D01*
X60690476Y-105008333D01*
X61166666Y-105627380D02*
X61166666Y-104627380D01*
X61595238Y-105627380D02*
X61595238Y-105103571D01*
X61547619Y-105008333D01*
X61452380Y-104960714D01*
X61309523Y-104960714D01*
X61214285Y-105008333D01*
X61166666Y-105055952D01*
X62071428Y-105627380D02*
X62071428Y-104960714D01*
X62071428Y-104627380D02*
X62023809Y-104675000D01*
X62071428Y-104722619D01*
X62119047Y-104675000D01*
X62071428Y-104627380D01*
X62071428Y-104722619D01*
X62928571Y-105579761D02*
X62833333Y-105627380D01*
X62642857Y-105627380D01*
X62547619Y-105579761D01*
X62500000Y-105484523D01*
X62500000Y-105103571D01*
X62547619Y-105008333D01*
X62642857Y-104960714D01*
X62833333Y-104960714D01*
X62928571Y-105008333D01*
X62976190Y-105103571D01*
X62976190Y-105198809D01*
X62500000Y-105294047D01*
X63547619Y-105627380D02*
X63452380Y-105579761D01*
X63404761Y-105484523D01*
X63404761Y-104627380D01*
X64357142Y-105627380D02*
X64357142Y-104627380D01*
X64357142Y-105579761D02*
X64261904Y-105627380D01*
X64071428Y-105627380D01*
X63976190Y-105579761D01*
X63928571Y-105532142D01*
X63880952Y-105436904D01*
X63880952Y-105151190D01*
X63928571Y-105055952D01*
X63976190Y-105008333D01*
X64071428Y-104960714D01*
X64261904Y-104960714D01*
X64357142Y-105008333D01*
X65214285Y-105579761D02*
X65119047Y-105627380D01*
X64928571Y-105627380D01*
X64833333Y-105579761D01*
X64785714Y-105484523D01*
X64785714Y-105103571D01*
X64833333Y-105008333D01*
X64928571Y-104960714D01*
X65119047Y-104960714D01*
X65214285Y-105008333D01*
X65261904Y-105103571D01*
X65261904Y-105198809D01*
X64785714Y-105294047D01*
X66119047Y-105627380D02*
X66119047Y-104627380D01*
X66119047Y-105579761D02*
X66023809Y-105627380D01*
X65833333Y-105627380D01*
X65738095Y-105579761D01*
X65690476Y-105532142D01*
X65642857Y-105436904D01*
X65642857Y-105151190D01*
X65690476Y-105055952D01*
X65738095Y-105008333D01*
X65833333Y-104960714D01*
X66023809Y-104960714D01*
X66119047Y-105008333D01*
X67785714Y-105579761D02*
X67690476Y-105627380D01*
X67500000Y-105627380D01*
X67404761Y-105579761D01*
X67357142Y-105532142D01*
X67309523Y-105436904D01*
X67309523Y-105151190D01*
X67357142Y-105055952D01*
X67404761Y-105008333D01*
X67500000Y-104960714D01*
X67690476Y-104960714D01*
X67785714Y-105008333D01*
X68642857Y-105627380D02*
X68642857Y-105103571D01*
X68595238Y-105008333D01*
X68500000Y-104960714D01*
X68309523Y-104960714D01*
X68214285Y-105008333D01*
X68642857Y-105579761D02*
X68547619Y-105627380D01*
X68309523Y-105627380D01*
X68214285Y-105579761D01*
X68166666Y-105484523D01*
X68166666Y-105389285D01*
X68214285Y-105294047D01*
X68309523Y-105246428D01*
X68547619Y-105246428D01*
X68642857Y-105198809D01*
X69119047Y-105627380D02*
X69119047Y-104627380D01*
X69119047Y-105008333D02*
X69214285Y-104960714D01*
X69404761Y-104960714D01*
X69500000Y-105008333D01*
X69547619Y-105055952D01*
X69595238Y-105151190D01*
X69595238Y-105436904D01*
X69547619Y-105532142D01*
X69500000Y-105579761D01*
X69404761Y-105627380D01*
X69214285Y-105627380D01*
X69119047Y-105579761D01*
X70166666Y-105627380D02*
X70071428Y-105579761D01*
X70023809Y-105484523D01*
X70023809Y-104627380D01*
X70928571Y-105579761D02*
X70833333Y-105627380D01*
X70642857Y-105627380D01*
X70547619Y-105579761D01*
X70500000Y-105484523D01*
X70500000Y-105103571D01*
X70547619Y-105008333D01*
X70642857Y-104960714D01*
X70833333Y-104960714D01*
X70928571Y-105008333D01*
X70976190Y-105103571D01*
X70976190Y-105198809D01*
X70500000Y-105294047D01*
X71452380Y-105579761D02*
X71452380Y-105627380D01*
X71404761Y-105722619D01*
X71357142Y-105770238D01*
X72547619Y-104960714D02*
X72738095Y-105627380D01*
X72928571Y-105151190D01*
X73119047Y-105627380D01*
X73309523Y-104960714D01*
X73690476Y-105627380D02*
X73690476Y-104960714D01*
X73690476Y-104627380D02*
X73642857Y-104675000D01*
X73690476Y-104722619D01*
X73738095Y-104675000D01*
X73690476Y-104627380D01*
X73690476Y-104722619D01*
X74023809Y-104960714D02*
X74404761Y-104960714D01*
X74166666Y-104627380D02*
X74166666Y-105484523D01*
X74214285Y-105579761D01*
X74309523Y-105627380D01*
X74404761Y-105627380D01*
X74738095Y-105627380D02*
X74738095Y-104627380D01*
X75166666Y-105627380D02*
X75166666Y-105103571D01*
X75119047Y-105008333D01*
X75023809Y-104960714D01*
X74880952Y-104960714D01*
X74785714Y-105008333D01*
X74738095Y-105055952D01*
X76833333Y-104960714D02*
X76833333Y-105627380D01*
X76595238Y-104579761D02*
X76357142Y-105294047D01*
X76976190Y-105294047D01*
X78261904Y-105627380D02*
X78166666Y-105579761D01*
X78119047Y-105484523D01*
X78119047Y-104627380D01*
X79023809Y-105579761D02*
X78928571Y-105627380D01*
X78738095Y-105627380D01*
X78642857Y-105579761D01*
X78595238Y-105484523D01*
X78595238Y-105103571D01*
X78642857Y-105008333D01*
X78738095Y-104960714D01*
X78928571Y-104960714D01*
X79023809Y-105008333D01*
X79071428Y-105103571D01*
X79071428Y-105198809D01*
X78595238Y-105294047D01*
X79928571Y-105627380D02*
X79928571Y-105103571D01*
X79880952Y-105008333D01*
X79785714Y-104960714D01*
X79595238Y-104960714D01*
X79500000Y-105008333D01*
X79928571Y-105579761D02*
X79833333Y-105627380D01*
X79595238Y-105627380D01*
X79500000Y-105579761D01*
X79452380Y-105484523D01*
X79452380Y-105389285D01*
X79500000Y-105294047D01*
X79595238Y-105246428D01*
X79833333Y-105246428D01*
X79928571Y-105198809D01*
X80833333Y-105627380D02*
X80833333Y-104627380D01*
X80833333Y-105579761D02*
X80738095Y-105627380D01*
X80547619Y-105627380D01*
X80452380Y-105579761D01*
X80404761Y-105532142D01*
X80357142Y-105436904D01*
X80357142Y-105151190D01*
X80404761Y-105055952D01*
X80452380Y-105008333D01*
X80547619Y-104960714D01*
X80738095Y-104960714D01*
X80833333Y-105008333D01*
X81261904Y-105579761D02*
X81357142Y-105627380D01*
X81547619Y-105627380D01*
X81642857Y-105579761D01*
X81690476Y-105484523D01*
X81690476Y-105436904D01*
X81642857Y-105341666D01*
X81547619Y-105294047D01*
X81404761Y-105294047D01*
X81309523Y-105246428D01*
X81261904Y-105151190D01*
X81261904Y-105103571D01*
X81309523Y-105008333D01*
X81404761Y-104960714D01*
X81547619Y-104960714D01*
X81642857Y-105008333D01*
X82119047Y-105532142D02*
X82166666Y-105579761D01*
X82119047Y-105627380D01*
X82071428Y-105579761D01*
X82119047Y-105532142D01*
X82119047Y-105627380D01*
X54452380Y-107182142D02*
X54404761Y-107229761D01*
X54261904Y-107277380D01*
X54166666Y-107277380D01*
X54023809Y-107229761D01*
X53928571Y-107134523D01*
X53880952Y-107039285D01*
X53833333Y-106848809D01*
X53833333Y-106705952D01*
X53880952Y-106515476D01*
X53928571Y-106420238D01*
X54023809Y-106325000D01*
X54166666Y-106277380D01*
X54261904Y-106277380D01*
X54404761Y-106325000D01*
X54452380Y-106372619D01*
X55023809Y-107277380D02*
X54928571Y-107229761D01*
X54880952Y-107182142D01*
X54833333Y-107086904D01*
X54833333Y-106801190D01*
X54880952Y-106705952D01*
X54928571Y-106658333D01*
X55023809Y-106610714D01*
X55166666Y-106610714D01*
X55261904Y-106658333D01*
X55309523Y-106705952D01*
X55357142Y-106801190D01*
X55357142Y-107086904D01*
X55309523Y-107182142D01*
X55261904Y-107229761D01*
X55166666Y-107277380D01*
X55023809Y-107277380D01*
X55785714Y-106610714D02*
X55785714Y-107277380D01*
X55785714Y-106705952D02*
X55833333Y-106658333D01*
X55928571Y-106610714D01*
X56071428Y-106610714D01*
X56166666Y-106658333D01*
X56214285Y-106753571D01*
X56214285Y-107277380D01*
X56690476Y-106610714D02*
X56690476Y-107277380D01*
X56690476Y-106705952D02*
X56738095Y-106658333D01*
X56833333Y-106610714D01*
X56976190Y-106610714D01*
X57071428Y-106658333D01*
X57119047Y-106753571D01*
X57119047Y-107277380D01*
X57976190Y-107229761D02*
X57880952Y-107277380D01*
X57690476Y-107277380D01*
X57595238Y-107229761D01*
X57547619Y-107134523D01*
X57547619Y-106753571D01*
X57595238Y-106658333D01*
X57690476Y-106610714D01*
X57880952Y-106610714D01*
X57976190Y-106658333D01*
X58023809Y-106753571D01*
X58023809Y-106848809D01*
X57547619Y-106944047D01*
X58880952Y-107229761D02*
X58785714Y-107277380D01*
X58595238Y-107277380D01*
X58500000Y-107229761D01*
X58452380Y-107182142D01*
X58404761Y-107086904D01*
X58404761Y-106801190D01*
X58452380Y-106705952D01*
X58500000Y-106658333D01*
X58595238Y-106610714D01*
X58785714Y-106610714D01*
X58880952Y-106658333D01*
X59166666Y-106610714D02*
X59547619Y-106610714D01*
X59309523Y-106277380D02*
X59309523Y-107134523D01*
X59357142Y-107229761D01*
X59452380Y-107277380D01*
X59547619Y-107277380D01*
X60785714Y-107277380D02*
X60690476Y-107229761D01*
X60642857Y-107182142D01*
X60595238Y-107086904D01*
X60595238Y-106801190D01*
X60642857Y-106705952D01*
X60690476Y-106658333D01*
X60785714Y-106610714D01*
X60928571Y-106610714D01*
X61023809Y-106658333D01*
X61071428Y-106705952D01*
X61119047Y-106801190D01*
X61119047Y-107086904D01*
X61071428Y-107182142D01*
X61023809Y-107229761D01*
X60928571Y-107277380D01*
X60785714Y-107277380D01*
X61976190Y-106610714D02*
X61976190Y-107277380D01*
X61547619Y-106610714D02*
X61547619Y-107134523D01*
X61595238Y-107229761D01*
X61690476Y-107277380D01*
X61833333Y-107277380D01*
X61928571Y-107229761D01*
X61976190Y-107182142D01*
X62309523Y-106610714D02*
X62690476Y-106610714D01*
X62452380Y-106277380D02*
X62452380Y-107134523D01*
X62500000Y-107229761D01*
X62595238Y-107277380D01*
X62690476Y-107277380D01*
X63404761Y-107229761D02*
X63309523Y-107277380D01*
X63119047Y-107277380D01*
X63023809Y-107229761D01*
X62976190Y-107134523D01*
X62976190Y-106753571D01*
X63023809Y-106658333D01*
X63119047Y-106610714D01*
X63309523Y-106610714D01*
X63404761Y-106658333D01*
X63452380Y-106753571D01*
X63452380Y-106848809D01*
X62976190Y-106944047D01*
X63880952Y-107277380D02*
X63880952Y-106610714D01*
X63880952Y-106801190D02*
X63928571Y-106705952D01*
X63976190Y-106658333D01*
X64071428Y-106610714D01*
X64166666Y-106610714D01*
X65690476Y-107229761D02*
X65595238Y-107277380D01*
X65404761Y-107277380D01*
X65309523Y-107229761D01*
X65261904Y-107182142D01*
X65214285Y-107086904D01*
X65214285Y-106801190D01*
X65261904Y-106705952D01*
X65309523Y-106658333D01*
X65404761Y-106610714D01*
X65595238Y-106610714D01*
X65690476Y-106658333D01*
X66547619Y-107277380D02*
X66547619Y-106753571D01*
X66500000Y-106658333D01*
X66404761Y-106610714D01*
X66214285Y-106610714D01*
X66119047Y-106658333D01*
X66547619Y-107229761D02*
X66452380Y-107277380D01*
X66214285Y-107277380D01*
X66119047Y-107229761D01*
X66071428Y-107134523D01*
X66071428Y-107039285D01*
X66119047Y-106944047D01*
X66214285Y-106896428D01*
X66452380Y-106896428D01*
X66547619Y-106848809D01*
X67023809Y-107277380D02*
X67023809Y-106277380D01*
X67023809Y-106658333D02*
X67119047Y-106610714D01*
X67309523Y-106610714D01*
X67404761Y-106658333D01*
X67452380Y-106705952D01*
X67500000Y-106801190D01*
X67500000Y-107086904D01*
X67452380Y-107182142D01*
X67404761Y-107229761D01*
X67309523Y-107277380D01*
X67119047Y-107277380D01*
X67023809Y-107229761D01*
X68071428Y-107277380D02*
X67976190Y-107229761D01*
X67928571Y-107134523D01*
X67928571Y-106277380D01*
X68833333Y-107229761D02*
X68738095Y-107277380D01*
X68547619Y-107277380D01*
X68452380Y-107229761D01*
X68404761Y-107134523D01*
X68404761Y-106753571D01*
X68452380Y-106658333D01*
X68547619Y-106610714D01*
X68738095Y-106610714D01*
X68833333Y-106658333D01*
X68880952Y-106753571D01*
X68880952Y-106848809D01*
X68404761Y-106944047D01*
X70023809Y-107229761D02*
X70119047Y-107277380D01*
X70309523Y-107277380D01*
X70404761Y-107229761D01*
X70452380Y-107134523D01*
X70452380Y-107086904D01*
X70404761Y-106991666D01*
X70309523Y-106944047D01*
X70166666Y-106944047D01*
X70071428Y-106896428D01*
X70023809Y-106801190D01*
X70023809Y-106753571D01*
X70071428Y-106658333D01*
X70166666Y-106610714D01*
X70309523Y-106610714D01*
X70404761Y-106658333D01*
X70880952Y-107277380D02*
X70880952Y-106277380D01*
X71309523Y-107277380D02*
X71309523Y-106753571D01*
X71261904Y-106658333D01*
X71166666Y-106610714D01*
X71023809Y-106610714D01*
X70928571Y-106658333D01*
X70880952Y-106705952D01*
X71785714Y-107277380D02*
X71785714Y-106610714D01*
X71785714Y-106277380D02*
X71738095Y-106325000D01*
X71785714Y-106372619D01*
X71833333Y-106325000D01*
X71785714Y-106277380D01*
X71785714Y-106372619D01*
X72642857Y-107229761D02*
X72547619Y-107277380D01*
X72357142Y-107277380D01*
X72261904Y-107229761D01*
X72214285Y-107134523D01*
X72214285Y-106753571D01*
X72261904Y-106658333D01*
X72357142Y-106610714D01*
X72547619Y-106610714D01*
X72642857Y-106658333D01*
X72690476Y-106753571D01*
X72690476Y-106848809D01*
X72214285Y-106944047D01*
X73261904Y-107277380D02*
X73166666Y-107229761D01*
X73119047Y-107134523D01*
X73119047Y-106277380D01*
X74071428Y-107277380D02*
X74071428Y-106277380D01*
X74071428Y-107229761D02*
X73976190Y-107277380D01*
X73785714Y-107277380D01*
X73690476Y-107229761D01*
X73642857Y-107182142D01*
X73595238Y-107086904D01*
X73595238Y-106801190D01*
X73642857Y-106705952D01*
X73690476Y-106658333D01*
X73785714Y-106610714D01*
X73976190Y-106610714D01*
X74071428Y-106658333D01*
X75166666Y-106610714D02*
X75547619Y-106610714D01*
X75309523Y-106277380D02*
X75309523Y-107134523D01*
X75357142Y-107229761D01*
X75452380Y-107277380D01*
X75547619Y-107277380D01*
X76023809Y-107277380D02*
X75928571Y-107229761D01*
X75880952Y-107182142D01*
X75833333Y-107086904D01*
X75833333Y-106801190D01*
X75880952Y-106705952D01*
X75928571Y-106658333D01*
X76023809Y-106610714D01*
X76166666Y-106610714D01*
X76261904Y-106658333D01*
X76309523Y-106705952D01*
X76357142Y-106801190D01*
X76357142Y-107086904D01*
X76309523Y-107182142D01*
X76261904Y-107229761D01*
X76166666Y-107277380D01*
X76023809Y-107277380D01*
X77547619Y-107277380D02*
X77547619Y-106610714D01*
X77547619Y-106705952D02*
X77595238Y-106658333D01*
X77690476Y-106610714D01*
X77833333Y-106610714D01*
X77928571Y-106658333D01*
X77976190Y-106753571D01*
X77976190Y-107277380D01*
X77976190Y-106753571D02*
X78023809Y-106658333D01*
X78119047Y-106610714D01*
X78261904Y-106610714D01*
X78357142Y-106658333D01*
X78404761Y-106753571D01*
X78404761Y-107277380D01*
X79261904Y-107229761D02*
X79166666Y-107277380D01*
X78976190Y-107277380D01*
X78880952Y-107229761D01*
X78833333Y-107134523D01*
X78833333Y-106753571D01*
X78880952Y-106658333D01*
X78976190Y-106610714D01*
X79166666Y-106610714D01*
X79261904Y-106658333D01*
X79309523Y-106753571D01*
X79309523Y-106848809D01*
X78833333Y-106944047D01*
X79595238Y-106610714D02*
X79976190Y-106610714D01*
X79738095Y-106277380D02*
X79738095Y-107134523D01*
X79785714Y-107229761D01*
X79880952Y-107277380D01*
X79976190Y-107277380D01*
X80738095Y-107277380D02*
X80738095Y-106753571D01*
X80690476Y-106658333D01*
X80595238Y-106610714D01*
X80404761Y-106610714D01*
X80309523Y-106658333D01*
X80738095Y-107229761D02*
X80642857Y-107277380D01*
X80404761Y-107277380D01*
X80309523Y-107229761D01*
X80261904Y-107134523D01*
X80261904Y-107039285D01*
X80309523Y-106944047D01*
X80404761Y-106896428D01*
X80642857Y-106896428D01*
X80738095Y-106848809D01*
X81357142Y-107277380D02*
X81261904Y-107229761D01*
X81214285Y-107134523D01*
X81214285Y-106277380D01*
X82499999Y-107277380D02*
X82499999Y-106277380D01*
X82499999Y-106658333D02*
X82595238Y-106610714D01*
X82785714Y-106610714D01*
X82880952Y-106658333D01*
X82928571Y-106705952D01*
X82976190Y-106801190D01*
X82976190Y-107086904D01*
X82928571Y-107182142D01*
X82880952Y-107229761D01*
X82785714Y-107277380D01*
X82595238Y-107277380D01*
X82499999Y-107229761D01*
X83547619Y-107277380D02*
X83452380Y-107229761D01*
X83404761Y-107182142D01*
X83357142Y-107086904D01*
X83357142Y-106801190D01*
X83404761Y-106705952D01*
X83452380Y-106658333D01*
X83547619Y-106610714D01*
X83690476Y-106610714D01*
X83785714Y-106658333D01*
X83833333Y-106705952D01*
X83880952Y-106801190D01*
X83880952Y-107086904D01*
X83833333Y-107182142D01*
X83785714Y-107229761D01*
X83690476Y-107277380D01*
X83547619Y-107277380D01*
X84214285Y-107277380D02*
X84738095Y-106610714D01*
X84214285Y-106610714D02*
X84738095Y-107277380D01*
X85119047Y-107182142D02*
X85166666Y-107229761D01*
X85119047Y-107277380D01*
X85071428Y-107229761D01*
X85119047Y-107182142D01*
X85119047Y-107277380D01*
D11*
%TO.C,R5*%
X76880000Y-57580000D02*
X73040000Y-57580000D01*
X76880000Y-59420000D02*
X73040000Y-59420000D01*
%TO.C,C1*%
X55945000Y-80370000D02*
X55880000Y-80370000D01*
X58120000Y-80370000D02*
X58055000Y-80370000D01*
X55945000Y-77130000D02*
X55880000Y-77130000D01*
X58120000Y-77130000D02*
X58055000Y-77130000D01*
X55880000Y-77130000D02*
X55880000Y-80370000D01*
X58120000Y-77130000D02*
X58120000Y-80370000D01*
%TO.C,C2*%
X59630000Y-57445000D02*
X59630000Y-57380000D01*
X59630000Y-59620000D02*
X59630000Y-59555000D01*
X62870000Y-57445000D02*
X62870000Y-57380000D01*
X62870000Y-59620000D02*
X62870000Y-59555000D01*
X62870000Y-57380000D02*
X59630000Y-57380000D01*
X62870000Y-59620000D02*
X59630000Y-59620000D01*
%TO.C,C3*%
X82055000Y-77130000D02*
X82120000Y-77130000D01*
X79880000Y-77130000D02*
X79945000Y-77130000D01*
X82055000Y-80370000D02*
X82120000Y-80370000D01*
X79880000Y-80370000D02*
X79945000Y-80370000D01*
X82120000Y-80370000D02*
X82120000Y-77130000D01*
X79880000Y-80370000D02*
X79880000Y-77130000D01*
%TO.C,D1*%
X59880000Y-90330000D02*
X62120000Y-90330000D01*
X59880000Y-90090000D02*
X62120000Y-90090000D01*
X59880000Y-90210000D02*
X62120000Y-90210000D01*
X61000000Y-86040000D02*
X61000000Y-86690000D01*
X61000000Y-91580000D02*
X61000000Y-90930000D01*
X59880000Y-86690000D02*
X59880000Y-90930000D01*
X62120000Y-86690000D02*
X59880000Y-86690000D01*
X62120000Y-90930000D02*
X62120000Y-86690000D01*
X59880000Y-90930000D02*
X62120000Y-90930000D01*
%TO.C,D2*%
X76380000Y-90330000D02*
X78620000Y-90330000D01*
X76380000Y-90090000D02*
X78620000Y-90090000D01*
X76380000Y-90210000D02*
X78620000Y-90210000D01*
X77500000Y-86040000D02*
X77500000Y-86690000D01*
X77500000Y-91580000D02*
X77500000Y-90930000D01*
X76380000Y-86690000D02*
X76380000Y-90930000D01*
X78620000Y-86690000D02*
X76380000Y-86690000D01*
X78620000Y-90930000D02*
X78620000Y-86690000D01*
X76380000Y-90930000D02*
X78620000Y-90930000D01*
%TO.C,R1*%
X57920000Y-67460000D02*
X57920000Y-63620000D01*
X56080000Y-67460000D02*
X56080000Y-63620000D01*
%TO.C,R2*%
X61920000Y-80380000D02*
X61920000Y-76540000D01*
X60080000Y-80380000D02*
X60080000Y-76540000D01*
%TO.C,R3*%
X61920000Y-67460000D02*
X61920000Y-63620000D01*
X60080000Y-67460000D02*
X60080000Y-63620000D01*
%TO.C,R4*%
X65920000Y-80380000D02*
X65920000Y-76540000D01*
X64080000Y-80380000D02*
X64080000Y-76540000D01*
%TO.C,R7*%
X78420000Y-67380000D02*
X78420000Y-63540000D01*
X76580000Y-67380000D02*
X76580000Y-63540000D01*
%TO.C,R8*%
X73920000Y-80380000D02*
X73920000Y-76540000D01*
X72080000Y-80380000D02*
X72080000Y-76540000D01*
%TO.C,R9*%
X82420000Y-67380000D02*
X82420000Y-63540000D01*
X80580000Y-67380000D02*
X80580000Y-63540000D01*
%TO.C,R10*%
X77920000Y-80380000D02*
X77920000Y-76540000D01*
X76080000Y-80380000D02*
X76080000Y-76540000D01*
%TO.C,J1*%
X64670000Y-49000000D02*
X64670000Y-47670000D01*
X64670000Y-47670000D02*
X66000000Y-47670000D01*
X67270000Y-47670000D02*
X72410000Y-47670000D01*
X72410000Y-50330000D02*
X72410000Y-47670000D01*
X67270000Y-50330000D02*
X72410000Y-50330000D01*
X67270000Y-50330000D02*
X67270000Y-47670000D01*
%TO.C,Q1*%
X66970000Y-88350000D02*
X70570000Y-88350000D01*
X70608478Y-88338478D02*
G75*
G03*
X68770000Y-83900000I-1838478J1838478D01*
G01*
X66931522Y-88338478D02*
G75*
G02*
X68770000Y-83900000I1838478J1838478D01*
G01*
%TO.C,R12*%
X69920000Y-80380000D02*
X69920000Y-76540000D01*
X68080000Y-80380000D02*
X68080000Y-76540000D01*
%TO.C,Q2*%
X72300000Y-70100000D02*
X71599999Y-69299999D01*
X71600000Y-70800000D02*
X72300000Y-70100000D01*
X70865796Y-70053194D02*
X71600000Y-70800000D01*
X70865796Y-70053193D02*
G75*
G02*
X71599999Y-69299999I-1865796J2553193D01*
G01*
%TO.C,R5*%
D10*
X74793333Y-58952380D02*
X74460000Y-58476190D01*
X74221904Y-58952380D02*
X74221904Y-57952380D01*
X74602857Y-57952380D01*
X74698095Y-58000000D01*
X74745714Y-58047619D01*
X74793333Y-58142857D01*
X74793333Y-58285714D01*
X74745714Y-58380952D01*
X74698095Y-58428571D01*
X74602857Y-58476190D01*
X74221904Y-58476190D01*
X75698095Y-57952380D02*
X75221904Y-57952380D01*
X75174285Y-58428571D01*
X75221904Y-58380952D01*
X75317142Y-58333333D01*
X75555238Y-58333333D01*
X75650476Y-58380952D01*
X75698095Y-58428571D01*
X75745714Y-58523809D01*
X75745714Y-58761904D01*
X75698095Y-58857142D01*
X75650476Y-58904761D01*
X75555238Y-58952380D01*
X75317142Y-58952380D01*
X75221904Y-58904761D01*
X75174285Y-58857142D01*
%TO.C,C1*%
X55357142Y-78916666D02*
X55404761Y-78964285D01*
X55452380Y-79107142D01*
X55452380Y-79202380D01*
X55404761Y-79345238D01*
X55309523Y-79440476D01*
X55214285Y-79488095D01*
X55023809Y-79535714D01*
X54880952Y-79535714D01*
X54690476Y-79488095D01*
X54595238Y-79440476D01*
X54500000Y-79345238D01*
X54452380Y-79202380D01*
X54452380Y-79107142D01*
X54500000Y-78964285D01*
X54547619Y-78916666D01*
X55452380Y-77964285D02*
X55452380Y-78535714D01*
X55452380Y-78250000D02*
X54452380Y-78250000D01*
X54595238Y-78345238D01*
X54690476Y-78440476D01*
X54738095Y-78535714D01*
%TO.C,C2*%
X60833333Y-56857142D02*
X60785714Y-56904761D01*
X60642857Y-56952380D01*
X60547619Y-56952380D01*
X60404761Y-56904761D01*
X60309523Y-56809523D01*
X60261904Y-56714285D01*
X60214285Y-56523809D01*
X60214285Y-56380952D01*
X60261904Y-56190476D01*
X60309523Y-56095238D01*
X60404761Y-56000000D01*
X60547619Y-55952380D01*
X60642857Y-55952380D01*
X60785714Y-56000000D01*
X60833333Y-56047619D01*
X61214285Y-56047619D02*
X61261904Y-56000000D01*
X61357142Y-55952380D01*
X61595238Y-55952380D01*
X61690476Y-56000000D01*
X61738095Y-56047619D01*
X61785714Y-56142857D01*
X61785714Y-56238095D01*
X61738095Y-56380952D01*
X61166666Y-56952380D01*
X61785714Y-56952380D01*
%TO.C,C3*%
X79107142Y-78916666D02*
X79154761Y-78964285D01*
X79202380Y-79107142D01*
X79202380Y-79202380D01*
X79154761Y-79345238D01*
X79059523Y-79440476D01*
X78964285Y-79488095D01*
X78773809Y-79535714D01*
X78630952Y-79535714D01*
X78440476Y-79488095D01*
X78345238Y-79440476D01*
X78250000Y-79345238D01*
X78202380Y-79202380D01*
X78202380Y-79107142D01*
X78250000Y-78964285D01*
X78297619Y-78916666D01*
X78202380Y-78583333D02*
X78202380Y-77964285D01*
X78583333Y-78297619D01*
X78583333Y-78154761D01*
X78630952Y-78059523D01*
X78678571Y-78011904D01*
X78773809Y-77964285D01*
X79011904Y-77964285D01*
X79107142Y-78011904D01*
X79154761Y-78059523D01*
X79202380Y-78154761D01*
X79202380Y-78440476D01*
X79154761Y-78535714D01*
X79107142Y-78583333D01*
%TO.C,D1*%
X61452380Y-89238095D02*
X60452380Y-89238095D01*
X60452380Y-89000000D01*
X60500000Y-88857142D01*
X60595238Y-88761904D01*
X60690476Y-88714285D01*
X60880952Y-88666666D01*
X61023809Y-88666666D01*
X61214285Y-88714285D01*
X61309523Y-88761904D01*
X61404761Y-88857142D01*
X61452380Y-89000000D01*
X61452380Y-89238095D01*
X61452380Y-87714285D02*
X61452380Y-88285714D01*
X61452380Y-88000000D02*
X60452380Y-88000000D01*
X60595238Y-88095238D01*
X60690476Y-88190476D01*
X60738095Y-88285714D01*
X59652380Y-92881904D02*
X58652380Y-92881904D01*
X59652380Y-92310476D02*
X59080952Y-92739047D01*
X58652380Y-92310476D02*
X59223809Y-92881904D01*
%TO.C,D2*%
X77952380Y-89238095D02*
X76952380Y-89238095D01*
X76952380Y-89000000D01*
X77000000Y-88857142D01*
X77095238Y-88761904D01*
X77190476Y-88714285D01*
X77380952Y-88666666D01*
X77523809Y-88666666D01*
X77714285Y-88714285D01*
X77809523Y-88761904D01*
X77904761Y-88857142D01*
X77952380Y-89000000D01*
X77952380Y-89238095D01*
X77047619Y-88285714D02*
X77000000Y-88238095D01*
X76952380Y-88142857D01*
X76952380Y-87904761D01*
X77000000Y-87809523D01*
X77047619Y-87761904D01*
X77142857Y-87714285D01*
X77238095Y-87714285D01*
X77380952Y-87761904D01*
X77952380Y-88333333D01*
X77952380Y-87714285D01*
X76152380Y-92881904D02*
X75152380Y-92881904D01*
X76152380Y-92310476D02*
X75580952Y-92739047D01*
X75152380Y-92310476D02*
X75723809Y-92881904D01*
%TO.C,R1*%
X57452380Y-65706666D02*
X56976190Y-66040000D01*
X57452380Y-66278095D02*
X56452380Y-66278095D01*
X56452380Y-65897142D01*
X56500000Y-65801904D01*
X56547619Y-65754285D01*
X56642857Y-65706666D01*
X56785714Y-65706666D01*
X56880952Y-65754285D01*
X56928571Y-65801904D01*
X56976190Y-65897142D01*
X56976190Y-66278095D01*
X57452380Y-64754285D02*
X57452380Y-65325714D01*
X57452380Y-65040000D02*
X56452380Y-65040000D01*
X56595238Y-65135238D01*
X56690476Y-65230476D01*
X56738095Y-65325714D01*
%TO.C,R2*%
X61452380Y-78626666D02*
X60976190Y-78960000D01*
X61452380Y-79198095D02*
X60452380Y-79198095D01*
X60452380Y-78817142D01*
X60500000Y-78721904D01*
X60547619Y-78674285D01*
X60642857Y-78626666D01*
X60785714Y-78626666D01*
X60880952Y-78674285D01*
X60928571Y-78721904D01*
X60976190Y-78817142D01*
X60976190Y-79198095D01*
X60547619Y-78245714D02*
X60500000Y-78198095D01*
X60452380Y-78102857D01*
X60452380Y-77864761D01*
X60500000Y-77769523D01*
X60547619Y-77721904D01*
X60642857Y-77674285D01*
X60738095Y-77674285D01*
X60880952Y-77721904D01*
X61452380Y-78293333D01*
X61452380Y-77674285D01*
%TO.C,R3*%
X61452380Y-65666666D02*
X60976190Y-66000000D01*
X61452380Y-66238095D02*
X60452380Y-66238095D01*
X60452380Y-65857142D01*
X60500000Y-65761904D01*
X60547619Y-65714285D01*
X60642857Y-65666666D01*
X60785714Y-65666666D01*
X60880952Y-65714285D01*
X60928571Y-65761904D01*
X60976190Y-65857142D01*
X60976190Y-66238095D01*
X60452380Y-65333333D02*
X60452380Y-64714285D01*
X60833333Y-65047619D01*
X60833333Y-64904761D01*
X60880952Y-64809523D01*
X60928571Y-64761904D01*
X61023809Y-64714285D01*
X61261904Y-64714285D01*
X61357142Y-64761904D01*
X61404761Y-64809523D01*
X61452380Y-64904761D01*
X61452380Y-65190476D01*
X61404761Y-65285714D01*
X61357142Y-65333333D01*
%TO.C,R4*%
X65452380Y-78666666D02*
X64976190Y-79000000D01*
X65452380Y-79238095D02*
X64452380Y-79238095D01*
X64452380Y-78857142D01*
X64500000Y-78761904D01*
X64547619Y-78714285D01*
X64642857Y-78666666D01*
X64785714Y-78666666D01*
X64880952Y-78714285D01*
X64928571Y-78761904D01*
X64976190Y-78857142D01*
X64976190Y-79238095D01*
X64785714Y-77809523D02*
X65452380Y-77809523D01*
X64404761Y-78047619D02*
X65119047Y-78285714D01*
X65119047Y-77666666D01*
%TO.C,R7*%
X77952380Y-65666666D02*
X77476190Y-66000000D01*
X77952380Y-66238095D02*
X76952380Y-66238095D01*
X76952380Y-65857142D01*
X77000000Y-65761904D01*
X77047619Y-65714285D01*
X77142857Y-65666666D01*
X77285714Y-65666666D01*
X77380952Y-65714285D01*
X77428571Y-65761904D01*
X77476190Y-65857142D01*
X77476190Y-66238095D01*
X76952380Y-65333333D02*
X76952380Y-64666666D01*
X77952380Y-65095238D01*
%TO.C,R8*%
X73452380Y-78626666D02*
X72976190Y-78960000D01*
X73452380Y-79198095D02*
X72452380Y-79198095D01*
X72452380Y-78817142D01*
X72500000Y-78721904D01*
X72547619Y-78674285D01*
X72642857Y-78626666D01*
X72785714Y-78626666D01*
X72880952Y-78674285D01*
X72928571Y-78721904D01*
X72976190Y-78817142D01*
X72976190Y-79198095D01*
X72880952Y-78055238D02*
X72833333Y-78150476D01*
X72785714Y-78198095D01*
X72690476Y-78245714D01*
X72642857Y-78245714D01*
X72547619Y-78198095D01*
X72500000Y-78150476D01*
X72452380Y-78055238D01*
X72452380Y-77864761D01*
X72500000Y-77769523D01*
X72547619Y-77721904D01*
X72642857Y-77674285D01*
X72690476Y-77674285D01*
X72785714Y-77721904D01*
X72833333Y-77769523D01*
X72880952Y-77864761D01*
X72880952Y-78055238D01*
X72928571Y-78150476D01*
X72976190Y-78198095D01*
X73071428Y-78245714D01*
X73261904Y-78245714D01*
X73357142Y-78198095D01*
X73404761Y-78150476D01*
X73452380Y-78055238D01*
X73452380Y-77864761D01*
X73404761Y-77769523D01*
X73357142Y-77721904D01*
X73261904Y-77674285D01*
X73071428Y-77674285D01*
X72976190Y-77721904D01*
X72928571Y-77769523D01*
X72880952Y-77864761D01*
%TO.C,R9*%
X81952380Y-65626666D02*
X81476190Y-65960000D01*
X81952380Y-66198095D02*
X80952380Y-66198095D01*
X80952380Y-65817142D01*
X81000000Y-65721904D01*
X81047619Y-65674285D01*
X81142857Y-65626666D01*
X81285714Y-65626666D01*
X81380952Y-65674285D01*
X81428571Y-65721904D01*
X81476190Y-65817142D01*
X81476190Y-66198095D01*
X81952380Y-65150476D02*
X81952380Y-64960000D01*
X81904761Y-64864761D01*
X81857142Y-64817142D01*
X81714285Y-64721904D01*
X81523809Y-64674285D01*
X81142857Y-64674285D01*
X81047619Y-64721904D01*
X81000000Y-64769523D01*
X80952380Y-64864761D01*
X80952380Y-65055238D01*
X81000000Y-65150476D01*
X81047619Y-65198095D01*
X81142857Y-65245714D01*
X81380952Y-65245714D01*
X81476190Y-65198095D01*
X81523809Y-65150476D01*
X81571428Y-65055238D01*
X81571428Y-64864761D01*
X81523809Y-64769523D01*
X81476190Y-64721904D01*
X81380952Y-64674285D01*
%TO.C,R10*%
X77452380Y-79142857D02*
X76976190Y-79476190D01*
X77452380Y-79714285D02*
X76452380Y-79714285D01*
X76452380Y-79333333D01*
X76500000Y-79238095D01*
X76547619Y-79190476D01*
X76642857Y-79142857D01*
X76785714Y-79142857D01*
X76880952Y-79190476D01*
X76928571Y-79238095D01*
X76976190Y-79333333D01*
X76976190Y-79714285D01*
X77452380Y-78190476D02*
X77452380Y-78761904D01*
X77452380Y-78476190D02*
X76452380Y-78476190D01*
X76595238Y-78571428D01*
X76690476Y-78666666D01*
X76738095Y-78761904D01*
X76452380Y-77571428D02*
X76452380Y-77476190D01*
X76500000Y-77380952D01*
X76547619Y-77333333D01*
X76642857Y-77285714D01*
X76833333Y-77238095D01*
X77071428Y-77238095D01*
X77261904Y-77285714D01*
X77357142Y-77333333D01*
X77404761Y-77380952D01*
X77452380Y-77476190D01*
X77452380Y-77571428D01*
X77404761Y-77666666D01*
X77357142Y-77714285D01*
X77261904Y-77761904D01*
X77071428Y-77809523D01*
X76833333Y-77809523D01*
X76642857Y-77761904D01*
X76547619Y-77714285D01*
X76500000Y-77666666D01*
X76452380Y-77571428D01*
%TO.C,J1*%
X62682380Y-49333333D02*
X63396666Y-49333333D01*
X63539523Y-49380952D01*
X63634761Y-49476190D01*
X63682380Y-49619047D01*
X63682380Y-49714285D01*
X63682380Y-48333333D02*
X63682380Y-48904761D01*
X63682380Y-48619047D02*
X62682380Y-48619047D01*
X62825238Y-48714285D01*
X62920476Y-48809523D01*
X62968095Y-48904761D01*
%TO.C,Q1*%
X68674761Y-83487619D02*
X68579523Y-83440000D01*
X68484285Y-83344761D01*
X68341428Y-83201904D01*
X68246190Y-83154285D01*
X68150952Y-83154285D01*
X68198571Y-83392380D02*
X68103333Y-83344761D01*
X68008095Y-83249523D01*
X67960476Y-83059047D01*
X67960476Y-82725714D01*
X68008095Y-82535238D01*
X68103333Y-82440000D01*
X68198571Y-82392380D01*
X68389047Y-82392380D01*
X68484285Y-82440000D01*
X68579523Y-82535238D01*
X68627142Y-82725714D01*
X68627142Y-83059047D01*
X68579523Y-83249523D01*
X68484285Y-83344761D01*
X68389047Y-83392380D01*
X68198571Y-83392380D01*
X69579523Y-83392380D02*
X69008095Y-83392380D01*
X69293809Y-83392380D02*
X69293809Y-82392380D01*
X69198571Y-82535238D01*
X69103333Y-82630476D01*
X69008095Y-82678095D01*
%TO.C,R12*%
X69452380Y-79102857D02*
X68976190Y-79436190D01*
X69452380Y-79674285D02*
X68452380Y-79674285D01*
X68452380Y-79293333D01*
X68500000Y-79198095D01*
X68547619Y-79150476D01*
X68642857Y-79102857D01*
X68785714Y-79102857D01*
X68880952Y-79150476D01*
X68928571Y-79198095D01*
X68976190Y-79293333D01*
X68976190Y-79674285D01*
X69452380Y-78150476D02*
X69452380Y-78721904D01*
X69452380Y-78436190D02*
X68452380Y-78436190D01*
X68595238Y-78531428D01*
X68690476Y-78626666D01*
X68738095Y-78721904D01*
X68547619Y-77769523D02*
X68500000Y-77721904D01*
X68452380Y-77626666D01*
X68452380Y-77388571D01*
X68500000Y-77293333D01*
X68547619Y-77245714D01*
X68642857Y-77198095D01*
X68738095Y-77198095D01*
X68880952Y-77245714D01*
X69452380Y-77817142D01*
X69452380Y-77198095D01*
%TO.C,Q2*%
X65447619Y-67295238D02*
X65400000Y-67390476D01*
X65304761Y-67485714D01*
X65161904Y-67628571D01*
X65114285Y-67723809D01*
X65114285Y-67819047D01*
X65352380Y-67771428D02*
X65304761Y-67866666D01*
X65209523Y-67961904D01*
X65019047Y-68009523D01*
X64685714Y-68009523D01*
X64495238Y-67961904D01*
X64400000Y-67866666D01*
X64352380Y-67771428D01*
X64352380Y-67580952D01*
X64400000Y-67485714D01*
X64495238Y-67390476D01*
X64685714Y-67342857D01*
X65019047Y-67342857D01*
X65209523Y-67390476D01*
X65304761Y-67485714D01*
X65352380Y-67580952D01*
X65352380Y-67771428D01*
X64447619Y-66961904D02*
X64400000Y-66914285D01*
X64352380Y-66819047D01*
X64352380Y-66580952D01*
X64400000Y-66485714D01*
X64447619Y-66438095D01*
X64542857Y-66390476D01*
X64638095Y-66390476D01*
X64780952Y-66438095D01*
X65352380Y-67009523D01*
X65352380Y-66390476D01*
%TD*%
M02*
