%FSLAX45Y45*%
G04 Gerber Fmt 4.5, Leading zero omitted, Abs format (unit mm)*
G04 Created by KiCad (PCBNEW 5.1.10) date 2021-06-03 17:31:42*
%MOMM*%
%LPD*%
G01*
G04 APERTURE LIST*
%TA.AperFunction,Profile*%
%ADD10C,0.050000*%
%TD*%
%ADD11C,0.200000*%
%ADD12C,0.300000*%
G04 APERTURE END LIST*
D10*
X5200000Y-4500000D02*
X8600000Y-4500000D01*
X8600000Y-11300000D02*
X8600000Y-4500000D01*
X5200000Y-11300000D02*
X8600000Y-11300000D01*
X5200000Y-4500000D02*
X5200000Y-11300000D01*
D11*
D12*
X5483928Y-11768214D02*
X5483928Y-11468214D01*
X5555357Y-11468214D01*
X5598214Y-11482500D01*
X5626786Y-11511071D01*
X5641071Y-11539643D01*
X5655357Y-11596786D01*
X5655357Y-11639643D01*
X5641071Y-11696786D01*
X5626786Y-11725357D01*
X5598214Y-11753929D01*
X5555357Y-11768214D01*
X5483928Y-11768214D01*
X5783928Y-11768214D02*
X5783928Y-11568214D01*
X5783928Y-11625357D02*
X5798214Y-11596786D01*
X5812500Y-11582500D01*
X5841071Y-11568214D01*
X5869643Y-11568214D01*
X5969643Y-11768214D02*
X5969643Y-11568214D01*
X5969643Y-11468214D02*
X5955357Y-11482500D01*
X5969643Y-11496786D01*
X5983928Y-11482500D01*
X5969643Y-11468214D01*
X5969643Y-11496786D01*
X6155357Y-11768214D02*
X6126786Y-11753929D01*
X6112500Y-11725357D01*
X6112500Y-11468214D01*
X6312500Y-11768214D02*
X6283928Y-11753929D01*
X6269643Y-11725357D01*
X6269643Y-11468214D01*
X6655357Y-11768214D02*
X6655357Y-11468214D01*
X6755357Y-11682500D01*
X6855357Y-11468214D01*
X6855357Y-11768214D01*
X7126786Y-11768214D02*
X7126786Y-11611071D01*
X7112500Y-11582500D01*
X7083928Y-11568214D01*
X7026786Y-11568214D01*
X6998214Y-11582500D01*
X7126786Y-11753929D02*
X7098214Y-11768214D01*
X7026786Y-11768214D01*
X6998214Y-11753929D01*
X6983928Y-11725357D01*
X6983928Y-11696786D01*
X6998214Y-11668214D01*
X7026786Y-11653929D01*
X7098214Y-11653929D01*
X7126786Y-11639643D01*
X7269643Y-11568214D02*
X7269643Y-11868214D01*
X7269643Y-11582500D02*
X7298214Y-11568214D01*
X7355357Y-11568214D01*
X7383928Y-11582500D01*
X7398214Y-11596786D01*
X7412500Y-11625357D01*
X7412500Y-11711071D01*
X7398214Y-11739643D01*
X7383928Y-11753929D01*
X7355357Y-11768214D01*
X7298214Y-11768214D01*
X7269643Y-11753929D01*
X7541071Y-11739643D02*
X7555357Y-11753929D01*
X7541071Y-11768214D01*
X7526786Y-11753929D01*
X7541071Y-11739643D01*
X7541071Y-11768214D01*
X7541071Y-11582500D02*
X7555357Y-11596786D01*
X7541071Y-11611071D01*
X7526786Y-11596786D01*
X7541071Y-11582500D01*
X7541071Y-11611071D01*
M02*
