%TF.GenerationSoftware,KiCad,Pcbnew,5.1.10*%
%TF.CreationDate,2021-05-18T18:53:45+02:00*%
%TF.ProjectId,piezo-jfet,7069657a-6f2d-46a6-9665-742e6b696361,rev?*%
%TF.SameCoordinates,Original*%
%TF.FileFunction,Legend,Top*%
%TF.FilePolarity,Positive*%
%FSLAX46Y46*%
G04 Gerber Fmt 4.6, Leading zero omitted, Abs format (unit mm)*
G04 Created by KiCad (PCBNEW 5.1.10) date 2021-05-18 18:53:45*
%MOMM*%
%LPD*%
G01*
G04 APERTURE LIST*
%ADD10C,0.120000*%
%ADD11C,0.150000*%
G04 APERTURE END LIST*
D10*
%TO.C,R5*%
X76880000Y-71580000D02*
X73040000Y-71580000D01*
X76880000Y-73420000D02*
X73040000Y-73420000D01*
%TO.C,Q2*%
X70865796Y-84053194D02*
X71600000Y-84800000D01*
X71600000Y-84800000D02*
X72300000Y-84100000D01*
X72300000Y-84100000D02*
X71599999Y-83299999D01*
X70865796Y-84053193D02*
G75*
G02*
X71599999Y-83299999I-1865796J2553193D01*
G01*
%TO.C,C1*%
X55945000Y-94370000D02*
X55880000Y-94370000D01*
X58120000Y-94370000D02*
X58055000Y-94370000D01*
X55945000Y-91130000D02*
X55880000Y-91130000D01*
X58120000Y-91130000D02*
X58055000Y-91130000D01*
X55880000Y-91130000D02*
X55880000Y-94370000D01*
X58120000Y-91130000D02*
X58120000Y-94370000D01*
%TO.C,C2*%
X62870000Y-73620000D02*
X59630000Y-73620000D01*
X62870000Y-71380000D02*
X59630000Y-71380000D01*
X62870000Y-73620000D02*
X62870000Y-73555000D01*
X62870000Y-71445000D02*
X62870000Y-71380000D01*
X59630000Y-73620000D02*
X59630000Y-73555000D01*
X59630000Y-71445000D02*
X59630000Y-71380000D01*
%TO.C,C3*%
X79880000Y-94370000D02*
X79880000Y-91130000D01*
X82120000Y-94370000D02*
X82120000Y-91130000D01*
X79880000Y-94370000D02*
X79945000Y-94370000D01*
X82055000Y-94370000D02*
X82120000Y-94370000D01*
X79880000Y-91130000D02*
X79945000Y-91130000D01*
X82055000Y-91130000D02*
X82120000Y-91130000D01*
%TO.C,D1*%
X59380000Y-104430000D02*
X61620000Y-104430000D01*
X61620000Y-104430000D02*
X61620000Y-100190000D01*
X61620000Y-100190000D02*
X59380000Y-100190000D01*
X59380000Y-100190000D02*
X59380000Y-104430000D01*
X60500000Y-105080000D02*
X60500000Y-104430000D01*
X60500000Y-99540000D02*
X60500000Y-100190000D01*
X59380000Y-103710000D02*
X61620000Y-103710000D01*
X59380000Y-103590000D02*
X61620000Y-103590000D01*
X59380000Y-103830000D02*
X61620000Y-103830000D01*
%TO.C,D2*%
X75880000Y-103830000D02*
X78120000Y-103830000D01*
X75880000Y-103590000D02*
X78120000Y-103590000D01*
X75880000Y-103710000D02*
X78120000Y-103710000D01*
X77000000Y-99540000D02*
X77000000Y-100190000D01*
X77000000Y-105080000D02*
X77000000Y-104430000D01*
X75880000Y-100190000D02*
X75880000Y-104430000D01*
X78120000Y-100190000D02*
X75880000Y-100190000D01*
X78120000Y-104430000D02*
X78120000Y-100190000D01*
X75880000Y-104430000D02*
X78120000Y-104430000D01*
%TO.C,R1*%
X56080000Y-81460000D02*
X56080000Y-77620000D01*
X57920000Y-81460000D02*
X57920000Y-77620000D01*
%TO.C,R2*%
X61920000Y-94380000D02*
X61920000Y-90540000D01*
X60080000Y-94380000D02*
X60080000Y-90540000D01*
%TO.C,R3*%
X61920000Y-81460000D02*
X61920000Y-77620000D01*
X60080000Y-81460000D02*
X60080000Y-77620000D01*
%TO.C,R4*%
X65920000Y-94380000D02*
X65920000Y-90540000D01*
X64080000Y-94380000D02*
X64080000Y-90540000D01*
%TO.C,R7*%
X76580000Y-81380000D02*
X76580000Y-77540000D01*
X78420000Y-81380000D02*
X78420000Y-77540000D01*
%TO.C,R8*%
X72080000Y-94380000D02*
X72080000Y-90540000D01*
X73920000Y-94380000D02*
X73920000Y-90540000D01*
%TO.C,R9*%
X82420000Y-81380000D02*
X82420000Y-77540000D01*
X80580000Y-81380000D02*
X80580000Y-77540000D01*
%TO.C,R10*%
X76080000Y-94380000D02*
X76080000Y-90540000D01*
X77920000Y-94380000D02*
X77920000Y-90540000D01*
%TO.C,X1*%
X59130000Y-109500000D02*
X59130000Y-108170000D01*
X59130000Y-108170000D02*
X60460000Y-108170000D01*
X61730000Y-108170000D02*
X64330000Y-108170000D01*
X64330000Y-110830000D02*
X64330000Y-108170000D01*
X61730000Y-110830000D02*
X64330000Y-110830000D01*
X61730000Y-110830000D02*
X61730000Y-108170000D01*
%TO.C,X2*%
X76730000Y-110830000D02*
X76730000Y-108170000D01*
X76730000Y-110830000D02*
X79330000Y-110830000D01*
X79330000Y-110830000D02*
X79330000Y-108170000D01*
X76730000Y-108170000D02*
X79330000Y-108170000D01*
X74130000Y-108170000D02*
X75460000Y-108170000D01*
X74130000Y-109500000D02*
X74130000Y-108170000D01*
%TO.C,J1*%
X67270000Y-50330000D02*
X67270000Y-47670000D01*
X67270000Y-50330000D02*
X72410000Y-50330000D01*
X72410000Y-50330000D02*
X72410000Y-47670000D01*
X67270000Y-47670000D02*
X72410000Y-47670000D01*
X64670000Y-47670000D02*
X66000000Y-47670000D01*
X64670000Y-49000000D02*
X64670000Y-47670000D01*
%TO.C,Q1*%
X66970000Y-102350000D02*
X70570000Y-102350000D01*
X66931522Y-102338478D02*
G75*
G02*
X68770000Y-97900000I1838478J1838478D01*
G01*
X70608478Y-102338478D02*
G75*
G03*
X68770000Y-97900000I-1838478J1838478D01*
G01*
%TO.C,R12*%
X69920000Y-94380000D02*
X69920000Y-90540000D01*
X68080000Y-94380000D02*
X68080000Y-90540000D01*
%TO.C,R5*%
D11*
X74793333Y-72952380D02*
X74460000Y-72476190D01*
X74221904Y-72952380D02*
X74221904Y-71952380D01*
X74602857Y-71952380D01*
X74698095Y-72000000D01*
X74745714Y-72047619D01*
X74793333Y-72142857D01*
X74793333Y-72285714D01*
X74745714Y-72380952D01*
X74698095Y-72428571D01*
X74602857Y-72476190D01*
X74221904Y-72476190D01*
X75698095Y-71952380D02*
X75221904Y-71952380D01*
X75174285Y-72428571D01*
X75221904Y-72380952D01*
X75317142Y-72333333D01*
X75555238Y-72333333D01*
X75650476Y-72380952D01*
X75698095Y-72428571D01*
X75745714Y-72523809D01*
X75745714Y-72761904D01*
X75698095Y-72857142D01*
X75650476Y-72904761D01*
X75555238Y-72952380D01*
X75317142Y-72952380D01*
X75221904Y-72904761D01*
X75174285Y-72857142D01*
%TO.C,Q2*%
X65447619Y-81295238D02*
X65400000Y-81390476D01*
X65304761Y-81485714D01*
X65161904Y-81628571D01*
X65114285Y-81723809D01*
X65114285Y-81819047D01*
X65352380Y-81771428D02*
X65304761Y-81866666D01*
X65209523Y-81961904D01*
X65019047Y-82009523D01*
X64685714Y-82009523D01*
X64495238Y-81961904D01*
X64400000Y-81866666D01*
X64352380Y-81771428D01*
X64352380Y-81580952D01*
X64400000Y-81485714D01*
X64495238Y-81390476D01*
X64685714Y-81342857D01*
X65019047Y-81342857D01*
X65209523Y-81390476D01*
X65304761Y-81485714D01*
X65352380Y-81580952D01*
X65352380Y-81771428D01*
X64447619Y-80961904D02*
X64400000Y-80914285D01*
X64352380Y-80819047D01*
X64352380Y-80580952D01*
X64400000Y-80485714D01*
X64447619Y-80438095D01*
X64542857Y-80390476D01*
X64638095Y-80390476D01*
X64780952Y-80438095D01*
X65352380Y-81009523D01*
X65352380Y-80390476D01*
%TO.C,C1*%
X55357142Y-92916666D02*
X55404761Y-92964285D01*
X55452380Y-93107142D01*
X55452380Y-93202380D01*
X55404761Y-93345238D01*
X55309523Y-93440476D01*
X55214285Y-93488095D01*
X55023809Y-93535714D01*
X54880952Y-93535714D01*
X54690476Y-93488095D01*
X54595238Y-93440476D01*
X54500000Y-93345238D01*
X54452380Y-93202380D01*
X54452380Y-93107142D01*
X54500000Y-92964285D01*
X54547619Y-92916666D01*
X55452380Y-91964285D02*
X55452380Y-92535714D01*
X55452380Y-92250000D02*
X54452380Y-92250000D01*
X54595238Y-92345238D01*
X54690476Y-92440476D01*
X54738095Y-92535714D01*
%TO.C,C2*%
X60833333Y-70857142D02*
X60785714Y-70904761D01*
X60642857Y-70952380D01*
X60547619Y-70952380D01*
X60404761Y-70904761D01*
X60309523Y-70809523D01*
X60261904Y-70714285D01*
X60214285Y-70523809D01*
X60214285Y-70380952D01*
X60261904Y-70190476D01*
X60309523Y-70095238D01*
X60404761Y-70000000D01*
X60547619Y-69952380D01*
X60642857Y-69952380D01*
X60785714Y-70000000D01*
X60833333Y-70047619D01*
X61214285Y-70047619D02*
X61261904Y-70000000D01*
X61357142Y-69952380D01*
X61595238Y-69952380D01*
X61690476Y-70000000D01*
X61738095Y-70047619D01*
X61785714Y-70142857D01*
X61785714Y-70238095D01*
X61738095Y-70380952D01*
X61166666Y-70952380D01*
X61785714Y-70952380D01*
%TO.C,C3*%
X79107142Y-92916666D02*
X79154761Y-92964285D01*
X79202380Y-93107142D01*
X79202380Y-93202380D01*
X79154761Y-93345238D01*
X79059523Y-93440476D01*
X78964285Y-93488095D01*
X78773809Y-93535714D01*
X78630952Y-93535714D01*
X78440476Y-93488095D01*
X78345238Y-93440476D01*
X78250000Y-93345238D01*
X78202380Y-93202380D01*
X78202380Y-93107142D01*
X78250000Y-92964285D01*
X78297619Y-92916666D01*
X78202380Y-92583333D02*
X78202380Y-91964285D01*
X78583333Y-92297619D01*
X78583333Y-92154761D01*
X78630952Y-92059523D01*
X78678571Y-92011904D01*
X78773809Y-91964285D01*
X79011904Y-91964285D01*
X79107142Y-92011904D01*
X79154761Y-92059523D01*
X79202380Y-92154761D01*
X79202380Y-92440476D01*
X79154761Y-92535714D01*
X79107142Y-92583333D01*
%TO.C,D1*%
X60952380Y-102738095D02*
X59952380Y-102738095D01*
X59952380Y-102500000D01*
X60000000Y-102357142D01*
X60095238Y-102261904D01*
X60190476Y-102214285D01*
X60380952Y-102166666D01*
X60523809Y-102166666D01*
X60714285Y-102214285D01*
X60809523Y-102261904D01*
X60904761Y-102357142D01*
X60952380Y-102500000D01*
X60952380Y-102738095D01*
X60952380Y-101214285D02*
X60952380Y-101785714D01*
X60952380Y-101500000D02*
X59952380Y-101500000D01*
X60095238Y-101595238D01*
X60190476Y-101690476D01*
X60238095Y-101785714D01*
X59152380Y-106381904D02*
X58152380Y-106381904D01*
X59152380Y-105810476D02*
X58580952Y-106239047D01*
X58152380Y-105810476D02*
X58723809Y-106381904D01*
%TO.C,D2*%
X77452380Y-102738095D02*
X76452380Y-102738095D01*
X76452380Y-102500000D01*
X76500000Y-102357142D01*
X76595238Y-102261904D01*
X76690476Y-102214285D01*
X76880952Y-102166666D01*
X77023809Y-102166666D01*
X77214285Y-102214285D01*
X77309523Y-102261904D01*
X77404761Y-102357142D01*
X77452380Y-102500000D01*
X77452380Y-102738095D01*
X76547619Y-101785714D02*
X76500000Y-101738095D01*
X76452380Y-101642857D01*
X76452380Y-101404761D01*
X76500000Y-101309523D01*
X76547619Y-101261904D01*
X76642857Y-101214285D01*
X76738095Y-101214285D01*
X76880952Y-101261904D01*
X77452380Y-101833333D01*
X77452380Y-101214285D01*
X75652380Y-106381904D02*
X74652380Y-106381904D01*
X75652380Y-105810476D02*
X75080952Y-106239047D01*
X74652380Y-105810476D02*
X75223809Y-106381904D01*
%TO.C,R1*%
X57452380Y-79706666D02*
X56976190Y-80040000D01*
X57452380Y-80278095D02*
X56452380Y-80278095D01*
X56452380Y-79897142D01*
X56500000Y-79801904D01*
X56547619Y-79754285D01*
X56642857Y-79706666D01*
X56785714Y-79706666D01*
X56880952Y-79754285D01*
X56928571Y-79801904D01*
X56976190Y-79897142D01*
X56976190Y-80278095D01*
X57452380Y-78754285D02*
X57452380Y-79325714D01*
X57452380Y-79040000D02*
X56452380Y-79040000D01*
X56595238Y-79135238D01*
X56690476Y-79230476D01*
X56738095Y-79325714D01*
%TO.C,R2*%
X61452380Y-92626666D02*
X60976190Y-92960000D01*
X61452380Y-93198095D02*
X60452380Y-93198095D01*
X60452380Y-92817142D01*
X60500000Y-92721904D01*
X60547619Y-92674285D01*
X60642857Y-92626666D01*
X60785714Y-92626666D01*
X60880952Y-92674285D01*
X60928571Y-92721904D01*
X60976190Y-92817142D01*
X60976190Y-93198095D01*
X60547619Y-92245714D02*
X60500000Y-92198095D01*
X60452380Y-92102857D01*
X60452380Y-91864761D01*
X60500000Y-91769523D01*
X60547619Y-91721904D01*
X60642857Y-91674285D01*
X60738095Y-91674285D01*
X60880952Y-91721904D01*
X61452380Y-92293333D01*
X61452380Y-91674285D01*
%TO.C,R3*%
X61452380Y-79666666D02*
X60976190Y-80000000D01*
X61452380Y-80238095D02*
X60452380Y-80238095D01*
X60452380Y-79857142D01*
X60500000Y-79761904D01*
X60547619Y-79714285D01*
X60642857Y-79666666D01*
X60785714Y-79666666D01*
X60880952Y-79714285D01*
X60928571Y-79761904D01*
X60976190Y-79857142D01*
X60976190Y-80238095D01*
X60452380Y-79333333D02*
X60452380Y-78714285D01*
X60833333Y-79047619D01*
X60833333Y-78904761D01*
X60880952Y-78809523D01*
X60928571Y-78761904D01*
X61023809Y-78714285D01*
X61261904Y-78714285D01*
X61357142Y-78761904D01*
X61404761Y-78809523D01*
X61452380Y-78904761D01*
X61452380Y-79190476D01*
X61404761Y-79285714D01*
X61357142Y-79333333D01*
%TO.C,R4*%
X65452380Y-92666666D02*
X64976190Y-93000000D01*
X65452380Y-93238095D02*
X64452380Y-93238095D01*
X64452380Y-92857142D01*
X64500000Y-92761904D01*
X64547619Y-92714285D01*
X64642857Y-92666666D01*
X64785714Y-92666666D01*
X64880952Y-92714285D01*
X64928571Y-92761904D01*
X64976190Y-92857142D01*
X64976190Y-93238095D01*
X64785714Y-91809523D02*
X65452380Y-91809523D01*
X64404761Y-92047619D02*
X65119047Y-92285714D01*
X65119047Y-91666666D01*
%TO.C,R7*%
X77952380Y-79666666D02*
X77476190Y-80000000D01*
X77952380Y-80238095D02*
X76952380Y-80238095D01*
X76952380Y-79857142D01*
X77000000Y-79761904D01*
X77047619Y-79714285D01*
X77142857Y-79666666D01*
X77285714Y-79666666D01*
X77380952Y-79714285D01*
X77428571Y-79761904D01*
X77476190Y-79857142D01*
X77476190Y-80238095D01*
X76952380Y-79333333D02*
X76952380Y-78666666D01*
X77952380Y-79095238D01*
%TO.C,R8*%
X73452380Y-92626666D02*
X72976190Y-92960000D01*
X73452380Y-93198095D02*
X72452380Y-93198095D01*
X72452380Y-92817142D01*
X72500000Y-92721904D01*
X72547619Y-92674285D01*
X72642857Y-92626666D01*
X72785714Y-92626666D01*
X72880952Y-92674285D01*
X72928571Y-92721904D01*
X72976190Y-92817142D01*
X72976190Y-93198095D01*
X72880952Y-92055238D02*
X72833333Y-92150476D01*
X72785714Y-92198095D01*
X72690476Y-92245714D01*
X72642857Y-92245714D01*
X72547619Y-92198095D01*
X72500000Y-92150476D01*
X72452380Y-92055238D01*
X72452380Y-91864761D01*
X72500000Y-91769523D01*
X72547619Y-91721904D01*
X72642857Y-91674285D01*
X72690476Y-91674285D01*
X72785714Y-91721904D01*
X72833333Y-91769523D01*
X72880952Y-91864761D01*
X72880952Y-92055238D01*
X72928571Y-92150476D01*
X72976190Y-92198095D01*
X73071428Y-92245714D01*
X73261904Y-92245714D01*
X73357142Y-92198095D01*
X73404761Y-92150476D01*
X73452380Y-92055238D01*
X73452380Y-91864761D01*
X73404761Y-91769523D01*
X73357142Y-91721904D01*
X73261904Y-91674285D01*
X73071428Y-91674285D01*
X72976190Y-91721904D01*
X72928571Y-91769523D01*
X72880952Y-91864761D01*
%TO.C,R9*%
X81952380Y-79626666D02*
X81476190Y-79960000D01*
X81952380Y-80198095D02*
X80952380Y-80198095D01*
X80952380Y-79817142D01*
X81000000Y-79721904D01*
X81047619Y-79674285D01*
X81142857Y-79626666D01*
X81285714Y-79626666D01*
X81380952Y-79674285D01*
X81428571Y-79721904D01*
X81476190Y-79817142D01*
X81476190Y-80198095D01*
X81952380Y-79150476D02*
X81952380Y-78960000D01*
X81904761Y-78864761D01*
X81857142Y-78817142D01*
X81714285Y-78721904D01*
X81523809Y-78674285D01*
X81142857Y-78674285D01*
X81047619Y-78721904D01*
X81000000Y-78769523D01*
X80952380Y-78864761D01*
X80952380Y-79055238D01*
X81000000Y-79150476D01*
X81047619Y-79198095D01*
X81142857Y-79245714D01*
X81380952Y-79245714D01*
X81476190Y-79198095D01*
X81523809Y-79150476D01*
X81571428Y-79055238D01*
X81571428Y-78864761D01*
X81523809Y-78769523D01*
X81476190Y-78721904D01*
X81380952Y-78674285D01*
%TO.C,R10*%
X77452380Y-93142857D02*
X76976190Y-93476190D01*
X77452380Y-93714285D02*
X76452380Y-93714285D01*
X76452380Y-93333333D01*
X76500000Y-93238095D01*
X76547619Y-93190476D01*
X76642857Y-93142857D01*
X76785714Y-93142857D01*
X76880952Y-93190476D01*
X76928571Y-93238095D01*
X76976190Y-93333333D01*
X76976190Y-93714285D01*
X77452380Y-92190476D02*
X77452380Y-92761904D01*
X77452380Y-92476190D02*
X76452380Y-92476190D01*
X76595238Y-92571428D01*
X76690476Y-92666666D01*
X76738095Y-92761904D01*
X76452380Y-91571428D02*
X76452380Y-91476190D01*
X76500000Y-91380952D01*
X76547619Y-91333333D01*
X76642857Y-91285714D01*
X76833333Y-91238095D01*
X77071428Y-91238095D01*
X77261904Y-91285714D01*
X77357142Y-91333333D01*
X77404761Y-91380952D01*
X77452380Y-91476190D01*
X77452380Y-91571428D01*
X77404761Y-91666666D01*
X77357142Y-91714285D01*
X77261904Y-91761904D01*
X77071428Y-91809523D01*
X76833333Y-91809523D01*
X76642857Y-91761904D01*
X76547619Y-91714285D01*
X76500000Y-91666666D01*
X76452380Y-91571428D01*
%TO.C,X1*%
X57142380Y-110309523D02*
X58142380Y-109642857D01*
X57142380Y-109642857D02*
X58142380Y-110309523D01*
X58142380Y-108738095D02*
X58142380Y-109309523D01*
X58142380Y-109023809D02*
X57142380Y-109023809D01*
X57285238Y-109119047D01*
X57380476Y-109214285D01*
X57428095Y-109309523D01*
%TO.C,X2*%
X72142380Y-110309523D02*
X73142380Y-109642857D01*
X72142380Y-109642857D02*
X73142380Y-110309523D01*
X72237619Y-109309523D02*
X72190000Y-109261904D01*
X72142380Y-109166666D01*
X72142380Y-108928571D01*
X72190000Y-108833333D01*
X72237619Y-108785714D01*
X72332857Y-108738095D01*
X72428095Y-108738095D01*
X72570952Y-108785714D01*
X73142380Y-109357142D01*
X73142380Y-108738095D01*
%TO.C,J1*%
X62682380Y-49333333D02*
X63396666Y-49333333D01*
X63539523Y-49380952D01*
X63634761Y-49476190D01*
X63682380Y-49619047D01*
X63682380Y-49714285D01*
X63682380Y-48333333D02*
X63682380Y-48904761D01*
X63682380Y-48619047D02*
X62682380Y-48619047D01*
X62825238Y-48714285D01*
X62920476Y-48809523D01*
X62968095Y-48904761D01*
%TO.C,Q1*%
X68674761Y-97487619D02*
X68579523Y-97440000D01*
X68484285Y-97344761D01*
X68341428Y-97201904D01*
X68246190Y-97154285D01*
X68150952Y-97154285D01*
X68198571Y-97392380D02*
X68103333Y-97344761D01*
X68008095Y-97249523D01*
X67960476Y-97059047D01*
X67960476Y-96725714D01*
X68008095Y-96535238D01*
X68103333Y-96440000D01*
X68198571Y-96392380D01*
X68389047Y-96392380D01*
X68484285Y-96440000D01*
X68579523Y-96535238D01*
X68627142Y-96725714D01*
X68627142Y-97059047D01*
X68579523Y-97249523D01*
X68484285Y-97344761D01*
X68389047Y-97392380D01*
X68198571Y-97392380D01*
X69579523Y-97392380D02*
X69008095Y-97392380D01*
X69293809Y-97392380D02*
X69293809Y-96392380D01*
X69198571Y-96535238D01*
X69103333Y-96630476D01*
X69008095Y-96678095D01*
%TO.C,R12*%
X69452380Y-93102857D02*
X68976190Y-93436190D01*
X69452380Y-93674285D02*
X68452380Y-93674285D01*
X68452380Y-93293333D01*
X68500000Y-93198095D01*
X68547619Y-93150476D01*
X68642857Y-93102857D01*
X68785714Y-93102857D01*
X68880952Y-93150476D01*
X68928571Y-93198095D01*
X68976190Y-93293333D01*
X68976190Y-93674285D01*
X69452380Y-92150476D02*
X69452380Y-92721904D01*
X69452380Y-92436190D02*
X68452380Y-92436190D01*
X68595238Y-92531428D01*
X68690476Y-92626666D01*
X68738095Y-92721904D01*
X68547619Y-91769523D02*
X68500000Y-91721904D01*
X68452380Y-91626666D01*
X68452380Y-91388571D01*
X68500000Y-91293333D01*
X68547619Y-91245714D01*
X68642857Y-91198095D01*
X68738095Y-91198095D01*
X68880952Y-91245714D01*
X69452380Y-91817142D01*
X69452380Y-91198095D01*
%TO.C,J6*%
X68238095Y-111500000D02*
X68142857Y-111452380D01*
X68000000Y-111452380D01*
X67857142Y-111500000D01*
X67761904Y-111595238D01*
X67714285Y-111690476D01*
X67666666Y-111880952D01*
X67666666Y-112023809D01*
X67714285Y-112214285D01*
X67761904Y-112309523D01*
X67857142Y-112404761D01*
X68000000Y-112452380D01*
X68095238Y-112452380D01*
X68238095Y-112404761D01*
X68285714Y-112357142D01*
X68285714Y-112023809D01*
X68095238Y-112023809D01*
X68714285Y-112452380D02*
X68714285Y-111452380D01*
X69285714Y-112452380D01*
X69285714Y-111452380D01*
X69761904Y-112452380D02*
X69761904Y-111452380D01*
X70000000Y-111452380D01*
X70142857Y-111500000D01*
X70238095Y-111595238D01*
X70285714Y-111690476D01*
X70333333Y-111880952D01*
X70333333Y-112023809D01*
X70285714Y-112214285D01*
X70238095Y-112309523D01*
X70142857Y-112404761D01*
X70000000Y-112452380D01*
X69761904Y-112452380D01*
%TD*%
M02*
