M48
; DRILL file {KiCad 5.1.10} date Sun May 16 12:50:12 2021
; FORMAT={-:-/ absolute / inch / decimal}
; #@! TF.CreationDate,2021-05-16T12:50:12+02:00
; #@! TF.GenerationSoftware,Kicad,Pcbnew,5.1.10
; #@! TF.FileFunction,Plated,1,2,PTH
FMAT,2
INCH
T1C0.0157
T2C0.0276
T3C0.0295
T4C0.0315
T5C0.0394
T6C0.0866
%
G90
G05
T1
X2.5197Y-3.2283
T2
X2.2441Y-3.0315
X2.2441Y-3.2315
X2.4016Y-3.0315
X2.4016Y-3.2315
X2.4016Y-3.5402
X2.4016Y-3.7402
X2.5591Y-3.5402
X2.5591Y-3.7402
X2.7165Y-3.5402
X2.7165Y-3.7402
X2.874Y-3.5402
X2.874Y-3.7402
X2.9102Y-2.8543
X3.0315Y-3.5402
X3.0315Y-3.7402
X3.0512Y-3.0283
X3.0512Y-3.2283
X3.1102Y-2.8543
X3.2087Y-3.0283
X3.2087Y-3.2283
T3
X2.6575Y-3.9567
X2.7075Y-3.9567
X2.7575Y-3.9567
T4
X2.2441Y-3.6024
X2.2441Y-3.7008
X2.3622Y-2.8543
X2.3819Y-3.878
X2.3819Y-4.178
X2.4606Y-2.8543
X2.6339Y-3.2087
X2.6575Y-3.2677
X2.7165Y-3.126
X2.7165Y-3.2874
X2.7756Y-3.1496
X2.7992Y-3.2047
X3.0315Y-3.878
X3.0315Y-4.178
X3.189Y-3.6024
X3.189Y-3.7008
T5
X2.3803Y-4.311
X2.4803Y-4.311
X2.5984Y-1.9291
X2.6984Y-1.9291
X2.7984Y-1.9291
X2.9709Y-4.311
X3.0709Y-4.311
T6
X2.1654Y-4.3307
X2.185Y-1.8898
X3.2677Y-1.8898
X3.2677Y-4.3307
T0
M30
