%TF.GenerationSoftware,KiCad,Pcbnew,5.1.10*%
%TF.CreationDate,2021-06-08T11:13:20+02:00*%
%TF.ProjectId,piezo-jfet,7069657a-6f2d-46a6-9665-742e6b696361,rev?*%
%TF.SameCoordinates,Original*%
%TF.FileFunction,Copper,L1,Top*%
%TF.FilePolarity,Positive*%
%FSLAX46Y46*%
G04 Gerber Fmt 4.6, Leading zero omitted, Abs format (unit mm)*
G04 Created by KiCad (PCBNEW 5.1.10) date 2021-06-08 11:13:20*
%MOMM*%
%LPD*%
G01*
G04 APERTURE LIST*
%TA.AperFunction,ComponentPad*%
%ADD10C,3.800000*%
%TD*%
%TA.AperFunction,ComponentPad*%
%ADD11O,1.400000X1.400000*%
%TD*%
%TA.AperFunction,ComponentPad*%
%ADD12C,1.400000*%
%TD*%
%TA.AperFunction,ComponentPad*%
%ADD13C,1.600000*%
%TD*%
%TA.AperFunction,ComponentPad*%
%ADD14O,1.600000X1.600000*%
%TD*%
%TA.AperFunction,ComponentPad*%
%ADD15R,1.600000X1.600000*%
%TD*%
%TA.AperFunction,ComponentPad*%
%ADD16R,1.050000X1.500000*%
%TD*%
%TA.AperFunction,ComponentPad*%
%ADD17O,1.050000X1.500000*%
%TD*%
%TA.AperFunction,ComponentPad*%
%ADD18C,1.300000*%
%TD*%
%TA.AperFunction,ViaPad*%
%ADD19C,0.800000*%
%TD*%
%TA.AperFunction,Conductor*%
%ADD20C,0.250000*%
%TD*%
%TA.AperFunction,Conductor*%
%ADD21C,0.254000*%
%TD*%
%TA.AperFunction,Conductor*%
%ADD22C,0.100000*%
%TD*%
G04 APERTURE END LIST*
D10*
%TO.P,J7,1*%
%TO.N,/3*%
X69525001Y-47675001D03*
%TD*%
%TO.P,J10,1*%
%TO.N,GND*%
X74875001Y-47675001D03*
%TD*%
%TO.P,J1,1*%
%TO.N,/2*%
X64175001Y-47675001D03*
%TD*%
D11*
%TO.P,R5,2*%
%TO.N,Net-(C2-Pad1)*%
X72420000Y-58500000D03*
D12*
%TO.P,R5,1*%
%TO.N,/3*%
X77500000Y-58500000D03*
%TD*%
D13*
%TO.P,C1,2*%
%TO.N,Net-(C1-Pad2)*%
X57000000Y-80000000D03*
%TO.P,C1,1*%
%TO.N,Net-(C1-Pad1)*%
X57000000Y-77500000D03*
%TD*%
%TO.P,C2,2*%
%TO.N,/2*%
X60000000Y-58500000D03*
%TO.P,C2,1*%
%TO.N,Net-(C2-Pad1)*%
X62500000Y-58500000D03*
%TD*%
%TO.P,C3,2*%
%TO.N,Net-(C3-Pad2)*%
X81000000Y-77500000D03*
%TO.P,C3,1*%
%TO.N,Net-(C3-Pad1)*%
X81000000Y-80000000D03*
%TD*%
D14*
%TO.P,D1,2*%
%TO.N,Net-(C1-Pad2)*%
X61000000Y-85000000D03*
D15*
%TO.P,D1,1*%
%TO.N,Net-(D1-Pad1)*%
X61000000Y-92620000D03*
%TD*%
D14*
%TO.P,D2,2*%
%TO.N,Net-(C3-Pad1)*%
X77500000Y-85000000D03*
D15*
%TO.P,D2,1*%
%TO.N,Net-(D1-Pad1)*%
X77500000Y-92620000D03*
%TD*%
D11*
%TO.P,R1,2*%
%TO.N,/2*%
X57000000Y-63000000D03*
D12*
%TO.P,R1,1*%
%TO.N,Net-(C1-Pad1)*%
X57000000Y-68080000D03*
%TD*%
D11*
%TO.P,R2,2*%
%TO.N,Net-(C1-Pad1)*%
X61000000Y-75920000D03*
D12*
%TO.P,R2,1*%
%TO.N,GND*%
X61000000Y-81000000D03*
%TD*%
D11*
%TO.P,R3,2*%
%TO.N,/2*%
X61000000Y-63000000D03*
D12*
%TO.P,R3,1*%
%TO.N,Net-(Q2-Pad2)*%
X61000000Y-68080000D03*
%TD*%
D11*
%TO.P,R4,2*%
%TO.N,Net-(Q2-Pad1)*%
X65000000Y-75920000D03*
D12*
%TO.P,R4,1*%
%TO.N,Net-(Q1-Pad1)*%
X65000000Y-81000000D03*
%TD*%
D11*
%TO.P,R7,2*%
%TO.N,/3*%
X77500000Y-62920000D03*
D12*
%TO.P,R7,1*%
%TO.N,Net-(Q2-Pad5)*%
X77500000Y-68000000D03*
%TD*%
D11*
%TO.P,R8,2*%
%TO.N,Net-(Q2-Pad4)*%
X73000000Y-75920000D03*
D12*
%TO.P,R8,1*%
%TO.N,Net-(Q1-Pad1)*%
X73000000Y-81000000D03*
%TD*%
D11*
%TO.P,R9,2*%
%TO.N,/3*%
X81500000Y-62920000D03*
D12*
%TO.P,R9,1*%
%TO.N,Net-(C3-Pad2)*%
X81500000Y-68000000D03*
%TD*%
D11*
%TO.P,R10,2*%
%TO.N,Net-(C3-Pad2)*%
X77000000Y-75920000D03*
D12*
%TO.P,R10,1*%
%TO.N,GND*%
X77000000Y-81000000D03*
%TD*%
D16*
%TO.P,Q1,1*%
%TO.N,Net-(Q1-Pad1)*%
X67500000Y-86500000D03*
D17*
%TO.P,Q1,3*%
%TO.N,GND*%
X70040000Y-86500000D03*
%TO.P,Q1,2*%
%TO.N,Net-(Q1-Pad2)*%
X68770000Y-86500000D03*
%TD*%
D11*
%TO.P,R12,2*%
%TO.N,GND*%
X69000000Y-75920000D03*
D12*
%TO.P,R12,1*%
%TO.N,Net-(Q1-Pad2)*%
X69000000Y-81000000D03*
%TD*%
D10*
%TO.P,J2,1*%
%TO.N,Net-(J2-Pad1)*%
X55500000Y-48000000D03*
%TD*%
%TO.P,J3,1*%
%TO.N,Net-(J3-Pad1)*%
X55000000Y-110000000D03*
%TD*%
%TO.P,J4,1*%
%TO.N,Net-(J4-Pad1)*%
X83000000Y-48000000D03*
%TD*%
%TO.P,J5,1*%
%TO.N,Net-(J5-Pad1)*%
X83000000Y-110000000D03*
%TD*%
%TO.P,J6,1*%
%TO.N,Net-(C1-Pad2)*%
X61000000Y-96500000D03*
%TD*%
%TO.P,J8,1*%
%TO.N,GND*%
X69000000Y-96500000D03*
%TD*%
%TO.P,J9,1*%
%TO.N,Net-(C3-Pad1)*%
X78000000Y-96500000D03*
%TD*%
D18*
%TO.P,Q2,1*%
%TO.N,Net-(Q2-Pad1)*%
X69100000Y-69600000D03*
%TO.P,Q2,2*%
%TO.N,Net-(Q2-Pad2)*%
X67600000Y-69100000D03*
%TO.P,Q2,3*%
%TO.N,Net-(C1-Pad1)*%
X66900000Y-67500000D03*
%TO.P,Q2,4*%
%TO.N,Net-(Q2-Pad4)*%
X68900000Y-65400000D03*
%TO.P,Q2,5*%
%TO.N,Net-(Q2-Pad5)*%
X70500000Y-66000000D03*
%TO.P,Q2,6*%
%TO.N,Net-(C3-Pad2)*%
X71100000Y-67500000D03*
%TD*%
D19*
%TO.N,GND*%
X63000000Y-68000000D03*
%TD*%
D20*
%TO.N,Net-(C1-Pad2)*%
X61000000Y-84000000D02*
X61000000Y-85000000D01*
X57000000Y-80000000D02*
X61000000Y-84000000D01*
X59874999Y-86125001D02*
X61000000Y-85000000D01*
X59874999Y-95414999D02*
X59874999Y-86125001D01*
X60460000Y-96000000D02*
X59874999Y-95414999D01*
%TO.N,Net-(C1-Pad1)*%
X57000000Y-71920000D02*
X61000000Y-75920000D01*
X57000000Y-68080000D02*
X57000000Y-71920000D01*
X58279999Y-66800001D02*
X66200001Y-66800001D01*
X66200001Y-66800001D02*
X66900000Y-67500000D01*
X57000000Y-68080000D02*
X58279999Y-66800001D01*
X59420000Y-77500000D02*
X61000000Y-75920000D01*
X57000000Y-77500000D02*
X59420000Y-77500000D01*
%TO.N,Net-(C2-Pad1)*%
X72420000Y-58500000D02*
X62500000Y-58500000D01*
%TO.N,/2*%
X60000000Y-57540000D02*
X60000000Y-58500000D01*
X61000000Y-59500000D02*
X60000000Y-58500000D01*
X61000000Y-63000000D02*
X61000000Y-59500000D01*
X61000000Y-63000000D02*
X57000000Y-63000000D01*
%TO.N,Net-(C3-Pad1)*%
X81000000Y-81500000D02*
X77500000Y-85000000D01*
X81000000Y-80000000D02*
X81000000Y-81500000D01*
X78849999Y-86349999D02*
X77500000Y-85000000D01*
X78849999Y-95150001D02*
X78849999Y-86349999D01*
X78000000Y-96000000D02*
X78849999Y-95150001D01*
%TO.N,Net-(C3-Pad2)*%
X71100000Y-70020000D02*
X77000000Y-75920000D01*
X71100000Y-67400000D02*
X71100000Y-70020000D01*
X77000000Y-72500000D02*
X81500000Y-68000000D01*
X77000000Y-75920000D02*
X77000000Y-72500000D01*
X78580000Y-77500000D02*
X77000000Y-75920000D01*
X81000000Y-77500000D02*
X78580000Y-77500000D01*
%TO.N,Net-(D1-Pad1)*%
X61000000Y-92620000D02*
X77500000Y-92620000D01*
%TO.N,/3*%
X77500000Y-55420000D02*
X71080000Y-49000000D01*
X77500000Y-58500000D02*
X77500000Y-55420000D01*
X77500000Y-62920000D02*
X77500000Y-58500000D01*
X81500000Y-62920000D02*
X77500000Y-62920000D01*
%TO.N,Net-(Q1-Pad1)*%
X67500000Y-85510051D02*
X67500000Y-86500000D01*
X72010051Y-81000000D02*
X67500000Y-85510051D01*
X73000000Y-81000000D02*
X72010051Y-81000000D01*
X67500000Y-83500000D02*
X65000000Y-81000000D01*
X67500000Y-86500000D02*
X67500000Y-83500000D01*
%TO.N,Net-(Q2-Pad1)*%
X65000000Y-73500000D02*
X69000000Y-69500000D01*
X65000000Y-75920000D02*
X65000000Y-73500000D01*
%TO.N,Net-(Q2-Pad2)*%
X61920000Y-69000000D02*
X61000000Y-68080000D01*
X67500000Y-69000000D02*
X61920000Y-69000000D01*
%TO.N,Net-(Q2-Pad4)*%
X70649990Y-73569990D02*
X73000000Y-75920000D01*
X70649990Y-69149990D02*
X70649990Y-73569990D01*
X69000000Y-67500000D02*
X70649990Y-69149990D01*
X69000000Y-65400000D02*
X69000000Y-67500000D01*
%TO.N,Net-(Q2-Pad5)*%
X75500000Y-66000000D02*
X70500000Y-66000000D01*
X77500000Y-68000000D02*
X75500000Y-66000000D01*
%TO.N,/2*%
X60000000Y-51850002D02*
X64175001Y-47675001D01*
X60000000Y-58500000D02*
X60000000Y-51850002D01*
%TO.N,/3*%
X70850000Y-49000000D02*
X69525001Y-47675001D01*
X71080000Y-49000000D02*
X70850000Y-49000000D01*
%TD*%
D21*
%TO.N,GND*%
X54299227Y-45753512D02*
X53884032Y-46030937D01*
X53530937Y-46384032D01*
X53253512Y-46799227D01*
X53062418Y-47260568D01*
X52965000Y-47750324D01*
X52965000Y-48249676D01*
X53062418Y-48739432D01*
X53253512Y-49200773D01*
X53530937Y-49615968D01*
X53884032Y-49969063D01*
X54299227Y-50246488D01*
X54760568Y-50437582D01*
X55250324Y-50535000D01*
X55749676Y-50535000D01*
X56239432Y-50437582D01*
X56700773Y-50246488D01*
X57115968Y-49969063D01*
X57469063Y-49615968D01*
X57746488Y-49200773D01*
X57937582Y-48739432D01*
X58035000Y-48249676D01*
X58035000Y-47750324D01*
X57937582Y-47260568D01*
X57746488Y-46799227D01*
X57469063Y-46384032D01*
X57115968Y-46030937D01*
X56700773Y-45753512D01*
X56475015Y-45660000D01*
X62627784Y-45660000D01*
X62559033Y-45705938D01*
X62205938Y-46059033D01*
X61928513Y-46474228D01*
X61737419Y-46935569D01*
X61640001Y-47425325D01*
X61640001Y-47924677D01*
X61737419Y-48414433D01*
X61919994Y-48855207D01*
X59488998Y-51286203D01*
X59460000Y-51310001D01*
X59436202Y-51338999D01*
X59436201Y-51339000D01*
X59365026Y-51425726D01*
X59294454Y-51557756D01*
X59250998Y-51701017D01*
X59236324Y-51850002D01*
X59240001Y-51887334D01*
X59240000Y-57281956D01*
X59085241Y-57385363D01*
X58885363Y-57585241D01*
X58728320Y-57820273D01*
X58620147Y-58081426D01*
X58565000Y-58358665D01*
X58565000Y-58641335D01*
X58620147Y-58918574D01*
X58728320Y-59179727D01*
X58885363Y-59414759D01*
X59085241Y-59614637D01*
X59320273Y-59771680D01*
X59581426Y-59879853D01*
X59858665Y-59935000D01*
X60141335Y-59935000D01*
X60240001Y-59915374D01*
X60240000Y-61902225D01*
X60148987Y-61963038D01*
X59963038Y-62148987D01*
X59902225Y-62240000D01*
X58097775Y-62240000D01*
X58036962Y-62148987D01*
X57851013Y-61963038D01*
X57632359Y-61816939D01*
X57389405Y-61716304D01*
X57131486Y-61665000D01*
X56868514Y-61665000D01*
X56610595Y-61716304D01*
X56367641Y-61816939D01*
X56148987Y-61963038D01*
X55963038Y-62148987D01*
X55816939Y-62367641D01*
X55716304Y-62610595D01*
X55665000Y-62868514D01*
X55665000Y-63131486D01*
X55716304Y-63389405D01*
X55816939Y-63632359D01*
X55963038Y-63851013D01*
X56148987Y-64036962D01*
X56367641Y-64183061D01*
X56610595Y-64283696D01*
X56868514Y-64335000D01*
X57131486Y-64335000D01*
X57389405Y-64283696D01*
X57632359Y-64183061D01*
X57851013Y-64036962D01*
X58036962Y-63851013D01*
X58097775Y-63760000D01*
X59902225Y-63760000D01*
X59963038Y-63851013D01*
X60148987Y-64036962D01*
X60367641Y-64183061D01*
X60610595Y-64283696D01*
X60868514Y-64335000D01*
X61131486Y-64335000D01*
X61389405Y-64283696D01*
X61632359Y-64183061D01*
X61851013Y-64036962D01*
X62036962Y-63851013D01*
X62183061Y-63632359D01*
X62283696Y-63389405D01*
X62335000Y-63131486D01*
X62335000Y-62868514D01*
X62283696Y-62610595D01*
X62183061Y-62367641D01*
X62036962Y-62148987D01*
X61851013Y-61963038D01*
X61760000Y-61902225D01*
X61760000Y-59731407D01*
X61820273Y-59771680D01*
X62081426Y-59879853D01*
X62358665Y-59935000D01*
X62641335Y-59935000D01*
X62918574Y-59879853D01*
X63179727Y-59771680D01*
X63414759Y-59614637D01*
X63614637Y-59414759D01*
X63718043Y-59260000D01*
X71322225Y-59260000D01*
X71383038Y-59351013D01*
X71568987Y-59536962D01*
X71787641Y-59683061D01*
X72030595Y-59783696D01*
X72288514Y-59835000D01*
X72551486Y-59835000D01*
X72809405Y-59783696D01*
X73052359Y-59683061D01*
X73271013Y-59536962D01*
X73456962Y-59351013D01*
X73603061Y-59132359D01*
X73703696Y-58889405D01*
X73755000Y-58631486D01*
X73755000Y-58368514D01*
X73703696Y-58110595D01*
X73603061Y-57867641D01*
X73456962Y-57648987D01*
X73271013Y-57463038D01*
X73052359Y-57316939D01*
X72809405Y-57216304D01*
X72551486Y-57165000D01*
X72288514Y-57165000D01*
X72030595Y-57216304D01*
X71787641Y-57316939D01*
X71568987Y-57463038D01*
X71383038Y-57648987D01*
X71322225Y-57740000D01*
X63718043Y-57740000D01*
X63614637Y-57585241D01*
X63414759Y-57385363D01*
X63179727Y-57228320D01*
X62918574Y-57120147D01*
X62641335Y-57065000D01*
X62358665Y-57065000D01*
X62081426Y-57120147D01*
X61820273Y-57228320D01*
X61585241Y-57385363D01*
X61385363Y-57585241D01*
X61250000Y-57787827D01*
X61114637Y-57585241D01*
X60914759Y-57385363D01*
X60760000Y-57281957D01*
X60760000Y-52164803D01*
X62994795Y-49930008D01*
X63435569Y-50112583D01*
X63925325Y-50210001D01*
X64424677Y-50210001D01*
X64914433Y-50112583D01*
X65375774Y-49921489D01*
X65790969Y-49644064D01*
X66144064Y-49290969D01*
X66421489Y-48875774D01*
X66612583Y-48414433D01*
X66710001Y-47924677D01*
X66710001Y-47425325D01*
X66612583Y-46935569D01*
X66421489Y-46474228D01*
X66144064Y-46059033D01*
X65790969Y-45705938D01*
X65722218Y-45660000D01*
X67977784Y-45660000D01*
X67909033Y-45705938D01*
X67555938Y-46059033D01*
X67278513Y-46474228D01*
X67087419Y-46935569D01*
X66990001Y-47425325D01*
X66990001Y-47924677D01*
X67087419Y-48414433D01*
X67278513Y-48875774D01*
X67555938Y-49290969D01*
X67909033Y-49644064D01*
X68324228Y-49921489D01*
X68785569Y-50112583D01*
X69275325Y-50210001D01*
X69774677Y-50210001D01*
X70264433Y-50112583D01*
X70725774Y-49921489D01*
X70846213Y-49841014D01*
X76740001Y-55734803D01*
X76740000Y-57402225D01*
X76648987Y-57463038D01*
X76463038Y-57648987D01*
X76316939Y-57867641D01*
X76216304Y-58110595D01*
X76165000Y-58368514D01*
X76165000Y-58631486D01*
X76216304Y-58889405D01*
X76316939Y-59132359D01*
X76463038Y-59351013D01*
X76648987Y-59536962D01*
X76740001Y-59597775D01*
X76740000Y-61822225D01*
X76648987Y-61883038D01*
X76463038Y-62068987D01*
X76316939Y-62287641D01*
X76216304Y-62530595D01*
X76165000Y-62788514D01*
X76165000Y-63051486D01*
X76216304Y-63309405D01*
X76316939Y-63552359D01*
X76463038Y-63771013D01*
X76648987Y-63956962D01*
X76867641Y-64103061D01*
X77110595Y-64203696D01*
X77368514Y-64255000D01*
X77631486Y-64255000D01*
X77889405Y-64203696D01*
X78132359Y-64103061D01*
X78351013Y-63956962D01*
X78536962Y-63771013D01*
X78597775Y-63680000D01*
X80402225Y-63680000D01*
X80463038Y-63771013D01*
X80648987Y-63956962D01*
X80867641Y-64103061D01*
X81110595Y-64203696D01*
X81368514Y-64255000D01*
X81631486Y-64255000D01*
X81889405Y-64203696D01*
X82132359Y-64103061D01*
X82351013Y-63956962D01*
X82536962Y-63771013D01*
X82683061Y-63552359D01*
X82783696Y-63309405D01*
X82835000Y-63051486D01*
X82835000Y-62788514D01*
X82783696Y-62530595D01*
X82683061Y-62287641D01*
X82536962Y-62068987D01*
X82351013Y-61883038D01*
X82132359Y-61736939D01*
X81889405Y-61636304D01*
X81631486Y-61585000D01*
X81368514Y-61585000D01*
X81110595Y-61636304D01*
X80867641Y-61736939D01*
X80648987Y-61883038D01*
X80463038Y-62068987D01*
X80402225Y-62160000D01*
X78597775Y-62160000D01*
X78536962Y-62068987D01*
X78351013Y-61883038D01*
X78260000Y-61822225D01*
X78260000Y-59597775D01*
X78351013Y-59536962D01*
X78536962Y-59351013D01*
X78683061Y-59132359D01*
X78783696Y-58889405D01*
X78835000Y-58631486D01*
X78835000Y-58368514D01*
X78783696Y-58110595D01*
X78683061Y-57867641D01*
X78536962Y-57648987D01*
X78351013Y-57463038D01*
X78260000Y-57402225D01*
X78260000Y-55457322D01*
X78263676Y-55419999D01*
X78260000Y-55382676D01*
X78260000Y-55382667D01*
X78249003Y-55271014D01*
X78205546Y-55127753D01*
X78134974Y-54995723D01*
X78063799Y-54908997D01*
X78040001Y-54879999D01*
X78011003Y-54856201D01*
X71847374Y-48692573D01*
X71962583Y-48414433D01*
X72060001Y-47924677D01*
X72060001Y-47425325D01*
X71962583Y-46935569D01*
X71771489Y-46474228D01*
X71494064Y-46059033D01*
X71140969Y-45705938D01*
X71072218Y-45660000D01*
X82024985Y-45660000D01*
X81799227Y-45753512D01*
X81384032Y-46030937D01*
X81030937Y-46384032D01*
X80753512Y-46799227D01*
X80562418Y-47260568D01*
X80465000Y-47750324D01*
X80465000Y-48249676D01*
X80562418Y-48739432D01*
X80753512Y-49200773D01*
X81030937Y-49615968D01*
X81384032Y-49969063D01*
X81799227Y-50246488D01*
X82260568Y-50437582D01*
X82750324Y-50535000D01*
X83249676Y-50535000D01*
X83739432Y-50437582D01*
X84200773Y-50246488D01*
X84615968Y-49969063D01*
X84969063Y-49615968D01*
X85246488Y-49200773D01*
X85340001Y-48975013D01*
X85340000Y-109024985D01*
X85246488Y-108799227D01*
X84969063Y-108384032D01*
X84615968Y-108030937D01*
X84200773Y-107753512D01*
X83739432Y-107562418D01*
X83249676Y-107465000D01*
X82750324Y-107465000D01*
X82260568Y-107562418D01*
X81799227Y-107753512D01*
X81384032Y-108030937D01*
X81030937Y-108384032D01*
X80753512Y-108799227D01*
X80562418Y-109260568D01*
X80465000Y-109750324D01*
X80465000Y-110249676D01*
X80562418Y-110739432D01*
X80753512Y-111200773D01*
X81030937Y-111615968D01*
X81384032Y-111969063D01*
X81799227Y-112246488D01*
X82024985Y-112340000D01*
X55975015Y-112340000D01*
X56200773Y-112246488D01*
X56615968Y-111969063D01*
X56969063Y-111615968D01*
X57246488Y-111200773D01*
X57437582Y-110739432D01*
X57535000Y-110249676D01*
X57535000Y-109750324D01*
X57437582Y-109260568D01*
X57246488Y-108799227D01*
X56969063Y-108384032D01*
X56615968Y-108030937D01*
X56200773Y-107753512D01*
X55739432Y-107562418D01*
X55249676Y-107465000D01*
X54750324Y-107465000D01*
X54260568Y-107562418D01*
X53799227Y-107753512D01*
X53384032Y-108030937D01*
X53030937Y-108384032D01*
X52753512Y-108799227D01*
X52660000Y-109024985D01*
X52660000Y-77358665D01*
X55565000Y-77358665D01*
X55565000Y-77641335D01*
X55620147Y-77918574D01*
X55728320Y-78179727D01*
X55885363Y-78414759D01*
X56085241Y-78614637D01*
X56287827Y-78750000D01*
X56085241Y-78885363D01*
X55885363Y-79085241D01*
X55728320Y-79320273D01*
X55620147Y-79581426D01*
X55565000Y-79858665D01*
X55565000Y-80141335D01*
X55620147Y-80418574D01*
X55728320Y-80679727D01*
X55885363Y-80914759D01*
X56085241Y-81114637D01*
X56320273Y-81271680D01*
X56581426Y-81379853D01*
X56858665Y-81435000D01*
X57141335Y-81435000D01*
X57323887Y-81398688D01*
X59947901Y-84022703D01*
X59885363Y-84085241D01*
X59728320Y-84320273D01*
X59620147Y-84581426D01*
X59565000Y-84858665D01*
X59565000Y-85141335D01*
X59601312Y-85323887D01*
X59363997Y-85561202D01*
X59334999Y-85585000D01*
X59311201Y-85613998D01*
X59311200Y-85613999D01*
X59240025Y-85700725D01*
X59169453Y-85832755D01*
X59125997Y-85976016D01*
X59111323Y-86125001D01*
X59115000Y-86162333D01*
X59114999Y-94799970D01*
X59030937Y-94884032D01*
X58753512Y-95299227D01*
X58562418Y-95760568D01*
X58465000Y-96250324D01*
X58465000Y-96749676D01*
X58562418Y-97239432D01*
X58753512Y-97700773D01*
X59030937Y-98115968D01*
X59384032Y-98469063D01*
X59799227Y-98746488D01*
X60260568Y-98937582D01*
X60750324Y-99035000D01*
X61249676Y-99035000D01*
X61739432Y-98937582D01*
X62200773Y-98746488D01*
X62615968Y-98469063D01*
X62969063Y-98115968D01*
X63246488Y-97700773D01*
X63437582Y-97239432D01*
X63535000Y-96749676D01*
X63535000Y-96250324D01*
X63437582Y-95760568D01*
X63246488Y-95299227D01*
X62969063Y-94884032D01*
X62615968Y-94530937D01*
X62200773Y-94253512D01*
X61739432Y-94062418D01*
X61717583Y-94058072D01*
X61800000Y-94058072D01*
X61924482Y-94045812D01*
X62044180Y-94009502D01*
X62154494Y-93950537D01*
X62251185Y-93871185D01*
X62330537Y-93774494D01*
X62389502Y-93664180D01*
X62425812Y-93544482D01*
X62438072Y-93420000D01*
X62438072Y-93380000D01*
X76061928Y-93380000D01*
X76061928Y-93420000D01*
X76074188Y-93544482D01*
X76110498Y-93664180D01*
X76169463Y-93774494D01*
X76248815Y-93871185D01*
X76345506Y-93950537D01*
X76455820Y-94009502D01*
X76575518Y-94045812D01*
X76700000Y-94058072D01*
X77282417Y-94058072D01*
X77260568Y-94062418D01*
X76799227Y-94253512D01*
X76384032Y-94530937D01*
X76030937Y-94884032D01*
X75753512Y-95299227D01*
X75562418Y-95760568D01*
X75465000Y-96250324D01*
X75465000Y-96749676D01*
X75562418Y-97239432D01*
X75753512Y-97700773D01*
X76030937Y-98115968D01*
X76384032Y-98469063D01*
X76799227Y-98746488D01*
X77260568Y-98937582D01*
X77750324Y-99035000D01*
X78249676Y-99035000D01*
X78739432Y-98937582D01*
X79200773Y-98746488D01*
X79615968Y-98469063D01*
X79969063Y-98115968D01*
X80246488Y-97700773D01*
X80437582Y-97239432D01*
X80535000Y-96749676D01*
X80535000Y-96250324D01*
X80437582Y-95760568D01*
X80246488Y-95299227D01*
X79969063Y-94884032D01*
X79615968Y-94530937D01*
X79609999Y-94526949D01*
X79609999Y-86387322D01*
X79613675Y-86349999D01*
X79609999Y-86312676D01*
X79609999Y-86312666D01*
X79599002Y-86201013D01*
X79555545Y-86057752D01*
X79511855Y-85976015D01*
X79484973Y-85925722D01*
X79413798Y-85838996D01*
X79390000Y-85809998D01*
X79361002Y-85786200D01*
X78898688Y-85323886D01*
X78935000Y-85141335D01*
X78935000Y-84858665D01*
X78898688Y-84676114D01*
X81511008Y-82063795D01*
X81540001Y-82040001D01*
X81563795Y-82011008D01*
X81563799Y-82011004D01*
X81634973Y-81924277D01*
X81674134Y-81851013D01*
X81705546Y-81792247D01*
X81749003Y-81648986D01*
X81760000Y-81537333D01*
X81760000Y-81537324D01*
X81763676Y-81500001D01*
X81760000Y-81462678D01*
X81760000Y-81218043D01*
X81914759Y-81114637D01*
X82114637Y-80914759D01*
X82271680Y-80679727D01*
X82379853Y-80418574D01*
X82435000Y-80141335D01*
X82435000Y-79858665D01*
X82379853Y-79581426D01*
X82271680Y-79320273D01*
X82114637Y-79085241D01*
X81914759Y-78885363D01*
X81712173Y-78750000D01*
X81914759Y-78614637D01*
X82114637Y-78414759D01*
X82271680Y-78179727D01*
X82379853Y-77918574D01*
X82435000Y-77641335D01*
X82435000Y-77358665D01*
X82379853Y-77081426D01*
X82271680Y-76820273D01*
X82114637Y-76585241D01*
X81914759Y-76385363D01*
X81679727Y-76228320D01*
X81418574Y-76120147D01*
X81141335Y-76065000D01*
X80858665Y-76065000D01*
X80581426Y-76120147D01*
X80320273Y-76228320D01*
X80085241Y-76385363D01*
X79885363Y-76585241D01*
X79781957Y-76740000D01*
X78894803Y-76740000D01*
X78313645Y-76158843D01*
X78335000Y-76051486D01*
X78335000Y-75788514D01*
X78283696Y-75530595D01*
X78183061Y-75287641D01*
X78036962Y-75068987D01*
X77851013Y-74883038D01*
X77760000Y-74822225D01*
X77760000Y-72814801D01*
X81261157Y-69313645D01*
X81368514Y-69335000D01*
X81631486Y-69335000D01*
X81889405Y-69283696D01*
X82132359Y-69183061D01*
X82351013Y-69036962D01*
X82536962Y-68851013D01*
X82683061Y-68632359D01*
X82783696Y-68389405D01*
X82835000Y-68131486D01*
X82835000Y-67868514D01*
X82783696Y-67610595D01*
X82683061Y-67367641D01*
X82536962Y-67148987D01*
X82351013Y-66963038D01*
X82132359Y-66816939D01*
X81889405Y-66716304D01*
X81631486Y-66665000D01*
X81368514Y-66665000D01*
X81110595Y-66716304D01*
X80867641Y-66816939D01*
X80648987Y-66963038D01*
X80463038Y-67148987D01*
X80316939Y-67367641D01*
X80216304Y-67610595D01*
X80165000Y-67868514D01*
X80165000Y-68131486D01*
X80186355Y-68238843D01*
X76488998Y-71936201D01*
X76460000Y-71959999D01*
X76436202Y-71988997D01*
X76436201Y-71988998D01*
X76365026Y-72075724D01*
X76294454Y-72207754D01*
X76250998Y-72351015D01*
X76236324Y-72500000D01*
X76240001Y-72537332D01*
X76240001Y-74085199D01*
X71860000Y-69705199D01*
X71860000Y-68537641D01*
X71919140Y-68498125D01*
X72098125Y-68319140D01*
X72238753Y-68108676D01*
X72335619Y-67874821D01*
X72385000Y-67626561D01*
X72385000Y-67373439D01*
X72335619Y-67125179D01*
X72238753Y-66891324D01*
X72151005Y-66760000D01*
X75185199Y-66760000D01*
X76186355Y-67761157D01*
X76165000Y-67868514D01*
X76165000Y-68131486D01*
X76216304Y-68389405D01*
X76316939Y-68632359D01*
X76463038Y-68851013D01*
X76648987Y-69036962D01*
X76867641Y-69183061D01*
X77110595Y-69283696D01*
X77368514Y-69335000D01*
X77631486Y-69335000D01*
X77889405Y-69283696D01*
X78132359Y-69183061D01*
X78351013Y-69036962D01*
X78536962Y-68851013D01*
X78683061Y-68632359D01*
X78783696Y-68389405D01*
X78835000Y-68131486D01*
X78835000Y-67868514D01*
X78783696Y-67610595D01*
X78683061Y-67367641D01*
X78536962Y-67148987D01*
X78351013Y-66963038D01*
X78132359Y-66816939D01*
X77889405Y-66716304D01*
X77631486Y-66665000D01*
X77368514Y-66665000D01*
X77261157Y-66686355D01*
X76063804Y-65489003D01*
X76040001Y-65459999D01*
X75924276Y-65365026D01*
X75792247Y-65294454D01*
X75648986Y-65250997D01*
X75537333Y-65240000D01*
X75537322Y-65240000D01*
X75500000Y-65236324D01*
X75462678Y-65240000D01*
X71537641Y-65240000D01*
X71498125Y-65180860D01*
X71319140Y-65001875D01*
X71108676Y-64861247D01*
X70874821Y-64764381D01*
X70626561Y-64715000D01*
X70373439Y-64715000D01*
X70125179Y-64764381D01*
X70041884Y-64798883D01*
X70038753Y-64791324D01*
X69898125Y-64580860D01*
X69719140Y-64401875D01*
X69508676Y-64261247D01*
X69274821Y-64164381D01*
X69026561Y-64115000D01*
X68773439Y-64115000D01*
X68525179Y-64164381D01*
X68291324Y-64261247D01*
X68080860Y-64401875D01*
X67901875Y-64580860D01*
X67761247Y-64791324D01*
X67664381Y-65025179D01*
X67615000Y-65273439D01*
X67615000Y-65526561D01*
X67664381Y-65774821D01*
X67761247Y-66008676D01*
X67901875Y-66219140D01*
X68080860Y-66398125D01*
X68240001Y-66504460D01*
X68240001Y-67462668D01*
X68236324Y-67500000D01*
X68250998Y-67648985D01*
X68294454Y-67792246D01*
X68365026Y-67924276D01*
X68395368Y-67961247D01*
X68460000Y-68040001D01*
X68488998Y-68063799D01*
X68778895Y-68353696D01*
X68725179Y-68364381D01*
X68669377Y-68387495D01*
X68598125Y-68280860D01*
X68419140Y-68101875D01*
X68208676Y-67961247D01*
X68115762Y-67922761D01*
X68135619Y-67874821D01*
X68185000Y-67626561D01*
X68185000Y-67373439D01*
X68135619Y-67125179D01*
X68038753Y-66891324D01*
X67898125Y-66680860D01*
X67719140Y-66501875D01*
X67508676Y-66361247D01*
X67274821Y-66264381D01*
X67026561Y-66215000D01*
X66773439Y-66215000D01*
X66702390Y-66229132D01*
X66624277Y-66165027D01*
X66492248Y-66094455D01*
X66348987Y-66050998D01*
X66237334Y-66040001D01*
X66237323Y-66040001D01*
X66200001Y-66036325D01*
X66162679Y-66040001D01*
X58317322Y-66040001D01*
X58279999Y-66036325D01*
X58242676Y-66040001D01*
X58242666Y-66040001D01*
X58131013Y-66050998D01*
X57987752Y-66094455D01*
X57855722Y-66165027D01*
X57789786Y-66219140D01*
X57739998Y-66260000D01*
X57716200Y-66288998D01*
X57238843Y-66766355D01*
X57131486Y-66745000D01*
X56868514Y-66745000D01*
X56610595Y-66796304D01*
X56367641Y-66896939D01*
X56148987Y-67043038D01*
X55963038Y-67228987D01*
X55816939Y-67447641D01*
X55716304Y-67690595D01*
X55665000Y-67948514D01*
X55665000Y-68211486D01*
X55716304Y-68469405D01*
X55816939Y-68712359D01*
X55963038Y-68931013D01*
X56148987Y-69116962D01*
X56240000Y-69177775D01*
X56240001Y-71882668D01*
X56236324Y-71920000D01*
X56250998Y-72068985D01*
X56294454Y-72212246D01*
X56365026Y-72344276D01*
X56436201Y-72431002D01*
X56460000Y-72460001D01*
X56488998Y-72483799D01*
X59686355Y-75681157D01*
X59665000Y-75788514D01*
X59665000Y-76051486D01*
X59686355Y-76158843D01*
X59105199Y-76740000D01*
X58218043Y-76740000D01*
X58114637Y-76585241D01*
X57914759Y-76385363D01*
X57679727Y-76228320D01*
X57418574Y-76120147D01*
X57141335Y-76065000D01*
X56858665Y-76065000D01*
X56581426Y-76120147D01*
X56320273Y-76228320D01*
X56085241Y-76385363D01*
X55885363Y-76585241D01*
X55728320Y-76820273D01*
X55620147Y-77081426D01*
X55565000Y-77358665D01*
X52660000Y-77358665D01*
X52660000Y-45660000D01*
X54524985Y-45660000D01*
X54299227Y-45753512D01*
%TA.AperFunction,Conductor*%
D22*
G36*
X54299227Y-45753512D02*
G01*
X53884032Y-46030937D01*
X53530937Y-46384032D01*
X53253512Y-46799227D01*
X53062418Y-47260568D01*
X52965000Y-47750324D01*
X52965000Y-48249676D01*
X53062418Y-48739432D01*
X53253512Y-49200773D01*
X53530937Y-49615968D01*
X53884032Y-49969063D01*
X54299227Y-50246488D01*
X54760568Y-50437582D01*
X55250324Y-50535000D01*
X55749676Y-50535000D01*
X56239432Y-50437582D01*
X56700773Y-50246488D01*
X57115968Y-49969063D01*
X57469063Y-49615968D01*
X57746488Y-49200773D01*
X57937582Y-48739432D01*
X58035000Y-48249676D01*
X58035000Y-47750324D01*
X57937582Y-47260568D01*
X57746488Y-46799227D01*
X57469063Y-46384032D01*
X57115968Y-46030937D01*
X56700773Y-45753512D01*
X56475015Y-45660000D01*
X62627784Y-45660000D01*
X62559033Y-45705938D01*
X62205938Y-46059033D01*
X61928513Y-46474228D01*
X61737419Y-46935569D01*
X61640001Y-47425325D01*
X61640001Y-47924677D01*
X61737419Y-48414433D01*
X61919994Y-48855207D01*
X59488998Y-51286203D01*
X59460000Y-51310001D01*
X59436202Y-51338999D01*
X59436201Y-51339000D01*
X59365026Y-51425726D01*
X59294454Y-51557756D01*
X59250998Y-51701017D01*
X59236324Y-51850002D01*
X59240001Y-51887334D01*
X59240000Y-57281956D01*
X59085241Y-57385363D01*
X58885363Y-57585241D01*
X58728320Y-57820273D01*
X58620147Y-58081426D01*
X58565000Y-58358665D01*
X58565000Y-58641335D01*
X58620147Y-58918574D01*
X58728320Y-59179727D01*
X58885363Y-59414759D01*
X59085241Y-59614637D01*
X59320273Y-59771680D01*
X59581426Y-59879853D01*
X59858665Y-59935000D01*
X60141335Y-59935000D01*
X60240001Y-59915374D01*
X60240000Y-61902225D01*
X60148987Y-61963038D01*
X59963038Y-62148987D01*
X59902225Y-62240000D01*
X58097775Y-62240000D01*
X58036962Y-62148987D01*
X57851013Y-61963038D01*
X57632359Y-61816939D01*
X57389405Y-61716304D01*
X57131486Y-61665000D01*
X56868514Y-61665000D01*
X56610595Y-61716304D01*
X56367641Y-61816939D01*
X56148987Y-61963038D01*
X55963038Y-62148987D01*
X55816939Y-62367641D01*
X55716304Y-62610595D01*
X55665000Y-62868514D01*
X55665000Y-63131486D01*
X55716304Y-63389405D01*
X55816939Y-63632359D01*
X55963038Y-63851013D01*
X56148987Y-64036962D01*
X56367641Y-64183061D01*
X56610595Y-64283696D01*
X56868514Y-64335000D01*
X57131486Y-64335000D01*
X57389405Y-64283696D01*
X57632359Y-64183061D01*
X57851013Y-64036962D01*
X58036962Y-63851013D01*
X58097775Y-63760000D01*
X59902225Y-63760000D01*
X59963038Y-63851013D01*
X60148987Y-64036962D01*
X60367641Y-64183061D01*
X60610595Y-64283696D01*
X60868514Y-64335000D01*
X61131486Y-64335000D01*
X61389405Y-64283696D01*
X61632359Y-64183061D01*
X61851013Y-64036962D01*
X62036962Y-63851013D01*
X62183061Y-63632359D01*
X62283696Y-63389405D01*
X62335000Y-63131486D01*
X62335000Y-62868514D01*
X62283696Y-62610595D01*
X62183061Y-62367641D01*
X62036962Y-62148987D01*
X61851013Y-61963038D01*
X61760000Y-61902225D01*
X61760000Y-59731407D01*
X61820273Y-59771680D01*
X62081426Y-59879853D01*
X62358665Y-59935000D01*
X62641335Y-59935000D01*
X62918574Y-59879853D01*
X63179727Y-59771680D01*
X63414759Y-59614637D01*
X63614637Y-59414759D01*
X63718043Y-59260000D01*
X71322225Y-59260000D01*
X71383038Y-59351013D01*
X71568987Y-59536962D01*
X71787641Y-59683061D01*
X72030595Y-59783696D01*
X72288514Y-59835000D01*
X72551486Y-59835000D01*
X72809405Y-59783696D01*
X73052359Y-59683061D01*
X73271013Y-59536962D01*
X73456962Y-59351013D01*
X73603061Y-59132359D01*
X73703696Y-58889405D01*
X73755000Y-58631486D01*
X73755000Y-58368514D01*
X73703696Y-58110595D01*
X73603061Y-57867641D01*
X73456962Y-57648987D01*
X73271013Y-57463038D01*
X73052359Y-57316939D01*
X72809405Y-57216304D01*
X72551486Y-57165000D01*
X72288514Y-57165000D01*
X72030595Y-57216304D01*
X71787641Y-57316939D01*
X71568987Y-57463038D01*
X71383038Y-57648987D01*
X71322225Y-57740000D01*
X63718043Y-57740000D01*
X63614637Y-57585241D01*
X63414759Y-57385363D01*
X63179727Y-57228320D01*
X62918574Y-57120147D01*
X62641335Y-57065000D01*
X62358665Y-57065000D01*
X62081426Y-57120147D01*
X61820273Y-57228320D01*
X61585241Y-57385363D01*
X61385363Y-57585241D01*
X61250000Y-57787827D01*
X61114637Y-57585241D01*
X60914759Y-57385363D01*
X60760000Y-57281957D01*
X60760000Y-52164803D01*
X62994795Y-49930008D01*
X63435569Y-50112583D01*
X63925325Y-50210001D01*
X64424677Y-50210001D01*
X64914433Y-50112583D01*
X65375774Y-49921489D01*
X65790969Y-49644064D01*
X66144064Y-49290969D01*
X66421489Y-48875774D01*
X66612583Y-48414433D01*
X66710001Y-47924677D01*
X66710001Y-47425325D01*
X66612583Y-46935569D01*
X66421489Y-46474228D01*
X66144064Y-46059033D01*
X65790969Y-45705938D01*
X65722218Y-45660000D01*
X67977784Y-45660000D01*
X67909033Y-45705938D01*
X67555938Y-46059033D01*
X67278513Y-46474228D01*
X67087419Y-46935569D01*
X66990001Y-47425325D01*
X66990001Y-47924677D01*
X67087419Y-48414433D01*
X67278513Y-48875774D01*
X67555938Y-49290969D01*
X67909033Y-49644064D01*
X68324228Y-49921489D01*
X68785569Y-50112583D01*
X69275325Y-50210001D01*
X69774677Y-50210001D01*
X70264433Y-50112583D01*
X70725774Y-49921489D01*
X70846213Y-49841014D01*
X76740001Y-55734803D01*
X76740000Y-57402225D01*
X76648987Y-57463038D01*
X76463038Y-57648987D01*
X76316939Y-57867641D01*
X76216304Y-58110595D01*
X76165000Y-58368514D01*
X76165000Y-58631486D01*
X76216304Y-58889405D01*
X76316939Y-59132359D01*
X76463038Y-59351013D01*
X76648987Y-59536962D01*
X76740001Y-59597775D01*
X76740000Y-61822225D01*
X76648987Y-61883038D01*
X76463038Y-62068987D01*
X76316939Y-62287641D01*
X76216304Y-62530595D01*
X76165000Y-62788514D01*
X76165000Y-63051486D01*
X76216304Y-63309405D01*
X76316939Y-63552359D01*
X76463038Y-63771013D01*
X76648987Y-63956962D01*
X76867641Y-64103061D01*
X77110595Y-64203696D01*
X77368514Y-64255000D01*
X77631486Y-64255000D01*
X77889405Y-64203696D01*
X78132359Y-64103061D01*
X78351013Y-63956962D01*
X78536962Y-63771013D01*
X78597775Y-63680000D01*
X80402225Y-63680000D01*
X80463038Y-63771013D01*
X80648987Y-63956962D01*
X80867641Y-64103061D01*
X81110595Y-64203696D01*
X81368514Y-64255000D01*
X81631486Y-64255000D01*
X81889405Y-64203696D01*
X82132359Y-64103061D01*
X82351013Y-63956962D01*
X82536962Y-63771013D01*
X82683061Y-63552359D01*
X82783696Y-63309405D01*
X82835000Y-63051486D01*
X82835000Y-62788514D01*
X82783696Y-62530595D01*
X82683061Y-62287641D01*
X82536962Y-62068987D01*
X82351013Y-61883038D01*
X82132359Y-61736939D01*
X81889405Y-61636304D01*
X81631486Y-61585000D01*
X81368514Y-61585000D01*
X81110595Y-61636304D01*
X80867641Y-61736939D01*
X80648987Y-61883038D01*
X80463038Y-62068987D01*
X80402225Y-62160000D01*
X78597775Y-62160000D01*
X78536962Y-62068987D01*
X78351013Y-61883038D01*
X78260000Y-61822225D01*
X78260000Y-59597775D01*
X78351013Y-59536962D01*
X78536962Y-59351013D01*
X78683061Y-59132359D01*
X78783696Y-58889405D01*
X78835000Y-58631486D01*
X78835000Y-58368514D01*
X78783696Y-58110595D01*
X78683061Y-57867641D01*
X78536962Y-57648987D01*
X78351013Y-57463038D01*
X78260000Y-57402225D01*
X78260000Y-55457322D01*
X78263676Y-55419999D01*
X78260000Y-55382676D01*
X78260000Y-55382667D01*
X78249003Y-55271014D01*
X78205546Y-55127753D01*
X78134974Y-54995723D01*
X78063799Y-54908997D01*
X78040001Y-54879999D01*
X78011003Y-54856201D01*
X71847374Y-48692573D01*
X71962583Y-48414433D01*
X72060001Y-47924677D01*
X72060001Y-47425325D01*
X71962583Y-46935569D01*
X71771489Y-46474228D01*
X71494064Y-46059033D01*
X71140969Y-45705938D01*
X71072218Y-45660000D01*
X82024985Y-45660000D01*
X81799227Y-45753512D01*
X81384032Y-46030937D01*
X81030937Y-46384032D01*
X80753512Y-46799227D01*
X80562418Y-47260568D01*
X80465000Y-47750324D01*
X80465000Y-48249676D01*
X80562418Y-48739432D01*
X80753512Y-49200773D01*
X81030937Y-49615968D01*
X81384032Y-49969063D01*
X81799227Y-50246488D01*
X82260568Y-50437582D01*
X82750324Y-50535000D01*
X83249676Y-50535000D01*
X83739432Y-50437582D01*
X84200773Y-50246488D01*
X84615968Y-49969063D01*
X84969063Y-49615968D01*
X85246488Y-49200773D01*
X85340001Y-48975013D01*
X85340000Y-109024985D01*
X85246488Y-108799227D01*
X84969063Y-108384032D01*
X84615968Y-108030937D01*
X84200773Y-107753512D01*
X83739432Y-107562418D01*
X83249676Y-107465000D01*
X82750324Y-107465000D01*
X82260568Y-107562418D01*
X81799227Y-107753512D01*
X81384032Y-108030937D01*
X81030937Y-108384032D01*
X80753512Y-108799227D01*
X80562418Y-109260568D01*
X80465000Y-109750324D01*
X80465000Y-110249676D01*
X80562418Y-110739432D01*
X80753512Y-111200773D01*
X81030937Y-111615968D01*
X81384032Y-111969063D01*
X81799227Y-112246488D01*
X82024985Y-112340000D01*
X55975015Y-112340000D01*
X56200773Y-112246488D01*
X56615968Y-111969063D01*
X56969063Y-111615968D01*
X57246488Y-111200773D01*
X57437582Y-110739432D01*
X57535000Y-110249676D01*
X57535000Y-109750324D01*
X57437582Y-109260568D01*
X57246488Y-108799227D01*
X56969063Y-108384032D01*
X56615968Y-108030937D01*
X56200773Y-107753512D01*
X55739432Y-107562418D01*
X55249676Y-107465000D01*
X54750324Y-107465000D01*
X54260568Y-107562418D01*
X53799227Y-107753512D01*
X53384032Y-108030937D01*
X53030937Y-108384032D01*
X52753512Y-108799227D01*
X52660000Y-109024985D01*
X52660000Y-77358665D01*
X55565000Y-77358665D01*
X55565000Y-77641335D01*
X55620147Y-77918574D01*
X55728320Y-78179727D01*
X55885363Y-78414759D01*
X56085241Y-78614637D01*
X56287827Y-78750000D01*
X56085241Y-78885363D01*
X55885363Y-79085241D01*
X55728320Y-79320273D01*
X55620147Y-79581426D01*
X55565000Y-79858665D01*
X55565000Y-80141335D01*
X55620147Y-80418574D01*
X55728320Y-80679727D01*
X55885363Y-80914759D01*
X56085241Y-81114637D01*
X56320273Y-81271680D01*
X56581426Y-81379853D01*
X56858665Y-81435000D01*
X57141335Y-81435000D01*
X57323887Y-81398688D01*
X59947901Y-84022703D01*
X59885363Y-84085241D01*
X59728320Y-84320273D01*
X59620147Y-84581426D01*
X59565000Y-84858665D01*
X59565000Y-85141335D01*
X59601312Y-85323887D01*
X59363997Y-85561202D01*
X59334999Y-85585000D01*
X59311201Y-85613998D01*
X59311200Y-85613999D01*
X59240025Y-85700725D01*
X59169453Y-85832755D01*
X59125997Y-85976016D01*
X59111323Y-86125001D01*
X59115000Y-86162333D01*
X59114999Y-94799970D01*
X59030937Y-94884032D01*
X58753512Y-95299227D01*
X58562418Y-95760568D01*
X58465000Y-96250324D01*
X58465000Y-96749676D01*
X58562418Y-97239432D01*
X58753512Y-97700773D01*
X59030937Y-98115968D01*
X59384032Y-98469063D01*
X59799227Y-98746488D01*
X60260568Y-98937582D01*
X60750324Y-99035000D01*
X61249676Y-99035000D01*
X61739432Y-98937582D01*
X62200773Y-98746488D01*
X62615968Y-98469063D01*
X62969063Y-98115968D01*
X63246488Y-97700773D01*
X63437582Y-97239432D01*
X63535000Y-96749676D01*
X63535000Y-96250324D01*
X63437582Y-95760568D01*
X63246488Y-95299227D01*
X62969063Y-94884032D01*
X62615968Y-94530937D01*
X62200773Y-94253512D01*
X61739432Y-94062418D01*
X61717583Y-94058072D01*
X61800000Y-94058072D01*
X61924482Y-94045812D01*
X62044180Y-94009502D01*
X62154494Y-93950537D01*
X62251185Y-93871185D01*
X62330537Y-93774494D01*
X62389502Y-93664180D01*
X62425812Y-93544482D01*
X62438072Y-93420000D01*
X62438072Y-93380000D01*
X76061928Y-93380000D01*
X76061928Y-93420000D01*
X76074188Y-93544482D01*
X76110498Y-93664180D01*
X76169463Y-93774494D01*
X76248815Y-93871185D01*
X76345506Y-93950537D01*
X76455820Y-94009502D01*
X76575518Y-94045812D01*
X76700000Y-94058072D01*
X77282417Y-94058072D01*
X77260568Y-94062418D01*
X76799227Y-94253512D01*
X76384032Y-94530937D01*
X76030937Y-94884032D01*
X75753512Y-95299227D01*
X75562418Y-95760568D01*
X75465000Y-96250324D01*
X75465000Y-96749676D01*
X75562418Y-97239432D01*
X75753512Y-97700773D01*
X76030937Y-98115968D01*
X76384032Y-98469063D01*
X76799227Y-98746488D01*
X77260568Y-98937582D01*
X77750324Y-99035000D01*
X78249676Y-99035000D01*
X78739432Y-98937582D01*
X79200773Y-98746488D01*
X79615968Y-98469063D01*
X79969063Y-98115968D01*
X80246488Y-97700773D01*
X80437582Y-97239432D01*
X80535000Y-96749676D01*
X80535000Y-96250324D01*
X80437582Y-95760568D01*
X80246488Y-95299227D01*
X79969063Y-94884032D01*
X79615968Y-94530937D01*
X79609999Y-94526949D01*
X79609999Y-86387322D01*
X79613675Y-86349999D01*
X79609999Y-86312676D01*
X79609999Y-86312666D01*
X79599002Y-86201013D01*
X79555545Y-86057752D01*
X79511855Y-85976015D01*
X79484973Y-85925722D01*
X79413798Y-85838996D01*
X79390000Y-85809998D01*
X79361002Y-85786200D01*
X78898688Y-85323886D01*
X78935000Y-85141335D01*
X78935000Y-84858665D01*
X78898688Y-84676114D01*
X81511008Y-82063795D01*
X81540001Y-82040001D01*
X81563795Y-82011008D01*
X81563799Y-82011004D01*
X81634973Y-81924277D01*
X81674134Y-81851013D01*
X81705546Y-81792247D01*
X81749003Y-81648986D01*
X81760000Y-81537333D01*
X81760000Y-81537324D01*
X81763676Y-81500001D01*
X81760000Y-81462678D01*
X81760000Y-81218043D01*
X81914759Y-81114637D01*
X82114637Y-80914759D01*
X82271680Y-80679727D01*
X82379853Y-80418574D01*
X82435000Y-80141335D01*
X82435000Y-79858665D01*
X82379853Y-79581426D01*
X82271680Y-79320273D01*
X82114637Y-79085241D01*
X81914759Y-78885363D01*
X81712173Y-78750000D01*
X81914759Y-78614637D01*
X82114637Y-78414759D01*
X82271680Y-78179727D01*
X82379853Y-77918574D01*
X82435000Y-77641335D01*
X82435000Y-77358665D01*
X82379853Y-77081426D01*
X82271680Y-76820273D01*
X82114637Y-76585241D01*
X81914759Y-76385363D01*
X81679727Y-76228320D01*
X81418574Y-76120147D01*
X81141335Y-76065000D01*
X80858665Y-76065000D01*
X80581426Y-76120147D01*
X80320273Y-76228320D01*
X80085241Y-76385363D01*
X79885363Y-76585241D01*
X79781957Y-76740000D01*
X78894803Y-76740000D01*
X78313645Y-76158843D01*
X78335000Y-76051486D01*
X78335000Y-75788514D01*
X78283696Y-75530595D01*
X78183061Y-75287641D01*
X78036962Y-75068987D01*
X77851013Y-74883038D01*
X77760000Y-74822225D01*
X77760000Y-72814801D01*
X81261157Y-69313645D01*
X81368514Y-69335000D01*
X81631486Y-69335000D01*
X81889405Y-69283696D01*
X82132359Y-69183061D01*
X82351013Y-69036962D01*
X82536962Y-68851013D01*
X82683061Y-68632359D01*
X82783696Y-68389405D01*
X82835000Y-68131486D01*
X82835000Y-67868514D01*
X82783696Y-67610595D01*
X82683061Y-67367641D01*
X82536962Y-67148987D01*
X82351013Y-66963038D01*
X82132359Y-66816939D01*
X81889405Y-66716304D01*
X81631486Y-66665000D01*
X81368514Y-66665000D01*
X81110595Y-66716304D01*
X80867641Y-66816939D01*
X80648987Y-66963038D01*
X80463038Y-67148987D01*
X80316939Y-67367641D01*
X80216304Y-67610595D01*
X80165000Y-67868514D01*
X80165000Y-68131486D01*
X80186355Y-68238843D01*
X76488998Y-71936201D01*
X76460000Y-71959999D01*
X76436202Y-71988997D01*
X76436201Y-71988998D01*
X76365026Y-72075724D01*
X76294454Y-72207754D01*
X76250998Y-72351015D01*
X76236324Y-72500000D01*
X76240001Y-72537332D01*
X76240001Y-74085199D01*
X71860000Y-69705199D01*
X71860000Y-68537641D01*
X71919140Y-68498125D01*
X72098125Y-68319140D01*
X72238753Y-68108676D01*
X72335619Y-67874821D01*
X72385000Y-67626561D01*
X72385000Y-67373439D01*
X72335619Y-67125179D01*
X72238753Y-66891324D01*
X72151005Y-66760000D01*
X75185199Y-66760000D01*
X76186355Y-67761157D01*
X76165000Y-67868514D01*
X76165000Y-68131486D01*
X76216304Y-68389405D01*
X76316939Y-68632359D01*
X76463038Y-68851013D01*
X76648987Y-69036962D01*
X76867641Y-69183061D01*
X77110595Y-69283696D01*
X77368514Y-69335000D01*
X77631486Y-69335000D01*
X77889405Y-69283696D01*
X78132359Y-69183061D01*
X78351013Y-69036962D01*
X78536962Y-68851013D01*
X78683061Y-68632359D01*
X78783696Y-68389405D01*
X78835000Y-68131486D01*
X78835000Y-67868514D01*
X78783696Y-67610595D01*
X78683061Y-67367641D01*
X78536962Y-67148987D01*
X78351013Y-66963038D01*
X78132359Y-66816939D01*
X77889405Y-66716304D01*
X77631486Y-66665000D01*
X77368514Y-66665000D01*
X77261157Y-66686355D01*
X76063804Y-65489003D01*
X76040001Y-65459999D01*
X75924276Y-65365026D01*
X75792247Y-65294454D01*
X75648986Y-65250997D01*
X75537333Y-65240000D01*
X75537322Y-65240000D01*
X75500000Y-65236324D01*
X75462678Y-65240000D01*
X71537641Y-65240000D01*
X71498125Y-65180860D01*
X71319140Y-65001875D01*
X71108676Y-64861247D01*
X70874821Y-64764381D01*
X70626561Y-64715000D01*
X70373439Y-64715000D01*
X70125179Y-64764381D01*
X70041884Y-64798883D01*
X70038753Y-64791324D01*
X69898125Y-64580860D01*
X69719140Y-64401875D01*
X69508676Y-64261247D01*
X69274821Y-64164381D01*
X69026561Y-64115000D01*
X68773439Y-64115000D01*
X68525179Y-64164381D01*
X68291324Y-64261247D01*
X68080860Y-64401875D01*
X67901875Y-64580860D01*
X67761247Y-64791324D01*
X67664381Y-65025179D01*
X67615000Y-65273439D01*
X67615000Y-65526561D01*
X67664381Y-65774821D01*
X67761247Y-66008676D01*
X67901875Y-66219140D01*
X68080860Y-66398125D01*
X68240001Y-66504460D01*
X68240001Y-67462668D01*
X68236324Y-67500000D01*
X68250998Y-67648985D01*
X68294454Y-67792246D01*
X68365026Y-67924276D01*
X68395368Y-67961247D01*
X68460000Y-68040001D01*
X68488998Y-68063799D01*
X68778895Y-68353696D01*
X68725179Y-68364381D01*
X68669377Y-68387495D01*
X68598125Y-68280860D01*
X68419140Y-68101875D01*
X68208676Y-67961247D01*
X68115762Y-67922761D01*
X68135619Y-67874821D01*
X68185000Y-67626561D01*
X68185000Y-67373439D01*
X68135619Y-67125179D01*
X68038753Y-66891324D01*
X67898125Y-66680860D01*
X67719140Y-66501875D01*
X67508676Y-66361247D01*
X67274821Y-66264381D01*
X67026561Y-66215000D01*
X66773439Y-66215000D01*
X66702390Y-66229132D01*
X66624277Y-66165027D01*
X66492248Y-66094455D01*
X66348987Y-66050998D01*
X66237334Y-66040001D01*
X66237323Y-66040001D01*
X66200001Y-66036325D01*
X66162679Y-66040001D01*
X58317322Y-66040001D01*
X58279999Y-66036325D01*
X58242676Y-66040001D01*
X58242666Y-66040001D01*
X58131013Y-66050998D01*
X57987752Y-66094455D01*
X57855722Y-66165027D01*
X57789786Y-66219140D01*
X57739998Y-66260000D01*
X57716200Y-66288998D01*
X57238843Y-66766355D01*
X57131486Y-66745000D01*
X56868514Y-66745000D01*
X56610595Y-66796304D01*
X56367641Y-66896939D01*
X56148987Y-67043038D01*
X55963038Y-67228987D01*
X55816939Y-67447641D01*
X55716304Y-67690595D01*
X55665000Y-67948514D01*
X55665000Y-68211486D01*
X55716304Y-68469405D01*
X55816939Y-68712359D01*
X55963038Y-68931013D01*
X56148987Y-69116962D01*
X56240000Y-69177775D01*
X56240001Y-71882668D01*
X56236324Y-71920000D01*
X56250998Y-72068985D01*
X56294454Y-72212246D01*
X56365026Y-72344276D01*
X56436201Y-72431002D01*
X56460000Y-72460001D01*
X56488998Y-72483799D01*
X59686355Y-75681157D01*
X59665000Y-75788514D01*
X59665000Y-76051486D01*
X59686355Y-76158843D01*
X59105199Y-76740000D01*
X58218043Y-76740000D01*
X58114637Y-76585241D01*
X57914759Y-76385363D01*
X57679727Y-76228320D01*
X57418574Y-76120147D01*
X57141335Y-76065000D01*
X56858665Y-76065000D01*
X56581426Y-76120147D01*
X56320273Y-76228320D01*
X56085241Y-76385363D01*
X55885363Y-76585241D01*
X55728320Y-76820273D01*
X55620147Y-77081426D01*
X55565000Y-77358665D01*
X52660000Y-77358665D01*
X52660000Y-45660000D01*
X54524985Y-45660000D01*
X54299227Y-45753512D01*
G37*
%TD.AperFunction*%
D21*
X59716304Y-67690595D02*
X59665000Y-67948514D01*
X59665000Y-68211486D01*
X59716304Y-68469405D01*
X59816939Y-68712359D01*
X59963038Y-68931013D01*
X60148987Y-69116962D01*
X60367641Y-69263061D01*
X60610595Y-69363696D01*
X60868514Y-69415000D01*
X61131486Y-69415000D01*
X61238843Y-69393645D01*
X61356205Y-69511008D01*
X61379999Y-69540001D01*
X61408992Y-69563795D01*
X61408996Y-69563799D01*
X61479685Y-69621811D01*
X61495724Y-69634974D01*
X61627753Y-69705546D01*
X61771014Y-69749003D01*
X61882667Y-69760000D01*
X61882676Y-69760000D01*
X61919999Y-69763676D01*
X61957322Y-69760000D01*
X66495541Y-69760000D01*
X66601875Y-69919140D01*
X66780860Y-70098125D01*
X66991324Y-70238753D01*
X67129296Y-70295903D01*
X64488998Y-72936201D01*
X64460000Y-72959999D01*
X64436202Y-72988997D01*
X64436201Y-72988998D01*
X64365026Y-73075724D01*
X64294454Y-73207754D01*
X64250998Y-73351015D01*
X64236324Y-73500000D01*
X64240001Y-73537332D01*
X64240000Y-74822225D01*
X64148987Y-74883038D01*
X63963038Y-75068987D01*
X63816939Y-75287641D01*
X63716304Y-75530595D01*
X63665000Y-75788514D01*
X63665000Y-76051486D01*
X63716304Y-76309405D01*
X63816939Y-76552359D01*
X63963038Y-76771013D01*
X64148987Y-76956962D01*
X64367641Y-77103061D01*
X64610595Y-77203696D01*
X64868514Y-77255000D01*
X65131486Y-77255000D01*
X65389405Y-77203696D01*
X65632359Y-77103061D01*
X65851013Y-76956962D01*
X66036962Y-76771013D01*
X66183061Y-76552359D01*
X66283696Y-76309405D01*
X66335000Y-76051486D01*
X66335000Y-75788514D01*
X66283696Y-75530595D01*
X66183061Y-75287641D01*
X66036962Y-75068987D01*
X65851013Y-74883038D01*
X65760000Y-74822225D01*
X65760000Y-73814801D01*
X68736859Y-70837942D01*
X68973439Y-70885000D01*
X69226561Y-70885000D01*
X69474821Y-70835619D01*
X69708676Y-70738753D01*
X69889990Y-70617602D01*
X69889991Y-73532658D01*
X69886314Y-73569990D01*
X69900988Y-73718975D01*
X69944444Y-73862236D01*
X70015016Y-73994266D01*
X70072081Y-74063799D01*
X70109990Y-74109991D01*
X70138988Y-74133789D01*
X71686355Y-75681157D01*
X71665000Y-75788514D01*
X71665000Y-76051486D01*
X71716304Y-76309405D01*
X71816939Y-76552359D01*
X71963038Y-76771013D01*
X72148987Y-76956962D01*
X72367641Y-77103061D01*
X72610595Y-77203696D01*
X72868514Y-77255000D01*
X73131486Y-77255000D01*
X73389405Y-77203696D01*
X73632359Y-77103061D01*
X73851013Y-76956962D01*
X74036962Y-76771013D01*
X74183061Y-76552359D01*
X74283696Y-76309405D01*
X74335000Y-76051486D01*
X74335000Y-75788514D01*
X74283696Y-75530595D01*
X74183061Y-75287641D01*
X74036962Y-75068987D01*
X73851013Y-74883038D01*
X73632359Y-74736939D01*
X73389405Y-74636304D01*
X73131486Y-74585000D01*
X72868514Y-74585000D01*
X72761157Y-74606355D01*
X71409990Y-73255189D01*
X71409990Y-71404791D01*
X75686355Y-75681157D01*
X75665000Y-75788514D01*
X75665000Y-76051486D01*
X75716304Y-76309405D01*
X75816939Y-76552359D01*
X75963038Y-76771013D01*
X76148987Y-76956962D01*
X76367641Y-77103061D01*
X76610595Y-77203696D01*
X76868514Y-77255000D01*
X77131486Y-77255000D01*
X77238843Y-77233645D01*
X78016205Y-78011008D01*
X78039999Y-78040001D01*
X78068992Y-78063795D01*
X78068996Y-78063799D01*
X78139685Y-78121811D01*
X78155724Y-78134974D01*
X78287753Y-78205546D01*
X78431014Y-78249003D01*
X78542667Y-78260000D01*
X78542676Y-78260000D01*
X78579999Y-78263676D01*
X78617322Y-78260000D01*
X79781957Y-78260000D01*
X79885363Y-78414759D01*
X80085241Y-78614637D01*
X80287827Y-78750000D01*
X80085241Y-78885363D01*
X79885363Y-79085241D01*
X79728320Y-79320273D01*
X79620147Y-79581426D01*
X79565000Y-79858665D01*
X79565000Y-80141335D01*
X79620147Y-80418574D01*
X79728320Y-80679727D01*
X79885363Y-80914759D01*
X80085241Y-81114637D01*
X80220310Y-81204887D01*
X77823886Y-83601312D01*
X77641335Y-83565000D01*
X77358665Y-83565000D01*
X77081426Y-83620147D01*
X76820273Y-83728320D01*
X76585241Y-83885363D01*
X76385363Y-84085241D01*
X76228320Y-84320273D01*
X76120147Y-84581426D01*
X76065000Y-84858665D01*
X76065000Y-85141335D01*
X76120147Y-85418574D01*
X76228320Y-85679727D01*
X76385363Y-85914759D01*
X76585241Y-86114637D01*
X76820273Y-86271680D01*
X77081426Y-86379853D01*
X77358665Y-86435000D01*
X77641335Y-86435000D01*
X77823886Y-86398688D01*
X78090000Y-86664802D01*
X78089999Y-91181928D01*
X76700000Y-91181928D01*
X76575518Y-91194188D01*
X76455820Y-91230498D01*
X76345506Y-91289463D01*
X76248815Y-91368815D01*
X76169463Y-91465506D01*
X76110498Y-91575820D01*
X76074188Y-91695518D01*
X76061928Y-91820000D01*
X76061928Y-91860000D01*
X62438072Y-91860000D01*
X62438072Y-91820000D01*
X62425812Y-91695518D01*
X62389502Y-91575820D01*
X62330537Y-91465506D01*
X62251185Y-91368815D01*
X62154494Y-91289463D01*
X62044180Y-91230498D01*
X61924482Y-91194188D01*
X61800000Y-91181928D01*
X60634999Y-91181928D01*
X60634999Y-86439802D01*
X60676113Y-86398688D01*
X60858665Y-86435000D01*
X61141335Y-86435000D01*
X61418574Y-86379853D01*
X61679727Y-86271680D01*
X61914759Y-86114637D01*
X62114637Y-85914759D01*
X62271680Y-85679727D01*
X62379853Y-85418574D01*
X62435000Y-85141335D01*
X62435000Y-84858665D01*
X62379853Y-84581426D01*
X62271680Y-84320273D01*
X62114637Y-84085241D01*
X61914759Y-83885363D01*
X61719934Y-83755186D01*
X61705546Y-83707753D01*
X61634974Y-83575724D01*
X61540001Y-83459999D01*
X61511004Y-83436202D01*
X58943316Y-80868514D01*
X63665000Y-80868514D01*
X63665000Y-81131486D01*
X63716304Y-81389405D01*
X63816939Y-81632359D01*
X63963038Y-81851013D01*
X64148987Y-82036962D01*
X64367641Y-82183061D01*
X64610595Y-82283696D01*
X64868514Y-82335000D01*
X65131486Y-82335000D01*
X65238844Y-82313645D01*
X66740001Y-83814803D01*
X66740000Y-85157713D01*
X66730820Y-85160498D01*
X66620506Y-85219463D01*
X66523815Y-85298815D01*
X66444463Y-85395506D01*
X66385498Y-85505820D01*
X66349188Y-85625518D01*
X66336928Y-85750000D01*
X66336928Y-87250000D01*
X66349188Y-87374482D01*
X66385498Y-87494180D01*
X66444463Y-87604494D01*
X66523815Y-87701185D01*
X66620506Y-87780537D01*
X66730820Y-87839502D01*
X66850518Y-87875812D01*
X66975000Y-87888072D01*
X68025000Y-87888072D01*
X68149482Y-87875812D01*
X68269180Y-87839502D01*
X68333902Y-87804907D01*
X68542601Y-87868215D01*
X68770000Y-87890612D01*
X68997400Y-87868215D01*
X69216060Y-87801885D01*
X69417579Y-87694171D01*
X69594212Y-87549212D01*
X69739171Y-87372579D01*
X69846885Y-87171059D01*
X69913215Y-86952399D01*
X69930000Y-86781978D01*
X69930000Y-86218021D01*
X69913215Y-86047600D01*
X69846885Y-85828940D01*
X69739171Y-85627421D01*
X69594212Y-85450788D01*
X69417578Y-85305829D01*
X69216059Y-85198115D01*
X68997399Y-85131785D01*
X68957042Y-85127810D01*
X72098439Y-81986414D01*
X72148987Y-82036962D01*
X72367641Y-82183061D01*
X72610595Y-82283696D01*
X72868514Y-82335000D01*
X73131486Y-82335000D01*
X73389405Y-82283696D01*
X73632359Y-82183061D01*
X73851013Y-82036962D01*
X74036962Y-81851013D01*
X74183061Y-81632359D01*
X74283696Y-81389405D01*
X74335000Y-81131486D01*
X74335000Y-80868514D01*
X74283696Y-80610595D01*
X74183061Y-80367641D01*
X74036962Y-80148987D01*
X73851013Y-79963038D01*
X73632359Y-79816939D01*
X73389405Y-79716304D01*
X73131486Y-79665000D01*
X72868514Y-79665000D01*
X72610595Y-79716304D01*
X72367641Y-79816939D01*
X72148987Y-79963038D01*
X71963038Y-80148987D01*
X71897260Y-80247432D01*
X71861065Y-80250997D01*
X71717804Y-80294454D01*
X71585775Y-80365026D01*
X71470050Y-80459999D01*
X71446252Y-80488997D01*
X68260000Y-83675250D01*
X68260000Y-83537323D01*
X68263676Y-83500000D01*
X68260000Y-83462677D01*
X68260000Y-83462667D01*
X68249003Y-83351014D01*
X68205546Y-83207753D01*
X68134974Y-83075723D01*
X68063799Y-82988997D01*
X68040001Y-82959999D01*
X68011003Y-82936201D01*
X66313645Y-81238844D01*
X66335000Y-81131486D01*
X66335000Y-80868514D01*
X67665000Y-80868514D01*
X67665000Y-81131486D01*
X67716304Y-81389405D01*
X67816939Y-81632359D01*
X67963038Y-81851013D01*
X68148987Y-82036962D01*
X68367641Y-82183061D01*
X68610595Y-82283696D01*
X68868514Y-82335000D01*
X69131486Y-82335000D01*
X69389405Y-82283696D01*
X69632359Y-82183061D01*
X69851013Y-82036962D01*
X70036962Y-81851013D01*
X70183061Y-81632359D01*
X70283696Y-81389405D01*
X70335000Y-81131486D01*
X70335000Y-80868514D01*
X70283696Y-80610595D01*
X70183061Y-80367641D01*
X70036962Y-80148987D01*
X69851013Y-79963038D01*
X69632359Y-79816939D01*
X69389405Y-79716304D01*
X69131486Y-79665000D01*
X68868514Y-79665000D01*
X68610595Y-79716304D01*
X68367641Y-79816939D01*
X68148987Y-79963038D01*
X67963038Y-80148987D01*
X67816939Y-80367641D01*
X67716304Y-80610595D01*
X67665000Y-80868514D01*
X66335000Y-80868514D01*
X66283696Y-80610595D01*
X66183061Y-80367641D01*
X66036962Y-80148987D01*
X65851013Y-79963038D01*
X65632359Y-79816939D01*
X65389405Y-79716304D01*
X65131486Y-79665000D01*
X64868514Y-79665000D01*
X64610595Y-79716304D01*
X64367641Y-79816939D01*
X64148987Y-79963038D01*
X63963038Y-80148987D01*
X63816939Y-80367641D01*
X63716304Y-80610595D01*
X63665000Y-80868514D01*
X58943316Y-80868514D01*
X58398688Y-80323887D01*
X58435000Y-80141335D01*
X58435000Y-79858665D01*
X58379853Y-79581426D01*
X58271680Y-79320273D01*
X58114637Y-79085241D01*
X57914759Y-78885363D01*
X57712173Y-78750000D01*
X57914759Y-78614637D01*
X58114637Y-78414759D01*
X58218043Y-78260000D01*
X59382678Y-78260000D01*
X59420000Y-78263676D01*
X59457322Y-78260000D01*
X59457333Y-78260000D01*
X59568986Y-78249003D01*
X59712247Y-78205546D01*
X59844276Y-78134974D01*
X59960001Y-78040001D01*
X59983803Y-78010998D01*
X60761157Y-77233645D01*
X60868514Y-77255000D01*
X61131486Y-77255000D01*
X61389405Y-77203696D01*
X61632359Y-77103061D01*
X61851013Y-76956962D01*
X62036962Y-76771013D01*
X62183061Y-76552359D01*
X62283696Y-76309405D01*
X62335000Y-76051486D01*
X62335000Y-75788514D01*
X62283696Y-75530595D01*
X62183061Y-75287641D01*
X62036962Y-75068987D01*
X61851013Y-74883038D01*
X61632359Y-74736939D01*
X61389405Y-74636304D01*
X61131486Y-74585000D01*
X60868514Y-74585000D01*
X60761157Y-74606355D01*
X57760000Y-71605199D01*
X57760000Y-69177775D01*
X57851013Y-69116962D01*
X58036962Y-68931013D01*
X58183061Y-68712359D01*
X58283696Y-68469405D01*
X58335000Y-68211486D01*
X58335000Y-67948514D01*
X58313645Y-67841157D01*
X58594801Y-67560001D01*
X59770398Y-67560001D01*
X59716304Y-67690595D01*
%TA.AperFunction,Conductor*%
D22*
G36*
X59716304Y-67690595D02*
G01*
X59665000Y-67948514D01*
X59665000Y-68211486D01*
X59716304Y-68469405D01*
X59816939Y-68712359D01*
X59963038Y-68931013D01*
X60148987Y-69116962D01*
X60367641Y-69263061D01*
X60610595Y-69363696D01*
X60868514Y-69415000D01*
X61131486Y-69415000D01*
X61238843Y-69393645D01*
X61356205Y-69511008D01*
X61379999Y-69540001D01*
X61408992Y-69563795D01*
X61408996Y-69563799D01*
X61479685Y-69621811D01*
X61495724Y-69634974D01*
X61627753Y-69705546D01*
X61771014Y-69749003D01*
X61882667Y-69760000D01*
X61882676Y-69760000D01*
X61919999Y-69763676D01*
X61957322Y-69760000D01*
X66495541Y-69760000D01*
X66601875Y-69919140D01*
X66780860Y-70098125D01*
X66991324Y-70238753D01*
X67129296Y-70295903D01*
X64488998Y-72936201D01*
X64460000Y-72959999D01*
X64436202Y-72988997D01*
X64436201Y-72988998D01*
X64365026Y-73075724D01*
X64294454Y-73207754D01*
X64250998Y-73351015D01*
X64236324Y-73500000D01*
X64240001Y-73537332D01*
X64240000Y-74822225D01*
X64148987Y-74883038D01*
X63963038Y-75068987D01*
X63816939Y-75287641D01*
X63716304Y-75530595D01*
X63665000Y-75788514D01*
X63665000Y-76051486D01*
X63716304Y-76309405D01*
X63816939Y-76552359D01*
X63963038Y-76771013D01*
X64148987Y-76956962D01*
X64367641Y-77103061D01*
X64610595Y-77203696D01*
X64868514Y-77255000D01*
X65131486Y-77255000D01*
X65389405Y-77203696D01*
X65632359Y-77103061D01*
X65851013Y-76956962D01*
X66036962Y-76771013D01*
X66183061Y-76552359D01*
X66283696Y-76309405D01*
X66335000Y-76051486D01*
X66335000Y-75788514D01*
X66283696Y-75530595D01*
X66183061Y-75287641D01*
X66036962Y-75068987D01*
X65851013Y-74883038D01*
X65760000Y-74822225D01*
X65760000Y-73814801D01*
X68736859Y-70837942D01*
X68973439Y-70885000D01*
X69226561Y-70885000D01*
X69474821Y-70835619D01*
X69708676Y-70738753D01*
X69889990Y-70617602D01*
X69889991Y-73532658D01*
X69886314Y-73569990D01*
X69900988Y-73718975D01*
X69944444Y-73862236D01*
X70015016Y-73994266D01*
X70072081Y-74063799D01*
X70109990Y-74109991D01*
X70138988Y-74133789D01*
X71686355Y-75681157D01*
X71665000Y-75788514D01*
X71665000Y-76051486D01*
X71716304Y-76309405D01*
X71816939Y-76552359D01*
X71963038Y-76771013D01*
X72148987Y-76956962D01*
X72367641Y-77103061D01*
X72610595Y-77203696D01*
X72868514Y-77255000D01*
X73131486Y-77255000D01*
X73389405Y-77203696D01*
X73632359Y-77103061D01*
X73851013Y-76956962D01*
X74036962Y-76771013D01*
X74183061Y-76552359D01*
X74283696Y-76309405D01*
X74335000Y-76051486D01*
X74335000Y-75788514D01*
X74283696Y-75530595D01*
X74183061Y-75287641D01*
X74036962Y-75068987D01*
X73851013Y-74883038D01*
X73632359Y-74736939D01*
X73389405Y-74636304D01*
X73131486Y-74585000D01*
X72868514Y-74585000D01*
X72761157Y-74606355D01*
X71409990Y-73255189D01*
X71409990Y-71404791D01*
X75686355Y-75681157D01*
X75665000Y-75788514D01*
X75665000Y-76051486D01*
X75716304Y-76309405D01*
X75816939Y-76552359D01*
X75963038Y-76771013D01*
X76148987Y-76956962D01*
X76367641Y-77103061D01*
X76610595Y-77203696D01*
X76868514Y-77255000D01*
X77131486Y-77255000D01*
X77238843Y-77233645D01*
X78016205Y-78011008D01*
X78039999Y-78040001D01*
X78068992Y-78063795D01*
X78068996Y-78063799D01*
X78139685Y-78121811D01*
X78155724Y-78134974D01*
X78287753Y-78205546D01*
X78431014Y-78249003D01*
X78542667Y-78260000D01*
X78542676Y-78260000D01*
X78579999Y-78263676D01*
X78617322Y-78260000D01*
X79781957Y-78260000D01*
X79885363Y-78414759D01*
X80085241Y-78614637D01*
X80287827Y-78750000D01*
X80085241Y-78885363D01*
X79885363Y-79085241D01*
X79728320Y-79320273D01*
X79620147Y-79581426D01*
X79565000Y-79858665D01*
X79565000Y-80141335D01*
X79620147Y-80418574D01*
X79728320Y-80679727D01*
X79885363Y-80914759D01*
X80085241Y-81114637D01*
X80220310Y-81204887D01*
X77823886Y-83601312D01*
X77641335Y-83565000D01*
X77358665Y-83565000D01*
X77081426Y-83620147D01*
X76820273Y-83728320D01*
X76585241Y-83885363D01*
X76385363Y-84085241D01*
X76228320Y-84320273D01*
X76120147Y-84581426D01*
X76065000Y-84858665D01*
X76065000Y-85141335D01*
X76120147Y-85418574D01*
X76228320Y-85679727D01*
X76385363Y-85914759D01*
X76585241Y-86114637D01*
X76820273Y-86271680D01*
X77081426Y-86379853D01*
X77358665Y-86435000D01*
X77641335Y-86435000D01*
X77823886Y-86398688D01*
X78090000Y-86664802D01*
X78089999Y-91181928D01*
X76700000Y-91181928D01*
X76575518Y-91194188D01*
X76455820Y-91230498D01*
X76345506Y-91289463D01*
X76248815Y-91368815D01*
X76169463Y-91465506D01*
X76110498Y-91575820D01*
X76074188Y-91695518D01*
X76061928Y-91820000D01*
X76061928Y-91860000D01*
X62438072Y-91860000D01*
X62438072Y-91820000D01*
X62425812Y-91695518D01*
X62389502Y-91575820D01*
X62330537Y-91465506D01*
X62251185Y-91368815D01*
X62154494Y-91289463D01*
X62044180Y-91230498D01*
X61924482Y-91194188D01*
X61800000Y-91181928D01*
X60634999Y-91181928D01*
X60634999Y-86439802D01*
X60676113Y-86398688D01*
X60858665Y-86435000D01*
X61141335Y-86435000D01*
X61418574Y-86379853D01*
X61679727Y-86271680D01*
X61914759Y-86114637D01*
X62114637Y-85914759D01*
X62271680Y-85679727D01*
X62379853Y-85418574D01*
X62435000Y-85141335D01*
X62435000Y-84858665D01*
X62379853Y-84581426D01*
X62271680Y-84320273D01*
X62114637Y-84085241D01*
X61914759Y-83885363D01*
X61719934Y-83755186D01*
X61705546Y-83707753D01*
X61634974Y-83575724D01*
X61540001Y-83459999D01*
X61511004Y-83436202D01*
X58943316Y-80868514D01*
X63665000Y-80868514D01*
X63665000Y-81131486D01*
X63716304Y-81389405D01*
X63816939Y-81632359D01*
X63963038Y-81851013D01*
X64148987Y-82036962D01*
X64367641Y-82183061D01*
X64610595Y-82283696D01*
X64868514Y-82335000D01*
X65131486Y-82335000D01*
X65238844Y-82313645D01*
X66740001Y-83814803D01*
X66740000Y-85157713D01*
X66730820Y-85160498D01*
X66620506Y-85219463D01*
X66523815Y-85298815D01*
X66444463Y-85395506D01*
X66385498Y-85505820D01*
X66349188Y-85625518D01*
X66336928Y-85750000D01*
X66336928Y-87250000D01*
X66349188Y-87374482D01*
X66385498Y-87494180D01*
X66444463Y-87604494D01*
X66523815Y-87701185D01*
X66620506Y-87780537D01*
X66730820Y-87839502D01*
X66850518Y-87875812D01*
X66975000Y-87888072D01*
X68025000Y-87888072D01*
X68149482Y-87875812D01*
X68269180Y-87839502D01*
X68333902Y-87804907D01*
X68542601Y-87868215D01*
X68770000Y-87890612D01*
X68997400Y-87868215D01*
X69216060Y-87801885D01*
X69417579Y-87694171D01*
X69594212Y-87549212D01*
X69739171Y-87372579D01*
X69846885Y-87171059D01*
X69913215Y-86952399D01*
X69930000Y-86781978D01*
X69930000Y-86218021D01*
X69913215Y-86047600D01*
X69846885Y-85828940D01*
X69739171Y-85627421D01*
X69594212Y-85450788D01*
X69417578Y-85305829D01*
X69216059Y-85198115D01*
X68997399Y-85131785D01*
X68957042Y-85127810D01*
X72098439Y-81986414D01*
X72148987Y-82036962D01*
X72367641Y-82183061D01*
X72610595Y-82283696D01*
X72868514Y-82335000D01*
X73131486Y-82335000D01*
X73389405Y-82283696D01*
X73632359Y-82183061D01*
X73851013Y-82036962D01*
X74036962Y-81851013D01*
X74183061Y-81632359D01*
X74283696Y-81389405D01*
X74335000Y-81131486D01*
X74335000Y-80868514D01*
X74283696Y-80610595D01*
X74183061Y-80367641D01*
X74036962Y-80148987D01*
X73851013Y-79963038D01*
X73632359Y-79816939D01*
X73389405Y-79716304D01*
X73131486Y-79665000D01*
X72868514Y-79665000D01*
X72610595Y-79716304D01*
X72367641Y-79816939D01*
X72148987Y-79963038D01*
X71963038Y-80148987D01*
X71897260Y-80247432D01*
X71861065Y-80250997D01*
X71717804Y-80294454D01*
X71585775Y-80365026D01*
X71470050Y-80459999D01*
X71446252Y-80488997D01*
X68260000Y-83675250D01*
X68260000Y-83537323D01*
X68263676Y-83500000D01*
X68260000Y-83462677D01*
X68260000Y-83462667D01*
X68249003Y-83351014D01*
X68205546Y-83207753D01*
X68134974Y-83075723D01*
X68063799Y-82988997D01*
X68040001Y-82959999D01*
X68011003Y-82936201D01*
X66313645Y-81238844D01*
X66335000Y-81131486D01*
X66335000Y-80868514D01*
X67665000Y-80868514D01*
X67665000Y-81131486D01*
X67716304Y-81389405D01*
X67816939Y-81632359D01*
X67963038Y-81851013D01*
X68148987Y-82036962D01*
X68367641Y-82183061D01*
X68610595Y-82283696D01*
X68868514Y-82335000D01*
X69131486Y-82335000D01*
X69389405Y-82283696D01*
X69632359Y-82183061D01*
X69851013Y-82036962D01*
X70036962Y-81851013D01*
X70183061Y-81632359D01*
X70283696Y-81389405D01*
X70335000Y-81131486D01*
X70335000Y-80868514D01*
X70283696Y-80610595D01*
X70183061Y-80367641D01*
X70036962Y-80148987D01*
X69851013Y-79963038D01*
X69632359Y-79816939D01*
X69389405Y-79716304D01*
X69131486Y-79665000D01*
X68868514Y-79665000D01*
X68610595Y-79716304D01*
X68367641Y-79816939D01*
X68148987Y-79963038D01*
X67963038Y-80148987D01*
X67816939Y-80367641D01*
X67716304Y-80610595D01*
X67665000Y-80868514D01*
X66335000Y-80868514D01*
X66283696Y-80610595D01*
X66183061Y-80367641D01*
X66036962Y-80148987D01*
X65851013Y-79963038D01*
X65632359Y-79816939D01*
X65389405Y-79716304D01*
X65131486Y-79665000D01*
X64868514Y-79665000D01*
X64610595Y-79716304D01*
X64367641Y-79816939D01*
X64148987Y-79963038D01*
X63963038Y-80148987D01*
X63816939Y-80367641D01*
X63716304Y-80610595D01*
X63665000Y-80868514D01*
X58943316Y-80868514D01*
X58398688Y-80323887D01*
X58435000Y-80141335D01*
X58435000Y-79858665D01*
X58379853Y-79581426D01*
X58271680Y-79320273D01*
X58114637Y-79085241D01*
X57914759Y-78885363D01*
X57712173Y-78750000D01*
X57914759Y-78614637D01*
X58114637Y-78414759D01*
X58218043Y-78260000D01*
X59382678Y-78260000D01*
X59420000Y-78263676D01*
X59457322Y-78260000D01*
X59457333Y-78260000D01*
X59568986Y-78249003D01*
X59712247Y-78205546D01*
X59844276Y-78134974D01*
X59960001Y-78040001D01*
X59983803Y-78010998D01*
X60761157Y-77233645D01*
X60868514Y-77255000D01*
X61131486Y-77255000D01*
X61389405Y-77203696D01*
X61632359Y-77103061D01*
X61851013Y-76956962D01*
X62036962Y-76771013D01*
X62183061Y-76552359D01*
X62283696Y-76309405D01*
X62335000Y-76051486D01*
X62335000Y-75788514D01*
X62283696Y-75530595D01*
X62183061Y-75287641D01*
X62036962Y-75068987D01*
X61851013Y-74883038D01*
X61632359Y-74736939D01*
X61389405Y-74636304D01*
X61131486Y-74585000D01*
X60868514Y-74585000D01*
X60761157Y-74606355D01*
X57760000Y-71605199D01*
X57760000Y-69177775D01*
X57851013Y-69116962D01*
X58036962Y-68931013D01*
X58183061Y-68712359D01*
X58283696Y-68469405D01*
X58335000Y-68211486D01*
X58335000Y-67948514D01*
X58313645Y-67841157D01*
X58594801Y-67560001D01*
X59770398Y-67560001D01*
X59716304Y-67690595D01*
G37*
%TD.AperFunction*%
D21*
X65615000Y-67626561D02*
X65664381Y-67874821D01*
X65761247Y-68108676D01*
X65848995Y-68240000D01*
X62329328Y-68240000D01*
X62335000Y-68211486D01*
X62335000Y-67948514D01*
X62283696Y-67690595D01*
X62229602Y-67560001D01*
X65615000Y-67560001D01*
X65615000Y-67626561D01*
%TA.AperFunction,Conductor*%
D22*
G36*
X65615000Y-67626561D02*
G01*
X65664381Y-67874821D01*
X65761247Y-68108676D01*
X65848995Y-68240000D01*
X62329328Y-68240000D01*
X62335000Y-68211486D01*
X62335000Y-67948514D01*
X62283696Y-67690595D01*
X62229602Y-67560001D01*
X65615000Y-67560001D01*
X65615000Y-67626561D01*
G37*
%TD.AperFunction*%
%TD*%
M02*
