%TF.GenerationSoftware,KiCad,Pcbnew,5.1.10*%
%TF.CreationDate,2021-05-18T18:53:45+02:00*%
%TF.ProjectId,piezo-jfet,7069657a-6f2d-46a6-9665-742e6b696361,rev?*%
%TF.SameCoordinates,Original*%
%TF.FileFunction,Copper,L1,Top*%
%TF.FilePolarity,Positive*%
%FSLAX46Y46*%
G04 Gerber Fmt 4.6, Leading zero omitted, Abs format (unit mm)*
G04 Created by KiCad (PCBNEW 5.1.10) date 2021-05-18 18:53:45*
%MOMM*%
%LPD*%
G01*
G04 APERTURE LIST*
%TA.AperFunction,ComponentPad*%
%ADD10C,1.400000*%
%TD*%
%TA.AperFunction,ComponentPad*%
%ADD11O,1.400000X1.400000*%
%TD*%
%TA.AperFunction,ComponentPad*%
%ADD12C,1.600000*%
%TD*%
%TA.AperFunction,ComponentPad*%
%ADD13R,1.600000X1.600000*%
%TD*%
%TA.AperFunction,ComponentPad*%
%ADD14O,1.600000X1.600000*%
%TD*%
%TA.AperFunction,ComponentPad*%
%ADD15O,1.700000X1.700000*%
%TD*%
%TA.AperFunction,ComponentPad*%
%ADD16R,1.700000X1.700000*%
%TD*%
%TA.AperFunction,ComponentPad*%
%ADD17O,1.050000X1.500000*%
%TD*%
%TA.AperFunction,ComponentPad*%
%ADD18R,1.050000X1.500000*%
%TD*%
%TA.AperFunction,ComponentPad*%
%ADD19C,3.800000*%
%TD*%
%TA.AperFunction,ViaPad*%
%ADD20C,0.800000*%
%TD*%
%TA.AperFunction,Conductor*%
%ADD21C,0.250000*%
%TD*%
%TA.AperFunction,Conductor*%
%ADD22C,0.254000*%
%TD*%
%TA.AperFunction,Conductor*%
%ADD23C,0.100000*%
%TD*%
G04 APERTURE END LIST*
D10*
%TO.P,R5,1*%
%TO.N,Net-(J1-Pad3)*%
X77500000Y-72500000D03*
D11*
%TO.P,R5,2*%
%TO.N,Net-(C2-Pad1)*%
X72420000Y-72500000D03*
%TD*%
D10*
%TO.P,Q2,1*%
%TO.N,Net-(Q2-Pad1)*%
X69000000Y-83500000D03*
%TO.P,Q2,2*%
%TO.N,Net-(Q2-Pad2)*%
X67500000Y-83000000D03*
%TO.P,Q2,3*%
%TO.N,Net-(C1-Pad1)*%
X66900000Y-81500000D03*
%TO.P,Q2,4*%
%TO.N,Net-(Q2-Pad4)*%
X69000000Y-79400000D03*
%TO.P,Q2,5*%
%TO.N,Net-(Q2-Pad5)*%
X70500000Y-80000000D03*
%TO.P,Q2,6*%
%TO.N,Net-(C3-Pad2)*%
X71100000Y-81400000D03*
%TD*%
D12*
%TO.P,C1,2*%
%TO.N,Net-(C1-Pad2)*%
X57000000Y-94000000D03*
%TO.P,C1,1*%
%TO.N,Net-(C1-Pad1)*%
X57000000Y-91500000D03*
%TD*%
%TO.P,C2,1*%
%TO.N,Net-(C2-Pad1)*%
X62500000Y-72500000D03*
%TO.P,C2,2*%
%TO.N,Net-(C2-Pad2)*%
X60000000Y-72500000D03*
%TD*%
%TO.P,C3,1*%
%TO.N,Net-(C3-Pad1)*%
X81000000Y-94000000D03*
%TO.P,C3,2*%
%TO.N,Net-(C3-Pad2)*%
X81000000Y-91500000D03*
%TD*%
D13*
%TO.P,D1,1*%
%TO.N,Net-(D1-Pad1)*%
X60500000Y-106120000D03*
D14*
%TO.P,D1,2*%
%TO.N,Net-(C1-Pad2)*%
X60500000Y-98500000D03*
%TD*%
%TO.P,D2,2*%
%TO.N,Net-(C3-Pad1)*%
X77000000Y-98500000D03*
D13*
%TO.P,D2,1*%
%TO.N,Net-(D1-Pad1)*%
X77000000Y-106120000D03*
%TD*%
D10*
%TO.P,R1,1*%
%TO.N,Net-(C1-Pad1)*%
X57000000Y-82080000D03*
D11*
%TO.P,R1,2*%
%TO.N,Net-(C2-Pad2)*%
X57000000Y-77000000D03*
%TD*%
%TO.P,R2,2*%
%TO.N,Net-(C1-Pad1)*%
X61000000Y-89920000D03*
D10*
%TO.P,R2,1*%
%TO.N,GND*%
X61000000Y-95000000D03*
%TD*%
D11*
%TO.P,R3,2*%
%TO.N,Net-(C2-Pad2)*%
X61000000Y-77000000D03*
D10*
%TO.P,R3,1*%
%TO.N,Net-(Q2-Pad2)*%
X61000000Y-82080000D03*
%TD*%
D11*
%TO.P,R4,2*%
%TO.N,Net-(Q2-Pad1)*%
X65000000Y-89920000D03*
D10*
%TO.P,R4,1*%
%TO.N,Net-(Q1-Pad1)*%
X65000000Y-95000000D03*
%TD*%
%TO.P,R7,1*%
%TO.N,Net-(Q2-Pad5)*%
X77500000Y-82000000D03*
D11*
%TO.P,R7,2*%
%TO.N,Net-(J1-Pad3)*%
X77500000Y-76920000D03*
%TD*%
D10*
%TO.P,R8,1*%
%TO.N,Net-(Q1-Pad1)*%
X73000000Y-95000000D03*
D11*
%TO.P,R8,2*%
%TO.N,Net-(Q2-Pad4)*%
X73000000Y-89920000D03*
%TD*%
%TO.P,R9,2*%
%TO.N,Net-(J1-Pad3)*%
X81500000Y-76920000D03*
D10*
%TO.P,R9,1*%
%TO.N,Net-(C3-Pad2)*%
X81500000Y-82000000D03*
%TD*%
%TO.P,R10,1*%
%TO.N,GND*%
X77000000Y-95000000D03*
D11*
%TO.P,R10,2*%
%TO.N,Net-(C3-Pad2)*%
X77000000Y-89920000D03*
%TD*%
D15*
%TO.P,X1,2*%
%TO.N,GND*%
X63000000Y-109500000D03*
D16*
%TO.P,X1,1*%
%TO.N,Net-(C1-Pad2)*%
X60460000Y-109500000D03*
%TD*%
%TO.P,X2,1*%
%TO.N,GND*%
X75460000Y-109500000D03*
D15*
%TO.P,X2,2*%
%TO.N,Net-(C3-Pad1)*%
X78000000Y-109500000D03*
%TD*%
D16*
%TO.P,J1,1*%
%TO.N,GND*%
X66000000Y-49000000D03*
D15*
%TO.P,J1,2*%
%TO.N,Net-(C2-Pad2)*%
X68540000Y-49000000D03*
%TO.P,J1,3*%
%TO.N,Net-(J1-Pad3)*%
X71080000Y-49000000D03*
%TD*%
D17*
%TO.P,Q1,2*%
%TO.N,Net-(Q1-Pad2)*%
X68770000Y-100500000D03*
%TO.P,Q1,3*%
%TO.N,GND*%
X70040000Y-100500000D03*
D18*
%TO.P,Q1,1*%
%TO.N,Net-(Q1-Pad1)*%
X67500000Y-100500000D03*
%TD*%
D10*
%TO.P,R12,1*%
%TO.N,Net-(Q1-Pad2)*%
X69000000Y-95000000D03*
D11*
%TO.P,R12,2*%
%TO.N,GND*%
X69000000Y-89920000D03*
%TD*%
D19*
%TO.P,J2,1*%
%TO.N,Net-(J2-Pad1)*%
X55500000Y-48000000D03*
%TD*%
%TO.P,J3,1*%
%TO.N,Net-(J3-Pad1)*%
X55000000Y-110000000D03*
%TD*%
%TO.P,J4,1*%
%TO.N,Net-(J4-Pad1)*%
X83000000Y-48000000D03*
%TD*%
%TO.P,J5,1*%
%TO.N,Net-(J5-Pad1)*%
X83000000Y-110000000D03*
%TD*%
%TO.P,J6,1*%
%TO.N,GND*%
X69000000Y-109000000D03*
%TD*%
D20*
%TO.N,GND*%
X64000000Y-82000000D03*
%TD*%
D21*
%TO.N,Net-(Q1-Pad2)*%
X68770000Y-95230000D02*
X69000000Y-95000000D01*
X68770000Y-100500000D02*
X68770000Y-95230000D01*
%TD*%
D22*
%TO.N,GND*%
X54299227Y-45753512D02*
X53884032Y-46030937D01*
X53530937Y-46384032D01*
X53253512Y-46799227D01*
X53062418Y-47260568D01*
X52965000Y-47750324D01*
X52965000Y-48249676D01*
X53062418Y-48739432D01*
X53253512Y-49200773D01*
X53530937Y-49615968D01*
X53884032Y-49969063D01*
X54299227Y-50246488D01*
X54760568Y-50437582D01*
X55250324Y-50535000D01*
X55749676Y-50535000D01*
X56239432Y-50437582D01*
X56700773Y-50246488D01*
X57115968Y-49969063D01*
X57469063Y-49615968D01*
X57746488Y-49200773D01*
X57890234Y-48853740D01*
X67055000Y-48853740D01*
X67055000Y-49146260D01*
X67112068Y-49433158D01*
X67224010Y-49703411D01*
X67386525Y-49946632D01*
X67593368Y-50153475D01*
X67836589Y-50315990D01*
X68106842Y-50427932D01*
X68393740Y-50485000D01*
X68686260Y-50485000D01*
X68973158Y-50427932D01*
X69243411Y-50315990D01*
X69486632Y-50153475D01*
X69693475Y-49946632D01*
X69810000Y-49772240D01*
X69926525Y-49946632D01*
X70133368Y-50153475D01*
X70376589Y-50315990D01*
X70646842Y-50427932D01*
X70933740Y-50485000D01*
X71226260Y-50485000D01*
X71513158Y-50427932D01*
X71783411Y-50315990D01*
X72026632Y-50153475D01*
X72233475Y-49946632D01*
X72395990Y-49703411D01*
X72507932Y-49433158D01*
X72565000Y-49146260D01*
X72565000Y-48853740D01*
X72507932Y-48566842D01*
X72395990Y-48296589D01*
X72233475Y-48053368D01*
X72026632Y-47846525D01*
X71783411Y-47684010D01*
X71513158Y-47572068D01*
X71226260Y-47515000D01*
X70933740Y-47515000D01*
X70646842Y-47572068D01*
X70376589Y-47684010D01*
X70133368Y-47846525D01*
X69926525Y-48053368D01*
X69810000Y-48227760D01*
X69693475Y-48053368D01*
X69486632Y-47846525D01*
X69243411Y-47684010D01*
X68973158Y-47572068D01*
X68686260Y-47515000D01*
X68393740Y-47515000D01*
X68106842Y-47572068D01*
X67836589Y-47684010D01*
X67593368Y-47846525D01*
X67386525Y-48053368D01*
X67224010Y-48296589D01*
X67112068Y-48566842D01*
X67055000Y-48853740D01*
X57890234Y-48853740D01*
X57937582Y-48739432D01*
X58035000Y-48249676D01*
X58035000Y-47750324D01*
X57937582Y-47260568D01*
X57746488Y-46799227D01*
X57469063Y-46384032D01*
X57115968Y-46030937D01*
X56700773Y-45753512D01*
X56475015Y-45660000D01*
X82024985Y-45660000D01*
X81799227Y-45753512D01*
X81384032Y-46030937D01*
X81030937Y-46384032D01*
X80753512Y-46799227D01*
X80562418Y-47260568D01*
X80465000Y-47750324D01*
X80465000Y-48249676D01*
X80562418Y-48739432D01*
X80753512Y-49200773D01*
X81030937Y-49615968D01*
X81384032Y-49969063D01*
X81799227Y-50246488D01*
X82260568Y-50437582D01*
X82750324Y-50535000D01*
X83249676Y-50535000D01*
X83739432Y-50437582D01*
X84200773Y-50246488D01*
X84615968Y-49969063D01*
X84969063Y-49615968D01*
X85246488Y-49200773D01*
X85340001Y-48975013D01*
X85340000Y-109024985D01*
X85246488Y-108799227D01*
X84969063Y-108384032D01*
X84615968Y-108030937D01*
X84200773Y-107753512D01*
X83739432Y-107562418D01*
X83249676Y-107465000D01*
X82750324Y-107465000D01*
X82260568Y-107562418D01*
X81799227Y-107753512D01*
X81384032Y-108030937D01*
X81030937Y-108384032D01*
X80753512Y-108799227D01*
X80562418Y-109260568D01*
X80465000Y-109750324D01*
X80465000Y-110249676D01*
X80562418Y-110739432D01*
X80753512Y-111200773D01*
X81030937Y-111615968D01*
X81384032Y-111969063D01*
X81799227Y-112246488D01*
X82024985Y-112340000D01*
X55975015Y-112340000D01*
X56200773Y-112246488D01*
X56615968Y-111969063D01*
X56969063Y-111615968D01*
X57246488Y-111200773D01*
X57437582Y-110739432D01*
X57535000Y-110249676D01*
X57535000Y-109750324D01*
X57437582Y-109260568D01*
X57246488Y-108799227D01*
X57146778Y-108650000D01*
X58971928Y-108650000D01*
X58971928Y-110350000D01*
X58984188Y-110474482D01*
X59020498Y-110594180D01*
X59079463Y-110704494D01*
X59158815Y-110801185D01*
X59255506Y-110880537D01*
X59365820Y-110939502D01*
X59485518Y-110975812D01*
X59610000Y-110988072D01*
X61310000Y-110988072D01*
X61434482Y-110975812D01*
X61554180Y-110939502D01*
X61664494Y-110880537D01*
X61761185Y-110801185D01*
X61840537Y-110704494D01*
X61899502Y-110594180D01*
X61935812Y-110474482D01*
X61948072Y-110350000D01*
X61948072Y-109353740D01*
X76515000Y-109353740D01*
X76515000Y-109646260D01*
X76572068Y-109933158D01*
X76684010Y-110203411D01*
X76846525Y-110446632D01*
X77053368Y-110653475D01*
X77296589Y-110815990D01*
X77566842Y-110927932D01*
X77853740Y-110985000D01*
X78146260Y-110985000D01*
X78433158Y-110927932D01*
X78703411Y-110815990D01*
X78946632Y-110653475D01*
X79153475Y-110446632D01*
X79315990Y-110203411D01*
X79427932Y-109933158D01*
X79485000Y-109646260D01*
X79485000Y-109353740D01*
X79427932Y-109066842D01*
X79315990Y-108796589D01*
X79153475Y-108553368D01*
X78946632Y-108346525D01*
X78703411Y-108184010D01*
X78433158Y-108072068D01*
X78146260Y-108015000D01*
X77853740Y-108015000D01*
X77566842Y-108072068D01*
X77296589Y-108184010D01*
X77053368Y-108346525D01*
X76846525Y-108553368D01*
X76684010Y-108796589D01*
X76572068Y-109066842D01*
X76515000Y-109353740D01*
X61948072Y-109353740D01*
X61948072Y-108650000D01*
X61935812Y-108525518D01*
X61899502Y-108405820D01*
X61840537Y-108295506D01*
X61761185Y-108198815D01*
X61664494Y-108119463D01*
X61554180Y-108060498D01*
X61434482Y-108024188D01*
X61310000Y-108011928D01*
X59610000Y-108011928D01*
X59485518Y-108024188D01*
X59365820Y-108060498D01*
X59255506Y-108119463D01*
X59158815Y-108198815D01*
X59079463Y-108295506D01*
X59020498Y-108405820D01*
X58984188Y-108525518D01*
X58971928Y-108650000D01*
X57146778Y-108650000D01*
X56969063Y-108384032D01*
X56615968Y-108030937D01*
X56200773Y-107753512D01*
X55739432Y-107562418D01*
X55249676Y-107465000D01*
X54750324Y-107465000D01*
X54260568Y-107562418D01*
X53799227Y-107753512D01*
X53384032Y-108030937D01*
X53030937Y-108384032D01*
X52753512Y-108799227D01*
X52660000Y-109024985D01*
X52660000Y-105320000D01*
X59061928Y-105320000D01*
X59061928Y-106920000D01*
X59074188Y-107044482D01*
X59110498Y-107164180D01*
X59169463Y-107274494D01*
X59248815Y-107371185D01*
X59345506Y-107450537D01*
X59455820Y-107509502D01*
X59575518Y-107545812D01*
X59700000Y-107558072D01*
X61300000Y-107558072D01*
X61424482Y-107545812D01*
X61544180Y-107509502D01*
X61654494Y-107450537D01*
X61751185Y-107371185D01*
X61830537Y-107274494D01*
X61889502Y-107164180D01*
X61925812Y-107044482D01*
X61938072Y-106920000D01*
X61938072Y-105320000D01*
X75561928Y-105320000D01*
X75561928Y-106920000D01*
X75574188Y-107044482D01*
X75610498Y-107164180D01*
X75669463Y-107274494D01*
X75748815Y-107371185D01*
X75845506Y-107450537D01*
X75955820Y-107509502D01*
X76075518Y-107545812D01*
X76200000Y-107558072D01*
X77800000Y-107558072D01*
X77924482Y-107545812D01*
X78044180Y-107509502D01*
X78154494Y-107450537D01*
X78251185Y-107371185D01*
X78330537Y-107274494D01*
X78389502Y-107164180D01*
X78425812Y-107044482D01*
X78438072Y-106920000D01*
X78438072Y-105320000D01*
X78425812Y-105195518D01*
X78389502Y-105075820D01*
X78330537Y-104965506D01*
X78251185Y-104868815D01*
X78154494Y-104789463D01*
X78044180Y-104730498D01*
X77924482Y-104694188D01*
X77800000Y-104681928D01*
X76200000Y-104681928D01*
X76075518Y-104694188D01*
X75955820Y-104730498D01*
X75845506Y-104789463D01*
X75748815Y-104868815D01*
X75669463Y-104965506D01*
X75610498Y-105075820D01*
X75574188Y-105195518D01*
X75561928Y-105320000D01*
X61938072Y-105320000D01*
X61925812Y-105195518D01*
X61889502Y-105075820D01*
X61830537Y-104965506D01*
X61751185Y-104868815D01*
X61654494Y-104789463D01*
X61544180Y-104730498D01*
X61424482Y-104694188D01*
X61300000Y-104681928D01*
X59700000Y-104681928D01*
X59575518Y-104694188D01*
X59455820Y-104730498D01*
X59345506Y-104789463D01*
X59248815Y-104868815D01*
X59169463Y-104965506D01*
X59110498Y-105075820D01*
X59074188Y-105195518D01*
X59061928Y-105320000D01*
X52660000Y-105320000D01*
X52660000Y-98358665D01*
X59065000Y-98358665D01*
X59065000Y-98641335D01*
X59120147Y-98918574D01*
X59228320Y-99179727D01*
X59385363Y-99414759D01*
X59585241Y-99614637D01*
X59820273Y-99771680D01*
X60081426Y-99879853D01*
X60358665Y-99935000D01*
X60641335Y-99935000D01*
X60918574Y-99879853D01*
X61179727Y-99771680D01*
X61212173Y-99750000D01*
X66336928Y-99750000D01*
X66336928Y-101250000D01*
X66349188Y-101374482D01*
X66385498Y-101494180D01*
X66444463Y-101604494D01*
X66523815Y-101701185D01*
X66620506Y-101780537D01*
X66730820Y-101839502D01*
X66850518Y-101875812D01*
X66975000Y-101888072D01*
X68025000Y-101888072D01*
X68149482Y-101875812D01*
X68269180Y-101839502D01*
X68333902Y-101804907D01*
X68542601Y-101868215D01*
X68770000Y-101890612D01*
X68997400Y-101868215D01*
X69216060Y-101801885D01*
X69417579Y-101694171D01*
X69594212Y-101549212D01*
X69739171Y-101372579D01*
X69846885Y-101171059D01*
X69913215Y-100952399D01*
X69930000Y-100781978D01*
X69930000Y-100218021D01*
X69913215Y-100047600D01*
X69846885Y-99828940D01*
X69739171Y-99627421D01*
X69594212Y-99450788D01*
X69530000Y-99398091D01*
X69530000Y-98358665D01*
X75565000Y-98358665D01*
X75565000Y-98641335D01*
X75620147Y-98918574D01*
X75728320Y-99179727D01*
X75885363Y-99414759D01*
X76085241Y-99614637D01*
X76320273Y-99771680D01*
X76581426Y-99879853D01*
X76858665Y-99935000D01*
X77141335Y-99935000D01*
X77418574Y-99879853D01*
X77679727Y-99771680D01*
X77914759Y-99614637D01*
X78114637Y-99414759D01*
X78271680Y-99179727D01*
X78379853Y-98918574D01*
X78435000Y-98641335D01*
X78435000Y-98358665D01*
X78379853Y-98081426D01*
X78271680Y-97820273D01*
X78114637Y-97585241D01*
X77914759Y-97385363D01*
X77679727Y-97228320D01*
X77418574Y-97120147D01*
X77141335Y-97065000D01*
X76858665Y-97065000D01*
X76581426Y-97120147D01*
X76320273Y-97228320D01*
X76085241Y-97385363D01*
X75885363Y-97585241D01*
X75728320Y-97820273D01*
X75620147Y-98081426D01*
X75565000Y-98358665D01*
X69530000Y-98358665D01*
X69530000Y-96225460D01*
X69632359Y-96183061D01*
X69851013Y-96036962D01*
X70036962Y-95851013D01*
X70183061Y-95632359D01*
X70283696Y-95389405D01*
X70335000Y-95131486D01*
X70335000Y-94868514D01*
X71665000Y-94868514D01*
X71665000Y-95131486D01*
X71716304Y-95389405D01*
X71816939Y-95632359D01*
X71963038Y-95851013D01*
X72148987Y-96036962D01*
X72367641Y-96183061D01*
X72610595Y-96283696D01*
X72868514Y-96335000D01*
X73131486Y-96335000D01*
X73389405Y-96283696D01*
X73632359Y-96183061D01*
X73851013Y-96036962D01*
X74036962Y-95851013D01*
X74183061Y-95632359D01*
X74283696Y-95389405D01*
X74335000Y-95131486D01*
X74335000Y-94868514D01*
X74283696Y-94610595D01*
X74183061Y-94367641D01*
X74036962Y-94148987D01*
X73851013Y-93963038D01*
X73632359Y-93816939D01*
X73389405Y-93716304D01*
X73131486Y-93665000D01*
X72868514Y-93665000D01*
X72610595Y-93716304D01*
X72367641Y-93816939D01*
X72148987Y-93963038D01*
X71963038Y-94148987D01*
X71816939Y-94367641D01*
X71716304Y-94610595D01*
X71665000Y-94868514D01*
X70335000Y-94868514D01*
X70283696Y-94610595D01*
X70183061Y-94367641D01*
X70036962Y-94148987D01*
X69851013Y-93963038D01*
X69632359Y-93816939D01*
X69389405Y-93716304D01*
X69131486Y-93665000D01*
X68868514Y-93665000D01*
X68610595Y-93716304D01*
X68367641Y-93816939D01*
X68148987Y-93963038D01*
X67963038Y-94148987D01*
X67816939Y-94367641D01*
X67716304Y-94610595D01*
X67665000Y-94868514D01*
X67665000Y-95131486D01*
X67716304Y-95389405D01*
X67816939Y-95632359D01*
X67963038Y-95851013D01*
X68010001Y-95897976D01*
X68010000Y-99111928D01*
X66975000Y-99111928D01*
X66850518Y-99124188D01*
X66730820Y-99160498D01*
X66620506Y-99219463D01*
X66523815Y-99298815D01*
X66444463Y-99395506D01*
X66385498Y-99505820D01*
X66349188Y-99625518D01*
X66336928Y-99750000D01*
X61212173Y-99750000D01*
X61414759Y-99614637D01*
X61614637Y-99414759D01*
X61771680Y-99179727D01*
X61879853Y-98918574D01*
X61935000Y-98641335D01*
X61935000Y-98358665D01*
X61879853Y-98081426D01*
X61771680Y-97820273D01*
X61614637Y-97585241D01*
X61414759Y-97385363D01*
X61179727Y-97228320D01*
X60918574Y-97120147D01*
X60641335Y-97065000D01*
X60358665Y-97065000D01*
X60081426Y-97120147D01*
X59820273Y-97228320D01*
X59585241Y-97385363D01*
X59385363Y-97585241D01*
X59228320Y-97820273D01*
X59120147Y-98081426D01*
X59065000Y-98358665D01*
X52660000Y-98358665D01*
X52660000Y-91358665D01*
X55565000Y-91358665D01*
X55565000Y-91641335D01*
X55620147Y-91918574D01*
X55728320Y-92179727D01*
X55885363Y-92414759D01*
X56085241Y-92614637D01*
X56287827Y-92750000D01*
X56085241Y-92885363D01*
X55885363Y-93085241D01*
X55728320Y-93320273D01*
X55620147Y-93581426D01*
X55565000Y-93858665D01*
X55565000Y-94141335D01*
X55620147Y-94418574D01*
X55728320Y-94679727D01*
X55885363Y-94914759D01*
X56085241Y-95114637D01*
X56320273Y-95271680D01*
X56581426Y-95379853D01*
X56858665Y-95435000D01*
X57141335Y-95435000D01*
X57418574Y-95379853D01*
X57679727Y-95271680D01*
X57914759Y-95114637D01*
X58114637Y-94914759D01*
X58145536Y-94868514D01*
X63665000Y-94868514D01*
X63665000Y-95131486D01*
X63716304Y-95389405D01*
X63816939Y-95632359D01*
X63963038Y-95851013D01*
X64148987Y-96036962D01*
X64367641Y-96183061D01*
X64610595Y-96283696D01*
X64868514Y-96335000D01*
X65131486Y-96335000D01*
X65389405Y-96283696D01*
X65632359Y-96183061D01*
X65851013Y-96036962D01*
X66036962Y-95851013D01*
X66183061Y-95632359D01*
X66283696Y-95389405D01*
X66335000Y-95131486D01*
X66335000Y-94868514D01*
X66283696Y-94610595D01*
X66183061Y-94367641D01*
X66036962Y-94148987D01*
X65851013Y-93963038D01*
X65632359Y-93816939D01*
X65389405Y-93716304D01*
X65131486Y-93665000D01*
X64868514Y-93665000D01*
X64610595Y-93716304D01*
X64367641Y-93816939D01*
X64148987Y-93963038D01*
X63963038Y-94148987D01*
X63816939Y-94367641D01*
X63716304Y-94610595D01*
X63665000Y-94868514D01*
X58145536Y-94868514D01*
X58271680Y-94679727D01*
X58379853Y-94418574D01*
X58435000Y-94141335D01*
X58435000Y-93858665D01*
X58379853Y-93581426D01*
X58271680Y-93320273D01*
X58114637Y-93085241D01*
X57914759Y-92885363D01*
X57712173Y-92750000D01*
X57914759Y-92614637D01*
X58114637Y-92414759D01*
X58271680Y-92179727D01*
X58379853Y-91918574D01*
X58435000Y-91641335D01*
X58435000Y-91358665D01*
X79565000Y-91358665D01*
X79565000Y-91641335D01*
X79620147Y-91918574D01*
X79728320Y-92179727D01*
X79885363Y-92414759D01*
X80085241Y-92614637D01*
X80287827Y-92750000D01*
X80085241Y-92885363D01*
X79885363Y-93085241D01*
X79728320Y-93320273D01*
X79620147Y-93581426D01*
X79565000Y-93858665D01*
X79565000Y-94141335D01*
X79620147Y-94418574D01*
X79728320Y-94679727D01*
X79885363Y-94914759D01*
X80085241Y-95114637D01*
X80320273Y-95271680D01*
X80581426Y-95379853D01*
X80858665Y-95435000D01*
X81141335Y-95435000D01*
X81418574Y-95379853D01*
X81679727Y-95271680D01*
X81914759Y-95114637D01*
X82114637Y-94914759D01*
X82271680Y-94679727D01*
X82379853Y-94418574D01*
X82435000Y-94141335D01*
X82435000Y-93858665D01*
X82379853Y-93581426D01*
X82271680Y-93320273D01*
X82114637Y-93085241D01*
X81914759Y-92885363D01*
X81712173Y-92750000D01*
X81914759Y-92614637D01*
X82114637Y-92414759D01*
X82271680Y-92179727D01*
X82379853Y-91918574D01*
X82435000Y-91641335D01*
X82435000Y-91358665D01*
X82379853Y-91081426D01*
X82271680Y-90820273D01*
X82114637Y-90585241D01*
X81914759Y-90385363D01*
X81679727Y-90228320D01*
X81418574Y-90120147D01*
X81141335Y-90065000D01*
X80858665Y-90065000D01*
X80581426Y-90120147D01*
X80320273Y-90228320D01*
X80085241Y-90385363D01*
X79885363Y-90585241D01*
X79728320Y-90820273D01*
X79620147Y-91081426D01*
X79565000Y-91358665D01*
X58435000Y-91358665D01*
X58379853Y-91081426D01*
X58271680Y-90820273D01*
X58114637Y-90585241D01*
X57914759Y-90385363D01*
X57679727Y-90228320D01*
X57418574Y-90120147D01*
X57141335Y-90065000D01*
X56858665Y-90065000D01*
X56581426Y-90120147D01*
X56320273Y-90228320D01*
X56085241Y-90385363D01*
X55885363Y-90585241D01*
X55728320Y-90820273D01*
X55620147Y-91081426D01*
X55565000Y-91358665D01*
X52660000Y-91358665D01*
X52660000Y-89788514D01*
X59665000Y-89788514D01*
X59665000Y-90051486D01*
X59716304Y-90309405D01*
X59816939Y-90552359D01*
X59963038Y-90771013D01*
X60148987Y-90956962D01*
X60367641Y-91103061D01*
X60610595Y-91203696D01*
X60868514Y-91255000D01*
X61131486Y-91255000D01*
X61389405Y-91203696D01*
X61632359Y-91103061D01*
X61851013Y-90956962D01*
X62036962Y-90771013D01*
X62183061Y-90552359D01*
X62283696Y-90309405D01*
X62335000Y-90051486D01*
X62335000Y-89788514D01*
X63665000Y-89788514D01*
X63665000Y-90051486D01*
X63716304Y-90309405D01*
X63816939Y-90552359D01*
X63963038Y-90771013D01*
X64148987Y-90956962D01*
X64367641Y-91103061D01*
X64610595Y-91203696D01*
X64868514Y-91255000D01*
X65131486Y-91255000D01*
X65389405Y-91203696D01*
X65632359Y-91103061D01*
X65851013Y-90956962D01*
X66036962Y-90771013D01*
X66183061Y-90552359D01*
X66283696Y-90309405D01*
X66335000Y-90051486D01*
X66335000Y-89788514D01*
X71665000Y-89788514D01*
X71665000Y-90051486D01*
X71716304Y-90309405D01*
X71816939Y-90552359D01*
X71963038Y-90771013D01*
X72148987Y-90956962D01*
X72367641Y-91103061D01*
X72610595Y-91203696D01*
X72868514Y-91255000D01*
X73131486Y-91255000D01*
X73389405Y-91203696D01*
X73632359Y-91103061D01*
X73851013Y-90956962D01*
X74036962Y-90771013D01*
X74183061Y-90552359D01*
X74283696Y-90309405D01*
X74335000Y-90051486D01*
X74335000Y-89788514D01*
X75665000Y-89788514D01*
X75665000Y-90051486D01*
X75716304Y-90309405D01*
X75816939Y-90552359D01*
X75963038Y-90771013D01*
X76148987Y-90956962D01*
X76367641Y-91103061D01*
X76610595Y-91203696D01*
X76868514Y-91255000D01*
X77131486Y-91255000D01*
X77389405Y-91203696D01*
X77632359Y-91103061D01*
X77851013Y-90956962D01*
X78036962Y-90771013D01*
X78183061Y-90552359D01*
X78283696Y-90309405D01*
X78335000Y-90051486D01*
X78335000Y-89788514D01*
X78283696Y-89530595D01*
X78183061Y-89287641D01*
X78036962Y-89068987D01*
X77851013Y-88883038D01*
X77632359Y-88736939D01*
X77389405Y-88636304D01*
X77131486Y-88585000D01*
X76868514Y-88585000D01*
X76610595Y-88636304D01*
X76367641Y-88736939D01*
X76148987Y-88883038D01*
X75963038Y-89068987D01*
X75816939Y-89287641D01*
X75716304Y-89530595D01*
X75665000Y-89788514D01*
X74335000Y-89788514D01*
X74283696Y-89530595D01*
X74183061Y-89287641D01*
X74036962Y-89068987D01*
X73851013Y-88883038D01*
X73632359Y-88736939D01*
X73389405Y-88636304D01*
X73131486Y-88585000D01*
X72868514Y-88585000D01*
X72610595Y-88636304D01*
X72367641Y-88736939D01*
X72148987Y-88883038D01*
X71963038Y-89068987D01*
X71816939Y-89287641D01*
X71716304Y-89530595D01*
X71665000Y-89788514D01*
X66335000Y-89788514D01*
X66283696Y-89530595D01*
X66183061Y-89287641D01*
X66036962Y-89068987D01*
X65851013Y-88883038D01*
X65632359Y-88736939D01*
X65389405Y-88636304D01*
X65131486Y-88585000D01*
X64868514Y-88585000D01*
X64610595Y-88636304D01*
X64367641Y-88736939D01*
X64148987Y-88883038D01*
X63963038Y-89068987D01*
X63816939Y-89287641D01*
X63716304Y-89530595D01*
X63665000Y-89788514D01*
X62335000Y-89788514D01*
X62283696Y-89530595D01*
X62183061Y-89287641D01*
X62036962Y-89068987D01*
X61851013Y-88883038D01*
X61632359Y-88736939D01*
X61389405Y-88636304D01*
X61131486Y-88585000D01*
X60868514Y-88585000D01*
X60610595Y-88636304D01*
X60367641Y-88736939D01*
X60148987Y-88883038D01*
X59963038Y-89068987D01*
X59816939Y-89287641D01*
X59716304Y-89530595D01*
X59665000Y-89788514D01*
X52660000Y-89788514D01*
X52660000Y-81948514D01*
X55665000Y-81948514D01*
X55665000Y-82211486D01*
X55716304Y-82469405D01*
X55816939Y-82712359D01*
X55963038Y-82931013D01*
X56148987Y-83116962D01*
X56367641Y-83263061D01*
X56610595Y-83363696D01*
X56868514Y-83415000D01*
X57131486Y-83415000D01*
X57389405Y-83363696D01*
X57632359Y-83263061D01*
X57851013Y-83116962D01*
X58036962Y-82931013D01*
X58183061Y-82712359D01*
X58283696Y-82469405D01*
X58335000Y-82211486D01*
X58335000Y-81948514D01*
X59665000Y-81948514D01*
X59665000Y-82211486D01*
X59716304Y-82469405D01*
X59816939Y-82712359D01*
X59963038Y-82931013D01*
X60148987Y-83116962D01*
X60367641Y-83263061D01*
X60610595Y-83363696D01*
X60868514Y-83415000D01*
X61131486Y-83415000D01*
X61389405Y-83363696D01*
X61632359Y-83263061D01*
X61851013Y-83116962D01*
X62036962Y-82931013D01*
X62183061Y-82712359D01*
X62283696Y-82469405D01*
X62335000Y-82211486D01*
X62335000Y-81948514D01*
X62283696Y-81690595D01*
X62183061Y-81447641D01*
X62130191Y-81368514D01*
X65565000Y-81368514D01*
X65565000Y-81631486D01*
X65616304Y-81889405D01*
X65716939Y-82132359D01*
X65863038Y-82351013D01*
X66048987Y-82536962D01*
X66209603Y-82644282D01*
X66165000Y-82868514D01*
X66165000Y-83131486D01*
X66216304Y-83389405D01*
X66316939Y-83632359D01*
X66463038Y-83851013D01*
X66648987Y-84036962D01*
X66867641Y-84183061D01*
X67110595Y-84283696D01*
X67368514Y-84335000D01*
X67631486Y-84335000D01*
X67889405Y-84283696D01*
X67911847Y-84274400D01*
X67963038Y-84351013D01*
X68148987Y-84536962D01*
X68367641Y-84683061D01*
X68610595Y-84783696D01*
X68868514Y-84835000D01*
X69131486Y-84835000D01*
X69389405Y-84783696D01*
X69632359Y-84683061D01*
X69851013Y-84536962D01*
X70036962Y-84351013D01*
X70183061Y-84132359D01*
X70283696Y-83889405D01*
X70335000Y-83631486D01*
X70335000Y-83368514D01*
X70283696Y-83110595D01*
X70183061Y-82867641D01*
X70036962Y-82648987D01*
X69851013Y-82463038D01*
X69632359Y-82316939D01*
X69389405Y-82216304D01*
X69131486Y-82165000D01*
X68868514Y-82165000D01*
X68610595Y-82216304D01*
X68588153Y-82225600D01*
X68536962Y-82148987D01*
X68351013Y-81963038D01*
X68190397Y-81855718D01*
X68235000Y-81631486D01*
X68235000Y-81368514D01*
X68183696Y-81110595D01*
X68083061Y-80867641D01*
X67936962Y-80648987D01*
X67751013Y-80463038D01*
X67532359Y-80316939D01*
X67289405Y-80216304D01*
X67031486Y-80165000D01*
X66768514Y-80165000D01*
X66510595Y-80216304D01*
X66267641Y-80316939D01*
X66048987Y-80463038D01*
X65863038Y-80648987D01*
X65716939Y-80867641D01*
X65616304Y-81110595D01*
X65565000Y-81368514D01*
X62130191Y-81368514D01*
X62036962Y-81228987D01*
X61851013Y-81043038D01*
X61632359Y-80896939D01*
X61389405Y-80796304D01*
X61131486Y-80745000D01*
X60868514Y-80745000D01*
X60610595Y-80796304D01*
X60367641Y-80896939D01*
X60148987Y-81043038D01*
X59963038Y-81228987D01*
X59816939Y-81447641D01*
X59716304Y-81690595D01*
X59665000Y-81948514D01*
X58335000Y-81948514D01*
X58283696Y-81690595D01*
X58183061Y-81447641D01*
X58036962Y-81228987D01*
X57851013Y-81043038D01*
X57632359Y-80896939D01*
X57389405Y-80796304D01*
X57131486Y-80745000D01*
X56868514Y-80745000D01*
X56610595Y-80796304D01*
X56367641Y-80896939D01*
X56148987Y-81043038D01*
X55963038Y-81228987D01*
X55816939Y-81447641D01*
X55716304Y-81690595D01*
X55665000Y-81948514D01*
X52660000Y-81948514D01*
X52660000Y-79268514D01*
X67665000Y-79268514D01*
X67665000Y-79531486D01*
X67716304Y-79789405D01*
X67816939Y-80032359D01*
X67963038Y-80251013D01*
X68148987Y-80436962D01*
X68367641Y-80583061D01*
X68610595Y-80683696D01*
X68868514Y-80735000D01*
X69131486Y-80735000D01*
X69355718Y-80690397D01*
X69463038Y-80851013D01*
X69648987Y-81036962D01*
X69792045Y-81132550D01*
X69765000Y-81268514D01*
X69765000Y-81531486D01*
X69816304Y-81789405D01*
X69916939Y-82032359D01*
X70063038Y-82251013D01*
X70248987Y-82436962D01*
X70467641Y-82583061D01*
X70710595Y-82683696D01*
X70968514Y-82735000D01*
X71231486Y-82735000D01*
X71489405Y-82683696D01*
X71732359Y-82583061D01*
X71951013Y-82436962D01*
X72136962Y-82251013D01*
X72283061Y-82032359D01*
X72350927Y-81868514D01*
X76165000Y-81868514D01*
X76165000Y-82131486D01*
X76216304Y-82389405D01*
X76316939Y-82632359D01*
X76463038Y-82851013D01*
X76648987Y-83036962D01*
X76867641Y-83183061D01*
X77110595Y-83283696D01*
X77368514Y-83335000D01*
X77631486Y-83335000D01*
X77889405Y-83283696D01*
X78132359Y-83183061D01*
X78351013Y-83036962D01*
X78536962Y-82851013D01*
X78683061Y-82632359D01*
X78783696Y-82389405D01*
X78835000Y-82131486D01*
X78835000Y-81868514D01*
X80165000Y-81868514D01*
X80165000Y-82131486D01*
X80216304Y-82389405D01*
X80316939Y-82632359D01*
X80463038Y-82851013D01*
X80648987Y-83036962D01*
X80867641Y-83183061D01*
X81110595Y-83283696D01*
X81368514Y-83335000D01*
X81631486Y-83335000D01*
X81889405Y-83283696D01*
X82132359Y-83183061D01*
X82351013Y-83036962D01*
X82536962Y-82851013D01*
X82683061Y-82632359D01*
X82783696Y-82389405D01*
X82835000Y-82131486D01*
X82835000Y-81868514D01*
X82783696Y-81610595D01*
X82683061Y-81367641D01*
X82536962Y-81148987D01*
X82351013Y-80963038D01*
X82132359Y-80816939D01*
X81889405Y-80716304D01*
X81631486Y-80665000D01*
X81368514Y-80665000D01*
X81110595Y-80716304D01*
X80867641Y-80816939D01*
X80648987Y-80963038D01*
X80463038Y-81148987D01*
X80316939Y-81367641D01*
X80216304Y-81610595D01*
X80165000Y-81868514D01*
X78835000Y-81868514D01*
X78783696Y-81610595D01*
X78683061Y-81367641D01*
X78536962Y-81148987D01*
X78351013Y-80963038D01*
X78132359Y-80816939D01*
X77889405Y-80716304D01*
X77631486Y-80665000D01*
X77368514Y-80665000D01*
X77110595Y-80716304D01*
X76867641Y-80816939D01*
X76648987Y-80963038D01*
X76463038Y-81148987D01*
X76316939Y-81367641D01*
X76216304Y-81610595D01*
X76165000Y-81868514D01*
X72350927Y-81868514D01*
X72383696Y-81789405D01*
X72435000Y-81531486D01*
X72435000Y-81268514D01*
X72383696Y-81010595D01*
X72283061Y-80767641D01*
X72136962Y-80548987D01*
X71951013Y-80363038D01*
X71807955Y-80267450D01*
X71835000Y-80131486D01*
X71835000Y-79868514D01*
X71783696Y-79610595D01*
X71683061Y-79367641D01*
X71536962Y-79148987D01*
X71351013Y-78963038D01*
X71132359Y-78816939D01*
X70889405Y-78716304D01*
X70631486Y-78665000D01*
X70368514Y-78665000D01*
X70144282Y-78709603D01*
X70036962Y-78548987D01*
X69851013Y-78363038D01*
X69632359Y-78216939D01*
X69389405Y-78116304D01*
X69131486Y-78065000D01*
X68868514Y-78065000D01*
X68610595Y-78116304D01*
X68367641Y-78216939D01*
X68148987Y-78363038D01*
X67963038Y-78548987D01*
X67816939Y-78767641D01*
X67716304Y-79010595D01*
X67665000Y-79268514D01*
X52660000Y-79268514D01*
X52660000Y-76868514D01*
X55665000Y-76868514D01*
X55665000Y-77131486D01*
X55716304Y-77389405D01*
X55816939Y-77632359D01*
X55963038Y-77851013D01*
X56148987Y-78036962D01*
X56367641Y-78183061D01*
X56610595Y-78283696D01*
X56868514Y-78335000D01*
X57131486Y-78335000D01*
X57389405Y-78283696D01*
X57632359Y-78183061D01*
X57851013Y-78036962D01*
X58036962Y-77851013D01*
X58183061Y-77632359D01*
X58283696Y-77389405D01*
X58335000Y-77131486D01*
X58335000Y-76868514D01*
X59665000Y-76868514D01*
X59665000Y-77131486D01*
X59716304Y-77389405D01*
X59816939Y-77632359D01*
X59963038Y-77851013D01*
X60148987Y-78036962D01*
X60367641Y-78183061D01*
X60610595Y-78283696D01*
X60868514Y-78335000D01*
X61131486Y-78335000D01*
X61389405Y-78283696D01*
X61632359Y-78183061D01*
X61851013Y-78036962D01*
X62036962Y-77851013D01*
X62183061Y-77632359D01*
X62283696Y-77389405D01*
X62335000Y-77131486D01*
X62335000Y-76868514D01*
X62319087Y-76788514D01*
X76165000Y-76788514D01*
X76165000Y-77051486D01*
X76216304Y-77309405D01*
X76316939Y-77552359D01*
X76463038Y-77771013D01*
X76648987Y-77956962D01*
X76867641Y-78103061D01*
X77110595Y-78203696D01*
X77368514Y-78255000D01*
X77631486Y-78255000D01*
X77889405Y-78203696D01*
X78132359Y-78103061D01*
X78351013Y-77956962D01*
X78536962Y-77771013D01*
X78683061Y-77552359D01*
X78783696Y-77309405D01*
X78835000Y-77051486D01*
X78835000Y-76788514D01*
X80165000Y-76788514D01*
X80165000Y-77051486D01*
X80216304Y-77309405D01*
X80316939Y-77552359D01*
X80463038Y-77771013D01*
X80648987Y-77956962D01*
X80867641Y-78103061D01*
X81110595Y-78203696D01*
X81368514Y-78255000D01*
X81631486Y-78255000D01*
X81889405Y-78203696D01*
X82132359Y-78103061D01*
X82351013Y-77956962D01*
X82536962Y-77771013D01*
X82683061Y-77552359D01*
X82783696Y-77309405D01*
X82835000Y-77051486D01*
X82835000Y-76788514D01*
X82783696Y-76530595D01*
X82683061Y-76287641D01*
X82536962Y-76068987D01*
X82351013Y-75883038D01*
X82132359Y-75736939D01*
X81889405Y-75636304D01*
X81631486Y-75585000D01*
X81368514Y-75585000D01*
X81110595Y-75636304D01*
X80867641Y-75736939D01*
X80648987Y-75883038D01*
X80463038Y-76068987D01*
X80316939Y-76287641D01*
X80216304Y-76530595D01*
X80165000Y-76788514D01*
X78835000Y-76788514D01*
X78783696Y-76530595D01*
X78683061Y-76287641D01*
X78536962Y-76068987D01*
X78351013Y-75883038D01*
X78132359Y-75736939D01*
X77889405Y-75636304D01*
X77631486Y-75585000D01*
X77368514Y-75585000D01*
X77110595Y-75636304D01*
X76867641Y-75736939D01*
X76648987Y-75883038D01*
X76463038Y-76068987D01*
X76316939Y-76287641D01*
X76216304Y-76530595D01*
X76165000Y-76788514D01*
X62319087Y-76788514D01*
X62283696Y-76610595D01*
X62183061Y-76367641D01*
X62036962Y-76148987D01*
X61851013Y-75963038D01*
X61632359Y-75816939D01*
X61389405Y-75716304D01*
X61131486Y-75665000D01*
X60868514Y-75665000D01*
X60610595Y-75716304D01*
X60367641Y-75816939D01*
X60148987Y-75963038D01*
X59963038Y-76148987D01*
X59816939Y-76367641D01*
X59716304Y-76610595D01*
X59665000Y-76868514D01*
X58335000Y-76868514D01*
X58283696Y-76610595D01*
X58183061Y-76367641D01*
X58036962Y-76148987D01*
X57851013Y-75963038D01*
X57632359Y-75816939D01*
X57389405Y-75716304D01*
X57131486Y-75665000D01*
X56868514Y-75665000D01*
X56610595Y-75716304D01*
X56367641Y-75816939D01*
X56148987Y-75963038D01*
X55963038Y-76148987D01*
X55816939Y-76367641D01*
X55716304Y-76610595D01*
X55665000Y-76868514D01*
X52660000Y-76868514D01*
X52660000Y-72358665D01*
X58565000Y-72358665D01*
X58565000Y-72641335D01*
X58620147Y-72918574D01*
X58728320Y-73179727D01*
X58885363Y-73414759D01*
X59085241Y-73614637D01*
X59320273Y-73771680D01*
X59581426Y-73879853D01*
X59858665Y-73935000D01*
X60141335Y-73935000D01*
X60418574Y-73879853D01*
X60679727Y-73771680D01*
X60914759Y-73614637D01*
X61114637Y-73414759D01*
X61250000Y-73212173D01*
X61385363Y-73414759D01*
X61585241Y-73614637D01*
X61820273Y-73771680D01*
X62081426Y-73879853D01*
X62358665Y-73935000D01*
X62641335Y-73935000D01*
X62918574Y-73879853D01*
X63179727Y-73771680D01*
X63414759Y-73614637D01*
X63614637Y-73414759D01*
X63771680Y-73179727D01*
X63879853Y-72918574D01*
X63935000Y-72641335D01*
X63935000Y-72368514D01*
X71085000Y-72368514D01*
X71085000Y-72631486D01*
X71136304Y-72889405D01*
X71236939Y-73132359D01*
X71383038Y-73351013D01*
X71568987Y-73536962D01*
X71787641Y-73683061D01*
X72030595Y-73783696D01*
X72288514Y-73835000D01*
X72551486Y-73835000D01*
X72809405Y-73783696D01*
X73052359Y-73683061D01*
X73271013Y-73536962D01*
X73456962Y-73351013D01*
X73603061Y-73132359D01*
X73703696Y-72889405D01*
X73755000Y-72631486D01*
X73755000Y-72368514D01*
X76165000Y-72368514D01*
X76165000Y-72631486D01*
X76216304Y-72889405D01*
X76316939Y-73132359D01*
X76463038Y-73351013D01*
X76648987Y-73536962D01*
X76867641Y-73683061D01*
X77110595Y-73783696D01*
X77368514Y-73835000D01*
X77631486Y-73835000D01*
X77889405Y-73783696D01*
X78132359Y-73683061D01*
X78351013Y-73536962D01*
X78536962Y-73351013D01*
X78683061Y-73132359D01*
X78783696Y-72889405D01*
X78835000Y-72631486D01*
X78835000Y-72368514D01*
X78783696Y-72110595D01*
X78683061Y-71867641D01*
X78536962Y-71648987D01*
X78351013Y-71463038D01*
X78132359Y-71316939D01*
X77889405Y-71216304D01*
X77631486Y-71165000D01*
X77368514Y-71165000D01*
X77110595Y-71216304D01*
X76867641Y-71316939D01*
X76648987Y-71463038D01*
X76463038Y-71648987D01*
X76316939Y-71867641D01*
X76216304Y-72110595D01*
X76165000Y-72368514D01*
X73755000Y-72368514D01*
X73703696Y-72110595D01*
X73603061Y-71867641D01*
X73456962Y-71648987D01*
X73271013Y-71463038D01*
X73052359Y-71316939D01*
X72809405Y-71216304D01*
X72551486Y-71165000D01*
X72288514Y-71165000D01*
X72030595Y-71216304D01*
X71787641Y-71316939D01*
X71568987Y-71463038D01*
X71383038Y-71648987D01*
X71236939Y-71867641D01*
X71136304Y-72110595D01*
X71085000Y-72368514D01*
X63935000Y-72368514D01*
X63935000Y-72358665D01*
X63879853Y-72081426D01*
X63771680Y-71820273D01*
X63614637Y-71585241D01*
X63414759Y-71385363D01*
X63179727Y-71228320D01*
X62918574Y-71120147D01*
X62641335Y-71065000D01*
X62358665Y-71065000D01*
X62081426Y-71120147D01*
X61820273Y-71228320D01*
X61585241Y-71385363D01*
X61385363Y-71585241D01*
X61250000Y-71787827D01*
X61114637Y-71585241D01*
X60914759Y-71385363D01*
X60679727Y-71228320D01*
X60418574Y-71120147D01*
X60141335Y-71065000D01*
X59858665Y-71065000D01*
X59581426Y-71120147D01*
X59320273Y-71228320D01*
X59085241Y-71385363D01*
X58885363Y-71585241D01*
X58728320Y-71820273D01*
X58620147Y-72081426D01*
X58565000Y-72358665D01*
X52660000Y-72358665D01*
X52660000Y-45660000D01*
X54524985Y-45660000D01*
X54299227Y-45753512D01*
%TA.AperFunction,Conductor*%
D23*
G36*
X54299227Y-45753512D02*
G01*
X53884032Y-46030937D01*
X53530937Y-46384032D01*
X53253512Y-46799227D01*
X53062418Y-47260568D01*
X52965000Y-47750324D01*
X52965000Y-48249676D01*
X53062418Y-48739432D01*
X53253512Y-49200773D01*
X53530937Y-49615968D01*
X53884032Y-49969063D01*
X54299227Y-50246488D01*
X54760568Y-50437582D01*
X55250324Y-50535000D01*
X55749676Y-50535000D01*
X56239432Y-50437582D01*
X56700773Y-50246488D01*
X57115968Y-49969063D01*
X57469063Y-49615968D01*
X57746488Y-49200773D01*
X57890234Y-48853740D01*
X67055000Y-48853740D01*
X67055000Y-49146260D01*
X67112068Y-49433158D01*
X67224010Y-49703411D01*
X67386525Y-49946632D01*
X67593368Y-50153475D01*
X67836589Y-50315990D01*
X68106842Y-50427932D01*
X68393740Y-50485000D01*
X68686260Y-50485000D01*
X68973158Y-50427932D01*
X69243411Y-50315990D01*
X69486632Y-50153475D01*
X69693475Y-49946632D01*
X69810000Y-49772240D01*
X69926525Y-49946632D01*
X70133368Y-50153475D01*
X70376589Y-50315990D01*
X70646842Y-50427932D01*
X70933740Y-50485000D01*
X71226260Y-50485000D01*
X71513158Y-50427932D01*
X71783411Y-50315990D01*
X72026632Y-50153475D01*
X72233475Y-49946632D01*
X72395990Y-49703411D01*
X72507932Y-49433158D01*
X72565000Y-49146260D01*
X72565000Y-48853740D01*
X72507932Y-48566842D01*
X72395990Y-48296589D01*
X72233475Y-48053368D01*
X72026632Y-47846525D01*
X71783411Y-47684010D01*
X71513158Y-47572068D01*
X71226260Y-47515000D01*
X70933740Y-47515000D01*
X70646842Y-47572068D01*
X70376589Y-47684010D01*
X70133368Y-47846525D01*
X69926525Y-48053368D01*
X69810000Y-48227760D01*
X69693475Y-48053368D01*
X69486632Y-47846525D01*
X69243411Y-47684010D01*
X68973158Y-47572068D01*
X68686260Y-47515000D01*
X68393740Y-47515000D01*
X68106842Y-47572068D01*
X67836589Y-47684010D01*
X67593368Y-47846525D01*
X67386525Y-48053368D01*
X67224010Y-48296589D01*
X67112068Y-48566842D01*
X67055000Y-48853740D01*
X57890234Y-48853740D01*
X57937582Y-48739432D01*
X58035000Y-48249676D01*
X58035000Y-47750324D01*
X57937582Y-47260568D01*
X57746488Y-46799227D01*
X57469063Y-46384032D01*
X57115968Y-46030937D01*
X56700773Y-45753512D01*
X56475015Y-45660000D01*
X82024985Y-45660000D01*
X81799227Y-45753512D01*
X81384032Y-46030937D01*
X81030937Y-46384032D01*
X80753512Y-46799227D01*
X80562418Y-47260568D01*
X80465000Y-47750324D01*
X80465000Y-48249676D01*
X80562418Y-48739432D01*
X80753512Y-49200773D01*
X81030937Y-49615968D01*
X81384032Y-49969063D01*
X81799227Y-50246488D01*
X82260568Y-50437582D01*
X82750324Y-50535000D01*
X83249676Y-50535000D01*
X83739432Y-50437582D01*
X84200773Y-50246488D01*
X84615968Y-49969063D01*
X84969063Y-49615968D01*
X85246488Y-49200773D01*
X85340001Y-48975013D01*
X85340000Y-109024985D01*
X85246488Y-108799227D01*
X84969063Y-108384032D01*
X84615968Y-108030937D01*
X84200773Y-107753512D01*
X83739432Y-107562418D01*
X83249676Y-107465000D01*
X82750324Y-107465000D01*
X82260568Y-107562418D01*
X81799227Y-107753512D01*
X81384032Y-108030937D01*
X81030937Y-108384032D01*
X80753512Y-108799227D01*
X80562418Y-109260568D01*
X80465000Y-109750324D01*
X80465000Y-110249676D01*
X80562418Y-110739432D01*
X80753512Y-111200773D01*
X81030937Y-111615968D01*
X81384032Y-111969063D01*
X81799227Y-112246488D01*
X82024985Y-112340000D01*
X55975015Y-112340000D01*
X56200773Y-112246488D01*
X56615968Y-111969063D01*
X56969063Y-111615968D01*
X57246488Y-111200773D01*
X57437582Y-110739432D01*
X57535000Y-110249676D01*
X57535000Y-109750324D01*
X57437582Y-109260568D01*
X57246488Y-108799227D01*
X57146778Y-108650000D01*
X58971928Y-108650000D01*
X58971928Y-110350000D01*
X58984188Y-110474482D01*
X59020498Y-110594180D01*
X59079463Y-110704494D01*
X59158815Y-110801185D01*
X59255506Y-110880537D01*
X59365820Y-110939502D01*
X59485518Y-110975812D01*
X59610000Y-110988072D01*
X61310000Y-110988072D01*
X61434482Y-110975812D01*
X61554180Y-110939502D01*
X61664494Y-110880537D01*
X61761185Y-110801185D01*
X61840537Y-110704494D01*
X61899502Y-110594180D01*
X61935812Y-110474482D01*
X61948072Y-110350000D01*
X61948072Y-109353740D01*
X76515000Y-109353740D01*
X76515000Y-109646260D01*
X76572068Y-109933158D01*
X76684010Y-110203411D01*
X76846525Y-110446632D01*
X77053368Y-110653475D01*
X77296589Y-110815990D01*
X77566842Y-110927932D01*
X77853740Y-110985000D01*
X78146260Y-110985000D01*
X78433158Y-110927932D01*
X78703411Y-110815990D01*
X78946632Y-110653475D01*
X79153475Y-110446632D01*
X79315990Y-110203411D01*
X79427932Y-109933158D01*
X79485000Y-109646260D01*
X79485000Y-109353740D01*
X79427932Y-109066842D01*
X79315990Y-108796589D01*
X79153475Y-108553368D01*
X78946632Y-108346525D01*
X78703411Y-108184010D01*
X78433158Y-108072068D01*
X78146260Y-108015000D01*
X77853740Y-108015000D01*
X77566842Y-108072068D01*
X77296589Y-108184010D01*
X77053368Y-108346525D01*
X76846525Y-108553368D01*
X76684010Y-108796589D01*
X76572068Y-109066842D01*
X76515000Y-109353740D01*
X61948072Y-109353740D01*
X61948072Y-108650000D01*
X61935812Y-108525518D01*
X61899502Y-108405820D01*
X61840537Y-108295506D01*
X61761185Y-108198815D01*
X61664494Y-108119463D01*
X61554180Y-108060498D01*
X61434482Y-108024188D01*
X61310000Y-108011928D01*
X59610000Y-108011928D01*
X59485518Y-108024188D01*
X59365820Y-108060498D01*
X59255506Y-108119463D01*
X59158815Y-108198815D01*
X59079463Y-108295506D01*
X59020498Y-108405820D01*
X58984188Y-108525518D01*
X58971928Y-108650000D01*
X57146778Y-108650000D01*
X56969063Y-108384032D01*
X56615968Y-108030937D01*
X56200773Y-107753512D01*
X55739432Y-107562418D01*
X55249676Y-107465000D01*
X54750324Y-107465000D01*
X54260568Y-107562418D01*
X53799227Y-107753512D01*
X53384032Y-108030937D01*
X53030937Y-108384032D01*
X52753512Y-108799227D01*
X52660000Y-109024985D01*
X52660000Y-105320000D01*
X59061928Y-105320000D01*
X59061928Y-106920000D01*
X59074188Y-107044482D01*
X59110498Y-107164180D01*
X59169463Y-107274494D01*
X59248815Y-107371185D01*
X59345506Y-107450537D01*
X59455820Y-107509502D01*
X59575518Y-107545812D01*
X59700000Y-107558072D01*
X61300000Y-107558072D01*
X61424482Y-107545812D01*
X61544180Y-107509502D01*
X61654494Y-107450537D01*
X61751185Y-107371185D01*
X61830537Y-107274494D01*
X61889502Y-107164180D01*
X61925812Y-107044482D01*
X61938072Y-106920000D01*
X61938072Y-105320000D01*
X75561928Y-105320000D01*
X75561928Y-106920000D01*
X75574188Y-107044482D01*
X75610498Y-107164180D01*
X75669463Y-107274494D01*
X75748815Y-107371185D01*
X75845506Y-107450537D01*
X75955820Y-107509502D01*
X76075518Y-107545812D01*
X76200000Y-107558072D01*
X77800000Y-107558072D01*
X77924482Y-107545812D01*
X78044180Y-107509502D01*
X78154494Y-107450537D01*
X78251185Y-107371185D01*
X78330537Y-107274494D01*
X78389502Y-107164180D01*
X78425812Y-107044482D01*
X78438072Y-106920000D01*
X78438072Y-105320000D01*
X78425812Y-105195518D01*
X78389502Y-105075820D01*
X78330537Y-104965506D01*
X78251185Y-104868815D01*
X78154494Y-104789463D01*
X78044180Y-104730498D01*
X77924482Y-104694188D01*
X77800000Y-104681928D01*
X76200000Y-104681928D01*
X76075518Y-104694188D01*
X75955820Y-104730498D01*
X75845506Y-104789463D01*
X75748815Y-104868815D01*
X75669463Y-104965506D01*
X75610498Y-105075820D01*
X75574188Y-105195518D01*
X75561928Y-105320000D01*
X61938072Y-105320000D01*
X61925812Y-105195518D01*
X61889502Y-105075820D01*
X61830537Y-104965506D01*
X61751185Y-104868815D01*
X61654494Y-104789463D01*
X61544180Y-104730498D01*
X61424482Y-104694188D01*
X61300000Y-104681928D01*
X59700000Y-104681928D01*
X59575518Y-104694188D01*
X59455820Y-104730498D01*
X59345506Y-104789463D01*
X59248815Y-104868815D01*
X59169463Y-104965506D01*
X59110498Y-105075820D01*
X59074188Y-105195518D01*
X59061928Y-105320000D01*
X52660000Y-105320000D01*
X52660000Y-98358665D01*
X59065000Y-98358665D01*
X59065000Y-98641335D01*
X59120147Y-98918574D01*
X59228320Y-99179727D01*
X59385363Y-99414759D01*
X59585241Y-99614637D01*
X59820273Y-99771680D01*
X60081426Y-99879853D01*
X60358665Y-99935000D01*
X60641335Y-99935000D01*
X60918574Y-99879853D01*
X61179727Y-99771680D01*
X61212173Y-99750000D01*
X66336928Y-99750000D01*
X66336928Y-101250000D01*
X66349188Y-101374482D01*
X66385498Y-101494180D01*
X66444463Y-101604494D01*
X66523815Y-101701185D01*
X66620506Y-101780537D01*
X66730820Y-101839502D01*
X66850518Y-101875812D01*
X66975000Y-101888072D01*
X68025000Y-101888072D01*
X68149482Y-101875812D01*
X68269180Y-101839502D01*
X68333902Y-101804907D01*
X68542601Y-101868215D01*
X68770000Y-101890612D01*
X68997400Y-101868215D01*
X69216060Y-101801885D01*
X69417579Y-101694171D01*
X69594212Y-101549212D01*
X69739171Y-101372579D01*
X69846885Y-101171059D01*
X69913215Y-100952399D01*
X69930000Y-100781978D01*
X69930000Y-100218021D01*
X69913215Y-100047600D01*
X69846885Y-99828940D01*
X69739171Y-99627421D01*
X69594212Y-99450788D01*
X69530000Y-99398091D01*
X69530000Y-98358665D01*
X75565000Y-98358665D01*
X75565000Y-98641335D01*
X75620147Y-98918574D01*
X75728320Y-99179727D01*
X75885363Y-99414759D01*
X76085241Y-99614637D01*
X76320273Y-99771680D01*
X76581426Y-99879853D01*
X76858665Y-99935000D01*
X77141335Y-99935000D01*
X77418574Y-99879853D01*
X77679727Y-99771680D01*
X77914759Y-99614637D01*
X78114637Y-99414759D01*
X78271680Y-99179727D01*
X78379853Y-98918574D01*
X78435000Y-98641335D01*
X78435000Y-98358665D01*
X78379853Y-98081426D01*
X78271680Y-97820273D01*
X78114637Y-97585241D01*
X77914759Y-97385363D01*
X77679727Y-97228320D01*
X77418574Y-97120147D01*
X77141335Y-97065000D01*
X76858665Y-97065000D01*
X76581426Y-97120147D01*
X76320273Y-97228320D01*
X76085241Y-97385363D01*
X75885363Y-97585241D01*
X75728320Y-97820273D01*
X75620147Y-98081426D01*
X75565000Y-98358665D01*
X69530000Y-98358665D01*
X69530000Y-96225460D01*
X69632359Y-96183061D01*
X69851013Y-96036962D01*
X70036962Y-95851013D01*
X70183061Y-95632359D01*
X70283696Y-95389405D01*
X70335000Y-95131486D01*
X70335000Y-94868514D01*
X71665000Y-94868514D01*
X71665000Y-95131486D01*
X71716304Y-95389405D01*
X71816939Y-95632359D01*
X71963038Y-95851013D01*
X72148987Y-96036962D01*
X72367641Y-96183061D01*
X72610595Y-96283696D01*
X72868514Y-96335000D01*
X73131486Y-96335000D01*
X73389405Y-96283696D01*
X73632359Y-96183061D01*
X73851013Y-96036962D01*
X74036962Y-95851013D01*
X74183061Y-95632359D01*
X74283696Y-95389405D01*
X74335000Y-95131486D01*
X74335000Y-94868514D01*
X74283696Y-94610595D01*
X74183061Y-94367641D01*
X74036962Y-94148987D01*
X73851013Y-93963038D01*
X73632359Y-93816939D01*
X73389405Y-93716304D01*
X73131486Y-93665000D01*
X72868514Y-93665000D01*
X72610595Y-93716304D01*
X72367641Y-93816939D01*
X72148987Y-93963038D01*
X71963038Y-94148987D01*
X71816939Y-94367641D01*
X71716304Y-94610595D01*
X71665000Y-94868514D01*
X70335000Y-94868514D01*
X70283696Y-94610595D01*
X70183061Y-94367641D01*
X70036962Y-94148987D01*
X69851013Y-93963038D01*
X69632359Y-93816939D01*
X69389405Y-93716304D01*
X69131486Y-93665000D01*
X68868514Y-93665000D01*
X68610595Y-93716304D01*
X68367641Y-93816939D01*
X68148987Y-93963038D01*
X67963038Y-94148987D01*
X67816939Y-94367641D01*
X67716304Y-94610595D01*
X67665000Y-94868514D01*
X67665000Y-95131486D01*
X67716304Y-95389405D01*
X67816939Y-95632359D01*
X67963038Y-95851013D01*
X68010001Y-95897976D01*
X68010000Y-99111928D01*
X66975000Y-99111928D01*
X66850518Y-99124188D01*
X66730820Y-99160498D01*
X66620506Y-99219463D01*
X66523815Y-99298815D01*
X66444463Y-99395506D01*
X66385498Y-99505820D01*
X66349188Y-99625518D01*
X66336928Y-99750000D01*
X61212173Y-99750000D01*
X61414759Y-99614637D01*
X61614637Y-99414759D01*
X61771680Y-99179727D01*
X61879853Y-98918574D01*
X61935000Y-98641335D01*
X61935000Y-98358665D01*
X61879853Y-98081426D01*
X61771680Y-97820273D01*
X61614637Y-97585241D01*
X61414759Y-97385363D01*
X61179727Y-97228320D01*
X60918574Y-97120147D01*
X60641335Y-97065000D01*
X60358665Y-97065000D01*
X60081426Y-97120147D01*
X59820273Y-97228320D01*
X59585241Y-97385363D01*
X59385363Y-97585241D01*
X59228320Y-97820273D01*
X59120147Y-98081426D01*
X59065000Y-98358665D01*
X52660000Y-98358665D01*
X52660000Y-91358665D01*
X55565000Y-91358665D01*
X55565000Y-91641335D01*
X55620147Y-91918574D01*
X55728320Y-92179727D01*
X55885363Y-92414759D01*
X56085241Y-92614637D01*
X56287827Y-92750000D01*
X56085241Y-92885363D01*
X55885363Y-93085241D01*
X55728320Y-93320273D01*
X55620147Y-93581426D01*
X55565000Y-93858665D01*
X55565000Y-94141335D01*
X55620147Y-94418574D01*
X55728320Y-94679727D01*
X55885363Y-94914759D01*
X56085241Y-95114637D01*
X56320273Y-95271680D01*
X56581426Y-95379853D01*
X56858665Y-95435000D01*
X57141335Y-95435000D01*
X57418574Y-95379853D01*
X57679727Y-95271680D01*
X57914759Y-95114637D01*
X58114637Y-94914759D01*
X58145536Y-94868514D01*
X63665000Y-94868514D01*
X63665000Y-95131486D01*
X63716304Y-95389405D01*
X63816939Y-95632359D01*
X63963038Y-95851013D01*
X64148987Y-96036962D01*
X64367641Y-96183061D01*
X64610595Y-96283696D01*
X64868514Y-96335000D01*
X65131486Y-96335000D01*
X65389405Y-96283696D01*
X65632359Y-96183061D01*
X65851013Y-96036962D01*
X66036962Y-95851013D01*
X66183061Y-95632359D01*
X66283696Y-95389405D01*
X66335000Y-95131486D01*
X66335000Y-94868514D01*
X66283696Y-94610595D01*
X66183061Y-94367641D01*
X66036962Y-94148987D01*
X65851013Y-93963038D01*
X65632359Y-93816939D01*
X65389405Y-93716304D01*
X65131486Y-93665000D01*
X64868514Y-93665000D01*
X64610595Y-93716304D01*
X64367641Y-93816939D01*
X64148987Y-93963038D01*
X63963038Y-94148987D01*
X63816939Y-94367641D01*
X63716304Y-94610595D01*
X63665000Y-94868514D01*
X58145536Y-94868514D01*
X58271680Y-94679727D01*
X58379853Y-94418574D01*
X58435000Y-94141335D01*
X58435000Y-93858665D01*
X58379853Y-93581426D01*
X58271680Y-93320273D01*
X58114637Y-93085241D01*
X57914759Y-92885363D01*
X57712173Y-92750000D01*
X57914759Y-92614637D01*
X58114637Y-92414759D01*
X58271680Y-92179727D01*
X58379853Y-91918574D01*
X58435000Y-91641335D01*
X58435000Y-91358665D01*
X79565000Y-91358665D01*
X79565000Y-91641335D01*
X79620147Y-91918574D01*
X79728320Y-92179727D01*
X79885363Y-92414759D01*
X80085241Y-92614637D01*
X80287827Y-92750000D01*
X80085241Y-92885363D01*
X79885363Y-93085241D01*
X79728320Y-93320273D01*
X79620147Y-93581426D01*
X79565000Y-93858665D01*
X79565000Y-94141335D01*
X79620147Y-94418574D01*
X79728320Y-94679727D01*
X79885363Y-94914759D01*
X80085241Y-95114637D01*
X80320273Y-95271680D01*
X80581426Y-95379853D01*
X80858665Y-95435000D01*
X81141335Y-95435000D01*
X81418574Y-95379853D01*
X81679727Y-95271680D01*
X81914759Y-95114637D01*
X82114637Y-94914759D01*
X82271680Y-94679727D01*
X82379853Y-94418574D01*
X82435000Y-94141335D01*
X82435000Y-93858665D01*
X82379853Y-93581426D01*
X82271680Y-93320273D01*
X82114637Y-93085241D01*
X81914759Y-92885363D01*
X81712173Y-92750000D01*
X81914759Y-92614637D01*
X82114637Y-92414759D01*
X82271680Y-92179727D01*
X82379853Y-91918574D01*
X82435000Y-91641335D01*
X82435000Y-91358665D01*
X82379853Y-91081426D01*
X82271680Y-90820273D01*
X82114637Y-90585241D01*
X81914759Y-90385363D01*
X81679727Y-90228320D01*
X81418574Y-90120147D01*
X81141335Y-90065000D01*
X80858665Y-90065000D01*
X80581426Y-90120147D01*
X80320273Y-90228320D01*
X80085241Y-90385363D01*
X79885363Y-90585241D01*
X79728320Y-90820273D01*
X79620147Y-91081426D01*
X79565000Y-91358665D01*
X58435000Y-91358665D01*
X58379853Y-91081426D01*
X58271680Y-90820273D01*
X58114637Y-90585241D01*
X57914759Y-90385363D01*
X57679727Y-90228320D01*
X57418574Y-90120147D01*
X57141335Y-90065000D01*
X56858665Y-90065000D01*
X56581426Y-90120147D01*
X56320273Y-90228320D01*
X56085241Y-90385363D01*
X55885363Y-90585241D01*
X55728320Y-90820273D01*
X55620147Y-91081426D01*
X55565000Y-91358665D01*
X52660000Y-91358665D01*
X52660000Y-89788514D01*
X59665000Y-89788514D01*
X59665000Y-90051486D01*
X59716304Y-90309405D01*
X59816939Y-90552359D01*
X59963038Y-90771013D01*
X60148987Y-90956962D01*
X60367641Y-91103061D01*
X60610595Y-91203696D01*
X60868514Y-91255000D01*
X61131486Y-91255000D01*
X61389405Y-91203696D01*
X61632359Y-91103061D01*
X61851013Y-90956962D01*
X62036962Y-90771013D01*
X62183061Y-90552359D01*
X62283696Y-90309405D01*
X62335000Y-90051486D01*
X62335000Y-89788514D01*
X63665000Y-89788514D01*
X63665000Y-90051486D01*
X63716304Y-90309405D01*
X63816939Y-90552359D01*
X63963038Y-90771013D01*
X64148987Y-90956962D01*
X64367641Y-91103061D01*
X64610595Y-91203696D01*
X64868514Y-91255000D01*
X65131486Y-91255000D01*
X65389405Y-91203696D01*
X65632359Y-91103061D01*
X65851013Y-90956962D01*
X66036962Y-90771013D01*
X66183061Y-90552359D01*
X66283696Y-90309405D01*
X66335000Y-90051486D01*
X66335000Y-89788514D01*
X71665000Y-89788514D01*
X71665000Y-90051486D01*
X71716304Y-90309405D01*
X71816939Y-90552359D01*
X71963038Y-90771013D01*
X72148987Y-90956962D01*
X72367641Y-91103061D01*
X72610595Y-91203696D01*
X72868514Y-91255000D01*
X73131486Y-91255000D01*
X73389405Y-91203696D01*
X73632359Y-91103061D01*
X73851013Y-90956962D01*
X74036962Y-90771013D01*
X74183061Y-90552359D01*
X74283696Y-90309405D01*
X74335000Y-90051486D01*
X74335000Y-89788514D01*
X75665000Y-89788514D01*
X75665000Y-90051486D01*
X75716304Y-90309405D01*
X75816939Y-90552359D01*
X75963038Y-90771013D01*
X76148987Y-90956962D01*
X76367641Y-91103061D01*
X76610595Y-91203696D01*
X76868514Y-91255000D01*
X77131486Y-91255000D01*
X77389405Y-91203696D01*
X77632359Y-91103061D01*
X77851013Y-90956962D01*
X78036962Y-90771013D01*
X78183061Y-90552359D01*
X78283696Y-90309405D01*
X78335000Y-90051486D01*
X78335000Y-89788514D01*
X78283696Y-89530595D01*
X78183061Y-89287641D01*
X78036962Y-89068987D01*
X77851013Y-88883038D01*
X77632359Y-88736939D01*
X77389405Y-88636304D01*
X77131486Y-88585000D01*
X76868514Y-88585000D01*
X76610595Y-88636304D01*
X76367641Y-88736939D01*
X76148987Y-88883038D01*
X75963038Y-89068987D01*
X75816939Y-89287641D01*
X75716304Y-89530595D01*
X75665000Y-89788514D01*
X74335000Y-89788514D01*
X74283696Y-89530595D01*
X74183061Y-89287641D01*
X74036962Y-89068987D01*
X73851013Y-88883038D01*
X73632359Y-88736939D01*
X73389405Y-88636304D01*
X73131486Y-88585000D01*
X72868514Y-88585000D01*
X72610595Y-88636304D01*
X72367641Y-88736939D01*
X72148987Y-88883038D01*
X71963038Y-89068987D01*
X71816939Y-89287641D01*
X71716304Y-89530595D01*
X71665000Y-89788514D01*
X66335000Y-89788514D01*
X66283696Y-89530595D01*
X66183061Y-89287641D01*
X66036962Y-89068987D01*
X65851013Y-88883038D01*
X65632359Y-88736939D01*
X65389405Y-88636304D01*
X65131486Y-88585000D01*
X64868514Y-88585000D01*
X64610595Y-88636304D01*
X64367641Y-88736939D01*
X64148987Y-88883038D01*
X63963038Y-89068987D01*
X63816939Y-89287641D01*
X63716304Y-89530595D01*
X63665000Y-89788514D01*
X62335000Y-89788514D01*
X62283696Y-89530595D01*
X62183061Y-89287641D01*
X62036962Y-89068987D01*
X61851013Y-88883038D01*
X61632359Y-88736939D01*
X61389405Y-88636304D01*
X61131486Y-88585000D01*
X60868514Y-88585000D01*
X60610595Y-88636304D01*
X60367641Y-88736939D01*
X60148987Y-88883038D01*
X59963038Y-89068987D01*
X59816939Y-89287641D01*
X59716304Y-89530595D01*
X59665000Y-89788514D01*
X52660000Y-89788514D01*
X52660000Y-81948514D01*
X55665000Y-81948514D01*
X55665000Y-82211486D01*
X55716304Y-82469405D01*
X55816939Y-82712359D01*
X55963038Y-82931013D01*
X56148987Y-83116962D01*
X56367641Y-83263061D01*
X56610595Y-83363696D01*
X56868514Y-83415000D01*
X57131486Y-83415000D01*
X57389405Y-83363696D01*
X57632359Y-83263061D01*
X57851013Y-83116962D01*
X58036962Y-82931013D01*
X58183061Y-82712359D01*
X58283696Y-82469405D01*
X58335000Y-82211486D01*
X58335000Y-81948514D01*
X59665000Y-81948514D01*
X59665000Y-82211486D01*
X59716304Y-82469405D01*
X59816939Y-82712359D01*
X59963038Y-82931013D01*
X60148987Y-83116962D01*
X60367641Y-83263061D01*
X60610595Y-83363696D01*
X60868514Y-83415000D01*
X61131486Y-83415000D01*
X61389405Y-83363696D01*
X61632359Y-83263061D01*
X61851013Y-83116962D01*
X62036962Y-82931013D01*
X62183061Y-82712359D01*
X62283696Y-82469405D01*
X62335000Y-82211486D01*
X62335000Y-81948514D01*
X62283696Y-81690595D01*
X62183061Y-81447641D01*
X62130191Y-81368514D01*
X65565000Y-81368514D01*
X65565000Y-81631486D01*
X65616304Y-81889405D01*
X65716939Y-82132359D01*
X65863038Y-82351013D01*
X66048987Y-82536962D01*
X66209603Y-82644282D01*
X66165000Y-82868514D01*
X66165000Y-83131486D01*
X66216304Y-83389405D01*
X66316939Y-83632359D01*
X66463038Y-83851013D01*
X66648987Y-84036962D01*
X66867641Y-84183061D01*
X67110595Y-84283696D01*
X67368514Y-84335000D01*
X67631486Y-84335000D01*
X67889405Y-84283696D01*
X67911847Y-84274400D01*
X67963038Y-84351013D01*
X68148987Y-84536962D01*
X68367641Y-84683061D01*
X68610595Y-84783696D01*
X68868514Y-84835000D01*
X69131486Y-84835000D01*
X69389405Y-84783696D01*
X69632359Y-84683061D01*
X69851013Y-84536962D01*
X70036962Y-84351013D01*
X70183061Y-84132359D01*
X70283696Y-83889405D01*
X70335000Y-83631486D01*
X70335000Y-83368514D01*
X70283696Y-83110595D01*
X70183061Y-82867641D01*
X70036962Y-82648987D01*
X69851013Y-82463038D01*
X69632359Y-82316939D01*
X69389405Y-82216304D01*
X69131486Y-82165000D01*
X68868514Y-82165000D01*
X68610595Y-82216304D01*
X68588153Y-82225600D01*
X68536962Y-82148987D01*
X68351013Y-81963038D01*
X68190397Y-81855718D01*
X68235000Y-81631486D01*
X68235000Y-81368514D01*
X68183696Y-81110595D01*
X68083061Y-80867641D01*
X67936962Y-80648987D01*
X67751013Y-80463038D01*
X67532359Y-80316939D01*
X67289405Y-80216304D01*
X67031486Y-80165000D01*
X66768514Y-80165000D01*
X66510595Y-80216304D01*
X66267641Y-80316939D01*
X66048987Y-80463038D01*
X65863038Y-80648987D01*
X65716939Y-80867641D01*
X65616304Y-81110595D01*
X65565000Y-81368514D01*
X62130191Y-81368514D01*
X62036962Y-81228987D01*
X61851013Y-81043038D01*
X61632359Y-80896939D01*
X61389405Y-80796304D01*
X61131486Y-80745000D01*
X60868514Y-80745000D01*
X60610595Y-80796304D01*
X60367641Y-80896939D01*
X60148987Y-81043038D01*
X59963038Y-81228987D01*
X59816939Y-81447641D01*
X59716304Y-81690595D01*
X59665000Y-81948514D01*
X58335000Y-81948514D01*
X58283696Y-81690595D01*
X58183061Y-81447641D01*
X58036962Y-81228987D01*
X57851013Y-81043038D01*
X57632359Y-80896939D01*
X57389405Y-80796304D01*
X57131486Y-80745000D01*
X56868514Y-80745000D01*
X56610595Y-80796304D01*
X56367641Y-80896939D01*
X56148987Y-81043038D01*
X55963038Y-81228987D01*
X55816939Y-81447641D01*
X55716304Y-81690595D01*
X55665000Y-81948514D01*
X52660000Y-81948514D01*
X52660000Y-79268514D01*
X67665000Y-79268514D01*
X67665000Y-79531486D01*
X67716304Y-79789405D01*
X67816939Y-80032359D01*
X67963038Y-80251013D01*
X68148987Y-80436962D01*
X68367641Y-80583061D01*
X68610595Y-80683696D01*
X68868514Y-80735000D01*
X69131486Y-80735000D01*
X69355718Y-80690397D01*
X69463038Y-80851013D01*
X69648987Y-81036962D01*
X69792045Y-81132550D01*
X69765000Y-81268514D01*
X69765000Y-81531486D01*
X69816304Y-81789405D01*
X69916939Y-82032359D01*
X70063038Y-82251013D01*
X70248987Y-82436962D01*
X70467641Y-82583061D01*
X70710595Y-82683696D01*
X70968514Y-82735000D01*
X71231486Y-82735000D01*
X71489405Y-82683696D01*
X71732359Y-82583061D01*
X71951013Y-82436962D01*
X72136962Y-82251013D01*
X72283061Y-82032359D01*
X72350927Y-81868514D01*
X76165000Y-81868514D01*
X76165000Y-82131486D01*
X76216304Y-82389405D01*
X76316939Y-82632359D01*
X76463038Y-82851013D01*
X76648987Y-83036962D01*
X76867641Y-83183061D01*
X77110595Y-83283696D01*
X77368514Y-83335000D01*
X77631486Y-83335000D01*
X77889405Y-83283696D01*
X78132359Y-83183061D01*
X78351013Y-83036962D01*
X78536962Y-82851013D01*
X78683061Y-82632359D01*
X78783696Y-82389405D01*
X78835000Y-82131486D01*
X78835000Y-81868514D01*
X80165000Y-81868514D01*
X80165000Y-82131486D01*
X80216304Y-82389405D01*
X80316939Y-82632359D01*
X80463038Y-82851013D01*
X80648987Y-83036962D01*
X80867641Y-83183061D01*
X81110595Y-83283696D01*
X81368514Y-83335000D01*
X81631486Y-83335000D01*
X81889405Y-83283696D01*
X82132359Y-83183061D01*
X82351013Y-83036962D01*
X82536962Y-82851013D01*
X82683061Y-82632359D01*
X82783696Y-82389405D01*
X82835000Y-82131486D01*
X82835000Y-81868514D01*
X82783696Y-81610595D01*
X82683061Y-81367641D01*
X82536962Y-81148987D01*
X82351013Y-80963038D01*
X82132359Y-80816939D01*
X81889405Y-80716304D01*
X81631486Y-80665000D01*
X81368514Y-80665000D01*
X81110595Y-80716304D01*
X80867641Y-80816939D01*
X80648987Y-80963038D01*
X80463038Y-81148987D01*
X80316939Y-81367641D01*
X80216304Y-81610595D01*
X80165000Y-81868514D01*
X78835000Y-81868514D01*
X78783696Y-81610595D01*
X78683061Y-81367641D01*
X78536962Y-81148987D01*
X78351013Y-80963038D01*
X78132359Y-80816939D01*
X77889405Y-80716304D01*
X77631486Y-80665000D01*
X77368514Y-80665000D01*
X77110595Y-80716304D01*
X76867641Y-80816939D01*
X76648987Y-80963038D01*
X76463038Y-81148987D01*
X76316939Y-81367641D01*
X76216304Y-81610595D01*
X76165000Y-81868514D01*
X72350927Y-81868514D01*
X72383696Y-81789405D01*
X72435000Y-81531486D01*
X72435000Y-81268514D01*
X72383696Y-81010595D01*
X72283061Y-80767641D01*
X72136962Y-80548987D01*
X71951013Y-80363038D01*
X71807955Y-80267450D01*
X71835000Y-80131486D01*
X71835000Y-79868514D01*
X71783696Y-79610595D01*
X71683061Y-79367641D01*
X71536962Y-79148987D01*
X71351013Y-78963038D01*
X71132359Y-78816939D01*
X70889405Y-78716304D01*
X70631486Y-78665000D01*
X70368514Y-78665000D01*
X70144282Y-78709603D01*
X70036962Y-78548987D01*
X69851013Y-78363038D01*
X69632359Y-78216939D01*
X69389405Y-78116304D01*
X69131486Y-78065000D01*
X68868514Y-78065000D01*
X68610595Y-78116304D01*
X68367641Y-78216939D01*
X68148987Y-78363038D01*
X67963038Y-78548987D01*
X67816939Y-78767641D01*
X67716304Y-79010595D01*
X67665000Y-79268514D01*
X52660000Y-79268514D01*
X52660000Y-76868514D01*
X55665000Y-76868514D01*
X55665000Y-77131486D01*
X55716304Y-77389405D01*
X55816939Y-77632359D01*
X55963038Y-77851013D01*
X56148987Y-78036962D01*
X56367641Y-78183061D01*
X56610595Y-78283696D01*
X56868514Y-78335000D01*
X57131486Y-78335000D01*
X57389405Y-78283696D01*
X57632359Y-78183061D01*
X57851013Y-78036962D01*
X58036962Y-77851013D01*
X58183061Y-77632359D01*
X58283696Y-77389405D01*
X58335000Y-77131486D01*
X58335000Y-76868514D01*
X59665000Y-76868514D01*
X59665000Y-77131486D01*
X59716304Y-77389405D01*
X59816939Y-77632359D01*
X59963038Y-77851013D01*
X60148987Y-78036962D01*
X60367641Y-78183061D01*
X60610595Y-78283696D01*
X60868514Y-78335000D01*
X61131486Y-78335000D01*
X61389405Y-78283696D01*
X61632359Y-78183061D01*
X61851013Y-78036962D01*
X62036962Y-77851013D01*
X62183061Y-77632359D01*
X62283696Y-77389405D01*
X62335000Y-77131486D01*
X62335000Y-76868514D01*
X62319087Y-76788514D01*
X76165000Y-76788514D01*
X76165000Y-77051486D01*
X76216304Y-77309405D01*
X76316939Y-77552359D01*
X76463038Y-77771013D01*
X76648987Y-77956962D01*
X76867641Y-78103061D01*
X77110595Y-78203696D01*
X77368514Y-78255000D01*
X77631486Y-78255000D01*
X77889405Y-78203696D01*
X78132359Y-78103061D01*
X78351013Y-77956962D01*
X78536962Y-77771013D01*
X78683061Y-77552359D01*
X78783696Y-77309405D01*
X78835000Y-77051486D01*
X78835000Y-76788514D01*
X80165000Y-76788514D01*
X80165000Y-77051486D01*
X80216304Y-77309405D01*
X80316939Y-77552359D01*
X80463038Y-77771013D01*
X80648987Y-77956962D01*
X80867641Y-78103061D01*
X81110595Y-78203696D01*
X81368514Y-78255000D01*
X81631486Y-78255000D01*
X81889405Y-78203696D01*
X82132359Y-78103061D01*
X82351013Y-77956962D01*
X82536962Y-77771013D01*
X82683061Y-77552359D01*
X82783696Y-77309405D01*
X82835000Y-77051486D01*
X82835000Y-76788514D01*
X82783696Y-76530595D01*
X82683061Y-76287641D01*
X82536962Y-76068987D01*
X82351013Y-75883038D01*
X82132359Y-75736939D01*
X81889405Y-75636304D01*
X81631486Y-75585000D01*
X81368514Y-75585000D01*
X81110595Y-75636304D01*
X80867641Y-75736939D01*
X80648987Y-75883038D01*
X80463038Y-76068987D01*
X80316939Y-76287641D01*
X80216304Y-76530595D01*
X80165000Y-76788514D01*
X78835000Y-76788514D01*
X78783696Y-76530595D01*
X78683061Y-76287641D01*
X78536962Y-76068987D01*
X78351013Y-75883038D01*
X78132359Y-75736939D01*
X77889405Y-75636304D01*
X77631486Y-75585000D01*
X77368514Y-75585000D01*
X77110595Y-75636304D01*
X76867641Y-75736939D01*
X76648987Y-75883038D01*
X76463038Y-76068987D01*
X76316939Y-76287641D01*
X76216304Y-76530595D01*
X76165000Y-76788514D01*
X62319087Y-76788514D01*
X62283696Y-76610595D01*
X62183061Y-76367641D01*
X62036962Y-76148987D01*
X61851013Y-75963038D01*
X61632359Y-75816939D01*
X61389405Y-75716304D01*
X61131486Y-75665000D01*
X60868514Y-75665000D01*
X60610595Y-75716304D01*
X60367641Y-75816939D01*
X60148987Y-75963038D01*
X59963038Y-76148987D01*
X59816939Y-76367641D01*
X59716304Y-76610595D01*
X59665000Y-76868514D01*
X58335000Y-76868514D01*
X58283696Y-76610595D01*
X58183061Y-76367641D01*
X58036962Y-76148987D01*
X57851013Y-75963038D01*
X57632359Y-75816939D01*
X57389405Y-75716304D01*
X57131486Y-75665000D01*
X56868514Y-75665000D01*
X56610595Y-75716304D01*
X56367641Y-75816939D01*
X56148987Y-75963038D01*
X55963038Y-76148987D01*
X55816939Y-76367641D01*
X55716304Y-76610595D01*
X55665000Y-76868514D01*
X52660000Y-76868514D01*
X52660000Y-72358665D01*
X58565000Y-72358665D01*
X58565000Y-72641335D01*
X58620147Y-72918574D01*
X58728320Y-73179727D01*
X58885363Y-73414759D01*
X59085241Y-73614637D01*
X59320273Y-73771680D01*
X59581426Y-73879853D01*
X59858665Y-73935000D01*
X60141335Y-73935000D01*
X60418574Y-73879853D01*
X60679727Y-73771680D01*
X60914759Y-73614637D01*
X61114637Y-73414759D01*
X61250000Y-73212173D01*
X61385363Y-73414759D01*
X61585241Y-73614637D01*
X61820273Y-73771680D01*
X62081426Y-73879853D01*
X62358665Y-73935000D01*
X62641335Y-73935000D01*
X62918574Y-73879853D01*
X63179727Y-73771680D01*
X63414759Y-73614637D01*
X63614637Y-73414759D01*
X63771680Y-73179727D01*
X63879853Y-72918574D01*
X63935000Y-72641335D01*
X63935000Y-72368514D01*
X71085000Y-72368514D01*
X71085000Y-72631486D01*
X71136304Y-72889405D01*
X71236939Y-73132359D01*
X71383038Y-73351013D01*
X71568987Y-73536962D01*
X71787641Y-73683061D01*
X72030595Y-73783696D01*
X72288514Y-73835000D01*
X72551486Y-73835000D01*
X72809405Y-73783696D01*
X73052359Y-73683061D01*
X73271013Y-73536962D01*
X73456962Y-73351013D01*
X73603061Y-73132359D01*
X73703696Y-72889405D01*
X73755000Y-72631486D01*
X73755000Y-72368514D01*
X76165000Y-72368514D01*
X76165000Y-72631486D01*
X76216304Y-72889405D01*
X76316939Y-73132359D01*
X76463038Y-73351013D01*
X76648987Y-73536962D01*
X76867641Y-73683061D01*
X77110595Y-73783696D01*
X77368514Y-73835000D01*
X77631486Y-73835000D01*
X77889405Y-73783696D01*
X78132359Y-73683061D01*
X78351013Y-73536962D01*
X78536962Y-73351013D01*
X78683061Y-73132359D01*
X78783696Y-72889405D01*
X78835000Y-72631486D01*
X78835000Y-72368514D01*
X78783696Y-72110595D01*
X78683061Y-71867641D01*
X78536962Y-71648987D01*
X78351013Y-71463038D01*
X78132359Y-71316939D01*
X77889405Y-71216304D01*
X77631486Y-71165000D01*
X77368514Y-71165000D01*
X77110595Y-71216304D01*
X76867641Y-71316939D01*
X76648987Y-71463038D01*
X76463038Y-71648987D01*
X76316939Y-71867641D01*
X76216304Y-72110595D01*
X76165000Y-72368514D01*
X73755000Y-72368514D01*
X73703696Y-72110595D01*
X73603061Y-71867641D01*
X73456962Y-71648987D01*
X73271013Y-71463038D01*
X73052359Y-71316939D01*
X72809405Y-71216304D01*
X72551486Y-71165000D01*
X72288514Y-71165000D01*
X72030595Y-71216304D01*
X71787641Y-71316939D01*
X71568987Y-71463038D01*
X71383038Y-71648987D01*
X71236939Y-71867641D01*
X71136304Y-72110595D01*
X71085000Y-72368514D01*
X63935000Y-72368514D01*
X63935000Y-72358665D01*
X63879853Y-72081426D01*
X63771680Y-71820273D01*
X63614637Y-71585241D01*
X63414759Y-71385363D01*
X63179727Y-71228320D01*
X62918574Y-71120147D01*
X62641335Y-71065000D01*
X62358665Y-71065000D01*
X62081426Y-71120147D01*
X61820273Y-71228320D01*
X61585241Y-71385363D01*
X61385363Y-71585241D01*
X61250000Y-71787827D01*
X61114637Y-71585241D01*
X60914759Y-71385363D01*
X60679727Y-71228320D01*
X60418574Y-71120147D01*
X60141335Y-71065000D01*
X59858665Y-71065000D01*
X59581426Y-71120147D01*
X59320273Y-71228320D01*
X59085241Y-71385363D01*
X58885363Y-71585241D01*
X58728320Y-71820273D01*
X58620147Y-72081426D01*
X58565000Y-72358665D01*
X52660000Y-72358665D01*
X52660000Y-45660000D01*
X54524985Y-45660000D01*
X54299227Y-45753512D01*
G37*
%TD.AperFunction*%
%TD*%
M02*
